<?xml version="1.0" encoding="UTF-8" standalone="no"?>
<!-- Created with Inkscape (http://www.inkscape.org/) -->

<svg
   version="1.1"
   id="svg1977"
   width="546.1333"
   height="546.1333"
   viewBox="0 0 546.1333 546.1333"
   sodipodi:docname="CSSIcon.svg"
   inkscape:version="1.1.2 (0a00cf5339, 2022-02-04)"
   xmlns:inkscape="http://www.inkscape.org/namespaces/inkscape"
   xmlns:sodipodi="http://sodipodi.sourceforge.net/DTD/sodipodi-0.dtd"
   xmlns="http://www.w3.org/2000/svg"
   xmlns:svg="http://www.w3.org/2000/svg">
  <defs
     id="defs1981" />
  <sodipodi:namedview
     id="namedview1979"
     pagecolor="#ffffff"
     bordercolor="#666666"
     borderopacity="1.0"
     inkscape:pageshadow="2"
     inkscape:pageopacity="0.0"
     inkscape:pagecheckerboard="0"
     showgrid="false"
     inkscape:zoom="1.4208985"
     inkscape:cx="272.71476"
     inkscape:cy="273.06665"
     inkscape:window-width="1920"
     inkscape:window-height="1011"
     inkscape:window-x="0"
     inkscape:window-y="0"
     inkscape:window-maximized="1"
     inkscape:current-layer="g1983" />
  <g
     inkscape:groupmode="layer"
     inkscape:label="Image"
     id="g1983">
    <path
       style="display:inline;fill:#2196f3;fill-opacity:1;stroke-width:1"
       d="m 272.13501,546.00892 c -0.36759,-0.0684 -44.07879,-12.31884 -97.13598,-27.22318 C 121.94185,503.88141 78.342813,491.49835 78.112297,491.26783 77.88178,491.03731 68.152312,382.92774 56.491254,251.02436 44.830198,119.12096 34.994694,8.6799995 34.634579,5.5999997 L 33.979824,0 H 273.06665 512.15347 l -0.65585,5.5999997 C 511.1369,8.6799995 501.28728,119.13508 489.60957,251.05573 c -11.67771,131.92064 -21.4127,240.03623 -21.63332,240.25685 -0.22062,0.22062 -44.22477,12.64553 -97.787,27.61092 -53.56223,14.9654 -97.68663,27.15383 -98.05424,27.08542 z m 0.1089,-104.50233 c 1.01415,0.0514 29.09415,-7.41733 62.39999,-16.59709 33.30585,-9.17975 60.96371,-17.05139 61.46194,-17.49252 0.49822,-0.44114 3.24544,-26.89042 6.10494,-58.7762 2.85949,-31.88577 8.79802,-98.53413 13.19673,-148.10746 4.39872,-49.57333 8.26803,-92.41333 8.59847,-95.19999 l 0.60081,-5.06667 H 272.99866 121.39053 l 0.63004,6.13333 c 0.34653,3.37334 1.11377,13.81334 1.70498,23.2 0.59121,9.38667 1.34576,19.55782 1.67677,22.60257 l 0.60183,5.53591 116.85385,-0.64157 116.85385,-0.64156 -0.60607,3.10565 c -0.33333,1.70812 -1.44355,15.42158 -2.46716,30.47437 l -1.86109,27.3687 -13.92211,0.61344 c -7.65716,0.33739 -45.6021,0.86541 -84.3221,1.17337 -38.72,0.30796 -82.65333,0.85777 -97.62962,1.22179 l -27.22962,0.66184 2.89718,26.79608 c 1.59344,14.73784 2.92668,27.51607 2.96276,28.39607 0.0579,1.41354 12.42814,1.55859 106.14642,1.24469 l 106.08085,-0.35531 -0.52699,3.55531 c -0.28984,1.95542 -2.41514,20.78431 -4.72289,41.84198 -2.30775,21.05768 -4.3269,38.3697 -4.487,38.47116 -0.1601,0.10144 -14.95224,4.11246 -32.8714,8.91332 -17.91917,4.80087 -33.27917,8.72929 -34.13334,8.72985 -0.85416,5.5e-4 -16.19302,-3.92155 -34.08635,-8.71578 -17.89333,-4.79424 -32.66961,-8.81096 -32.83617,-8.92607 -0.16657,-0.1151 -1.27238,-10.953 -2.45737,-24.08422 -1.18499,-13.13121 -2.35364,-24.47493 -2.59701,-25.20827 -0.33998,-1.02443 -7.36963,-1.33333 -30.34264,-1.33333 h -29.90014 l 0.0238,2.4 c 0.0131,1.32 1.88103,22.94792 4.15094,48.06205 2.2699,25.11413 4.45775,45.99413 4.86189,46.39999 0.40414,0.40588 27.69621,8.25593 60.64906,17.44457 32.95284,9.18863 60.74403,16.74863 61.75819,16.8 z"
       id="path18736" />
  </g>
</svg>
