<?xml version="1.0" encoding="UTF-8" standalone="no"?>
<!-- Created with Inkscape (http://www.inkscape.org/) -->

<svg
   version="1.1"
   id="svg1200"
   width="500"
   height="500"
   viewBox="0 0 500 500"
   sodipodi:docname="HTMLIcon.svg"
   inkscape:version="1.1.2 (0a00cf5339, 2022-02-04)"
   xmlns:inkscape="http://www.inkscape.org/namespaces/inkscape"
   xmlns:sodipodi="http://sodipodi.sourceforge.net/DTD/sodipodi-0.dtd"
   xmlns="http://www.w3.org/2000/svg"
   xmlns:svg="http://www.w3.org/2000/svg">
  <defs
     id="defs1204" />
  <sodipodi:namedview
     id="namedview1202"
     pagecolor="#ffffff"
     bordercolor="#666666"
     borderopacity="1.0"
     inkscape:pageshadow="2"
     inkscape:pageopacity="0.0"
     inkscape:pagecheckerboard="0"
     showgrid="false"
     inkscape:zoom="1.4208985"
     inkscape:cx="272.71476"
     inkscape:cy="273.06665"
     inkscape:window-width="1920"
     inkscape:window-height="1011"
     inkscape:window-x="0"
     inkscape:window-y="0"
     inkscape:window-maximized="1"
     inkscape:current-layer="g1206" />
  <g
     inkscape:groupmode="layer"
     inkscape:label="Image"
     id="g1206">
    <path
       style="display:inline;fill:#d45500;fill-opacity:1;stroke-width:0.999998"
       d="m 248.99666,494.99967 c -0.28221,-0.0669 -41.96469,-10.31142 -92.62773,-22.76552 -50.66303,-12.4541 -92.639671,-23.10358 -93.2814,-23.66547 -0.703371,-0.6159 -2.93138,-18.43893 -5.609729,-44.87524 C 55.034178,379.57398 45.881602,288.87381 37.138742,202.13753 28.395884,115.40124 20.963042,42.312267 20.621318,39.717591 L 20,35 h 230 230 l -0.633,5.166886 c -0.34816,2.841787 -9.78435,95.683184 -20.96934,206.314214 -15.25005,150.83901 -20.68698,201.42455 -21.7384,202.25572 -0.77117,0.60962 -43.19528,11.29553 -94.2758,23.74647 -51.08053,12.45094 -93.10458,22.58331 -93.3868,22.51638 z m 0.22291,-88.06719 c 0.96924,0.0458 27.29201,-6.15804 58.49503,-13.78636 31.20302,-7.62832 57.51251,-14.13187 58.46552,-14.45235 1.19098,-0.40049 1.91988,-2.03427 2.33125,-5.22534 0.32919,-2.55347 3.82112,-36.6073 7.75988,-75.67518 3.93874,-39.0679 7.16136,-71.92255 7.16136,-73.01035 v -1.97783 l -103.39253,-0.0137 c -56.86589,-0.008 -104.01653,-0.36001 -104.7792,-0.78319 -0.99988,-0.55481 -2.07086,-7.50657 -3.8395,-24.92208 -1.34905,-13.28396 -2.24039,-24.65811 -1.98077,-25.27589 0.37356,-0.88892 23.14531,-1.12323 109.15882,-1.12323 85.71507,0 108.90482,-0.23742 109.71841,-1.12324 0.56739,-0.61778 2.0688,-11.5127 3.33646,-24.21091 1.26768,-12.69823 2.029,-23.71716 1.69183,-24.48654 -0.5508,-1.25684 -15.10454,-1.39889 -143.32324,-1.39889 -129.11045,0 -142.76947,0.13529 -143.33231,1.41958 -0.34218,0.78078 2.69029,34.44416 6.73879,74.80752 4.04852,40.36338 7.58437,74.29777 7.85749,75.40977 l 0.49655,2.02183 h 98.95096 c 55.93124,0 99.19381,0.34409 99.50956,0.79146 0.30725,0.4353 -0.86865,14.89134 -2.6131,32.12455 -2.0113,19.86933 -3.63021,31.75742 -4.42484,32.49289 -0.6892,0.63789 -14.841,4.37766 -31.44843,8.3106 -16.60742,3.93295 -30.9759,7.15142 -31.92993,7.15215 -0.95404,7.4e-4 -15.24789,-3.22873 -31.76413,-7.17659 -16.51622,-3.94785 -30.58841,-7.68822 -31.27153,-8.31195 -0.75859,-0.69261 -1.9031,-8.30403 -2.94046,-19.55508 -0.93415,-10.13159 -2.11913,-19.3309 -2.6333,-20.4429 l -0.93486,-2.02183 -26.9605,0.0137 c -14.82827,0.008 -27.5337,0.33251 -28.23427,0.7221 -0.99982,0.55598 -0.40286,9.28169 2.77549,40.56912 2.64615,26.0485 4.4669,40.08678 5.2545,40.513 0.66286,0.35872 8.88084,2.5342 18.26218,4.8344 9.38133,2.3002 34.83638,8.57537 56.56677,13.94481 21.73038,5.36945 40.30281,9.80012 41.27205,9.84594 z"
       id="path1593" />
  </g>
</svg>
