<?xml version="1.0" encoding="UTF-8" standalone="no"?>
<!-- Created with Inkscape (http://www.inkscape.org/) -->

<svg
   version="1.1"
   id="svg1200"
   width="546.1333"
   height="546.1333"
   viewBox="0 0 546.1333 546.1333"
   sodipodi:docname="HTMLIcon.svg"
   inkscape:version="1.1.2 (0a00cf5339, 2022-02-04)"
   xmlns:inkscape="http://www.inkscape.org/namespaces/inkscape"
   xmlns:sodipodi="http://sodipodi.sourceforge.net/DTD/sodipodi-0.dtd"
   xmlns="http://www.w3.org/2000/svg"
   xmlns:svg="http://www.w3.org/2000/svg">
  <defs
     id="defs1204" />
  <sodipodi:namedview
     id="namedview1202"
     pagecolor="#ffffff"
     bordercolor="#666666"
     borderopacity="1.0"
     inkscape:pageshadow="2"
     inkscape:pageopacity="0.0"
     inkscape:pagecheckerboard="0"
     showgrid="false"
     inkscape:zoom="1.4208985"
     inkscape:cx="272.71476"
     inkscape:cy="273.06665"
     inkscape:window-width="1920"
     inkscape:window-height="1011"
     inkscape:window-x="0"
     inkscape:window-y="0"
     inkscape:window-maximized="1"
     inkscape:current-layer="g1206" />
  <g
     inkscape:groupmode="layer"
     inkscape:label="Image"
     id="g1206">
    <path
       style="display:inline;fill:#d45500;stroke-width:1;fill-opacity:1"
       d="M 271.99998,546.04092 C 271.70665,545.96146 228.38169,533.80079 175.7223,519.01719 123.06292,504.2336 79.432213,491.59218 78.765197,490.92518 78.03411,490.19408 75.718307,469.03732 72.934419,437.6562 70.394507,409.02528 60.881278,301.35998 51.79391,198.39999 42.706544,95.439994 34.980814,8.6799995 34.625625,5.5999997 L 33.979824,0 H 273.04286 512.1059 l -0.65795,6.133333 c -0.36188,3.3733331 -10.1699,113.580377 -21.79562,244.904537 -15.85098,179.05289 -21.50214,239.10027 -22.595,240.08691 -0.80155,0.72364 -44.89736,13.40831 -97.99069,28.18815 -53.09333,14.77985 -96.77332,26.80744 -97.06666,26.72799 z m 0.23169,-104.53983 c 1.00744,0.0544 28.36744,-7.30988 60.8,-16.36505 32.43256,-9.05517 59.77877,-16.77519 60.76933,-17.15561 1.23791,-0.4754 1.99553,-2.41477 2.42311,-6.20272 0.34216,-3.03109 3.97169,-43.45456 8.06565,-89.82995 4.09395,-46.3754 7.44355,-85.3754 7.44355,-86.66666 v -2.34778 L 304.26665,222.917 c -59.10666,-0.009 -108.11525,-0.42735 -108.90797,-0.92969 -1.03928,-0.65858 -2.15246,-8.91064 -3.99079,-29.58366 -1.40221,-15.76867 -2.32868,-29.27032 -2.05883,-30.00365 0.38828,-1.05519 24.05734,-1.33333 113.46017,-1.33333 89.09263,0 113.19616,-0.28182 114.04181,-1.33334 0.58975,-0.73333 2.15032,-13.6661 3.46794,-28.73947 1.31763,-15.07338 2.10895,-28.15337 1.75849,-29.06666 -0.5725,-1.49192 -15.69973,-1.66054 -148.97082,-1.66054 -134.19799,0 -148.39523,0.16059 -148.98025,1.68511 -0.35566,0.92682 2.7963,40.88681 7.00433,88.79999 4.20805,47.9132 7.88323,88.19489 8.16711,89.51489 l 0.51612,2.4 h 102.85007 c 58.13518,0 103.10249,0.40846 103.43069,0.9395 0.31935,0.51672 -0.90288,17.67672 -2.71607,38.13333 -2.09056,23.58582 -3.77326,37.69753 -4.5992,38.57057 -0.71636,0.7572 -15.4258,5.19649 -32.68764,9.86507 -17.26183,4.66859 -32.19649,8.48906 -33.18811,8.48993 -0.99164,8.8e-4 -15.84873,-3.83265 -33.01578,-8.51894 -17.16704,-4.68628 -31.79374,-9.12628 -32.50377,-9.86667 -0.78849,-0.82217 -1.9781,-9.85727 -3.05633,-23.21279 -0.97096,-12.02667 -2.20264,-22.94667 -2.73707,-24.26667 l -0.97169,-2.4 -28.02287,0.0163 c -15.41257,0.009 -28.61865,0.39471 -29.34683,0.85717 -1.03921,0.65998 -0.41873,11.0178 2.88486,48.15742 2.75042,30.92078 4.64292,47.58487 5.46155,48.09081 0.68898,0.42582 9.23079,3.00822 18.98179,5.73866 9.751,2.73044 36.20909,10.17936 58.79576,16.55314 22.58666,6.37378 41.89092,11.63319 42.89835,11.68758 z"
       id="path1593" />
  </g>
</svg>
