<?xml version="1.0" encoding="UTF-8" standalone="no"?>
<!-- Created with Inkscape (http://www.inkscape.org/) -->

<svg
   version="1.1"
   id="svg2044"
   width="1200"
   height="1360"
   viewBox="0 0 1200 1360"
   sodipodi:docname="JSIcon.svg"
   inkscape:version="1.1.2 (0a00cf5339, 2022-02-04)"
   xmlns:inkscape="http://www.inkscape.org/namespaces/inkscape"
   xmlns:sodipodi="http://sodipodi.sourceforge.net/DTD/sodipodi-0.dtd"
   xmlns="http://www.w3.org/2000/svg"
   xmlns:svg="http://www.w3.org/2000/svg">
  <defs
     id="defs2048" />
  <sodipodi:namedview
     id="namedview2046"
     pagecolor="#ffffff"
     bordercolor="#666666"
     borderopacity="1.0"
     inkscape:pageshadow="2"
     inkscape:pageopacity="0.0"
     inkscape:pagecheckerboard="0"
     showgrid="false"
     inkscape:zoom="0.57058824"
     inkscape:cx="600.25773"
     inkscape:cy="680"
     inkscape:window-width="1920"
     inkscape:window-height="1011"
     inkscape:window-x="0"
     inkscape:window-y="0"
     inkscape:window-maximized="1"
     inkscape:current-layer="g2050" />
  <g
     inkscape:groupmode="layer"
     inkscape:label="Image"
     id="g2050">
    <path
       style="display:inline;fill:#d4b830;fill-opacity:1;stroke-width:1"
       d="m 599.88585,1358.8057 c -0.97793,1.5444 -1.18182,1.5511 -1.19877,0.039 -0.0133,-1.1631 -0.98565,-1.5699 -2.68892,-1.1244 -1.66427,0.4352 -2.34208,0.1697 -1.80113,-0.7056 0.57382,-0.9284 -0.36588,-1.0939 -2.77655,-0.4889 -2.65841,0.6673 -3.37701,0.4828 -2.65704,-0.6822 0.69301,-1.1213 0.13013,-1.3728 -1.89012,-0.8445 -1.82464,0.4772 -2.55999,0.2395 -2.01033,-0.6499 0.55612,-0.8998 -0.38435,-1.1632 -2.62447,-0.7349 -2.13809,0.4087 -3.17133,0.1499 -2.66596,-0.6679 0.52221,-0.8449 -0.51269,-0.9993 -2.81875,-0.4206 -2.65841,0.6673 -3.37701,0.4828 -2.65704,-0.6822 0.69302,-1.1213 0.13014,-1.3728 -1.89012,-0.8445 -1.82593,0.4775 -2.56012,0.2396 -2.00962,-0.6511 0.57382,-0.9284 -0.36588,-1.0938 -2.77655,-0.4889 -2.65841,0.6673 -3.37701,0.4828 -2.65704,-0.6821 0.69293,-1.1212 0.13053,-1.373 -1.88828,-0.845 -1.58133,0.4135 -2.87516,0.138 -2.87516,-0.6122 0,-0.7502 -1.20083,-1.0499 -2.66851,-0.6662 -1.6806,0.4395 -2.34384,0.1726 -1.7915,-0.7212 0.56189,-0.9092 -0.15604,-1.1488 -1.99816,-0.667 -1.58134,0.4134 -2.87516,0.138 -2.87516,-0.6123 0,-0.7501 -1.20083,-1.0499 -2.66851,-0.6661 -1.66305,0.4349 -2.34196,0.1694 -1.80184,-0.7044 0.55612,-0.8999 -0.38435,-1.1632 -2.62447,-0.735 -2.16266,0.4134 -3.17348,0.1534 -2.65634,-0.6834 0.51158,-0.8278 -0.2784,-1.0596 -2.04035,-0.5988 -1.58133,0.4134 -2.87516,0.138 -2.87516,-0.6123 0,-0.7501 -1.20083,-1.0499 -2.66851,-0.6661 -1.6806,0.4394 -2.34384,0.1725 -1.7915,-0.7212 0.56189,-0.9092 -0.15604,-1.1488 -1.99816,-0.6671 -1.58134,0.4135 -2.87516,0.138 -2.87516,-0.6123 0,-0.7501 -1.20083,-1.0498 -2.66851,-0.6661 -1.66427,0.4352 -2.34208,0.1697 -1.80113,-0.7056 0.57382,-0.9284 -0.36588,-1.0939 -2.77655,-0.4889 -2.65841,0.6673 -3.37701,0.4828 -2.65704,-0.6822 0.69293,-1.1212 0.13053,-1.3729 -1.88828,-0.8449 -1.58133,0.4135 -2.87516,0.138 -2.87516,-0.6123 0,-0.7501 -1.20083,-1.0498 -2.66851,-0.6661 -1.66426,0.4352 -2.34208,0.1697 -1.80113,-0.7056 0.57383,-0.9285 -0.36588,-1.0939 -2.77655,-0.4889 -2.65841,0.6672 -3.37701,0.4827 -2.65704,-0.6822 0.69302,-1.1213 0.13014,-1.3728 -1.89012,-0.8445 -1.82464,0.4772 -2.55998,0.2394 -2.01033,-0.6499 0.55612,-0.8998 -0.38435,-1.1632 -2.62447,-0.735 -2.16266,0.4135 -3.17348,0.1534 -2.65634,-0.6833 0.51166,-0.8279 -0.27886,-1.0596 -2.04219,-0.5984 -1.82464,0.4771 -2.55999,0.2394 -2.01033,-0.65 0.55612,-0.8998 -0.38435,-1.1632 -2.62447,-0.7349 -2.13809,0.4087 -3.17133,0.1499 -2.66596,-0.6678 0.52221,-0.845 -0.51269,-0.9994 -2.81875,-0.4206 -2.65841,0.6672 -3.37701,0.4827 -2.65704,-0.6823 0.69302,-1.1213 0.13014,-1.3728 -1.89012,-0.8444 -1.82593,0.4775 -2.56012,0.2396 -2.00962,-0.6511 0.57382,-0.9285 -0.36588,-1.094 -2.77655,-0.4889 -2.65841,0.6672 -3.37701,0.4827 -2.65704,-0.6823 0.69293,-1.1211 0.13053,-1.3728 -1.88828,-0.8449 -1.58133,0.4135 -2.87516,0.1381 -2.87516,-0.6121 0,-0.7502 -1.20083,-1.05 -2.66851,-0.6662 -1.66426,0.4352 -2.34208,0.1696 -1.80113,-0.7056 0.57383,-0.9285 -0.36588,-1.094 -2.77655,-0.4889 -2.65841,0.6672 -3.37701,0.4827 -2.65704,-0.6823 0.69302,-1.1213 0.13014,-1.3727 -1.89012,-0.8444 -1.82464,0.4771 -2.55998,0.2394 -2.01033,-0.65 0.55612,-0.8998 -0.38435,-1.1631 -2.62447,-0.7349 -2.16266,0.4134 -3.17348,0.1534 -2.65634,-0.6834 0.51158,-0.8277 -0.2784,-1.0596 -2.04035,-0.5989 -1.58133,0.4136 -2.87516,0.1381 -2.87516,-0.6121 0,-0.7502 -1.20083,-1.05 -2.66851,-0.6662 -1.6806,0.4395 -2.34384,0.1725 -1.7915,-0.7212 0.56189,-0.9091 -0.15604,-1.1489 -1.99816,-0.6671 -1.58134,0.4135 -2.87516,0.138 -2.87516,-0.6122 0,-0.7502 -1.20083,-1.05 -2.66851,-0.6662 -1.66305,0.4349 -2.34196,0.1695 -1.80184,-0.7044 0.55612,-0.8998 -0.38435,-1.1632 -2.62447,-0.735 -2.16266,0.4135 -3.17348,0.1534 -2.65634,-0.6833 0.51158,-0.8278 -0.2784,-1.0597 -2.04035,-0.5989 -1.58133,0.4135 -2.87516,0.138 -2.87516,-0.6122 0,-0.7502 -1.20083,-1.05 -2.66851,-0.6662 -1.66426,0.4353 -2.34208,0.1697 -1.80113,-0.7056 0.57383,-0.9284 -0.36588,-1.0939 -2.77655,-0.4888 -2.65841,0.6672 -3.37701,0.4827 -2.65704,-0.6823 0.69302,-1.1213 0.13014,-1.3728 -1.89012,-0.8444 -1.82464,0.4771 -2.55998,0.2394 -2.01033,-0.65 0.55612,-0.8998 -0.38435,-1.1632 -2.62447,-0.7349 -2.16266,0.4134 -3.17348,0.1533 -2.65634,-0.6834 0.51166,-0.8279 -0.27886,-1.0595 -2.04219,-0.5984 -1.82464,0.4771 -2.55999,0.2394 -2.01033,-0.65 0.55612,-0.8998 -0.38435,-1.1631 -2.62447,-0.7349 -2.13809,0.4087 -3.17133,0.1499 -2.66596,-0.6678 0.52221,-0.845 -0.51269,-0.9994 -2.81875,-0.4206 -2.65841,0.6672 -3.37701,0.4827 -2.65704,-0.6823 0.69302,-1.1213 0.13014,-1.3727 -1.89012,-0.8444 -1.82464,0.4771 -2.55998,0.2394 -2.01033,-0.65 0.55612,-0.8998 -0.38435,-1.1631 -2.62447,-0.7349 -2.16266,0.4134 -3.17348,0.1534 -2.65634,-0.6834 0.51166,-0.8279 -0.27886,-1.0595 -2.04219,-0.5984 -1.82464,0.4772 -2.55999,0.2394 -2.01033,-0.6499 0.55612,-0.8998 -0.38435,-1.1632 -2.62447,-0.735 -2.13809,0.4088 -3.17133,0.1499 -2.66596,-0.6678 0.52221,-0.8449 -0.51269,-0.9994 -2.81875,-0.4206 -2.65841,0.6672 -3.37701,0.4827 -2.65704,-0.6822 0.69302,-1.1213 0.13014,-1.3728 -1.89012,-0.8445 -1.82464,0.4772 -2.55998,0.2394 -2.01033,-0.6499 0.55612,-0.8998 -0.38435,-1.1632 -2.62447,-0.735 -2.16266,0.4135 -3.17348,0.1534 -2.65634,-0.6833 0.51158,-0.8278 -0.2784,-1.0597 -2.04035,-0.5989 -1.58133,0.4135 -2.87516,0.138 -2.87516,-0.6122 0,-0.7502 -1.20083,-1.05 -2.66851,-0.6662 -1.66426,0.4353 -2.34208,0.1697 -1.80113,-0.7056 0.57383,-0.9284 -0.36588,-1.0939 -2.77655,-0.4888 -2.65841,0.6672 -3.37701,0.4827 -2.65704,-0.6823 0.69302,-1.1213 0.13014,-1.3728 -1.89012,-0.8444 -1.82464,0.4771 -2.55998,0.2394 -2.01033,-0.65 0.55612,-0.8998 -0.38435,-1.1632 -2.62447,-0.7349 -2.16266,0.4134 -3.17348,0.1533 -2.65634,-0.6834 0.51166,-0.8279 -0.27886,-1.0595 -2.04219,-0.5984 -1.82464,0.4771 -2.55999,0.2394 -2.01033,-0.65 0.55612,-0.8998 -0.38435,-1.1631 -2.62447,-0.7349 -2.13809,0.4087 -3.17133,0.1499 -2.66596,-0.6678 0.52221,-0.845 -0.51269,-0.9994 -2.81875,-0.4206 -2.65841,0.6672 -3.37701,0.4827 -2.65704,-0.6823 0.69302,-1.1213 0.13014,-1.3727 -1.89012,-0.8444 -1.82464,0.4771 -2.55998,0.2394 -2.01033,-0.65 0.55612,-0.8998 -0.38435,-1.1631 -2.62447,-0.7349 -2.16266,0.4134 -3.17348,0.1534 -2.65634,-0.6834 0.51158,-0.8277 -0.2784,-1.0596 -2.04035,-0.5989 -1.58133,0.4136 -2.87516,0.1381 -2.87516,-0.6121 0,-0.7502 -1.20083,-1.05 -2.66851,-0.6662 -1.66426,0.4352 -2.34208,0.1697 -1.80113,-0.7056 0.57383,-0.9285 -0.36588,-1.0939 -2.77655,-0.4889 -2.65841,0.6672 -3.37701,0.4827 -2.65704,-0.6822 0.69302,-1.1213 0.13014,-1.3728 -1.89012,-0.8445 -1.82464,0.4772 -2.55998,0.2394 -2.01033,-0.6499 0.55612,-0.8998 -0.38435,-1.1632 -2.62447,-0.735 -2.16266,0.4135 -3.17348,0.1534 -2.65634,-0.6833 0.51166,-0.8279 -0.27886,-1.0596 -2.04219,-0.5984 -1.82464,0.4771 -2.55999,0.2394 -2.01033,-0.65 0.55612,-0.8998 -0.38435,-1.1632 -2.62447,-0.7349 -2.13809,0.4087 -3.17133,0.1499 -2.66596,-0.6678 0.52221,-0.845 -0.51269,-0.9994 -2.81875,-0.4206 -2.65841,0.6672 -3.37701,0.4827 -2.65704,-0.6823 0.69302,-1.1213 0.13014,-1.3728 -1.89012,-0.8444 -1.82464,0.4771 -2.55998,0.2394 -2.01033,-0.65 0.55612,-0.8998 -0.38435,-1.1632 -2.62447,-0.7349 -2.16266,0.4134 -3.17348,0.1533 -2.65634,-0.6834 0.51158,-0.8278 -0.2784,-1.0596 -2.04035,-0.5989 -1.58133,0.4135 -2.87516,0.1381 -2.87516,-0.6121 0,-0.7502 -1.20083,-1.05 -2.66851,-0.6662 -1.66426,0.4352 -2.34208,0.1696 -1.80113,-0.7056 0.57383,-0.9285 -0.36588,-1.094 -2.77655,-0.4889 -2.65841,0.6672 -3.37701,0.4827 -2.65704,-0.6823 0.69302,-1.1213 0.13014,-1.3727 -1.89012,-0.8444 -1.82464,0.4771 -2.55998,0.2394 -2.01033,-0.65 0.55612,-0.8998 -0.38435,-1.1631 -2.62447,-0.7349 -2.13809,0.4087 -3.17133,0.1499 -2.66596,-0.6678 0.52222,-0.845 -0.51269,-0.9994 -2.81874,-0.4206 -2.65842,0.6672 -3.37702,0.4827 -2.65704,-0.6823 0.69301,-1.1213 0.13013,-1.3727 -1.89012,-0.8444 -1.82594,0.4775 -2.56012,0.2396 -2.00963,-0.6511 0.57383,-0.9285 -0.36588,-1.0939 -2.77655,-0.4889 -2.65841,0.6672 -3.37701,0.4827 -2.65704,-0.6822 0.69302,-1.1213 0.13014,-1.3728 -1.89012,-0.8445 -1.82464,0.4772 -2.55998,0.2394 -2.01033,-0.6499 0.55612,-0.8998 -0.38435,-1.1632 -2.62447,-0.735 -2.13809,0.4088 -3.17133,0.1499 -2.66596,-0.6678 0.52339,-0.8468 -0.58858,-1.0054 -3.04036,-0.4335 -3.00842,0.7017 -3.42206,0.5738 -1.86553,-0.5766 1.59833,-1.1814 1.27172,-1.3621 -1.62632,-0.8998 -2.20741,0.3521 -3.30344,0.056 -2.80112,-0.7567 0.52221,-0.845 -0.51269,-0.9994 -2.81875,-0.4206 -2.65841,0.6672 -3.37701,0.4827 -2.65704,-0.6823 0.69302,-1.1213 0.13014,-1.3728 -1.89012,-0.8444 -1.82464,0.4771 -2.55998,0.2394 -2.01033,-0.65 0.55612,-0.8998 -0.38435,-1.1632 -2.62447,-0.7349 -2.16266,0.4134 -3.17348,0.1533 -2.65634,-0.6834 0.51166,-0.8279 -0.27886,-1.0595 -2.04219,-0.5984 -1.82464,0.4771 -2.55999,0.2394 -2.01033,-0.65 0.55612,-0.8998 -0.38435,-1.1631 -2.62447,-0.7349 -2.13809,0.4087 -3.17133,0.1499 -2.66596,-0.6678 0.52221,-0.845 -0.51269,-0.9994 -2.81875,-0.4206 -2.65841,0.6672 -3.37701,0.4827 -2.65704,-0.6823 0.69302,-1.1213 0.13014,-1.3727 -1.89012,-0.8444 -1.82464,0.4771 -2.55998,0.2394 -2.01033,-0.65 0.55612,-0.8998 -0.38435,-1.1631 -2.62447,-0.7349 -2.16266,0.4134 -3.17348,0.1534 -2.65634,-0.6834 0.51166,-0.8279 -0.27886,-1.0595 -2.04219,-0.5984 -1.82464,0.4772 -2.55999,0.2394 -2.01033,-0.6499 0.55612,-0.8998 -0.38435,-1.1632 -2.62447,-0.735 -2.13809,0.4088 -3.17133,0.1499 -2.66596,-0.6678 0.52221,-0.8449 -0.51269,-0.9994 -2.81875,-0.4206 -2.65841,0.6672 -3.37701,0.4827 -2.65704,-0.6822 0.69302,-1.1213 0.13014,-1.3728 -1.89012,-0.8445 -1.82464,0.4772 -2.55998,0.2394 -2.01033,-0.6499 0.55612,-0.8998 -0.38435,-1.1632 -2.62447,-0.735 -2.13809,0.4088 -3.17133,0.1499 -2.66596,-0.6678 0.52222,-0.8449 -0.51269,-0.9994 -2.81874,-0.4206 -2.65842,0.6672 -3.37702,0.4827 -2.65704,-0.6822 0.69301,-1.1213 0.13019,-1.3728 -1.89012,-0.8445 -1.82594,0.4775 -2.56012,0.2397 -2.00963,-0.6511 0.57382,-0.9284 -0.36588,-1.0939 -2.77654,-0.4888 -2.65842,0.6672 -3.37702,0.4827 -2.65704,-0.6823 0.69301,-1.1213 0.13018,-1.3728 -1.89012,-0.8444 -1.58236,0.4137 -2.57962,0.2711 -2.21616,-0.317 0.36347,-0.5881 -0.19694,-1.3984 -1.24535,-1.8007 -1.04841,-0.4023 -2.1675,-0.015 -2.48686,0.8603 -0.31937,0.8754 -0.31286,-2.6083 0.0145,-7.7416 0.38976,-6.1124 0.15826,-8.7098 -0.67081,-7.5265 -0.8306,1.1855 -1.08994,-1.5656 -0.75412,-8 0.33182,-6.3578 0.0999,-8.869 -0.65934,-7.1402 -0.74905,1.7056 -0.95909,-0.9376 -0.58277,-7.3333 0.40408,-6.8676 0.17303,-9.4018 -0.7376,-8.0902 -0.913,1.3149 -1.11847,-0.7615 -0.65969,-6.6667 0.47936,-6.1701 0.27698,-8.0158 -0.72127,-6.5783 -0.99018,1.4259 -1.18011,-0.8653 -0.66317,-8 0.47298,-6.5279 0.28262,-9.371 -0.54846,-8.1913 -0.83952,1.1918 -1.09861,-1.5318 -0.76103,-8 0.34724,-6.6532 0.1175,-8.9493 -0.71444,-7.1402 -0.82444,1.7929 -1.03979,-0.6101 -0.6572,-7.3333 0.3638,-6.3929 0.1479,-9.0381 -0.59854,-7.3333 -0.74911,1.7108 -0.99261,-1.1567 -0.67935,-8 0.31739,-6.9338 0.0745,-9.7335 -0.69412,-8 -0.768319,1.7328 -0.970035,-0.6019 -0.576004,-6.6667 0.407074,-6.2655 0.180564,-8.7237 -0.689116,-7.4787 -0.869308,1.2446 -1.088627,-1.1679 -0.666667,-7.3333 0.411408,-6.0111 0.191118,-8.5633 -0.637116,-7.3811 -0.830601,1.1855 -1.089936,-1.5657 -0.754118,-8 0.327936,-6.2834 0.09572,-8.8488 -0.646316,-7.1402 -0.736587,1.696 -0.98042,-1.216 -0.669878,-8 0.321771,-7.0294 0.0796,-9.7574 -0.710196,-8 -0.794782,1.7684 -0.987648,-0.2526 -0.572584,-6 0.450872,-6.2433 0.237884,-8.108 -0.761696,-6.6686 -0.99018,1.4259 -1.180109,-0.8653 -0.663166,-8 0.484992,-6.6937 0.293958,-9.3851 -0.57801,-8.1434 -0.878288,1.2507 -1.097641,-1.1374 -0.673586,-7.3334 0.421961,-6.1653 0.202642,-8.57782 -0.666667,-7.33329 -0.869308,1.24454 -1.088627,-1.16798 -0.666667,-7.33333 0.411408,-6.01115 0.191118,-8.56327 -0.637116,-7.38115 -0.827466,1.18103 -1.059612,-1.5899 -0.670229,-8 0.349092,-5.74682 0.11612,-9.12844 -0.56274,-8.16816 -0.686008,0.9704 -0.964115,-2.02033 -0.681923,-7.33333 0.318111,-5.98925 0.05209,-8.35544 -0.800144,-7.11736 -0.844861,1.22736 -1.063986,-1.25304 -0.647848,-7.33333 0.411408,-6.01115 0.191118,-8.56327 -0.637116,-7.38115 -0.830601,1.18551 -1.089936,-1.56563 -0.754118,-8 0.336018,-6.43821 0.104586,-8.89087 -0.673768,-7.1402 -0.772618,1.73777 -0.974378,-0.58444 -0.579215,-6.66667 0.434985,-6.69518 0.21514,-8.76854 -0.777773,-7.3352 -0.985712,1.42295 -1.175628,-0.87994 -0.659747,-8 0.437791,-6.04228 0.252208,-9.33406 -0.469048,-8.31976 -0.731841,1.0292 -0.964104,-1.49242 -0.600487,-6.51937 0.379112,-5.24119 0.114494,-7.90205 -0.7337,-7.37784 -0.84989,0.52527 -1.147178,-2.64232 -0.827218,-8.81395 0.325133,-6.27141 0.09069,-8.70314 -0.671712,-6.96721 -0.758159,1.72627 -0.993256,-0.85981 -0.666667,-7.33333 0.322759,-6.39759 0.08729,-9.03936 -0.653648,-7.33334 -0.736587,1.69602 -0.98042,-1.21596 -0.669877,-8 0.313352,-6.84545 0.06987,-9.71136 -0.679687,-8 -0.753912,1.72132 -0.989108,-0.87836 -0.663455,-7.33333 0.330727,-6.55552 0.09612,-9.08147 -0.6811,-7.33333 -0.772617,1.73777 -0.974377,-0.58444 -0.579214,-6.66667 0.39691,-6.10913 0.169064,-8.70915 -0.659566,-7.52647 -0.830601,1.18551 -1.089936,-1.56562 -0.754118,-8 0.351445,-6.73378 0.122546,-8.97124 -0.730487,-7.1402 -0.841259,1.80579 -1.025564,-0.34642 -0.5709,-6.66666 0.440944,-6.12954 0.234008,-8.7131 -0.602847,-7.52647 -0.838261,1.18863 -1.070432,-1.54867 -0.678544,-8 0.349092,-5.74683 0.11612,-9.12844 -0.56274,-8.16816 -0.686008,0.9704 -0.964114,-2.02033 -0.681922,-7.33333 0.31811,-5.98926 0.05209,-8.35544 -0.800144,-7.11736 -0.844862,1.22736 -1.063987,-1.25304 -0.647848,-7.33334 0.411408,-6.01114 0.191117,-8.56326 -0.637116,-7.38114 -0.830602,1.1855 -1.089936,-1.56563 -0.754119,-8 0.336019,-6.43822 0.104587,-8.89087 -0.673768,-7.1402 -0.772617,1.73777 -0.974377,-0.58444 -0.579215,-6.66667 0.44226,-6.80715 0.223796,-8.79201 -0.807144,-7.33333 -1.165993,1.64976 -1.417104,1.46086 -1.433945,-1.0787 -0.0112,-1.69328 0.429583,-2.79969 0.979583,-2.45872 0.55,0.34099 0.786514,-2.40629 0.525589,-6.10506 -0.312664,-4.43219 -0.863927,-6.09478 -1.616879,-4.87648 -0.660424,1.06858 -0.836816,-2.36999 -0.418057,-8.14958 0.472977,-6.5279 0.282613,-9.37098 -0.548459,-8.19126 -0.839525,1.19172 -1.098618,-1.53186 -0.761038,-8 0.336018,-6.43822 0.104586,-8.89087 -0.673768,-7.1402 -0.76205,1.71401 -0.933923,-0.62055 -0.481106,-6.53484 0.437136,-5.70951 0.219435,-8.90172 -0.573648,-8.41158 -0.782012,0.48332 -1.084446,-2.4144 -0.779137,-7.46516 0.364572,-6.03114 0.122067,-7.71629 -0.900161,-6.25509 -1.151022,1.64529 -1.40279,1.45399 -1.419586,-1.07869 -0.0112,-1.69328 0.429583,-2.79918 0.979583,-2.45756 0.55,0.34162 0.789405,-2.71034 0.532011,-6.78212 -0.277039,-4.38256 -0.900587,-6.7033 -1.528222,-5.68776 -0.583128,0.94352 -0.777257,-2.41911 -0.431398,-7.47252 0.401732,-5.86976 0.181008,-8.55063 -0.611166,-7.42314 -0.79513,1.1317 -1.082012,-1.9776 -0.799634,-8.66666 0.291216,-6.89844 0.05835,-9.30256 -0.687571,-7.09822 -0.738011,2.18102 -0.964836,-0.3541 -0.656136,-7.33333 0.319804,-7.23029 0.09543,-9.5928 -0.696473,-7.33333 -0.76899,2.19409 -0.91678,0.18562 -0.432428,-5.87664 0.543024,-6.79659 0.330796,-8.95963 -0.809903,-8.25464 -0.928835,0.57418 -1.545743,0.0944 -1.545743,-1.20192 0,-1.18656 0.45,-1.87787 1,-1.53626 0.55,0.34163 0.789406,-2.71033 0.532011,-6.78212 -0.277039,-4.38256 -0.900587,-6.70329 -1.528221,-5.68776 -0.583128,0.94352 -0.777258,-2.4191 -0.431399,-7.47252 0.411408,-6.01114 0.191117,-8.56326 -0.637116,-7.38114 -0.830601,1.1855 -1.089936,-1.56563 -0.754119,-8 0.327936,-6.28335 0.09572,-8.84876 -0.646316,-7.1402 -0.740846,1.70581 -0.997458,-1.17672 -0.712182,-8 0.297053,-7.10496 0.06457,-9.55364 -0.696227,-7.33334 -0.757445,2.21051 -0.963489,-0.0352 -0.61168,-6.66666 0.360932,-6.8035 0.135507,-9.1476 -0.705225,-7.33334 -0.828479,1.78783 -1.02021,-0.629 -0.581766,-7.33333 0.428342,-6.54987 0.214814,-9.3766 -0.618898,-8.19313 -0.839526,1.19172 -1.098619,-1.53186 -0.761039,-8 0.331823,-6.35782 0.09993,-8.86902 -0.659335,-7.1402 -0.749049,1.70553 -0.959097,-0.93759 -0.582777,-7.33334 0.354415,-6.02346 0.117973,-9.33258 -0.594588,-8.32162 -0.718268,1.01906 -0.95004,-1.54195 -0.590004,-6.51938 0.386379,-5.34164 0.12188,-7.90661 -0.759168,-7.36209 -0.884773,0.54681 -1.140473,-2.26928 -0.739765,-8.14729 0.41161,-6.03794 0.187652,-8.37491 -0.683128,-7.12827 -0.869308,1.24453 -1.088627,-1.16799 -0.666667,-7.33333 0.421961,-6.16535 0.202643,-8.57787 -0.666667,-7.33334 -0.869308,1.24454 -1.088626,-1.16798 -0.666666,-7.33333 0.401732,-5.86976 0.181008,-8.55063 -0.611166,-7.42313 -0.79513,1.13169 -1.082012,-1.9776 -0.799634,-8.66667 0.298789,-7.07784 0.06816,-9.35989 -0.717376,-7.09821 -0.754146,2.1713 -0.901223,0.12266 -0.421899,-5.87664 0.497408,-6.22566 0.285168,-8.93143 -0.654997,-8.35038 -0.934848,0.57776 -1.190072,-2.0855 -0.778467,-8.12337 0.401327,-5.88709 0.176081,-8.36024 -0.653577,-7.17608 -0.830602,1.18551 -1.089936,-1.56563 -0.754119,-8 0.336019,-6.43821 0.104573,-8.89087 -0.673768,-7.1402 -0.762049,1.71401 -0.933923,-0.62055 -0.481105,-6.53484 0.421114,-5.50024 0.207146,-8.89413 -0.531935,-8.43735 -0.72662,0.44907 -1.102537,-3.17876 -0.911705,-8.79849 0.223829,-6.59143 -0.02583,-8.52695 -0.803506,-6.22932 -0.724312,2.13996 -0.907906,-0.24679 -0.512818,-6.66667 0.413948,-6.72634 0.189045,-9.39284 -0.687008,-8.14532 -0.878288,1.25071 -1.097642,-1.1374 -0.673587,-7.33333 0.401732,-5.86976 0.181008,-8.55063 -0.611165,-7.42313 -0.795131,1.13169 -1.082012,-1.9776 -0.799635,-8.66667 0.298789,-7.07784 0.06816,-9.35989 -0.717376,-7.09821 -0.754145,2.1713 -0.901223,0.12266 -0.421899,-5.87664 0.506555,-6.34014 0.29357,-8.93663 -0.683517,-8.33275 -0.973991,0.60196 -1.185901,-1.69744 -0.675343,-7.32797 0.544932,-6.00962 0.332724,-7.95099 -0.793052,-7.25523 -0.918637,0.56775 -1.53707,0.082 -1.53707,-1.20741 0,-1.18656 0.45,-1.87787 1,-1.53626 0.55,0.34163 0.789405,-2.71033 0.53201,-6.78212 -0.277038,-4.38256 -0.900586,-6.70329 -1.528221,-5.68776 -0.583128,0.94352 -0.777257,-2.4191 -0.431399,-7.47252 0.411408,-6.01114 0.191118,-8.56326 -0.637116,-7.38114 -0.830601,1.1855 -1.089936,-1.56563 -0.754118,-8 0.336018,-6.43822 0.104586,-8.89087 -0.673768,-7.1402 -0.76205,1.71401 -0.933923,-0.62055 -0.481106,-6.53484 0.462975,-6.04698 0.2411,-8.91511 -0.647188,-8.36612 -0.882325,0.5453 -1.178252,-2.50987 -0.852228,-8.7985 0.329195,-6.34975 0.09529,-8.72483 -0.686145,-6.96721 -0.772617,1.73778 -0.974377,-0.58445 -0.579215,-6.66667 0.39691,-6.10914 0.169064,-8.70915 -0.659565,-7.52646 -0.830602,1.1855 -1.089936,-1.56563 -0.754118,-8 0.331822,-6.35782 0.09994,-8.86901 -0.659335,-7.1402 -0.749049,1.70553 -0.9590971,-0.937593 -0.582778,-7.333337 0.354415,-6.02347 0.117975,-9.332588 -0.5945874,-8.321622 C 8.9595212,86.030772 8.72775,83.469764 9.0877852,78.492328 9.4741644,73.150689 9.2096684,70.585717 8.3286176,71.130236 7.4438436,71.677057 7.1881441,68.860955 7.5888517,62.982952 8.0004625,56.945008 7.7765033,54.608047 6.9057247,55.85468 6.036416,57.099211 5.8170968,54.686699 6.239058,48.521347 6.6504655,42.510199 6.4301749,39.958079 5.6019416,41.1402 4.7713393,42.325703 4.5120051,39.574577 4.8478229,33.1402 5.1911027,26.562853 4.9606759,24.211499 4.1481011,26 3.3431011,27.771829 3.1076515,25.087315 3.4464481,18 3.8222032,10.139549 3.6160609,8.2102756 2.6628839,10.666667 1.5075589,13.644004 1.4386907,13.519405 2.0180425,9.5 2.3747859,7.025 2.6666667,3.875 2.6666667,2.5 2.6666667,0.05927692 16.825603,0 599.81877,0 h 597.15213 l 0.8565,6.2492907 c 0.4711,3.4371098 0.3257,6.5871103 -0.3233,7.0000003 -0.6489,0.41289 -1.4138,3.250238 -1.6998,6.30522 -0.286,3.05498 -0.059,5.26957 0.5045,4.92131 0.5635,-0.34826 1.0245,0.33762 1.0245,1.524179 0,1.186559 -0.5397,1.823807 -1.1994,1.416108 -0.6596,-0.407697 -1.414,1.956892 -1.6762,5.254644 -0.2623,3.297753 -0.023,5.995915 0.5327,5.995915 0.5553,0 1.0096,0.9 1.0096,2 0,1.1 -0.5396,2 -1.1991,2 -0.6595,0 -1.4095,2.64273 -1.6666,5.872734 -0.2572,3.230003 -0.018,5.594594 0.5324,5.254644 0.55,-0.33995 1,0.61732 1,2.127266 0,1.509945 -0.5344,2.745356 -1.1875,2.745356 -0.6531,0 -1.4326,2.1 -1.7323,4.666666 C 1191.4473,65.9 1191.6816,68 1192.2677,68 c 0.5861,0 1.0656,0.9 1.0656,2 0,1.1 -0.6833,2 -1.5185,2 -1.0477,0 -1.2936,2.480517 -0.7931,8 0.4658,5.137227 0.2268,8 -0.668,8 -0.8923,0 -1.1205,2.64454 -0.6345,7.353788 0.453,4.389197 0.2595,7.045062 -0.4801,6.587982 -0.6815,-0.4212 -1.2391,1.32052 -1.2391,3.87049 0,2.54997 -0.3566,5.73538 -0.7924,7.07869 -0.6591,2.03127 -0.5503,2.10574 0.6462,0.44238 1.1965,-1.66326 1.4421,-1.49489 1.4591,1 0.011,1.65 -0.5192,3 -1.1786,3 -0.6595,0 -1.4095,2.64273 -1.6667,5.87274 -0.2572,3.23 -0.018,5.59459 0.5324,5.25464 0.55,-0.33995 1,0.56732 1,2.01616 0,1.44883 -0.51,2.83424 -1.1334,3.07869 -0.6234,0.24444 -1.4822,3.11325 -1.9086,6.37515 -0.5004,3.82936 -0.3423,5.24662 0.4464,4 0.9457,-1.49492 1.226,-1.23582 1.2419,1.14798 0.012,1.71676 -0.5695,2.71415 -1.313,2.25464 -0.7333,-0.45322 -1.3833,0.56136 -1.4444,2.25464 -0.061,1.69328 -0.2588,4.40087 -0.4393,6.01686 -0.1805,1.61598 0.1695,2.63057 0.7778,2.25464 0.6083,-0.37594 1.1059,0.55189 1.1059,2.06184 0,1.50994 -0.5396,2.74536 -1.199,2.74536 -0.6595,0 -1.4095,2.64273 -1.6667,5.87273 -0.2572,3.23 -0.018,5.5946 0.5324,5.25464 0.55,-0.33995 1,0.35273 1,1.53929 0,1.18656 -0.5397,1.82382 -1.1994,1.41611 -0.6597,-0.40769 -1.4097,1.89963 -1.6667,5.12739 -0.257,3.22774 -0.017,5.5905 0.5328,5.25054 0.55,-0.33994 1,0.61732 1,2.12727 0,1.50995 -0.5396,2.74536 -1.1991,2.74536 -0.6595,0 -1.4095,2.64273 -1.6667,5.87273 -0.2572,3.23 -0.018,5.5946 0.5324,5.25464 0.55,-0.33994 1,0.56732 1,2.01616 0,1.44884 -0.51,2.83424 -1.1334,3.0787 -0.6234,0.24444 -1.4822,3.11325 -1.9085,6.37514 -0.5005,3.82936 -0.3424,5.24663 0.4463,4 0.9458,-1.49492 1.2261,-1.23581 1.2419,1.14799 0.012,1.89881 -0.5405,2.73205 -1.4431,2.17421 -1.0338,-0.63894 -1.2229,1.49087 -0.6442,7.25464 0.4668,4.64888 0.2938,8.15912 -0.4022,8.15912 -0.6719,0 -1.432,2.64274 -1.6892,5.87274 -0.2572,3.23 -0.018,5.5946 0.5324,5.25464 0.55,-0.33995 1,0.35273 1,1.53929 0,1.29637 -0.6169,1.77611 -1.5457,1.20205 -1.1434,-0.70664 -1.3287,1.36858 -0.7121,7.97192 0.46,4.92635 0.3164,8.60762 -0.3203,8.21406 -0.6347,-0.39226 -1.3643,1.9277 -1.6213,5.15546 -0.257,3.22775 -0.017,5.59051 0.5328,5.25055 0.55,-0.33995 1,0.35273 1,1.53929 0,1.18656 -0.6,1.78656 -1.3334,1.33334 -0.7337,-0.45347 -1.3794,0.56046 -1.4359,2.25464 -0.056,1.69328 -0.2065,4.97152 -0.3334,7.28498 -0.1269,2.31346 0.2193,3.92806 0.7693,3.58798 0.55,-0.34007 1,0.0171 1,0.7937 0,0.77662 -0.6513,1.41203 -1.4475,1.41203 -0.9695,0 -1.1822,2.64163 -0.6442,8 0.4535,4.51595 0.2739,8 -0.4124,8 -0.6687,0 -1.4398,2.34953 -1.7137,5.22117 -0.2738,2.87166 -0.037,4.93624 0.5266,4.58799 0.5635,-0.34827 1.0154,0.7522 1.0042,2.44548 -0.015,2.28788 -0.3215,2.60339 -1.1923,1.22827 -0.7851,-1.23966 -1.3284,0.41094 -1.6463,5.00084 -0.2609,3.76818 -0.024,6.85086 0.5256,6.85041 0.55,-4.5e-4 1,1.23459 1,2.74453 0,1.50995 -0.5397,2.41179 -1.1994,2.00408 -0.6596,-0.40769 -1.4096,1.89963 -1.6666,5.12739 -0.257,3.22775 -0.017,5.59051 0.5327,5.25055 0.55,-0.33995 1,0.56732 1,2.01616 0,1.44884 -0.5372,2.83424 -1.1938,3.07869 -0.6567,0.24444 -1.4899,2.6886 -1.8517,5.43148 -0.362,2.74419 -0.125,4.65765 0.5271,4.25464 0.6518,-0.40281 1.1851,0.53843 1.1851,2.09165 0,1.79272 -0.5614,2.47712 -1.5371,1.87408 -1.1258,-0.69576 -1.338,1.2455 -0.7931,7.25466 0.4092,4.51253 0.2613,8.2046 -0.3287,8.2046 -0.5899,0 -1.283,2.64273 -1.5402,5.87273 -0.2572,3.23 -0.018,5.5946 0.5324,5.25464 0.55,-0.33995 1,0.35273 1,1.53929 0,1.18656 -0.5397,1.82382 -1.1994,1.41611 -0.6597,-0.40769 -1.4097,1.89963 -1.6667,5.12739 -0.257,3.22774 -0.017,5.5905 0.5328,5.25054 0.55,-0.33994 1,0.61732 1,2.12727 0,1.50995 -0.5396,2.74536 -1.1991,2.74536 -0.6595,0 -1.4095,2.64273 -1.6667,5.87273 -0.2572,3.23 -0.018,5.5946 0.5324,5.25464 0.55,-0.33994 1,0.61732 1,2.12727 0,1.50995 -0.5319,2.74536 -1.182,2.74536 -0.6501,0 -1.45,1.82641 -1.7777,4.05871 -0.3276,2.23228 -0.096,4.36769 0.5154,4.74536 0.611,0.37765 1.111,1.88664 1.111,3.3533 0,1.57727 -0.5909,2.30147 -1.4464,1.77274 -1.0068,-0.62224 -1.234,1.58272 -0.7473,7.25464 0.3845,4.48172 0.1958,8.14858 -0.4193,8.14858 -0.6152,0 -1.3289,2.64274 -1.5861,5.87274 -0.2572,3.23 -0.018,5.5946 0.5324,5.25464 0.55,-0.33995 1,0.35273 1,1.53929 0,1.29637 -0.6169,1.77611 -1.5457,1.20205 -1.1434,-0.70664 -1.3287,1.36858 -0.7121,7.97192 0.5446,5.83218 0.3701,8.64076 -0.5034,8.10092 -0.8122,-0.50197 -1.2182,0.9372 -1.0344,3.6666 0.1664,2.4711 -0.2042,5.31287 -0.8236,6.31506 -0.7601,1.22986 -0.6258,1.5129 0.4132,0.87077 0.9213,-0.5694 1.5394,-0.0852 1.5394,1.20601 0,1.18656 -0.5444,1.82092 -1.2098,1.40968 -0.6654,-0.41122 -1.4154,2.49746 -1.6667,6.46376 -0.2513,3.9663 -0.01,6.93194 0.5431,6.59031 0.55,-0.34161 1,0.34969 1,1.53625 0,1.18656 -0.6221,1.7729 -1.3824,1.30299 -0.8692,-0.53721 -1.2701,0.81356 -1.0799,3.63851 0.1664,2.47109 -0.2042,5.31286 -0.8235,6.31505 -0.7601,1.22987 -0.6258,1.51291 0.4132,0.87077 0.9732,-0.60146 1.5393,0.0583 1.5393,1.79399 0,1.50995 -0.5396,2.74536 -1.1991,2.74536 -0.6595,0 -1.4095,2.64273 -1.6666,5.87273 -0.2572,3.23 -0.018,5.5946 0.5324,5.25464 0.55,-0.33994 1,0.35274 1,1.5393 0,1.29637 -0.6169,1.7761 -1.5458,1.20205 -1.1433,-0.70664 -1.3287,1.36857 -0.7121,7.97192 0.46,4.92635 0.3165,8.60761 -0.3203,8.21405 -0.6347,-0.39225 -1.3642,1.92771 -1.6212,5.15547 -0.257,3.22775 -0.017,5.59051 0.5327,5.25055 0.55,-0.33995 1,0.35273 1,1.53929 0,1.18656 -0.5444,1.82092 -1.2098,1.40968 -0.6654,-0.41123 -1.4154,2.49745 -1.6667,6.46376 -0.2512,3.96629 -0.01,6.93193 0.5432,6.59031 0.55,-0.34162 1,0.34969 1,1.53625 0,1.21119 -0.6344,1.76531 -1.4465,1.26344 -1.0068,-0.62224 -1.2339,1.58272 -0.7473,7.25464 0.3846,4.48172 0.1959,8.14859 -0.4193,8.14859 -0.6151,0 -1.3288,2.64273 -1.586,5.87273 -0.2572,3.23 -0.018,5.5946 0.5324,5.25464 0.55,-0.33995 1,0.35273 1,1.53929 0,1.18656 -0.5397,1.82382 -1.1994,1.41611 -0.6597,-0.40769 -1.414,1.95689 -1.6763,5.25464 -0.2623,3.29776 -0.023,5.99592 0.5328,5.99592 0.5552,0 1.0096,1.23541 1.0096,2.74536 0,1.50995 -0.5398,2.41179 -1.1994,2.00408 -0.6597,-0.40769 -1.4097,1.89963 -1.6667,5.12739 -0.257,3.22774 -0.017,5.5905 0.5327,5.25054 0.55,-0.33994 1,0.61732 1,2.12727 0,1.50995 -0.5369,2.74536 -1.1932,2.74536 -0.6564,0 -1.4174,2.34953 -1.6913,5.22117 -0.2738,2.87166 -0.037,4.93624 0.5267,4.58799 0.5635,-0.34827 1.0245,0.63761 1.0245,2.19084 0,1.61005 -0.5943,2.45676 -1.3824,1.96965 -0.8693,-0.53721 -1.2702,0.81356 -1.0799,3.63851 0.1664,2.47109 -0.1469,5.22016 -0.6962,6.10904 -0.5494,0.88887 -0.3635,1.61613 0.4131,1.61613 0.7767,0 1.4121,0.9 1.4121,2 0,1.1 -0.5396,2 -1.1991,2 -0.6595,0 -1.4095,2.64274 -1.6667,5.87274 -0.2572,3.23 -0.018,5.5946 0.5324,5.25464 0.55,-0.33995 1,0.61732 1,2.12726 0,1.50995 -0.5369,2.74536 -1.1932,2.74536 -0.6564,0 -1.4174,2.34954 -1.6913,5.22118 -0.2738,2.87165 -0.037,4.93624 0.5267,4.58798 0.5635,-0.34826 1.0245,0.63762 1.0245,2.19084 0,1.55323 -0.5373,2.49198 -1.194,2.08612 -0.6567,-0.40586 -1.4225,1.65872 -1.7019,4.58798 -0.2793,2.92925 -0.042,5.3259 0.5273,5.3259 0.5694,0 1.0353,1.2 1.0353,2.66667 0,1.46667 -0.537,2.66667 -1.1933,2.66667 -0.6563,0 -1.4174,2.34953 -1.6912,5.22117 -0.2739,2.87165 -0.037,4.93624 0.5266,4.58799 0.5635,-0.34827 1.0245,0.63761 1.0245,2.19084 0,1.69038 -0.5806,2.46518 -1.4464,1.9301 -1.0068,-0.62224 -1.2339,1.58272 -0.7473,7.25464 0.3845,4.48172 0.1959,8.14859 -0.4193,8.14859 -0.6151,0 -1.3289,2.64273 -1.586,5.87273 -0.2572,3.23 -0.018,5.5946 0.5324,5.25464 0.55,-0.33994 1,0.35274 1,1.5393 0,1.18656 -0.5422,1.82233 -1.2047,1.41282 -0.6626,-0.40949 -1.4126,2.19867 -1.6667,5.79594 -0.2541,3.59725 -0.012,6.26148 0.538,5.92049 0.55,-0.34097 1,0.65085 1,2.20408 0,1.61005 -0.5942,2.45676 -1.3824,1.96965 -0.8692,-0.53721 -1.2701,0.81356 -1.0799,3.63851 0.1664,2.47109 -0.2042,5.31287 -0.8235,6.31505 -0.7601,1.22987 -0.6258,1.51291 0.4132,0.87078 0.9213,-0.5694 1.5393,-0.0852 1.5393,1.20601 0,1.18656 -0.5444,1.82092 -1.2098,1.40968 -0.6654,-0.41123 -1.4154,2.49745 -1.6667,6.46376 -0.2512,3.96629 -0.01,6.93193 0.5432,6.59031 0.55,-0.34162 1,0.34969 1,1.53625 0,1.28937 -0.6185,1.77516 -1.5371,1.20741 -1.1258,-0.69576 -1.338,1.2455 -0.7931,7.25466 0.4092,4.51253 0.2613,8.2046 -0.3287,8.2046 -0.5899,0 -1.283,2.64273 -1.5402,5.87273 -0.2572,3.23 -0.018,5.5946 0.5324,5.25464 0.55,-0.33995 1,0.35273 1,1.53929 0,1.18656 -0.5397,1.82382 -1.1994,1.41611 -0.6597,-0.40769 -1.414,1.95689 -1.6763,5.25464 -0.2623,3.29776 -0.023,5.99592 0.5328,5.99592 0.5552,0 1.0096,1.23541 1.0096,2.74536 0,1.55572 -0.5991,2.37512 -1.3825,1.89096 -0.8692,-0.53721 -1.2701,0.81356 -1.0798,3.63851 0.1664,2.47109 -0.2042,5.31286 -0.8236,6.31505 -0.7601,1.22987 -0.6258,1.51291 0.4132,0.87077 0.9732,-0.60146 1.5393,0.0583 1.5393,1.79399 0,1.50995 -0.6116,2.74536 -1.3592,2.74536 -0.8314,0 -1.1272,2.85564 -0.7616,7.35335 0.3287,4.04434 0.077,7.03178 -0.5586,6.63874 -0.636,-0.39302 -1.3432,1.54798 -1.5718,4.31332 -0.2285,2.76536 0.1846,6.09623 0.9179,7.40194 0.9406,1.67469 0.8549,2.67204 -0.2907,3.3857 -0.8933,0.55643 -1.6949,2.78812 -1.7814,4.95932 -0.087,2.17119 0.2463,5.44763 0.7397,7.28096 0.6404,2.37967 0.521,2.80096 -0.4173,1.47252 -0.9452,-1.33824 -1.4458,0.21826 -1.7823,5.54244 -0.2574,4.07179 -0.018,7.12375 0.532,6.78212 0.55,-0.34161 1,0.6497 1,2.20292 0,1.55323 -0.6,2.45323 -1.3333,2 -0.7334,-0.45322 -1.3834,0.56136 -1.4445,2.25464 -0.061,1.69328 -0.2588,4.40087 -0.4393,6.01686 -0.1805,1.61598 0.1695,2.63057 0.7778,2.25464 0.6083,-0.37594 1.106,0.55189 1.106,2.06184 0,1.50994 -0.5396,2.74536 -1.1991,2.74536 -0.6595,0 -1.4095,2.64273 -1.6667,5.87273 -0.2572,3.23 -0.018,5.5946 0.5324,5.25464 0.55,-0.33995 1,0.35273 1,1.53929 0,1.18656 -0.6221,1.7729 -1.3824,1.30299 -0.8663,-0.53537 -1.2804,0.80437 -1.1092,3.58797 0.1502,2.44331 -0.167,5.94238 -0.7049,7.77571 -0.7413,2.52603 -0.639,2.84895 0.4221,1.33333 1.2071,-1.72406 1.4031,-1.67806 1.4207,0.33334 0.011,1.28333 -0.5192,2.33333 -1.1787,2.33333 -0.6595,0 -1.4095,2.64273 -1.6666,5.87273 -0.2572,3.23 -0.018,5.5946 0.5324,5.25464 0.55,-0.33994 1,0.35274 1,1.5393 0,1.18656 -0.5422,1.82233 -1.2047,1.41282 -0.6626,-0.40949 -1.4126,2.19871 -1.6667,5.79591 -0.2541,3.5973 -0.012,6.2615 0.538,5.9205 0.55,-0.341 1,0.6509 1,2.2041 0,1.5532 -0.5373,2.492 -1.194,2.0861 -0.6567,-0.4058 -1.4225,1.6587 -1.7019,4.588 -0.2793,2.9292 -0.042,5.3259 0.5274,5.3259 0.5693,0 1.0352,1.2 1.0352,2.6667 0,1.4666 -0.5396,2.6666 -1.1991,2.6666 -0.6595,0 -1.4095,2.6428 -1.6666,5.8728 -0.2572,3.23 -0.018,5.5946 0.5324,5.2546 0.55,-0.3399 1,0.3527 1,1.5393 0,1.1866 -0.597,1.7884 -1.3267,1.3375 -0.8048,-0.4974 -1.2466,1.2237 -1.1231,4.3751 0.112,2.8573 -0.2837,5.9835 -0.8793,6.9472 -0.7179,1.1616 -0.5641,1.4315 0.4564,0.8009 0.9121,-0.5638 1.5393,-0.1044 1.5393,1.1273 0,1.1433 -0.5396,2.0787 -1.199,2.0787 -0.6595,0 -1.4095,2.6427 -1.6667,5.8727 -0.2572,3.23 -0.018,5.5946 0.5324,5.2546 0.55,-0.3399 1,0.3528 1,1.5393 0,1.1866 -0.5373,1.8253 -1.194,1.4195 -0.6567,-0.4059 -1.4268,1.7036 -1.7114,4.6876 -0.2846,2.9841 -0.047,5.7162 0.5273,6.0713 0.5746,0.3551 1.0448,1.8457 1.0448,3.3123 0,1.5015 -0.6041,2.2934 -1.3825,1.8123 -0.8692,-0.5372 -1.2701,0.8136 -1.0798,3.6385 0.1664,2.4711 -0.2042,5.3129 -0.8236,6.3151 -0.7601,1.2298 -0.6258,1.5129 0.4132,0.8708 0.9732,-0.6015 1.5393,0.058 1.5393,1.7939 0,1.51 -0.6116,2.7454 -1.3592,2.7454 -0.8314,0 -1.1272,2.8556 -0.7616,7.3533 0.3528,4.3415 0.09,7.0399 -0.6408,6.588 -0.6811,-0.4209 -1.2384,1.321 -1.2384,3.871 0,2.5499 -0.3566,5.7353 -0.7924,7.0786 -0.6591,2.0313 -0.5503,2.1058 0.6462,0.4424 1.2029,-1.6721 1.4421,-1.5263 1.4592,0.8889 0.011,1.5889 -0.5228,3.0889 -1.1867,3.3334 -0.6639,0.2444 -1.3564,1.9444 -1.5388,3.7777 -0.1825,1.8334 0.1419,5.0478 0.7209,7.1431 0.623,2.2549 0.5163,4.1596 -0.2614,4.6667 -0.7226,0.4713 -1.6627,3.5257 -2.089,6.7876 -0.5004,3.8294 -0.3423,5.2466 0.4464,4 0.9458,-1.4949 1.2261,-1.2358 1.2419,1.148 0.011,1.6933 -0.5193,2.7451 -1.179,2.3374 -0.6597,-0.4077 -1.4097,1.8996 -1.6667,5.1274 -0.257,3.2277 -0.017,5.5905 0.5328,5.2505 0.55,-0.3399 1,0.6174 1,2.1273 0,1.51 -0.5396,2.7454 -1.1991,2.7454 -0.6595,0 -1.4095,2.6427 -1.6667,5.8727 -0.2572,3.23 -0.018,5.5946 0.5324,5.2546 0.55,-0.3399 1,0.3528 1,1.5393 0,1.1866 -0.6,1.7866 -1.3333,1.3334 -0.8035,-0.4966 -1.3333,1.2831 -1.3333,4.4789 0,2.9166 -0.3566,6.402 -0.7925,7.7453 -0.659,2.0313 -0.5503,2.1058 0.6463,0.4424 1.2542,-1.7435 1.4413,-1.715 1.4591,0.2223 0.011,1.2222 -0.5606,2.4222 -1.2706,2.6666 -0.7101,0.2445 -1.3617,2.2445 -1.4481,4.4445 -0.086,2.2 0.2712,5.3755 0.7947,7.0568 0.5235,1.6812 0.4251,2.9601 -0.2186,2.8421 -0.6437,-0.1182 -1.9557,-0.1437 -2.9157,-0.057 -0.9599,0.087 -1.3597,0.7819 -0.8883,1.5446 0.5612,0.9081 -0.4008,1.0711 -2.7868,0.4722 -2.3061,-0.5787 -3.341,-0.4243 -2.8188,0.4207 0.5054,0.8177 -0.5278,1.0765 -2.6659,0.6678 -2.2401,-0.4283 -3.1806,-0.1649 -2.6245,0.7349 0.5497,0.8894 -0.1857,1.1271 -2.0103,0.6499 -1.7634,-0.4611 -2.5539,-0.2294 -2.0422,0.5984 0.5171,0.8368 -0.4937,1.0968 -2.6564,0.6834 -2.6271,-0.5022 -3.2261,-0.2385 -2.4203,1.0653 0.6688,1.0821 0.5443,1.4073 -0.3315,0.8659 -0.7713,-0.4767 -3.2543,-0.4963 -5.5177,-0.044 -2.2634,0.4527 -3.8242,1.2941 -3.4685,1.8697 0.3558,0.5757 -0.5539,0.7326 -2.0216,0.3488 -1.4677,-0.3838 -2.6685,-0.084 -2.6685,0.6662 0,0.7502 -1.2938,1.0257 -2.8752,0.6122 -2.0187,-0.5279 -2.5812,-0.2763 -1.8882,0.8449 0.7199,1.165 0,1.3495 -2.6571,0.6823 -2.4106,-0.6051 -3.3504,-0.4396 -2.7765,0.4888 0.5409,0.8753 -0.1369,1.1409 -1.8012,0.7056 -1.4676,-0.3838 -2.6685,-0.084 -2.6685,0.6662 0,0.7502 -1.2938,1.0257 -2.8751,0.6122 -1.762,-0.4608 -2.552,-0.2289 -2.0404,0.5989 0.5172,0.8367 -0.4937,1.0968 -2.6563,0.6833 -2.2401,-0.4282 -3.1806,-0.1648 -2.6245,0.735 0.5497,0.8893 -0.1857,1.1271 -2.0103,0.6499 -2.0203,-0.5283 -2.5832,-0.2768 -1.8901,0.8445 0.7199,1.1649 0,1.3494 -2.6571,0.6822 -2.4106,-0.605 -3.3504,-0.4396 -2.7765,0.4889 0.5409,0.8753 -0.1369,1.1408 -1.8012,0.7056 -1.4676,-0.3838 -2.6685,-0.084 -2.6685,0.6662 0,0.7502 -1.2938,1.0257 -2.8751,0.6121 -1.762,-0.4607 -2.552,-0.2288 -2.0404,0.5989 0.5172,0.8368 -0.4937,1.0968 -2.6563,0.6834 -2.2401,-0.4282 -3.1806,-0.1649 -2.6245,0.7349 0.5497,0.8894 -0.1857,1.1271 -2.0103,0.65 -2.02033,-0.5283 -2.58315,-0.2769 -1.89014,0.8444 0.71997,1.165 10e-4,1.3495 -2.65704,0.6823 -2.41067,-0.6051 -3.35037,-0.4396 -2.77655,0.4889 0.5505,0.8907 -0.18369,1.1286 -2.00962,0.6511 -2.02031,-0.5284 -2.58314,-0.2769 -1.89012,0.8444 0.71997,1.165 10e-4,1.3495 -2.65704,0.6823 -2.30606,-0.5788 -3.34096,-0.4244 -2.81875,0.4206 0.50537,0.8177 -0.52787,1.0765 -2.66596,0.6678 -2.24012,-0.4283 -3.18059,-0.1649 -2.62447,0.7349 0.54966,0.8894 -0.18569,1.1271 -2.01033,0.65 -2.02031,-0.5284 -2.58313,-0.2769 -1.89012,0.8444 0.71997,1.165 10e-4,1.3495 -2.65704,0.6823 -2.30605,-0.5788 -3.34096,-0.4244 -2.81875,0.4206 0.50538,0.8177 -0.52786,1.0765 -2.66596,0.6678 -2.24012,-0.4283 -3.18058,-0.1649 -2.62446,0.7349 0.54965,0.8894 -0.1857,1.1271 -2.01034,0.65 -1.84356,-0.4821 -2.56197,-0.2427 -2,0.6666 0.55234,0.8937 -0.11093,1.1607 -1.7915,0.7212 -1.46768,-0.3838 -2.66851,-0.084 -2.66851,0.6662 0,0.7502 -1.29383,1.0257 -2.87516,0.6121 -2.01876,-0.5279 -2.58121,-0.2762 -1.88828,0.845 0.71997,1.1649 10e-4,1.3494 -2.65704,0.6822 -2.30605,-0.5788 -3.34096,-0.4243 -2.81875,0.4206 0.50538,0.8177 -0.52786,1.0766 -2.66596,0.6678 -2.24012,-0.4282 -3.18058,-0.1648 -2.62446,0.735 0.54965,0.8893 -0.1857,1.1271 -2.01034,0.6499 -2.0203,-0.5283 -2.58313,-0.2768 -1.89012,0.8445 0.71998,1.1649 10e-4,1.3494 -2.65704,0.6822 -2.41066,-0.605 -3.35037,-0.4396 -2.77654,0.4889 0.55049,0.8907 -0.1837,1.1286 -2.00963,0.6511 -2.02031,-0.5283 -2.58313,-0.2769 -1.89012,0.8444 0.71997,1.165 10e-4,1.3495 -2.65704,0.6823 -2.30605,-0.5788 -3.34096,-0.4244 -2.81875,0.4206 0.50538,0.8177 -0.52786,1.0765 -2.66596,0.6678 -2.24012,-0.4282 -3.18058,-0.1649 -2.62446,0.7349 0.54965,0.8894 -0.1857,1.1271 -2.01034,0.65 -1.76333,-0.4611 -2.55385,-0.2295 -2.04218,0.5984 0.51713,0.8367 -0.49368,1.0968 -2.65635,0.6834 -2.24012,-0.4283 -3.18059,-0.1649 -2.62447,0.7349 0.54966,0.8894 -0.18569,1.1271 -2.01033,0.65 -2.02031,-0.5284 -2.58313,-0.2769 -1.89012,0.8444 0.71997,1.165 10e-4,1.3495 -2.65704,0.6823 -2.41067,-0.6051 -3.35037,-0.4396 -2.77655,0.4888 0.54095,0.8753 -0.13686,1.1409 -1.80113,0.7056 -1.46768,-0.3838 -2.66851,-0.084 -2.66851,0.6662 0,0.7502 -1.29382,1.0257 -2.87516,0.6122 -2.01876,-0.5279 -2.58121,-0.2763 -1.88828,0.8449 0.71998,1.165 10e-4,1.3495 -2.65704,0.6823 -2.41066,-0.6051 -3.35037,-0.4396 -2.77654,0.4888 0.55049,0.8908 -0.1837,1.1286 -2.00963,0.6511 -2.02031,-0.5283 -2.58313,-0.2768 -1.89012,0.8445 0.71997,1.1649 10e-4,1.3494 -2.65704,0.6822 -2.41067,-0.605 -3.35037,-0.4396 -2.77655,0.4889 0.54095,0.8753 -0.13686,1.1408 -1.80113,0.7056 -1.46768,-0.3838 -2.66851,-0.084 -2.66851,0.6662 0,0.7502 -1.29382,1.0257 -2.87516,0.6121 -2.01876,-0.5279 -2.58121,-0.2762 -1.88828,0.845 0.71998,1.1649 10e-4,1.3494 -2.65704,0.6822 -2.30605,-0.5788 -3.34096,-0.4243 -2.81874,0.4206 0.50537,0.8177 -0.52787,1.0766 -2.66596,0.6678 -2.24012,-0.4282 -3.18059,-0.1648 -2.62447,0.735 0.54965,0.8893 -0.18569,1.1271 -2.01033,0.6499 -1.76334,-0.4611 -2.55386,-0.2295 -2.04219,0.5984 0.51713,0.8368 -0.49368,1.0968 -2.65635,0.6834 -2.24012,-0.4282 -3.18058,-0.1649 -2.62446,0.7349 0.54965,0.8894 -0.1857,1.1271 -2.01034,0.65 -2.0203,-0.5283 -2.58313,-0.2769 -1.89012,0.8444 0.71998,1.165 10e-4,1.3495 -2.65704,0.6823 -2.41066,-0.6051 -3.35037,-0.4396 -2.77654,0.4889 0.55049,0.8907 -0.1837,1.1286 -2.00963,0.6511 -2.02031,-0.5284 -2.58313,-0.2769 -1.89012,0.8444 0.71997,1.165 10e-4,1.3495 -2.65704,0.6823 -2.41067,-0.6051 -3.35037,-0.4396 -2.77655,0.4888 0.54095,0.8753 -0.13686,1.1409 -1.80113,0.7056 -1.46768,-0.3838 -2.66851,-0.084 -2.66851,0.6662 0,0.7502 -1.29382,1.0257 -2.87516,0.6122 -1.76194,-0.4608 -2.55193,-0.2289 -2.04034,0.5989 0.51713,0.8367 -0.49368,1.0968 -2.65635,0.6833 -2.24012,-0.4282 -3.18059,-0.1648 -2.62447,0.735 0.54966,0.8893 -0.18569,1.1271 -2.01033,0.6499 -2.02031,-0.5283 -2.58313,-0.2768 -1.89012,0.8445 0.71997,1.1649 10e-4,1.3494 -2.65704,0.6822 -2.64071,-0.6628 -3.37488,-0.4792 -2.66667,0.6667 0.7082,1.1459 -0.026,1.3294 -2.66666,0.6667 -2.41067,-0.6051 -3.35038,-0.4396 -2.77655,0.4888 0.55049,0.8908 -0.18369,1.1286 -2.00963,0.6511 -2.0203,-0.5283 -2.58313,-0.2768 -1.89012,0.8445 0.71998,1.1649 10e-4,1.3494 -2.65704,0.6822 -2.30605,-0.5788 -3.34096,-0.4243 -2.81874,0.4206 0.50537,0.8177 -0.52787,1.0766 -2.66596,0.6678 -2.24012,-0.4282 -3.18059,-0.1648 -2.62447,0.735 0.54965,0.8893 -0.18569,1.1271 -2.01033,0.6499 -1.76334,-0.4611 -2.55386,-0.2295 -2.04219,0.5984 0.51713,0.8368 -0.49368,1.0968 -2.65635,0.6834 -2.24012,-0.4282 -3.18058,-0.1649 -2.62446,0.7349 0.54965,0.8894 -0.1857,1.1271 -2.01034,0.65 -2.0203,-0.5283 -2.58313,-0.2769 -1.89012,0.8444 0.71998,1.165 10e-4,1.3495 -2.65704,0.6823 -2.30605,-0.5788 -3.34096,-0.4244 -2.81874,0.4206 0.50537,0.8177 -0.52787,1.0765 -2.66596,0.6678 -2.24012,-0.4282 -3.18059,-0.1649 -2.62447,0.7349 0.54965,0.8894 -0.18569,1.1271 -2.01033,0.65 -1.76334,-0.4611 -2.55386,-0.2295 -2.04219,0.5984 0.51713,0.8367 -0.49368,1.0968 -2.65635,0.6834 -2.62712,-0.5022 -3.22612,-0.2386 -2.4203,1.0653 0.66878,1.0821 0.5443,1.4072 -0.33156,0.8659 -0.77132,-0.4767 -3.25428,-0.4964 -5.5177,-0.044 -2.26341,0.4526 -3.8432,1.2633 -3.51062,1.8014 0.33257,0.5381 -0.96635,0.6781 -2.88648,0.311 -2.24012,-0.4282 -3.18059,-0.1649 -2.62447,0.7349 0.54965,0.8894 -0.18569,1.1272 -2.01033,0.65 -1.76334,-0.4611 -2.55386,-0.2295 -2.04219,0.5984 0.51713,0.8368 -0.49368,1.0968 -2.65635,0.6834 -2.24012,-0.4282 -3.18058,-0.1649 -2.62446,0.7349 0.54012,0.874 -0.13879,1.1394 -1.80184,0.7045 -1.46768,-0.3838 -2.66851,-0.084 -2.66851,0.6662 0,0.7502 -1.29383,1.0256 -2.87516,0.6121 -1.84212,-0.4817 -2.56005,-0.242 -1.99816,0.6672 0.55233,0.8937 -0.11093,1.1607 -1.79151,0.7212 -1.46768,-0.3839 -2.6685,-0.084 -2.6685,0.6661 0,0.7503 -1.29383,1.0257 -2.87516,0.6122 -2.01876,-0.5279 -2.58122,-0.2762 -1.88828,0.8449 0.71997,1.165 10e-4,1.3495 -2.65704,0.6823 -2.41067,-0.6051 -3.35038,-0.4396 -2.77655,0.4888 0.54095,0.8753 -0.13687,1.1409 -1.80113,0.7057 -1.46768,-0.3839 -2.66851,-0.084 -2.66851,0.6661 0,0.7503 -1.29383,1.0257 -2.87516,0.6122 -1.76195,-0.4608 -2.55193,-0.2289 -2.04035,0.5989 0.51714,0.8367 -0.49368,1.0967 -2.65634,0.6834 -2.24012,-0.4283 -3.18059,-0.1649 -2.62447,0.7349 0.54965,0.8894 -0.18569,1.1271 -2.01033,0.6499 -1.76334,-0.4611 -2.55386,-0.2295 -2.04219,0.5984 0.51713,0.8368 -0.49368,1.0968 -2.65635,0.6835 -2.24012,-0.4283 -3.18058,-0.165 -2.62446,0.7349 0.54965,0.8893 -0.1857,1.1271 -2.01034,0.6499 -2.0203,-0.5283 -2.58313,-0.2768 -1.89012,0.8445 0.71998,1.1649 10e-4,1.3495 -2.65704,0.6821 -2.30605,-0.5786 -3.34096,-0.4242 -2.81874,0.4207 0.50537,0.8177 -0.52787,1.0765 -2.66596,0.6679 -2.24012,-0.4283 -3.18059,-0.165 -2.62447,0.7349 0.54965,0.8893 -0.18569,1.1271 -2.01033,0.6499 -2.02031,-0.5283 -2.58314,-0.2768 -1.89012,0.8445 0.71997,1.1649 10e-4,1.3495 -2.65704,0.6821 -2.41067,-0.6049 -3.35038,-0.4394 -2.77655,0.489 0.55049,0.8906 -0.18369,1.1285 -2.00963,0.651 -2.0203,-0.5282 -2.58313,-0.2768 -1.89012,0.8446 0.71998,1.1649 10e-4,1.3494 -2.65704,0.6821 -2.30605,-0.5787 -3.34096,-0.4243 -2.81874,0.4207 0.50537,0.8177 -0.52787,1.0765 -2.66596,0.6678 -2.24012,-0.4282 -3.18059,-0.1649 -2.62447,0.735 0.54965,0.8893 -0.18569,1.127 -2.01033,0.6498 -2.02031,-0.5282 -2.58314,-0.2768 -1.89012,0.8446 0.71997,1.1649 10e-4,1.3494 -2.65704,0.6821 -2.30606,-0.5787 -3.34096,-0.4243 -2.81875,0.4207 0.50537,0.8177 -0.52787,1.0765 -2.66596,0.6678 -2.24012,-0.4282 -3.18059,-0.1649 -2.62447,0.735 0.54966,0.8893 -0.18569,1.127 -2.01033,0.6498 -2.02031,-0.5282 -2.58313,-0.2768 -1.89012,0.8446 0.71997,1.1649 10e-4,1.3494 -2.65704,0.6821 -2.41067,-0.6049 -3.35037,-0.4395 -2.77655,0.4889 0.5505,0.8907 -0.18369,1.1286 -2.00962,0.6511 -2.02031,-0.5283 -2.58314,-0.2768 -1.89012,0.8445 0.71997,1.165 10e-4,1.3495 -2.65704,0.6822 -2.55822,-0.642 -3.3654,-0.4639 -2.70915,0.598 0.6138,0.993 0.17801,1.2221 -1.26903,0.6668 -1.24857,-0.4791 -2.71456,-0.039 -3.38216,1.0153 z M 554.47893,1080 c 1.44996,0 3.58538,-0.3642 4.74535,-0.8093 1.91699,-0.7356 2.10905,-38.9829 2.10905,-420.00002 C 561.33333,365.04532 560.91212,240 559.92131,240 c -0.77662,0 -1.0412,-0.6 -0.58798,-1.33333 0.5477,-0.8862 -55.56793,-1.33334 -167.33333,-1.33334 -111.7654,0 -167.88103,0.44714 -167.33333,1.33334 C 225.11989,239.4 224.85531,240 224.07869,240 c -0.77661,0 -1.41202,0.9 -1.41202,2 0,1.1 0.5908,2 1.31289,2 0.81239,0 0.98577,3.12969 0.45481,8.20963 -0.6404,6.12704 -0.46038,7.96382 0.70964,7.2407 1.16714,-0.72132 1.34471,0.92856 0.69495,6.45706 -0.60173,5.11984 -0.40805,7.42594 0.62369,7.42594 1.03727,0 1.23316,2.51911 0.63839,8.20963 -0.59152,5.65932 -0.41733,7.93721 0.56072,7.33275 0.97327,-0.60151 1.18516,1.69974 0.67479,7.32832 -0.54494,6.00961 -0.33272,7.95098 0.79305,7.25522 0.91863,-0.56774 1.53707,-0.082 1.53707,1.20742 0,1.18656 -0.48806,1.85574 -1.08455,1.48709 -0.59651,-0.36867 -0.91364,1.49992 -0.70475,4.15241 0.2089,2.6525 1.13867,5.29172 2.06618,5.86495 1.24421,0.76896 1.3398,2.01936 0.36454,4.76889 -0.727,2.04966 -1.12789,5.38683 -0.89088,7.41592 0.23702,2.02911 1.01774,3.32663 1.73494,2.88338 0.82912,-0.51243 0.96966,1.71424 0.38593,6.11462 -0.69187,5.21555 -0.46515,7.20043 0.92024,8.05664 1.39865,0.86443 1.52216,2.02732 0.51644,4.86278 -0.727,2.04965 -1.12789,5.38682 -0.89088,7.41592 0.23701,2.0291 0.94771,3.3699 1.57931,2.97954 0.6316,-0.39034 0.7972,2.69272 0.368,6.85126 -0.62324,6.03857 -0.42812,7.34329 0.96902,6.4798 1.34984,-0.83426 1.56863,-0.17738 0.95792,2.87614 -0.4353,2.17652 -0.90001,4.51982 -1.03269,5.20732 -0.13267,0.6875 -0.17017,2.93542 -0.0833,4.99536 0.0896,2.12682 0.73409,3.38924 1.49122,2.92131 0.73334,-0.45323 1.33334,-0.19741 1.33334,0.56845 0,0.94946 26.93809,1.50478 84.66689,1.74536 55.51747,0.23138 84.86011,-0.10613 85.22807,-0.98048 0.30865,-0.73333 0.60812,113.26667 0.6655,253.33334 l 0.10427,254.66666 -3.32357,0.19174 c -2.00948,0.11586 -2.98276,-0.3597 -2.46162,-1.20294 0.57298,-0.92709 -0.99464,-1.14565 -4.67578,-0.6519 -3.71606,0.49842 -5.2512,0.27912 -4.66667,-0.66667 0.58452,-0.94579 -0.95061,-1.16509 -4.66667,-0.66667 -3.71605,0.49843 -5.2512,0.27912 -4.66666,-0.66666 0.58717,-0.95007 -1.01975,-1.15582 -4.9304,-0.6313 -4.09834,0.54971 -5.23468,0.38387 -3.87079,-0.56492 1.36801,-0.95162 0.0325,-1.16109 -4.58244,-0.71872 -4.45499,0.42706 -5.92965,0.2136 -4.66667,-0.67546 1.24992,-0.87986 -0.3074,-1.05179 -4.82018,-0.53218 -4.95143,0.57014 -6.1521,0.39862 -4.66667,-0.66666 1.48543,-1.06527 0.28476,-1.23679 -4.66667,-0.66667 -4.94182,0.56903 -6.14921,0.39752 -4.66666,-0.66288 1.50538,-1.07675 0.59853,-1.27076 -3.66698,-0.78448 -3.78412,0.43139 -5.37754,0.17776 -4.79588,-0.7634 0.58452,-0.94579 -0.95061,-1.16509 -4.66666,-0.66667 -3.16143,0.42404 -5.21778,0.22504 -4.7921,-0.46373 0.41016,-0.66357 -0.18969,-1.20649 -1.33297,-1.20649 -1.61615,0 -2.08324,-1.55763 -2.09911,-7 -0.0133,-4.41939 -0.4425,-6.33388 -1.16534,-5.19314 -0.67383,1.0634 -0.93432,-2.2283 -0.63308,-8 0.33181,-6.35781 0.1,-8.86901 -0.65934,-7.1402 -0.75816,1.72627 -0.99326,-0.85981 -0.66666,-7.33333 0.33072,-6.55552 0.0961,-9.08147 -0.68111,-7.33333 -0.77261,1.73777 -0.97437,-0.58444 -0.57921,-6.66667 0.43498,-6.69519 0.21514,-8.76855 -0.77778,-7.3352 -0.98901,1.42771 -1.20158,-0.85613 -0.74465,-8 0.42952,-6.71515 0.23375,-9.12251 -0.59623,-7.33147 -0.82848,1.78783 -1.0202,-0.629 -0.58176,-7.33333 0.50136,-7.66644 0.29886,-9.53329 -0.8678,-8 -1.19453,1.56995 -1.3326,1.04259 -0.64208,-2.45251 0.48383,-2.44889 0.45076,-9.87188 -0.0735,-16.49556 -0.60554,-7.65065 -1.37572,-11.376 -2.11171,-10.21414 -0.85579,1.35097 -1.16387,1.04494 -1.17895,-1.17112 l -0.0204,-3 -75,0.0107 -75,0.0107 -1.33334,2.9896 c -0.73333,1.64428 -1.14446,4.95099 -0.91364,7.34824 0.23084,2.39727 0.96076,4.02425 1.62206,3.61556 0.68498,-0.42335 0.91908,2.14757 0.54402,5.97468 -0.39062,3.98601 -0.12173,6.71779 0.66111,6.71779 0.82125,0 1.00647,3.35162 0.49053,8.87664 -0.61293,6.56386 -0.42617,8.62772 0.71684,7.9213 0.91963,-0.56836 1.54575,-0.11333 1.54575,1.12336 0,1.14328 -0.49973,2.0787 -1.11051,2.0787 -0.61078,0 -0.96078,1.35 -0.77777,3 0.183,1.65 0.38272,4.38541 0.44384,6.07869 0.0611,1.69328 0.68513,2.72392 1.38672,2.29032 0.78699,-0.48639 0.96529,1.83168 0.46551,6.05163 -0.60159,5.0794 -0.33406,7.13421 1.03934,7.98302 1.41003,0.87144 1.53539,2.02847 0.52763,4.86968 -0.727,2.04966 -1.12789,5.38683 -0.89088,7.41592 0.23701,2.02911 1.00025,3.33743 1.69607,2.90739 0.77858,-0.4812 0.92948,2.07391 0.39234,6.64407 -0.59246,5.04096 -0.4017,7.42594 0.59396,7.42594 1.0029,0 1.20462,2.80718 0.63783,8.87664 -0.66392,7.10982 -0.48276,8.6627 0.91016,7.80183 1.30021,-0.80357 1.56804,-0.26773 1.06133,2.12337 -0.37276,1.75899 -0.8308,3.79816 -1.01788,4.5315 -0.18708,0.73333 -0.26909,3.01874 -0.18225,5.07869 0.0912,2.16461 0.72915,3.39229 1.5114,2.90884 0.88501,-0.54697 1.10393,1.73332 0.63248,6.58797 -0.43577,4.48724 -0.19985,7.4245 0.59633,7.4245 0.81867,0 1.00356,3.36025 0.48843,8.87664 -0.61293,6.56386 -0.42617,8.62772 0.71684,7.9213 0.91963,-0.56836 1.54575,-0.11333 1.54575,1.12336 0,1.14328 -0.5213,2.0787 -1.15844,2.0787 -0.63714,0 -0.93192,1.95 -0.65507,4.33333 0.27685,2.38333 1.08421,4.52869 1.79412,4.76745 0.76456,0.25715 0.95419,3.65439 0.46513,8.33334 -0.53745,5.14206 -0.33808,7.89921 0.57122,7.89921 0.90282,0 1.13372,2.90165 0.65286,8.2046 -0.55088,6.0752 -0.33918,7.95444 0.81564,7.24072 1.15672,-0.71489 1.33414,0.95441 0.68683,6.46207 -0.59247,5.04096 -0.40171,7.42594 0.59396,7.42594 1.00289,0 1.20461,2.80718 0.63783,8.87664 -0.61294,6.56386 -0.42618,8.62776 0.71684,7.92136 0.85016,-0.5254 1.54574,-0.25 1.54574,0.6122 0,0.9114 1.11688,1.2754 2.66851,0.8697 1.6786,-0.439 2.34361,-0.1722 1.79269,0.7192 -0.58841,0.9521 0.72356,1.1576 3.99816,0.6262 3.02659,-0.4912 4.87398,-0.2584 4.87398,0.6141 0,0.7727 1.20082,1.091 2.6685,0.7072 1.46768,-0.3838 2.37443,-0.222 2.015,0.3595 -0.35944,0.5816 0.53915,1.3693 1.99683,1.7505 1.45769,0.3812 2.98635,0.1494 3.39703,-0.5151 0.41068,-0.6645 1.34668,-1.2081 2.08001,-1.2081 0.73333,0 0.90464,0.6936 0.38067,1.5414 -0.6824,1.1042 0.25976,1.299 3.32092,0.6868 3.03146,-0.6063 4.0003,-0.4126 3.33333,0.6666 -0.66564,1.0771 0.28861,1.2756 3.26705,0.68 2.64972,-0.53 4.20732,-0.3067 4.20732,0.603 0,0.8751 1.31412,1.1148 3.33334,0.608 2.07924,-0.5219 3.33333,-0.2711 3.33333,0.6666 0,0.9508 1.26633,1.1855 3.44505,0.6387 2.48938,-0.6248 3.17162,-0.4223 2.45935,0.7302 -0.72344,1.1706 0.15136,1.3675 3.28789,0.7402 2.35048,-0.4701 3.95078,-0.3324 3.5562,0.3061 -0.39458,0.6384 0.75744,1.4427 2.56003,1.7873 1.8026,0.3446 2.9602,0.1132 2.57244,-0.5142 -0.38775,-0.6274 -0.0696,-1.1407 0.70701,-1.1407 0.77662,0 1.41203,0.6699 1.41203,1.4888 0,0.8629 1.19452,1.1765 2.84111,0.7459 1.67469,-0.438 3.70301,0.1189 4.94048,1.3564 1.39218,1.3922 2.26913,1.5901 2.60333,0.5874 0.27719,-0.8315 1.08937,-1.5119 1.80488,-1.5119 0.71551,0 0.88027,0.6806 0.36616,1.5125 -0.64611,1.0454 0.33716,1.3258 3.18423,0.9079 2.47624,-0.3634 3.79849,-0.086 3.31541,0.6957 -0.49967,0.8085 0.91372,0.9701 3.73708,0.4273 3.39939,-0.6536 4.03797,-0.5167 2.54065,0.5445 -1.52724,1.0825 -0.84021,1.3055 2.90647,0.9435 2.78479,-0.2691 4.57673,0.059 4.14395,0.7598 -0.43211,0.6991 1.02238,0.9718 3.35644,0.6292 2.41596,-0.3546 3.79414,-0.079 3.33333,0.6667 -0.46081,0.7456 0.91737,1.0212 3.33333,0.6667 2.26544,-0.3325 3.85767,-0.1818 3.53827,0.335 -0.31939,0.5168 0.91229,1.225 2.73708,1.5739 1.91937,0.3669 3.3264,0.01 3.33821,-0.8476 0.0107,-0.8149 0.54982,-0.6457 1.19686,0.3761 0.6896,1.089 2.33724,1.5543 3.98142,1.1244 1.54275,-0.4035 2.50162,-0.2427 2.13082,0.3573 -0.3708,0.5999 1.70308,1.4925 4.6086,1.9833 2.90552,0.4909 6.50806,0.5037 8.00566,0.028 1.68778,-0.5357 2.7229,-0.2682 2.7229,0.7035 0,1.0065 1.1934,1.2682 3.33333,0.7311 2.07924,-0.5218 3.33333,-0.271 3.33333,0.6667 0,0.9507 1.26634,1.1855 3.44506,0.6386 2.48937,-0.6248 3.17161,-0.4222 2.45934,0.7303 -0.72344,1.1705 0.15136,1.3675 3.2879,0.7402 3.03146,-0.6063 4.0003,-0.4126 3.33333,0.6666 -0.66697,1.0792 0.30187,1.273 3.33333,0.6667 3.03147,-0.6063 4.00031,-0.4125 3.33334,0.6667 -0.66564,1.077 0.28861,1.2756 3.26705,0.6799 2.64972,-0.53 4.20732,-0.3067 4.20732,0.6031 0,0.8875 1.32836,1.1111 3.44505,0.5799 2.48938,-0.6248 3.17162,-0.4223 2.45935,0.7302 -0.72344,1.1706 0.15136,1.3675 3.28789,0.7402 3.03147,-0.6063 4.00031,-0.4125 3.33334,0.6667 -0.66698,1.0792 0.30186,1.2729 3.33333,0.6666 3.03147,-0.6063 4.00031,-0.4125 3.33333,0.6667 -0.66697,1.0792 0.30187,1.273 3.33334,0.6667 3.03146,-0.6063 4.0003,-0.4126 3.33333,0.6666 -0.66697,1.0792 0.30187,1.273 3.33333,0.6667 3.03147,-0.6063 4.00031,-0.4125 3.33334,0.6667 -0.66698,1.0792 0.30186,1.2729 3.33333,0.6666 3.03147,-0.6063 4.00031,-0.4125 3.33333,0.6667 -0.66697,1.0792 0.30187,1.273 3.33334,0.6667 2.35048,-0.4701 3.95077,-0.3324 3.5562,0.306 -0.39459,0.6385 0.75744,1.4428 2.56002,1.7873 1.8026,0.3446 2.9602,0.1132 2.57244,-0.5142 -0.38774,-0.6274 -0.0696,-1.1407 0.70702,-1.1407 0.77661,0 1.41202,0.67 1.41202,1.4888 0,0.8642 1.3815,1.2247 3.29299,0.8593 1.81113,-0.3462 3.01813,-0.1848 2.6822,0.3587 -0.33592,0.5436 0.86408,1.2702 2.66667,1.6148 1.8026,0.3446 2.9602,0.1132 2.57244,-0.5142 -0.38775,-0.6274 -0.0696,-1.1407 0.70701,-1.1407 0.77661,0 1.41203,0.665 1.41203,1.4779 0,0.9234 1.29254,1.1534 3.44505,0.6132 1.99209,-0.5 3.12332,-0.3441 2.6822,0.3697 -0.41956,0.6788 0.71201,1.5162 2.5146,1.8608 1.8026,0.3446 2.9602,0.1132 2.57244,-0.5142 -0.38775,-0.6274 -0.0696,-1.1407 0.70701,-1.1407 0.77662,0 1.41203,0.6699 1.41203,1.4887 0,0.8642 1.38149,1.2247 3.29299,0.8593 2.01525,-0.3852 2.96952,-0.1061 2.45934,0.7194 -0.5372,0.8692 0.78103,1.0384 3.70702,0.4759 3.39938,-0.6535 4.03797,-0.5167 2.54065,0.5445 -1.52724,1.0825 -0.84021,1.3055 2.90647,0.9435 2.69856,-0.2607 4.65532,-0.068 4.34833,0.4291 -0.30697,0.4967 0.63511,1.2151 2.09353,1.5965 1.45842,0.3814 2.65167,0.1496 2.65167,-0.5151 0,-0.6647 0.63541,-1.2085 1.41203,-1.2085 0.77661,0 0.99137,0.6806 0.47726,1.5125 -0.6461,1.0454 0.33716,1.3257 3.18423,0.9079 2.41596,-0.3546 3.79415,-0.079 3.33333,0.6666 -0.46081,0.7457 0.91738,1.0213 3.33334,0.6667 2.41596,-0.3546 3.79414,-0.079 3.33333,0.6667 -0.46081,0.7456 0.91737,1.0212 3.33333,0.6666 2.41596,-0.3545 3.79415,-0.079 3.33334,0.6667 -0.46082,0.7456 0.91737,1.0213 3.33333,0.6667 2.41596,-0.3546 3.79415,-0.079 3.33333,0.6666 -0.46081,0.7457 0.91738,1.0213 3.33334,0.6667 2.41596,-0.3546 3.79414,-0.079 3.33333,0.6667 -0.46081,0.7456 0.91737,1.0212 3.33333,0.6666 2.41596,-0.3545 3.79415,-0.079 3.33334,0.6667 -0.46082,0.7456 0.91737,1.0213 3.33333,0.6667 2.41596,-0.3546 3.79415,-0.079 3.33333,0.6666 -0.46081,0.7457 0.91738,1.0213 3.33334,0.6667 2.41596,-0.3546 3.79414,-0.079 3.33333,0.6667 -0.46081,0.7456 0.91737,1.0212 3.33333,0.6666 2.41596,-0.3545 3.79415,-0.079 3.33334,0.6667 -0.46082,0.7456 0.91737,1.0213 3.33333,0.6667 2.41596,-0.3546 3.79415,-0.079 3.33333,0.6666 -0.46081,0.7457 0.91738,1.0213 3.33334,0.6667 2.26544,-0.3325 3.85766,-0.1817 3.53826,0.3351 -0.31938,0.5168 0.9123,1.225 2.73708,1.5738 1.91938,0.3669 3.3264,0.01 3.33822,-0.8475 0.0107,-0.815 0.54981,-0.6457 1.19685,0.3761 0.6896,1.089 2.33724,1.5543 3.98143,1.1243 1.54274,-0.4034 2.46874,-0.1894 2.05778,0.4755 -0.41096,0.6645 0.43915,1.2085 1.88912,1.2085 z M 316.88304,785.66667 c -0.36988,0.91666 -0.67252,0.16666 -0.67252,-1.66667 0,-1.83333 0.30264,-2.58333 0.67252,-1.66667 0.36988,0.91667 0.36988,2.41667 0,3.33334 z M 228.55556,239.89473 c -1.55327,-0.064 -1.8692,-0.37992 -0.80556,-0.80554 0.96249,-0.38516 2.11249,-0.3378 2.55556,0.1052 0.44305,0.44305 -0.34445,0.75818 -1.75,0.70029 z m 22.77777,-0.36801 c -6.6,-0.004 -9.13189,-0.23285 -5.62644,-0.50841 3.50547,-0.27558 8.90547,-0.27224 12,0.008 3.09455,0.27962 0.22644,0.50509 -6.37356,0.50102 z m 40,0 c -6.6,-0.004 -9.13189,-0.23285 -5.62644,-0.50841 3.50547,-0.27558 8.90547,-0.27224 12,0.008 3.09455,0.27962 0.22644,0.50509 -6.37356,0.50102 z m 40,0 c -6.6,-0.004 -9.13189,-0.23285 -5.62644,-0.50841 3.50547,-0.27558 8.90547,-0.27224 12,0.008 3.09455,0.27962 0.22644,0.50509 -6.37356,0.50102 z m 40,0 c -6.6,-0.004 -9.13189,-0.23285 -5.62644,-0.50841 3.50547,-0.27558 8.90547,-0.27224 12,0.008 3.09455,0.27962 0.22644,0.50509 -6.37356,0.50102 z m 40,0 c -6.6,-0.004 -9.13189,-0.23285 -5.62644,-0.50841 3.50547,-0.27558 8.90547,-0.27224 12,0.008 3.09455,0.27962 0.22644,0.50509 -6.37356,0.50102 z m 40,0 c -6.6,-0.004 -9.13189,-0.23285 -5.62644,-0.50841 3.50547,-0.27558 8.90547,-0.27224 12,0.008 3.09455,0.27962 0.22644,0.50509 -6.37356,0.50102 z m 40,0 c -6.6,-0.004 -9.13189,-0.23285 -5.62644,-0.50841 3.50547,-0.27558 8.90547,-0.27224 12,0.008 3.09455,0.27962 0.22644,0.50509 -6.37356,0.50102 z m 39.33334,0.008 c -6.23334,0 -8.78334,-0.22968 -5.66667,-0.5104 3.11667,-0.28071 8.21667,-0.28071 11.33333,0 3.11667,0.28072 0.56667,0.5104 -5.66666,0.5104 z m 113.46449,840.21348 c 2.58605,0.197 3.74372,-0.2047 3.18677,-1.1059 -0.58277,-0.9429 0.34144,-1.11 2.76922,-0.5007 2.55216,0.6406 3.36474,0.4629 2.7121,-0.5931 -0.65646,-1.0622 0.33099,-1.2552 3.34179,-0.653 2.73993,0.548 3.97444,0.3706 3.43996,-0.4942 -0.51571,-0.8344 0.49781,-1.0943 2.65752,-0.6814 2.3806,0.455 3.19496,0.1881 2.56003,-0.8392 -0.6556,-1.0608 0.33344,-1.2537 3.34249,-0.6519 2.73993,0.548 3.97444,0.3707 3.43996,-0.4941 -0.51571,-0.8345 0.49781,-1.0944 2.65752,-0.6815 2.13627,0.4084 3.17117,0.1496 2.66667,-0.6667 -0.50451,-0.8163 0.5304,-1.075 2.66666,-0.6666 2.3806,0.455 3.19496,0.1881 2.56003,-0.8392 -0.6556,-1.0608 0.33344,-1.2537 3.34249,-0.6519 2.73994,0.548 3.97444,0.3707 3.43996,-0.4941 -0.5157,-0.8345 0.49782,-1.0944 2.65752,-0.6815 2.3806,0.4551 3.19496,0.1881 2.56003,-0.8392 -0.6556,-1.0608 0.33344,-1.2537 3.34249,-0.6519 2.73994,0.548 3.97444,0.3707 3.43996,-0.4941 -0.5157,-0.8344 0.49782,-1.0943 2.65752,-0.6815 2.13627,0.4084 3.17118,0.1497 2.66667,-0.6666 -0.50451,-0.8164 0.5304,-1.0751 2.66667,-0.6667 2.3806,0.4551 3.19496,0.1881 2.56002,-0.8392 -0.6556,-1.0608 0.33344,-1.2537 3.3425,-0.6519 2.73993,0.548 3.97444,0.3707 3.43996,-0.4941 -0.51571,-0.8344 0.49781,-1.0943 2.65752,-0.6815 2.4685,0.4719 3.20509,0.2046 2.5146,-0.9127 -0.70114,-1.1344 -0.005,-1.3362 2.46849,-0.7154 1.93056,0.4845 3.44505,0.2962 3.44505,-0.4284 0,-0.7111 1.58918,-0.9891 3.5315,-0.6179 2.16541,0.414 3.21257,0.1591 2.70702,-0.6589 -0.5045,-0.8163 0.5304,-1.075 2.66667,-0.6667 2.3806,0.4551 3.19496,0.1882 2.56003,-0.8392 -0.6556,-1.0608 0.33344,-1.2536 3.34249,-0.6518 2.73993,0.548 3.97444,0.3706 3.43996,-0.4942 -0.51571,-0.8344 0.49781,-1.0943 2.65752,-0.6814 2.56497,0.4903 3.21741,0.2244 2.45935,-1.0022 -0.75544,-1.2223 -0.2728,-1.4286 1.80182,-0.7701 1.65222,0.5244 2.83364,0.3199 2.83364,-0.4905 0,-0.8484 1.63911,-1.062 4.20732,-0.5484 2.69143,0.5383 3.90696,0.3555 3.37368,-0.5074 -0.5157,-0.8344 0.49782,-1.0943 2.65752,-0.6814 2.3806,0.455 3.19496,0.1881 2.56003,-0.8392 -0.6556,-1.0608 0.33344,-1.2537 3.34249,-0.6519 2.73994,0.548 3.97444,0.3707 3.43996,-0.4941 -0.5157,-0.8345 0.49782,-1.0944 2.65752,-0.6815 2.13627,0.4084 3.17118,0.1496 2.66667,-0.6667 -0.50451,-0.8163 0.5304,-1.075 2.66667,-0.6666 2.3806,0.455 3.19496,0.1881 2.56002,-0.8392 -0.6556,-1.0608 0.33344,-1.2537 3.3425,-0.6519 2.73993,0.548 3.97444,0.3707 3.43996,-0.4941 -0.51571,-0.8345 0.49781,-1.0944 2.65752,-0.6815 2.3806,0.4551 3.19496,0.1881 2.56002,-0.8392 -0.6556,-1.0608 0.33344,-1.2537 3.3425,-0.6519 3.32636,0.6653 4.03422,0.4674 3.1936,-0.8927 -0.73555,-1.1902 -0.56146,-1.427 0.54586,-0.7427 0.89422,0.5527 3.7036,0.6151 6.24307,0.1387 2.53945,-0.4764 4.27069,-1.4269 3.8472,-2.1121 -0.45539,-0.7368 0.97613,-0.8966 3.5036,-0.3912 2.73993,0.548 3.97444,0.3707 3.43996,-0.4941 -0.51571,-0.8344 0.49781,-1.0943 2.65752,-0.6815 2.3806,0.4551 3.19496,0.1882 2.56003,-0.8392 -0.6556,-1.0608 0.33344,-1.2536 3.34249,-0.6518 2.73993,0.548 3.97444,0.3706 3.43996,-0.4942 -0.51571,-0.8344 0.49781,-1.0943 2.65752,-0.6814 2.13627,0.4083 3.17117,0.1496 2.66667,-0.6667 -0.50451,-0.8163 0.5304,-1.075 2.66666,-0.6667 2.3806,0.4551 3.19496,0.1882 2.56003,-0.8392 -0.6556,-1.0608 0.33344,-1.2536 3.34249,-0.6518 2.73994,0.548 3.97444,0.3706 3.43996,-0.4942 -0.5157,-0.8344 0.49782,-1.0943 2.65752,-0.6814 2.3806,0.455 3.19496,0.1881 2.56003,-0.8392 -0.6556,-1.0608 0.33344,-1.2537 3.34249,-0.6519 3.32636,0.6653 4.03423,0.4674 3.1936,-0.8927 -0.73554,-1.1902 -0.56145,-1.427 0.54587,-0.7427 0.89421,0.5527 3.7036,0.6151 6.24307,0.1387 2.53945,-0.4764 4.27069,-1.4269 3.8472,-2.1121 -0.45539,-0.7369 0.97613,-0.8967 3.5036,-0.3912 2.86377,0.5728 3.98466,0.3872 3.39777,-0.5624 -0.55095,-0.8914 0.114,-1.1583 1.79268,-0.7193 1.51229,0.3955 2.66851,0.042 2.66851,-0.8164 0,-0.9721 1.26454,-1.1969 3.5322,-0.6277 2.46158,0.6178 3.24977,0.4295 2.60038,-0.6212 -0.65646,-1.0622 0.33099,-1.2551 3.34179,-0.653 2.86377,0.5728 3.98467,0.3872 3.39777,-0.5624 -0.55094,-0.8914 0.114,-1.1583 1.79268,-0.7193 1.49256,0.3903 2.66851,0.042 2.66851,-0.791 0,-0.8189 0.63541,-1.4888 1.41203,-1.4888 0.77661,0 1.09476,0.5133 0.70701,1.1407 -0.38776,0.6274 0.76984,0.8588 2.57244,0.5142 1.80259,-0.3446 3.00259,-1.0713 2.66667,-1.6148 -0.33594,-0.5435 0.96024,-0.6879 2.88037,-0.3209 2.3806,0.4551 3.19496,0.1882 2.56003,-0.8392 -0.6556,-1.0608 0.33344,-1.2536 3.34249,-0.6518 2.73993,0.548 3.97444,0.3706 3.43996,-0.4942 -0.51571,-0.8344 0.49781,-1.0943 2.65752,-0.6814 2.13627,0.4083 3.17117,0.1496 2.66667,-0.6667 -0.50451,-0.8163 0.5304,-1.075 2.66666,-0.6667 2.3806,0.4551 3.19496,0.1882 2.56003,-0.8392 -0.6556,-1.0608 0.33344,-1.2536 3.34249,-0.6518 2.73994,0.548 3.97444,0.3706 3.43996,-0.4942 -0.5157,-0.8344 0.49782,-1.0943 2.65752,-0.6814 2.3806,0.455 3.19496,0.1881 2.56003,-0.8392 -0.6556,-1.0608 0.33344,-1.2537 3.34249,-0.6519 2.73994,0.548 3.97444,0.3707 3.43996,-0.4941 -0.5157,-0.8345 0.49782,-1.0944 2.65752,-0.6815 2.24012,0.4282 3.18059,0.1649 2.62447,-0.7349 -0.54012,-0.874 0.13879,-1.1394 1.80184,-0.7045 1.49256,0.3903 2.66851,0.042 2.66851,-0.791 0,-0.8189 0.63541,-1.4889 1.41202,-1.4889 0.77662,0 1.04544,0.5932 0.59742,1.3181 -0.46712,0.7558 0.0681,0.9793 1.25464,0.524 1.13809,-0.4367 2.06925,-1.3653 2.06925,-2.0634 0,-0.6982 0.68932,-0.8434 1.53181,-0.3227 1.1211,0.6929 1.29146,-0.9842 0.63539,-6.25461 -0.67032,-5.38481 -0.52684,-6.69685 0.56879,-5.20136 1.09733,1.49783 1.30734,-0.30698 0.8364,-7.18801 -0.42447,-6.20207 -0.20511,-8.58528 0.67498,-7.33333 0.87788,1.24878 1.08447,-1.19438 0.6324,-7.47866 -0.37552,-5.22005 -0.20432,-8.1581 0.38848,-6.66666 0.76338,1.92064 1.2005,0.5566 1.5625,-4.87578 0.27641,-4.14834 0.0525,-7.26293 -0.49742,-6.9213 -0.55,0.34161 -0.99081,-0.76428 -0.97958,-2.45756 0.0168,-2.53956 0.26796,-2.72846 1.43394,-1.0787 1.0307,1.45832 1.24322,-0.48846 0.7847,-7.18801 -0.42196,-6.16535 -0.20264,-8.57787 0.66666,-7.33333 0.86931,1.24453 1.08863,-1.16799 0.66667,-7.33334 -0.42405,-6.19593 -0.20469,-8.58404 0.67359,-7.33333 0.87197,1.24171 1.063,-1.44972 0.57801,-8.14345 -0.51845,-7.15552 -0.32851,-9.43003 0.66807,-8 0.99806,1.43218 1.18172,-0.64543 0.6484,-7.3352 -0.53903,-6.76143 -0.35532,-8.78222 0.66666,-7.33334 1.02484,1.45292 1.22708,-0.55304 0.73932,-7.33333 -0.45466,-6.32024 -0.27036,-8.47245 0.5709,-6.66667 0.85186,1.82855 1.08376,-0.4763 0.73782,-7.33333 -0.32932,-6.52757 -0.0945,-9.07401 0.67614,-7.33333 0.75606,1.70772 0.95066,-0.92872 0.54112,-7.33147 -0.45916,-7.17869 -0.24683,-9.43467 0.75297,-8 1.00104,1.43645 1.20373,-0.62547 0.72105,-7.3352 -0.45802,-6.36701 -0.27357,-8.48581 0.58036,-6.66667 0.8514,1.81372 1.04724,-0.53129 0.61228,-7.33146 -0.45916,-7.1787 -0.24682,-9.43467 0.75298,-8 0.99806,1.43218 1.18172,-0.64543 0.6484,-7.3352 -0.53903,-6.76143 -0.35532,-8.78222 0.66666,-7.33334 1.02484,1.45292 1.22708,-0.55304 0.73932,-7.33333 -0.4574,-6.35819 -0.27297,-8.48329 0.57858,-6.66667 0.85181,1.81723 1.07397,-0.73109 0.69742,-8 -0.3685,-7.11356 -0.14544,-9.77838 0.66967,-8 0.82368,1.79712 1.03103,-0.37673 0.63589,-6.66666 -0.40132,-6.3884 -0.19433,-8.49192 0.656,-6.66667 0.85303,1.83104 1.08194,-0.40641 0.7305,-7.1402 -0.33583,-6.43437 -0.0765,-9.18551 0.75412,-8 0.82822,1.18212 1.04852,-1.37 0.6371,-7.38115 -0.42405,-6.19593 -0.20469,-8.58404 0.67359,-7.33333 0.87463,1.24548 1.08761,-1.42996 0.64845,-8.14532 -0.43844,-6.70433 -0.24672,-9.12116 0.58176,-7.33333 0.82998,1.79104 1.02575,-0.61632 0.59623,-7.33147 -0.45916,-7.17869 -0.24683,-9.43467 0.75297,-8 0.99807,1.43219 1.18172,-0.64543 0.6484,-7.3352 -0.53902,-6.76143 -0.35532,-8.78221 0.66667,-7.33333 1.02199,1.44888 1.20568,-0.57191 0.66667,-7.33334 -0.53903,-6.76142 -0.35532,-8.78221 0.66671,-7.33333 1.0248,1.45292 1.227,-0.55304 0.7393,-7.33333 -0.4581,-6.36702 -0.2736,-8.48582 0.5803,-6.66667 0.8583,1.82825 1.0729,-0.4774 0.6828,-7.33333 -0.3855,-6.77318 -0.1704,-9.13951 0.6666,-7.33334 0.83,1.79104 1.0258,-0.61632 0.5962,-7.33146 -0.4569,-7.14387 -0.2443,-9.42771 0.7447,-8 0.9929,1.43334 1.2128,-0.64002 0.7778,-7.3352 -0.3985,-6.13295 -0.1966,-8.41894 0.5887,-6.66667 0.7754,1.73041 0.9705,-0.84364 0.5555,-7.33147 -0.4591,-7.17869 -0.2468,-9.43466 0.753,-8 0.9981,1.43219 1.1817,-0.64542 0.6484,-7.3352 -0.5365,-6.72936 -0.3528,-8.77533 0.6583,-7.33333 1.0164,1.44941 1.2293,-0.5294 0.7736,-7.18801 -0.424,-6.19594 -0.2047,-8.58404 0.6736,-7.33334 0.8746,1.24548 1.0876,-1.42996 0.6485,-8.14532 -0.4146,-6.33892 -0.2249,-9.0237 0.5182,-7.33333 0.8876,2.01929 1.1012,1.37192 0.8798,-2.66667 L 1011.3333,542.0006 905,541.65928 798.66667,541.31797 v -74.40198 -74.402 l 110.74625,0.0767 c 60.91044,0.0421 111.96318,-0.37352 113.45048,-0.92372 2.3231,-0.85937 2.5944,-1.799 1.9249,-6.66666 -0.5955,-4.33078 -0.4607,-5.03778 0.5722,-2.99964 0.9835,1.94068 1.1773,-0.0553 0.7119,-7.33147 -0.4569,-7.14387 -0.2443,-9.42771 0.7447,-8 0.9929,1.43335 1.2127,-0.64001 0.7777,-7.3352 -0.3978,-6.12339 -0.1959,-8.4162 0.5869,-6.66667 0.7767,1.73574 1.0004,-1.05708 0.6407,-8 -0.3681,-7.10668 -0.145,-9.77666 0.6685,-8 0.8103,1.76964 1.0059,-0.69653 0.5815,-7.33146 -0.4569,-7.14387 -0.2443,-9.42771 0.7447,-8 0.9929,1.43334 1.2127,-0.64002 0.7777,-7.3352 -0.3989,-6.13986 -0.197,-8.42091 0.59,-6.66667 0.7759,1.72937 0.9847,-1.08252 0.594,-8 -0.4119,-7.29364 -0.2035,-9.82341 0.6591,-8 0.8814,1.86327 1.0974,-0.10147 0.7169,-6.52135 -0.3686,-6.21949 -0.1237,-8.58878 0.7578,-7.33333 0.8747,1.24548 1.0877,-1.42996 0.6485,-8.14532 -0.4384,-6.70433 -0.2467,-9.12116 0.5818,-7.33333 0.8299,1.79104 1.0257,-0.61632 0.5962,-7.33147 -0.4391,-6.86448 -0.2254,-9.37187 0.6817,-8 0.9634,1.45701 1.2207,0.5538 0.9502,-3.3352 L 1038,238.00063 840.90917,237.66289 c -180.23365,-0.30885 -197.27569,-0.15288 -199.25218,1.8236 -1.97502,1.97502 -2.16835,21.37327 -2.24251,225.00442 -0.0447,122.56368 0.13605,224.48693 0.40152,226.49612 0.26547,2.00917 1.01547,3.32377 1.66667,2.9213 0.6512,-0.40246 1.184,-0.0964 1.184,0.68027 0,0.98135 30.70005,1.41203 100.65173,1.41203 h 100.65173 l -0.10226,3 c -0.0563,1.65 0.34496,4.44382 0.89162,6.20849 0.73986,2.38831 0.5705,2.9468 -0.66252,2.18475 -1.27686,-0.78915 -1.49785,0.82482 -0.96434,7.04294 0.38066,4.43668 0.22153,8.25355 -0.35366,8.48192 -0.57517,0.22838 -1.39457,3.08404 -1.82089,6.34594 -0.50048,3.82936 -0.34233,5.24662 0.44633,4 0.94576,-1.49492 1.22607,-1.23582 1.24188,1.14798 0.012,1.78948 -0.55848,2.72091 -1.36202,2.2243 -0.86923,-0.53722 -1.27012,0.81356 -1.07987,3.6385 0.16641,2.4711 -0.20419,5.31287 -0.82357,6.31506 -0.7601,1.22986 -0.62579,1.5129 0.4132,0.87077 0.9732,-0.60147 1.53934,0.0583 1.53934,1.79399 0,1.50994 -0.5319,2.74536 -1.182,2.74536 -0.6501,0 -1.45006,1.82641 -1.77769,4.0587 -0.32763,2.23228 -0.0957,4.3677 0.51533,4.74536 0.61107,0.37766 1.11103,1.88664 1.11103,3.35331 0,1.46667 -0.53973,2.33311 -1.1994,1.9254 -0.65967,-0.40769 -1.40967,1.89963 -1.66667,5.12739 -0.257,3.22774 -0.0173,5.5905 0.53274,5.25054 0.55,-0.33994 1,0.35274 1,1.5393 0,1.18656 -0.53974,1.82381 -1.1994,1.4161 -0.65967,-0.40769 -1.414,1.9569 -1.67628,5.25464 -0.26228,3.29776 -0.0225,5.99592 0.53273,5.99592 0.55529,0 1.00961,0.63542 1.00961,1.41203 0,0.77661 -0.54212,1.07697 -1.2047,0.66747 -0.66259,-0.4095 -1.41259,2.19866 -1.66667,5.79593 -0.25408,3.59725 -0.012,6.26148 0.53804,5.92049 0.55,-0.34097 1,0.65086 1,2.20408 0,1.55323 -0.53973,2.49048 -1.1994,2.08278 -0.65967,-0.4077 -1.40967,1.89962 -1.66667,5.12738 -0.257,3.22775 -0.0173,5.59051 0.53274,5.25055 0.55,-0.33995 1,0.35273 1,1.53929 0,1.18656 -0.53974,1.82382 -1.1994,1.41611 -0.65967,-0.40769 -1.414,1.95689 -1.67628,5.25464 -0.26228,3.29776 -0.0225,5.99592 0.53273,5.99592 0.55529,0 1.00961,0.9 1.00961,2 0,1.1 -0.53697,2 -1.19328,2 -0.65632,0 -1.41736,2.34953 -1.69121,5.22117 -0.27385,2.87166 -0.0369,4.93624 0.52663,4.58799 0.56349,-0.34827 1.02453,0.63761 1.02453,2.19084 0,1.61005 -0.59428,2.45676 -1.38244,1.96965 -0.86923,-0.53721 -1.27012,0.81356 -1.07987,3.63851 0.16642,2.47109 -0.20418,5.31287 -0.82357,6.31505 -0.76009,1.22987 -0.62579,1.51291 0.4132,0.87078 0.92127,-0.57003 1.53931,-0.0858 1.53931,1.20538 0,1.18656 -0.6,1.78656 -1.33334,1.33334 -0.73509,-0.45431 -1.37152,0.55732 -1.41845,2.25464 -0.0468,1.69328 -0.28359,5.11181 -0.52617,7.59672 -0.29074,2.97825 -0.0415,3.88708 0.73137,2.66666 0.87171,-1.3765 1.17765,-1.06172 1.19284,1.22734 0.012,1.71676 -0.56941,2.71414 -1.31292,2.25464 -0.75621,-0.46736 -1.33333,0.65282 -1.33333,2.58797 0,1.87661 -0.63542,3.41203 -1.41203,3.41203 -0.77661,0 -1.06316,0.56445 -0.63679,1.25436 0.46247,0.74829 -1.20318,0.93329 -4.12861,0.45856 -3.38584,-0.54944 -4.62405,-0.34307 -4,0.66666 0.62089,1.00462 -0.67083,1.24391 -4.12603,0.76435 -3.76209,-0.52216 -4.52577,-0.34373 -3.02988,0.70785 1.4779,1.03894 0.64063,1.18748 -3.2073,0.569 -3.73099,-0.59969 -4.94072,-0.40566 -4.26704,0.68438 0.66694,1.07914 -0.30195,1.27292 -3.33336,0.66662 -2.93967,-0.58793 -3.99148,-0.39822 -3.36974,0.60778 0.62408,1.00978 -0.61408,1.21616 -3.99998,0.66669 -3.49328,-0.56688 -4.63339,-0.35817 -3.96359,0.72557 0.66695,1.07915 -0.30195,1.27292 -3.33336,0.66663 -2.93967,-0.58793 -3.99148,-0.39823 -3.36973,0.60777 0.62408,1.00979 -0.61408,1.21616 -3.99999,0.6667 -3.38584,-0.54944 -4.62405,-0.34307 -4,0.66666 0.62089,1.00462 -0.67083,1.24391 -4.12603,0.76435 -3.76209,-0.52216 -4.52577,-0.34373 -3.02988,0.70785 1.4779,1.03894 0.64063,1.18748 -3.2073,0.569 -3.6168,-0.58133 -4.93123,-0.39029 -4.30346,0.62547 0.6209,1.00461 -0.67082,1.24391 -4.12602,0.76435 -3.7621,-0.52216 -4.52578,-0.34374 -3.02988,0.70785 1.47789,1.03893 0.64062,1.18748 -3.20731,0.569 -3.73099,-0.59969 -4.94072,-0.40567 -4.26704,0.68437 0.66695,1.07915 -0.30195,1.27292 -3.33336,0.66663 -2.93967,-0.58793 -3.99148,-0.39823 -3.36973,0.60777 0.62408,1.00979 -0.61408,1.21616 -3.99999,0.6667 -3.49328,-0.56688 -4.63339,-0.35818 -3.96359,0.72557 0.66695,1.07915 -0.30194,1.27292 -3.33336,0.66663 -2.93966,-0.58794 -3.99148,-0.39823 -3.36973,0.60777 0.62408,1.00979 -0.61408,1.21616 -3.99999,0.66669 -2.947,-0.47822 -4.59241,-0.29188 -4.1234,0.467 0.45535,0.73676 -1.26334,1.06532 -4.12604,0.78874 -3.68904,-0.35642 -4.41021,-0.1312 -2.90646,0.90753 1.45838,1.00744 0.58984,1.15491 -3.20731,0.5446 -3.73099,-0.59969 -4.94072,-0.40567 -4.26704,0.68437 0.66695,1.07915 -0.30195,1.27292 -3.33336,0.66663 -2.93967,-0.58793 -3.99148,-0.39823 -3.36973,0.60777 0.62408,1.00979 -0.61408,1.21616 -3.99999,0.6667 -3.38584,-0.54944 -4.62405,-0.34307 -4,0.66666 0.62089,1.00462 -0.67083,1.24391 -4.12603,0.76435 -3.76209,-0.52216 -4.52577,-0.34373 -3.02988,0.70785 1.4779,1.03894 0.64063,1.18748 -3.2073,0.569 -3.15044,-0.50638 -4.89903,-0.33818 -4.42686,0.4258 0.45535,0.73676 -1.26334,1.06532 -4.12604,0.78874 -3.68904,-0.35642 -4.41021,-0.1312 -2.90646,0.90753 1.45838,1.00744 0.58984,1.15491 -3.20731,0.5446 -3.73099,-0.59969 -4.94072,-0.40567 -4.26704,0.68437 0.66695,1.07915 -0.30195,1.27292 -3.33336,0.66663 -3.03147,-0.60629 -4.00031,-0.41252 -3.33333,0.66667 0.65892,1.06616 -0.22806,1.28773 -2.96431,0.74048 -2.47479,-0.49496 -4.28992,-0.15742 -4.95692,0.92181 -0.57879,0.93649 -1.12731,36.24695 -1.21895,78.46765 -0.0916,42.22077 0.0248,77.38847 0.25882,78.15067 0.23397,0.7621 2.25308,1.5249 4.48689,1.6952 z m 9.20217,-840.19648 c -5.5,0 -7.75,-0.23535 -5,-0.52301 2.75,-0.28766 7.25,-0.28766 10,0 2.75,0.28766 0.5,0.52301 -5,0.52301 z m 38,-0.0251 c -6.6,-0.004 -9.13189,-0.23285 -5.62644,-0.50841 3.50547,-0.27557 8.90547,-0.27224 12,0.008 3.09455,0.27963 0.22644,0.50509 -6.37356,0.50103 z m 40,0 c -6.6,-0.004 -9.13189,-0.23285 -5.62644,-0.50841 3.50547,-0.27557 8.90547,-0.27224 12,0.008 3.09455,0.27963 0.22644,0.50509 -6.37356,0.50103 z m 40,0 c -6.6,-0.004 -9.13189,-0.23285 -5.62644,-0.50841 3.50547,-0.27557 8.90547,-0.27224 12,0.008 3.09455,0.27963 0.22644,0.50509 -6.37356,0.50103 z m 40,0 c -6.6,-0.004 -9.13189,-0.23285 -5.62644,-0.50841 3.50547,-0.27557 8.90547,-0.27224 12,0.008 3.09455,0.27963 0.22644,0.50509 -6.37356,0.50103 z m 40,0 c -6.6,-0.004 -9.13189,-0.23285 -5.62644,-0.50841 3.50547,-0.27557 8.90547,-0.27224 12,0.008 3.09455,0.27963 0.22644,0.50509 -6.37356,0.50103 z m 40,0 c -6.6,-0.004 -9.13189,-0.23285 -5.62644,-0.50841 3.50547,-0.27557 8.90547,-0.27224 12,0.008 3.09455,0.27963 0.22644,0.50509 -6.37356,0.50103 z m 40,0 c -6.6,-0.004 -9.13189,-0.23285 -5.62644,-0.50841 3.50547,-0.27557 8.90547,-0.27224 12,0.008 3.09455,0.27963 0.22644,0.50509 -6.37356,0.50103 z m 40,0 c -6.6,-0.004 -9.13189,-0.23285 -5.62644,-0.50841 3.50547,-0.27557 8.90547,-0.27224 12,0.008 3.09455,0.27963 0.22644,0.50509 -6.37356,0.50103 z m 39.99997,0 c -6.6,-0.004 -9.1319,-0.23285 -5.6264,-0.50841 3.5055,-0.27557 8.9055,-0.27224 12,0.008 3.0945,0.27963 0.2264,0.50509 -6.3736,0.50103 z"
       id="path23206" />
  </g>
</svg>
