<?xml version="1.0" encoding="UTF-8" standalone="no"?>
<!-- Created with Inkscape (http://www.inkscape.org/) -->

<svg
   version="1.1"
   id="svg2111"
   width="500"
   height="500"
   viewBox="0 0 500 500"
   sodipodi:docname="PostgresIcon.svg"
   inkscape:version="1.1.2 (0a00cf5339, 2022-02-04)"
   xmlns:inkscape="http://www.inkscape.org/namespaces/inkscape"
   xmlns:sodipodi="http://sodipodi.sourceforge.net/DTD/sodipodi-0.dtd"
   xmlns="http://www.w3.org/2000/svg"
   xmlns:svg="http://www.w3.org/2000/svg">
  <defs
     id="defs2115" />
  <sodipodi:namedview
     id="namedview2113"
     pagecolor="#ffffff"
     bordercolor="#666666"
     borderopacity="1.0"
     inkscape:pageshadow="2"
     inkscape:pageopacity="0.0"
     inkscape:pagecheckerboard="0"
     showgrid="false"
     inkscape:zoom="1.0717087"
     inkscape:cx="17.262153"
     inkscape:cy="218.34291"
     inkscape:window-width="1920"
     inkscape:window-height="1011"
     inkscape:window-x="0"
     inkscape:window-y="0"
     inkscape:window-maximized="1"
     inkscape:current-layer="g2117" />
  <g
     inkscape:groupmode="layer"
     inkscape:label="Image"
     id="g2117">
    <g
       id="g66289"
       transform="matrix(0.98714647,0,0,0.95833333,3.2185098,25.416666)"
       style="stroke-width:1.02814">
      <path
         style="display:inline;fill:#000000;fill-opacity:1;stroke:none;stroke-width:5.14069;stroke-miterlimit:4;stroke-dasharray:none;stroke-opacity:1"
         d="m 293.8736,490 c -7.19186,0 -9.46606,-0.8761 -10.21916,-0.97146 l -2.7333,-0.34606 c -2.35463,-0.29813 -4.91208,0.0349 -8.59051,-1.34142 -2.89125,-1.08176 -7.81144,-3.84744 -10.93378,-6.14597 -3.12232,-2.29853 -7.55961,-6.73655 -9.86064,-9.86228 -2.30102,-3.12571 -5.22407,-7.89516 -6.49563,-10.59875 -1.27158,-2.70358 -3.60294,-8.58906 -5.1808,-13.07883 -1.57787,-4.48978 -3.51559,-11.29427 -4.30604,-15.1211 -0.79045,-3.82684 -1.88813,-10.93862 -2.43928,-15.80395 -0.55115,-4.86534 -1.36249,-17.26306 -1.80296,-27.55051 -0.44046,-10.28744 -0.95883,-18.86242 -1.15191,-19.05551 -0.1931,-0.19309 -3.9524,0.74578 -8.35402,2.08636 -7.03624,2.14301 -9.70977,2.4434 -22.13311,2.48677 -11.54165,0.0403 -15.63734,-0.32965 -22.35742,-2.01946 -4.52498,-1.13784 -10.88356,-3.40479 -14.13017,-5.03766 -3.24661,-1.63289 -7.4476,-4.18591 -9.33552,-5.67338 -1.88793,-1.48748 -3.73161,-2.70451 -4.09707,-2.70451 -0.36546,0 -3.05984,1.4575 -5.98751,3.2389 -2.92768,1.7814 -7.84455,3.95544 -10.92637,4.83119 -4.07582,1.15822 -7.67099,1.4592 -13.18816,1.10408 -4.17167,-0.26851 -9.49242,-1.23673 -11.8239,-2.1516 -2.33148,-0.91487 -7.08508,-3.52744 -10.563563,-5.8057 -3.47848,-2.27827 -8.709136,-6.76934 -11.62368,-9.98017 -2.914543,-3.21084 -7.653841,-9.36805 -10.531774,-13.6827 -2.877931,-4.31465 -7.673948,-12.65814 -10.657814,-18.54109 -2.983866,-5.88296 -7.961227,-17.18947 -11.060803,-25.12559 -3.099576,-7.93611 -7.558552,-20.36398 -9.908837,-27.61746 -2.350285,-7.25349 -6.187476,-20.1826 -8.527091,-28.73135 -2.339616,-8.54876 -5.960432,-22.96153 -8.046259,-32.02839 -2.085826,-9.06686 -4.878728,-22.40207 -6.206447,-29.63381 -1.73868,-9.47012 -2.255502,-14.7409 -1.847362,-18.84023 0.344965,-3.46478 -0.279415,-4.49319 -0.279415,-4.49319 -0.552925,0.78318 -1.199007,-4.23906 -1.199007,-4.23906 0,0 -0.362311,-9.88848 -0.373793,-15.32859 -0.01148,-5.44012 0.178166,-12.49992 0.421438,-15.68844 0.243272,-3.18853 1.286408,-5.27594 1.286408,-5.27594 l 0.214094,-5.04709 c 0.188117,-4.43468 -0.112602,-7.622931 1.858152,-15.448315 1.368484,-5.433916 4.057347,-13.523432 5.97525,-17.976703 1.917904,-4.453271 5.566484,-11.235754 8.107955,-15.072183 2.541471,-3.83643 7.598512,-9.961847 11.237868,-13.612038 3.639354,-3.650192 9.322019,-8.472678 12.628142,-10.716638 3.306123,-2.24396 9.452748,-5.691882 13.659166,-7.662048 4.206418,-1.970166 10.827322,-4.469055 14.713119,-5.553086 3.885797,-1.084031 10.880232,-2.596106 15.543193,-3.360168 4.72823,-0.774758 14.60238,-1.390878 22.32452,-1.392991 7.61553,-0.0021 18.84902,0.647824 24.9633,1.444239 6.11429,0.796415 15.95702,2.529272 21.87273,3.850793 5.91571,1.321522 14.79212,3.602771 19.72536,5.069443 l 8.96953,2.666676 5.23793,-2.641775 c 2.88087,-1.452977 8.93657,-3.946288 13.45711,-5.540692 4.52053,-1.594404 11.93887,-3.623186 16.4852,-4.508403 5.559,-1.082398 13.20201,-1.629016 23.33822,-1.669119 8.2897,-0.0328 19.94709,0.514987 25.90531,1.2173 10.73108,1.264903 10.93963,1.252036 22.13727,-1.36575 8.79085,-2.055126 13.39317,-2.614946 20.70006,-2.517929 5.37524,0.07137 8.85019,-0.21252 8.12061,-0.663424 -0.71199,-0.440037 6.46816,-0.7815123 16.25557,-0.773086 11.75004,0.01012 17.33372,0.334081 16.93301,0.982454 -0.4006,0.648166 1.45181,0.757367 5.61392,0.330947 4.59354,-0.470622 8.39416,-0.160105 14.58906,1.19195 4.6075,1.005602 11.73332,2.953378 15.83516,4.328392 4.10185,1.375013 11.0374,4.175707 15.41235,6.223765 4.37495,2.048056 12.2172,6.537956 17.42722,9.977554 6.4837,4.280474 13.07319,9.87572 20.8831,17.73217 9.52783,9.584613 12.04148,12.739294 15.23571,19.12117 2.10394,4.203548 4.59957,10.943713 5.54585,14.978143 1.35573,5.780101 1.70768,11.03022 1.66002,24.762542 -0.0475,13.67956 -0.51762,20.02847 -2.18623,29.52349 -1.16916,6.65295 -3.55503,17.88644 -5.30194,24.9633 -1.74691,7.07687 -4.4873,17.10106 -6.08977,22.276 -1.60247,5.17493 -4.66008,14.28889 -6.79468,20.25325 -2.13461,5.96434 -6.6215,17.20285 -9.97087,24.97444 -3.34937,7.7716 -8.63643,19.21704 -11.74902,25.43431 -3.1126,6.21728 -7.51269,14.5747 -9.77798,18.57205 -2.26529,3.99735 -4.11871,7.69842 -4.11871,8.22458 0,0.58821 1.72334,0.75104 4.47456,0.42277 2.461,-0.29366 9.34946,-1.38476 15.30768,-2.42469 7.08926,-1.23733 12.44762,-1.67744 15.50475,-1.27351 2.56938,0.3395 6.71843,1.49779 9.22009,2.57397 2.61365,1.12437 6.13626,3.76051 8.28106,6.19712 2.05289,2.33222 3.72853,4.92255 3.72364,5.7563 l 0.87673,5.1137 c 0.1743,1.12985 0.3169,3.32598 0.3169,4.8803 0,1.55432 -0.31878,4.90514 -0.31878,4.90514 l -0.89863,4.98598 c 0,0 -1.62259,3.74449 -3.58742,6.59408 -1.96483,2.84958 -7.13878,8.05787 -11.49768,11.57396 -4.78377,3.85883 -12.03987,8.42786 -18.3055,11.52663 -7.06062,3.49194 -13.54343,5.87671 -20.27136,7.45702 -5.44012,1.27782 -14.00749,2.76735 -19.03861,3.31006 -5.03112,0.54272 -12.13153,0.98675 -15.77869,0.98675 -6.60523,0 -6.63122,0.0102 -6.63454,2.59053 -0.002,1.42479 -0.43383,9.37302 -0.95998,17.66272 -0.52615,8.2897 -1.79365,20.7949 -2.81668,27.78934 -1.02302,6.99443 -2.94005,16.64627 -4.26005,21.44854 -1.32,4.80226 -3.81522,12.08701 -5.54493,16.18831 -1.72971,4.10131 -5.11587,10.42163 -7.52478,14.04515 -2.40891,3.62353 -7.52945,9.52962 -11.37897,13.12464 -4.25135,3.97029 -9.8803,8.02961 -14.33803,10.33986 -4.03639,2.09191 -11.15405,4.98704 -15.81701,6.43363 -5.7176,1.77378 -10.41976,2.07708 -14.35447,2.5526 l -5.42335,0.65544 C 303.76963,489.3239 299.82437,490 293.8736,490 Z"
         id="path38540"
         sodipodi:nodetypes="ssssssssssssssssssssssssssssssssscsscssssssssssssscssssssssssssssssssssssssssssssssccsccssssssssssssssssss" />
      <path
         style="display:inline;fill:#fffffe;fill-opacity:1;stroke:none;stroke-width:5.14069;stroke-miterlimit:4;stroke-dasharray:none;stroke-opacity:1"
         d="m 294.51195,476.90286 c 1.3873,0.0609 5.79083,-0.34381 9.78564,-0.89943 3.9948,-0.55562 10.91393,-2.06199 15.37585,-3.34747 4.46191,-1.28549 11.29186,-3.89927 15.17766,-5.80841 4.66549,-2.29222 8.98477,-5.39461 12.71716,-9.13433 3.10863,-3.11473 7.00421,-8.21792 8.65682,-11.3404 1.65262,-3.12249 4.08073,-9.39021 5.39581,-13.92827 1.31508,-4.53806 3.64836,-17.03186 5.18508,-27.76401 1.53672,-10.73215 3.90482,-29.05086 5.26246,-40.70825 1.35764,-11.6574 2.67303,-22.1963 2.9231,-23.41978 0.44032,-2.15438 0.65216,-2.20338 6.71709,-1.55388 3.44433,0.36885 10.62452,0.63719 15.95598,0.5963 5.33147,-0.0409 12.56119,-0.52185 16.06606,-1.06881 3.50486,-0.54695 9.46338,-1.83133 13.24114,-2.85418 3.77776,-1.02283 9.92439,-3.39571 13.65917,-5.27306 3.73477,-1.87735 8.69807,-4.68871 11.02955,-6.24746 2.33148,-1.55877 6.28586,-4.78816 8.78752,-7.17643 2.50165,-2.38829 5.15106,-5.48701 5.88757,-6.88608 0.7365,-1.39907 1.33911,-4.18653 1.33911,-6.19437 0,-2.57354 -0.62535,-4.23242 -2.11953,-5.62257 -1.16574,-1.08457 -3.68226,-2.26035 -5.59226,-2.61285 -2.18154,-0.40261 -7.96062,0.15626 -15.54319,1.50312 -8.15191,1.448 -15.89313,2.15501 -23.8456,2.17783 -10.09409,0.029 -12.41394,-0.25618 -16.24969,-1.99744 -2.46101,-1.11718 -4.47456,-2.38348 -4.47456,-2.814 0,-0.43051 4.04757,-7.55476 8.9946,-15.83166 4.94704,-8.2769 12.74019,-22.6792 17.31812,-32.00511 4.57793,-9.32591 10.55154,-22.46697 13.2747,-29.20235 2.72315,-6.73539 7.02134,-18.39278 9.55152,-25.90532 2.53018,-7.51254 6.0524,-19.16993 7.82715,-25.90531 1.77476,-6.73539 4.05985,-16.69716 5.078,-22.13727 1.01814,-5.44012 2.3716,-14.70766 3.00767,-20.59453 0.67847,-6.27913 0.92318,-15.23494 0.59203,-21.66627 -0.31047,-6.02957 -1.17943,-13.185843 -1.93102,-15.902829 -0.7516,-2.716987 -2.34006,-6.956038 -3.52993,-9.420115 -1.33074,-2.755797 -6.16813,-8.49761 -12.56839,-14.918221 -6.60032,-6.621303 -13.60188,-12.530328 -19.1478,-16.159936 -4.80853,-3.14702 -12.65078,-7.432228 -17.42721,-9.522684 -4.77642,-2.090458 -12.38732,-4.87068 -16.91312,-6.178273 -4.52579,-1.307593 -13.00389,-3.079837 -18.84022,-3.938319 -8.18387,-1.203739 -14.59845,-1.446371 -28.03874,-1.060521 -9.74112,0.279652 -21.16638,1.181295 -25.90531,2.04436 -4.66296,0.849229 -12.67049,2.637766 -17.79452,3.974528 l -9.31641,2.430474 -9.52382,-1.582185 c -5.2381,-0.870202 -14.18677,-1.824856 -19.88594,-2.121452 -5.69917,-0.296597 -14.19599,-0.06558 -18.88182,0.513367 -4.68584,0.578947 -11.89223,1.913225 -16.0142,2.965061 -4.12197,1.051835 -12.02,4.192917 -17.55116,6.98018 l -10.05667,5.067751 -11.60959,-3.723034 c -6.38528,-2.047668 -17.75623,-4.968022 -25.26877,-6.489673 -7.51254,-1.521651 -19.87815,-3.27901 -27.47911,-3.905242 -10.87688,-0.896129 -16.19029,-0.891524 -24.95051,0.02162 -6.1218,0.638123 -14.527548,2.021579 -18.679441,3.074345 -4.151894,1.052766 -11.364044,3.727227 -16.027001,5.943249 -4.662956,2.216021 -11.180978,6.077186 -14.48449,8.580367 -3.303514,2.503181 -8.283552,7.311949 -11.066753,10.686152 -2.7832,3.374204 -6.92483,9.762634 -9.203623,14.196511 -2.278792,4.433877 -5.220283,11.496201 -6.536647,15.694053 -1.316364,4.19785 -3.055938,12.094496 -3.865721,17.548116 -0.852867,5.74376 -1.472332,16.15535 -1.472332,24.74604 0,8.44944 0.627557,19.13818 1.458547,24.8424 0.802202,5.50662 2.934263,17.43036 4.737914,26.49722 1.803651,9.06686 5.776297,26.23502 8.8281,38.15147 3.051805,11.91644 8.346006,30.21412 11.764891,40.6615 3.418887,10.44738 8.315429,24.10224 10.881204,30.34413 2.565775,6.24188 6.546031,15.09414 8.845011,19.67168 2.298981,4.57755 6.747757,12.1617 9.88617,16.85368 3.138413,4.69198 8.424512,11.07371 11.746886,14.18163 3.322375,3.10792 8.105865,6.66632 10.629985,7.90756 3.53903,1.74032 6.09839,2.25149 11.18339,2.23362 4.66624,-0.0164 7.86711,-0.60436 10.94843,-2.01107 2.39491,-1.09335 6.17028,-3.62531 8.38973,-5.62659 2.21945,-2.00127 19.73954,-21.12734 19.73954,-21.12734 l 7.79243,-9.02876 v 0 l 2.99109,-3.10188 6.33112,-7.13348 c 0,0 1.15688,-2.17909 3.17126,-4.24201 2.01439,-2.06291 4.15846,-3.75075 4.76461,-3.75075 0.60615,0 3.12415,0.89445 5.59556,1.98767 2.47139,1.09322 8.14059,2.70551 12.59818,3.58288 1.90956,0.69536 8.39784,1.87989 7.11984,2.82779 0,0 -5.86458,10.99362 -10.42747,14.18643 -2.9704,1.88377 -8.38701,3.71343 -17.04783,5.75853 -6.98177,1.64862 -14.64566,3.98549 -17.03085,5.19302 -4.70868,2.81763 -9.04274,1.05094 -9.60669,10.10399 0.002,2.26383 0.80028,5.23807 1.88202,7.01228 1.03318,1.69456 3.89295,4.35917 6.35506,5.92137 2.4621,1.56219 7.17868,3.67544 10.48129,4.69612 1.44632,0.46142 7.24539,1.57393 23.19762,1.22369 7.83208,0.005 13.1617,-0.49878 17.35189,-1.63776 3.32626,-0.90413 8.62507,-2.94 11.77514,-4.52414 3.15007,-1.58414 7.32532,-4.13947 9.27833,-5.6785 1.96432,-1.54794 4.17407,-2.55912 4.94556,-2.26307 1.17356,0.45034 1.39532,3.86215 1.399,21.52449 0.003,11.54412 0.44131,27.98375 0.97535,36.5325 0.53404,8.54876 1.61842,19.9502 2.40976,25.33654 0.79133,5.38635 2.54882,12.56618 3.90553,15.95519 1.35672,3.38901 4.52274,9.23579 7.03562,12.99285 2.89518,4.32866 6.62367,8.37565 10.17809,11.04755 3.08507,2.31909 7.74036,4.92439 10.34509,5.78954 2.60474,0.86515 6.74376,1.9111 9.19783,2.32432 2.45406,0.41323 5.59701,0.80118 6.98431,0.86212 z"
         id="path38578"
         sodipodi:nodetypes="ssssssssssssssssssssssssssssssssssssssssssscssssscsssssssssssssssssssssssscccccssscccsccssccsssscsssssssss" />
      <path
         style="display:inline;fill:#336791;fill-opacity:1;stroke:none;stroke-width:5.14069;stroke-miterlimit:4;stroke-dasharray:none;stroke-opacity:1"
         d="m 382.37002,264.95976 c -1.03192,1.105 -1.53186,0.80816 -3.17314,-1.88402 -1.07152,-1.75762 -1.94981,-3.51092 -1.95174,-3.89621 -0.002,-0.38529 -4.23805,-8.43949 -9.41359,-17.89822 -5.17552,-9.45872 -11.72126,-22.54247 -14.54606,-29.075 -2.82481,-6.53253 -6.31084,-15.85844 -7.74675,-20.72425 -2.06908,-7.01143 -2.61798,-10.80135 -2.64564,-18.26705 -0.0309,-8.33804 0.23562,-9.90224 2.32013,-13.61734 1.29526,-2.30846 4.05065,-5.37125 6.12307,-6.80618 2.07243,-1.43494 6.29456,-3.25536 9.38253,-4.04538 3.08796,-0.79003 9.52492,-1.43641 14.30435,-1.43641 4.77943,0 9.77723,0.41341 11.10622,0.9187 2.02874,0.77131 2.41635,1.51328 2.41635,4.62523 0,2.03858 -0.84503,9.36144 -1.87785,16.27301 -1.03282,6.91156 -1.88063,17.35568 -1.88402,23.20915 -0.004,5.85347 0.67107,16.4511 1.49881,23.55029 0.98735,8.4681 1.3554,17.28161 1.07006,25.62476 -0.3004,8.7843 -0.94872,14.17377 -2.09637,17.42722 -0.91381,2.59053 -2.21266,5.3003 -2.88636,6.0217 z"
         id="path38610" />
      <path
         style="display:inline;fill:#ffffff;fill-opacity:1;stroke:none;stroke-width:5.14069;stroke-miterlimit:4;stroke-dasharray:none;stroke-opacity:1"
         d="m 363.56453,167.09194 c 3.34495,0 4.86388,-0.59043 7.52123,-2.92362 2.04616,-1.79655 3.32982,-3.7811 3.32982,-5.14792 0,-1.3098 -0.83014,-2.66858 -2.01911,-3.3049 -1.11052,-0.59433 -4.18384,-0.8984 -6.82959,-0.67571 -2.64576,0.22269 -6.04308,1.01197 -7.54961,1.75397 -1.50653,0.74198 -3.20215,2.11507 -3.76804,3.05129 -0.85089,1.40771 -0.49666,2.18185 2.0475,4.47455 2.43253,2.19212 3.95361,2.77234 7.2678,2.77234 z"
         id="path38616" />
      <path
         style="display:inline;fill:#336791;fill-opacity:1;stroke:none;stroke-width:5.14069;stroke-miterlimit:4;stroke-dasharray:none;stroke-opacity:1"
         d="m 392.57475,281.07533 c -0.69415,0 -1.51232,-0.65208 -1.81815,-1.44906 -0.30583,-0.79699 0.9417,-4.72563 2.77229,-8.73032 1.83059,-4.00469 4.0017,-10.54113 4.82468,-14.52542 0.8774,-4.24777 1.49294,-11.83891 1.48814,-18.35251 -0.005,-6.1096 -0.63668,-16.40717 -1.40484,-22.8835 -0.76815,-6.47633 -1.39058,-16.65005 -1.38318,-22.60827 0.008,-5.95822 0.84179,-16.3439 1.85419,-23.07928 1.0124,-6.73538 1.85047,-16.73312 1.86238,-22.21719 0.0163,-7.4992 -0.45652,-11.46916 -1.90721,-16.0142 -1.06087,-3.32373 -4.22592,-10.70611 -7.03345,-16.40528 -2.80753,-5.69917 -7.50541,-13.96011 -10.43976,-18.35764 -2.93434,-4.397534 -7.80044,-11.012516 -10.81356,-14.699962 -3.01312,-3.687447 -9.42056,-10.415431 -14.23875,-14.951078 -4.8182,-4.535645 -12.78947,-10.917868 -17.71393,-14.182718 -4.92446,-3.26485 -11.40387,-7.128345 -14.39871,-8.585544 -3.55905,-1.731733 -5.35053,-3.147645 -5.17198,-4.08772 0.18517,-0.974962 2.39437,-1.836453 6.85816,-2.674391 3.78889,-0.711243 14.38492,-1.293769 24.95423,-1.37188 14.03304,-0.103709 20.48172,0.257522 27.31833,1.530271 4.92201,0.916315 12.63832,2.896583 17.14734,4.400596 4.50903,1.504014 11.50347,4.405905 15.54319,6.448646 4.03973,2.042743 10.31229,5.809813 13.93903,8.37127 3.62675,2.561455 9.69883,7.762657 13.49352,11.558228 3.79468,3.795569 8.10431,8.652263 9.57694,10.792651 1.47262,2.140389 3.31746,6.198179 4.09964,9.017312 0.78218,2.819133 1.68643,8.304985 2.00944,12.190779 0.32302,3.8858 0.11317,12.15195 -0.46631,18.36923 -0.57949,6.21728 -1.89995,15.75514 -2.93437,21.19526 -1.03441,5.44011 -2.93244,14.13017 -4.21784,19.31123 -1.28541,5.18107 -4.05052,14.93088 -6.14471,21.66627 -2.09418,6.73538 -6.82331,19.87644 -10.50919,29.20235 -3.68587,9.32591 -10.54598,24.5865 -15.24468,33.91241 -4.6987,9.32592 -11.26462,21.51319 -14.59094,27.08283 -3.32632,5.56964 -6.61578,10.12663 -7.30994,10.12663 z"
         id="path38606" />
      <path
         style="display:inline;fill:#336791;fill-opacity:1;stroke:none;stroke-width:5.14069;stroke-miterlimit:4;stroke-dasharray:none;stroke-opacity:1"
         d="m 209.52211,290.23118 c -2.30867,0.1137 -6.52906,-0.5569 -9.37865,-1.49024 -2.84958,-0.93333 -7.08863,-2.67133 -9.42011,-3.86223 -2.33148,-1.1909 -7.41834,-5.39521 -11.30414,-9.3429 -4.83597,-4.91302 -8.03642,-9.18865 -10.14371,-13.55144 -1.69325,-3.50559 -3.75119,-9.22831 -4.57323,-12.71715 -1.11082,-4.71453 -1.36005,-9.00412 -0.97059,-16.70548 0.2882,-5.69917 0.9985,-15.8729 1.57844,-22.60828 0.63613,-7.38788 0.80294,-18.64456 0.42048,-28.37452 l -0.63397,-16.12839 3.15774,-2.37249 c 1.73676,-1.30487 5.70118,-3.64113 8.80981,-5.1917 3.10864,-1.55056 9.25527,-3.97881 13.65917,-5.39612 6.04928,-1.94682 10.08009,-2.6073 16.4852,-2.70121 7.15677,-0.10492 9.17947,0.22106 12.97827,2.09166 2.47509,1.21877 5.58881,3.64325 6.91939,5.38771 1.33056,1.74446 3.22304,5.75448 4.20551,8.91115 0.98246,3.15666 2.69009,11.96567 3.79473,19.57558 1.62049,11.16357 1.91366,16.56563 1.51775,27.96638 -0.37723,10.8632 -1.03436,16.19925 -2.84217,23.07928 -1.29332,4.92201 -4.14977,12.9762 -6.34768,17.89821 -2.19791,4.92201 -6.18286,14.88379 -8.85543,22.13727 l -4.85922,13.18816 z"
         id="path38598" />
      <path
         style="display:inline;fill:#336791;fill-opacity:1;stroke:none;stroke-width:5.14069;stroke-miterlimit:4;stroke-dasharray:none;stroke-opacity:1"
         d="m 398.90788,326.79751 c 9.58103,-0.28357 14.99243,-0.96233 21.94353,-2.75238 5.29012,-1.36232 12.43867,-4.08757 16.75585,-6.38785 4.1412,-2.20653 8.21756,-4.77221 9.05857,-5.70151 0.841,-0.9293 1.35507,-1.8518 1.14237,-2.04999 -0.2127,-0.19818 -4.20188,0.21917 -8.86483,0.92745 -4.66296,0.70828 -12.92911,1.29067 -18.36923,1.2942 -5.61108,0.004 -12.53837,-0.61749 -16.00887,-1.43543 -3.36477,-0.79303 -7.59058,-2.31084 -9.39068,-3.37293 -2.30301,-1.35881 -4.21846,-1.77764 -6.46354,-1.41331 -1.75483,0.28477 -4.19671,1.17698 -5.42639,1.98271 -1.22969,0.80572 -2.82207,2.62669 -3.53864,4.0466 -0.71656,1.41992 -1.52993,4.36141 -1.80747,6.53666 -0.30251,2.3709 -0.053,4.57253 0.62275,5.49679 0.62007,0.84799 2.59035,1.9161 4.37841,2.37359 1.78805,0.4575 8.97374,0.66242 15.96817,0.4554 z"
         id="path38594" />
      <path
         style="display:inline;fill:#336791;fill-opacity:1;stroke:none;stroke-width:5.14069;stroke-miterlimit:4;stroke-dasharray:none;stroke-opacity:1"
         d="m 122.00345,340.4006 c -2.35729,-0.0118 -5.7156,-0.72575 -7.46291,-1.58656 -1.74729,-0.86081 -5.22142,-3.55652 -7.72027,-5.99047 -2.49885,-2.43396 -6.846878,-7.97261 -9.662287,-12.30812 -2.815409,-4.33551 -6.61776,-10.8742 -8.449669,-14.53044 -1.83191,-3.65624 -5.455511,-11.71044 -8.052448,-17.89822 -2.596936,-6.18778 -7.075213,-18.24495 -9.951727,-26.79371 -2.876514,-8.54875 -7.309684,-23.17348 -9.851489,-32.49939 -2.541806,-9.32591 -6.137824,-23.73869 -7.991151,-32.02839 -1.853328,-8.2897 -4.419588,-20.7949 -5.702803,-27.78934 -1.283214,-6.99443 -2.782673,-16.30922 -3.332132,-20.69954 -0.549458,-4.39031 -0.995537,-12.0206 -0.991286,-16.95621 0.0042,-4.93559 0.436224,-12.78896 0.959941,-17.45192 0.523717,-4.66295 1.823226,-12.0813 2.8878,-16.485202 1.064573,-4.403903 4.031274,-12.351937 6.592667,-17.662297 3.870968,-8.025409 5.886627,-10.892931 11.941152,-16.987762 5.846247,-5.885167 9.050564,-8.212241 16.23318,-11.789036 4.92201,-2.45106 12.34035,-5.328893 16.485201,-6.395185 5.189171,-1.33495 11.953271,-2.101717 21.719881,-2.462127 8.54386,-0.315288 18.09548,-0.07462 24.02129,0.605254 5.41063,0.620766 14.69301,2.150128 20.6275,3.398578 5.93451,1.248452 13.92449,3.200435 17.75552,4.337742 3.83103,1.137307 7.18359,2.636155 7.45014,3.330774 0.26655,0.694618 -1.29057,3.18881 -3.46025,5.542648 -2.1697,2.353839 -6.45614,8.16289 -9.52542,12.909003 -3.06928,4.746113 -7.53821,13.26733 -9.93094,18.936037 -2.39275,5.668707 -5.78578,16.005203 -7.54009,22.969993 -1.7543,6.96478 -3.87273,17.81232 -4.70762,24.10563 -1.23563,9.31402 -1.40091,16.08696 -0.88859,36.41215 0.44788,17.76832 0.27521,28.63563 -0.59868,37.68046 -0.67545,6.99089 -1.21337,18.22146 -1.19538,24.95684 0.0241,9.02584 0.48071,13.73245 1.73638,17.89822 0.93703,3.10864 3.16063,8.56228 4.94134,12.11921 1.78071,3.55693 5.08076,8.85574 7.33345,11.77515 2.25269,2.91939 4.99526,6.11553 6.0946,7.10252 1.09933,0.98698 1.99879,2.28788 1.99879,2.89088 0,0.603 -3.24119,4.67037 -7.20265,9.03861 -3.96146,4.36824 -12.84486,14.51278 -19.74087,22.54343 -6.89601,8.03064 -14.3373,15.76691 -16.53619,17.19171 -2.89521,1.87597 -5.1802,2.58461 -8.28398,2.56908 z"
         id="path38588" />
      <path
         style="display:inline;fill:#336791;fill-opacity:1;stroke:none;stroke-width:5.14069;stroke-miterlimit:4;stroke-dasharray:none;stroke-opacity:1"
         d="m 198.29703,346.96426 c -5.73922,-0.0332 -11.53184,-0.71817 -16.02983,-1.8957 -3.87371,-1.01412 -7.67069,-2.47142 -8.43772,-3.23845 -0.88576,-0.88576 -1.06563,-1.71911 -0.49297,-2.28397 0.49591,-0.48915 5.5646,-1.94055 11.26377,-3.22532 5.69916,-1.28477 12.88483,-3.28141 15.96813,-4.43699 4.14078,-1.55188 7.0978,-3.60364 11.31366,-7.85004 3.13921,-3.16196 7.76677,-8.21591 10.28346,-11.23101 2.5167,-3.01511 5.606,-5.87368 6.86512,-6.3524 1.57573,-0.59909 3.25365,-0.46746 5.38312,0.4223 1.70161,0.71097 4.01299,2.4612 5.13641,3.8894 1.12342,1.4282 2.52684,4.213 3.1187,6.18844 0.84553,2.82214 0.80428,4.24796 -0.19254,6.65447 -0.69775,1.68452 -3.83158,5.64067 -6.96408,8.79146 -3.13249,3.15079 -8.27339,7.0801 -11.42423,8.73179 -3.15085,1.6517 -8.22079,3.65216 -11.26655,4.44549 -3.20634,0.83514 -9.32121,1.42056 -14.52445,1.39053 z"
         id="path38584" />
      <path
         style="display:inline;fill:#336791;fill-opacity:1;stroke:none;stroke-width:5.14069;stroke-miterlimit:4;stroke-dasharray:none;stroke-opacity:1"
         d="m 298.58366,464.33989 c -5.18106,0.19811 -10.69183,0.0224 -12.24615,-0.39049 -1.55432,-0.41287 -4.3097,-1.52028 -6.12307,-2.46091 -1.81337,-0.94063 -4.65889,-2.74539 -6.32337,-4.01058 -1.66448,-1.2652 -4.56664,-4.62095 -6.44925,-7.45723 -1.88261,-2.83627 -4.47103,-7.73625 -5.75204,-10.88883 -1.32237,-3.25438 -2.90872,-10.14342 -3.67005,-15.93797 -0.73752,-5.61331 -1.78956,-20.06876 -2.33789,-32.12325 -0.54832,-12.05448 -0.88085,-34.21048 -0.73895,-49.23557 l 0.25799,-27.31833 -2.40809,-5.1868 c -1.32446,-2.85273 -3.85182,-6.63052 -5.61637,-8.39506 -1.76456,-1.76455 -4.90865,-3.95956 -6.9869,-4.87779 -2.07824,-0.91824 -6.00412,-1.964 -8.72418,-2.32393 -3.14113,-0.41563 -4.94556,-1.10861 -4.94556,-1.89932 0,-0.6847 1.47457,-5.31846 3.27681,-10.29724 1.80225,-4.97878 5.15542,-13.37194 7.4515,-18.65147 2.29607,-5.27952 5.0686,-12.25901 6.16115,-15.50997 1.09256,-3.25097 2.65184,-8.97369 3.46505,-12.71716 0.81322,-3.74347 1.71065,-12.35854 1.99429,-19.1446 0.29221,-6.9907 0.0288,-16.99357 -0.60775,-23.07928 -0.61791,-5.90754 -1.90834,-14.76809 -2.86763,-19.6901 -0.95929,-4.92201 -2.68988,-11.4628 -3.84578,-14.5351 -1.47582,-3.92264 -3.67548,-7.18366 -7.38711,-10.95144 -3.84927,-3.9075 -6.82133,-5.94148 -10.93757,-7.4853 -4.50827,-1.69087 -7.55837,-2.11436 -15.07218,-2.09271 -6.47847,0.0187 -11.7341,0.64076 -16.83024,1.99214 -4.07557,1.08074 -10.87549,3.45338 -15.11095,5.27255 -4.23544,1.81915 -8.27608,3.30756 -8.97918,3.30756 -1.01825,0 -1.15605,-1.48559 -0.67722,-7.30059 0.33065,-4.01532 1.4579,-11.32769 2.50502,-16.2497 1.04711,-4.92201 3.23876,-12.9762 4.87033,-17.89822 1.63157,-4.92201 4.17244,-11.642718 5.64638,-14.934911 1.47395,-3.292193 5.06407,-9.643437 7.97805,-14.113875 2.91397,-4.470438 8.1047,-10.911112 11.53495,-14.312608 3.43025,-3.401496 8.99221,-7.972412 12.3599,-10.157591 3.36769,-2.18518 9.30902,-5.205139 13.20296,-6.711023 3.89394,-1.505883 10.65503,-3.462386 15.02465,-4.347784 6.4139,-1.299623 11.03966,-1.510158 24.00649,-1.092621 12.7924,0.41192 17.99282,1.00101 25.54883,2.894103 5.21791,1.3073 12.21234,3.402776 15.54319,4.656614 3.33085,1.253838 9.23538,3.88082 13.12118,5.837738 3.88579,1.956917 10.03242,5.570995 13.65916,8.031284 3.62675,2.460289 9.77337,7.20163 13.65917,10.536314 3.88579,3.334684 10.08958,9.635198 13.78618,14.001141 3.69662,4.365943 9.13793,11.541273 12.09181,15.945179 2.95389,4.4039 7.43283,12.24615 9.9532,17.42721 2.52038,5.18107 4.86129,10.58586 5.20203,12.01065 l 0.61953,2.59053 -10.22875,0.0164 c -5.62581,0.009 -13.08022,0.62066 -16.56536,1.35923 -3.48514,0.73857 -8.22257,2.17711 -10.52761,3.19673 -2.30505,1.01964 -6.16801,3.67623 -8.58437,5.90355 -2.41636,2.22732 -5.43469,6.10461 -6.70741,8.61621 -1.27272,2.51159 -2.78744,7.82742 -3.36604,11.81296 -0.86631,5.96736 -0.78012,8.8513 0.48832,16.33861 0.84718,5.00071 2.84376,13.16126 4.43685,18.13456 1.59309,4.9733 4.97096,13.73506 7.50637,19.47056 2.53541,5.7355 8.331,17.28654 12.87909,25.66898 4.54809,8.38243 10.08117,18.84398 12.29575,23.24788 2.21458,4.40391 6.57924,11.37868 9.69926,15.4995 3.12001,4.12082 5.56021,7.80331 5.42268,8.18331 -0.13754,0.38001 -2.57379,1.90145 -5.41391,3.38099 -2.97189,1.54819 -6.43999,4.36321 -8.17019,6.63166 -1.82604,2.3941 -3.38414,5.89173 -3.96863,8.90885 -0.52927,2.732 -1.43218,10.68999 -2.00646,17.68443 -0.5743,6.99443 -2.29728,22.89088 -3.82885,35.32543 -1.53157,12.43455 -3.86778,30.17133 -5.19159,39.41507 -1.32382,9.24375 -3.19975,19.9067 -4.16875,23.69547 -0.96901,3.78876 -2.885,9.10512 -4.25775,11.81413 -1.37276,2.709 -4.37335,6.93258 -6.66797,9.38572 -2.29462,2.45314 -6.61538,5.76254 -9.60169,7.35423 -2.9863,1.59167 -9.23339,4.01396 -13.88242,5.38286 -5.87845,1.73089 -11.32171,2.59858 -17.87289,2.84907 z"
         id="path38580" />
      <path
         style="display:inline;fill:#fffffe;fill-opacity:1;stroke:none;stroke-width:5.14069;stroke-miterlimit:4;stroke-dasharray:none;stroke-opacity:1"
         d="m 213.65729,172.74049 c 1.99248,0.002 4.82062,-0.70411 6.28475,-1.569 1.46413,-0.86488 3.17551,-2.5319 3.80306,-3.7045 0.62755,-1.17259 0.8955,-2.77173 0.59545,-3.55365 -0.30005,-0.78193 -1.64154,-2.1398 -2.98108,-3.0175 -1.43111,-0.93771 -5.13227,-1.78878 -8.97464,-2.06369 -5.08438,-0.36379 -7.06862,-0.12093 -8.91924,1.09164 -1.30906,0.85773 -2.38011,2.30323 -2.38011,3.21222 0,0.90898 0.68533,2.63115 1.52295,3.82703 0.83764,1.19589 2.85119,2.98425 4.47456,3.97413 1.62338,0.98989 4.58181,1.80138 6.5743,1.80332 z"
         id="path38604" />
    </g>
  </g>
</svg>
