<?xml version="1.0" encoding="UTF-8" standalone="no"?>
<!-- Created with Inkscape (http://www.inkscape.org/) -->

<svg
   version="1.1"
   id="svg129341"
   width="682.66669"
   height="682.66669"
   viewBox="0 0 682.66669 682.66669"
   sodipodi:docname="pythonIcon.svg"
   inkscape:version="1.1.2 (0a00cf5339, 2022-02-04)"
   xmlns:inkscape="http://www.inkscape.org/namespaces/inkscape"
   xmlns:sodipodi="http://sodipodi.sourceforge.net/DTD/sodipodi-0.dtd"
   xmlns="http://www.w3.org/2000/svg"
   xmlns:svg="http://www.w3.org/2000/svg">
  <defs
     id="defs129345" />
  <sodipodi:namedview
     id="namedview129343"
     pagecolor="#ffffff"
     bordercolor="#666666"
     borderopacity="1.0"
     inkscape:pageshadow="2"
     inkscape:pageopacity="0.0"
     inkscape:pagecheckerboard="0"
     showgrid="false"
     inkscape:zoom="1.1367187"
     inkscape:cx="311.86255"
     inkscape:cy="236.64606"
     inkscape:window-width="1920"
     inkscape:window-height="1011"
     inkscape:window-x="0"
     inkscape:window-y="0"
     inkscape:window-maximized="1"
     inkscape:current-layer="g129347" />
  <g
     inkscape:groupmode="layer"
     inkscape:label="Image"
     id="g129347">
    <path
       style="display:inline;fill:#275c87;fill-opacity:1;stroke:#000000;stroke-width:10;stroke-miterlimit:4;stroke-dasharray:none;stroke-opacity:1"
       d="m 144,485.20308 c 27.49006,0.11027 30.35571,-0.0965 34.25151,-2.47202 2.85682,-1.74192 4.71332,-4.25532 5.65924,-7.66168 0.83094,-2.9923 1.41076,-20.17187 1.41515,-41.92891 0.007,-32.85344 0.29201,-37.78055 2.62568,-45.33334 1.44004,-4.66058 4.74004,-11.99648 7.33333,-16.30198 3.63747,-6.25048 5.2636,-8.40996 11.6552,-15.10778 6.0915,-5.301 7.58242,-6.50307 13.94848,-11.06856 3.473,-2.2025 9.64384,-5.34303 13.71298,-6.97893 7.30356,-2.93624 8.48422,-2.9844 92.06511,-3.75518 73.93985,-0.68185 85.65117,-1.06589 92.43736,-3.0312 4.27388,-1.23774 10.93777,-3.7487 14.80865,-5.57992 3.87088,-1.83122 9.54693,-5.14697 12.61343,-7.36834 6.06727,-4.21832 9.87736,-7.32056 15.87575,-13.96237 2.2024,-3.59814 3.46455,-5.09851 6.56051,-9.7173 3.09596,-4.61879 7.2915,-13.31879 9.32342,-19.33333 l 3.69442,-10.93554 0.40288,-77.46593 c 0.3399,-65.35881 0.0855,-78.9885 -1.62839,-87.207917 -1.1172,-5.358091 -3.76821,-13.398423 -5.89113,-17.867405 -2.12294,-4.46898 -5.7799,-10.731228 -8.12659,-13.916106 -6.99358,-9.24689 -12.09029,-13.421808 -18.39125,-18.840747 -2.75682,-2.298657 -10.41239,-6.843402 -17.01239,-10.099459 -6.6,-3.256059 -15.52783,-6.811074 -19.83962,-7.900034 -4.31177,-1.088961 -14.51177,-2.915358 -22.66666,-4.058661 -8.15488,-1.143303 -25.22736,-2.622024 -37.93887,-3.286048 -13.84103,-0.723028 -32.02547,-0.720583 -45.33334,0.0061 -12.22182,0.667376 -29.00569,2.161718 -37.29745,3.32076 -8.29176,1.159042 -20.59176,3.509807 -27.33334,5.223923 -6.74157,1.714116 -16.09456,4.679315 -20.78442,6.58933 -4.68986,1.910014 -11.38083,5.304037 -14.86882,7.542273 -3.48798,2.238235 -9.05034,6.965181 -12.3608,10.504323 -3.31045,3.539142 -7.57376,9.502982 -9.47402,13.252978 -1.90027,3.749996 -4.39983,10.579668 -5.55458,15.17705 -1.36384,5.429845 -2.34108,17.23593 -2.78884,33.69221 -0.45753,16.81589 -0.19757,26.5931 0.77323,29.08024 1.35164,3.9268 3.9463,6.16287 5.13419,7.06366 1.86228,1.41368 15.25356,1.78394 66.33333,1.83408 35.2,0.0345 64.78663,0.56168 65.74807,1.1714 1.15707,0.73379 1.60785,3.31887 1.33333,7.64626 l -0.41473,6.53766 -98.66667,0.70499 c -88.14442,0.6298 -99.51982,0.95057 -106.66667,3.00785 -4.4,1.26658 -13.453332,4.97746 -20.118516,8.2464 -8.343773,4.09222 -15.076913,8.68256 -21.61622,14.73695 -5.223737,4.83639 -12.256081,12.94261 -15.627431,18.01385 -3.371351,5.07123 -7.665582,12.98607 -9.542736,17.58852 -1.877154,4.60247 -4.203556,11.06811 -5.169782,14.36811 -0.966226,3.3 -3.251895,13.2 -5.079263,22 -1.827368,8.8 -4.043632,22.27914 -4.925029,29.95364 -0.985917,8.58456 -1.324649,22.69315 -0.880327,36.66667 0.465842,14.65028 1.735375,28.15611 3.576318,38.04636 1.569757,8.43334 4.358944,21.28347 6.198195,28.55586 1.83925,7.27238 4.823234,16.8627 6.631074,21.31182 1.807841,4.44912 5.690073,12.13432 8.627183,17.07821 2.937113,4.94389 8.686755,12.60357 12.776986,17.0215 6.12529,5.93314 6.607812,6.36833 13.735973,11.97548 2.173113,1.54739 7.430168,4.35567 11.682344,6.2406 4.252178,1.88495 11.631231,4.2084 16.397901,5.16323 5.43912,1.08955 19.83894,1.78087 38.66666,1.85637 z"
       id="path130312"
       sodipodi:nodetypes="ssscscccssssccsscsssccsssssssssssssccssscssssssssssssssccssss" />
    <path
       style="display:inline;fill:#347ab4;fill-opacity:1;stroke:#000000;stroke-width:10;stroke-miterlimit:4;stroke-dasharray:none;stroke-opacity:1"
       d="M 137.55762,458.5041 C 129.00093,458.41467 118.4,457.82007 114,457.18275 c -4.4,-0.63732 -11.70301,-2.97861 -16.228923,-5.20289 -5.240683,-2.57556 -10.716199,-6.76562 -15.078289,-11.53843 -3.767148,-4.12187 -8.697129,-11.15471 -10.955514,-15.62855 -2.258385,-4.47383 -5.245801,-11.43693 -6.638701,-15.47356 -1.392901,-4.03661 -4.019935,-13.91439 -5.837854,-21.95059 -1.817917,-8.0362 -4.261302,-21.8362 -5.429744,-30.66666 -1.513203,-11.43599 -1.916813,-21.61791 -1.402808,-35.38873 0.396897,-10.63333 1.946132,-25.93333 3.442744,-34 1.496612,-8.06666 3.934402,-19.46666 5.41731,-25.33333 1.482908,-5.86667 5.069452,-15.49697 7.970099,-21.40067 3.592402,-7.31164 7.877272,-13.36172 13.439189,-18.97563 5.376757,-5.42702 11.433068,-9.84957 17.733891,-12.94996 5.26273,-2.58958 13.7686,-5.59013 18.90194,-6.66788 7.73607,-1.62421 26.79544,-1.96352 111.36999,-1.98272 92.15219,-0.0209 102.33737,-0.23377 105.14085,-2.1974 1.7073,-1.19584 3.9408,-4.17657 4.96334,-6.62384 1.32817,-3.17877 1.85916,-10.56694 1.85916,-25.86857 0,-15.49513 -0.52409,-22.67331 -1.89496,-25.95427 -1.05358,-2.52155 -3.68827,-5.46264 -5.93379,-6.62384 -3.50172,-1.81081 -12.55544,-2.08856 -68.07964,-2.08856 h -64.04082 l -0.82744,-3.29681 c -0.45509,-1.81324 -0.20601,-10.66324 0.55352,-19.66667 0.75954,-9.003417 2.3341,-18.633219 3.49902,-21.399555 1.16493,-2.766335 4.31841,-7.46525 7.00776,-10.442031 2.68934,-2.976783 8.32853,-7.148239 12.53152,-9.269903 4.203,-2.121664 12.03898,-5.099839 17.41332,-6.618166 5.37433,-1.518326 17.57151,-3.986129 27.10484,-5.484006 12.31692,-1.935237 26.5944,-2.921557 49.33333,-3.408061 24.35705,-0.521124 36.93609,-0.162145 52.66667,1.502994 11.36667,1.203203 24.56667,3.088219 29.33334,4.188925 4.76666,1.100707 13.16666,4.220015 18.66666,6.931795 6.59234,3.250356 12.76955,7.696926 18.1274,13.048713 4.62695,4.621701 9.62407,11.28188 11.60237,15.463659 1.91124,4.040003 4.09937,11.193786 4.86253,15.897286 0.82733,5.09902 1.38756,35.1994 1.38756,74.55183 0,38.00091 -0.57332,69.67666 -1.35145,74.66667 -0.74331,4.76667 -3.42426,12.92099 -5.95768,18.12071 -2.94024,6.03472 -7.04195,11.73239 -11.3407,15.75336 -3.70397,3.46463 -10.76848,8.21031 -15.69892,10.54596 l -8.96444,4.24664 -84.66667,0.76452 c -73.98804,0.66809 -85.75976,1.05215 -93.33334,3.04504 -4.76666,1.25428 -13.51625,4.67371 -19.4435,7.59873 -5.92727,2.92502 -14.78176,8.62166 -19.67666,12.65919 -4.89489,4.03753 -11.61781,10.77407 -14.93981,14.97008 -3.32201,4.19602 -7.754,10.62911 -9.84885,14.29578 -2.09487,3.66666 -5.3285,10.9308 -7.18584,16.1425 -1.85735,5.21171 -4.02088,14.10512 -4.80784,19.76315 -0.78695,5.65801 -1.43083,21.87969 -1.43083,36.04817 0,22.26057 -0.28657,25.87085 -2.10905,26.57019 -1.15998,0.44514 -9.10998,0.73616 -17.66667,0.64674 z"
       id="path130314" />
    <path
       style="display:inline;fill:#ffffff;fill-opacity:1;stroke:#000000;stroke-width:10;stroke-miterlimit:4;stroke-dasharray:none;stroke-opacity:1"
       d="m 249.699,118.66667 c -3.69432,0 -8.36025,-1.0474 -11.01973,-2.47369 -2.53685,-1.36053 -6.34613,-4.61571 -8.46508,-7.23374 -2.50936,-3.10039 -4.08906,-6.85772 -4.53076,-10.776346 -0.37296,-3.308964 -0.27472,-8.16661 0.21832,-10.794768 0.49306,-2.62816 2.75592,-6.896294 5.02862,-9.484742 2.27268,-2.588448 5.97905,-5.661335 8.23636,-6.828635 2.2573,-1.167301 7.13228,-2.122365 10.83328,-2.122365 3.701,0 8.51504,0.928705 10.69787,2.06379 2.18284,1.135086 5.29016,3.478989 6.90516,5.208673 1.615,1.729685 3.865,5.367422 5,8.083861 1.135,2.716438 2.06364,7.077522 2.06364,9.691295 0,2.613774 -0.92288,6.961087 -2.05086,9.660697 -1.12796,2.6996 -3.07796,6.04418 -4.33333,7.43239 -1.25536,1.3882 -4.50857,3.66016 -7.22936,5.04879 -2.82327,1.44094 -7.69741,2.52479 -11.35413,2.52479 z"
       id="path130318" />
    <path
       style="display:inline;fill:#bf9816;fill-opacity:1;stroke:#000000;stroke-width:10;stroke-miterlimit:4;stroke-dasharray:none;stroke-opacity:1"
       d="m 350.93172,657.16469 c -8.57911,-0.0928 -19.79838,-0.69615 -24.93171,-1.34087 -5.13333,-0.64472 -15.63333,-2.43313 -23.33333,-3.97426 -7.7,-1.54114 -20.16718,-4.81836 -27.70483,-7.28274 -7.53765,-2.46437 -18.93765,-7.18753 -25.33333,-10.4959 -6.39569,-3.30839 -15.38662,-9.06158 -19.97987,-12.78486 -4.59326,-3.72329 -11.30979,-10.98227 -14.92566,-16.13105 -3.61585,-5.14879 -7.95773,-13.36499 -9.64862,-18.25822 l -3.07436,-8.89677 v -80.66667 c 0,-65.13358 0.3599,-81.95039 1.8691,-87.33334 1.028,-3.66666 3.54299,-10.10766 5.58886,-14.31334 2.04586,-4.20567 5.51169,-10.25116 7.70182,-13.4344 2.19014,-3.18326 7.51859,-9.06194 11.84102,-13.06374 4.32242,-4.00181 12.0155,-9.44746 17.09575,-12.10146 5.08022,-2.654 11.63678,-5.5997 14.57012,-6.54599 4.01032,-1.29373 26.33616,-1.91728 90,-2.51364 83.06085,-0.77807 84.83625,-0.84973 93.60795,-3.77904 4.91771,-1.64225 13.49984,-6.03488 19.0714,-9.76138 5.6744,-3.79526 13.13311,-10.37741 16.9574,-14.96456 3.755,-4.50401 8.75521,-12.38912 11.1116,-17.52245 2.35637,-5.13333 4.95196,-12.51287 5.76799,-16.39896 0.87412,-4.1628 1.48366,-21.57255 1.48366,-42.37616 0,-27.28852 0.42506,-36.32783 1.87098,-39.78839 1.3707,-3.28056 3.19838,-4.91595 6.83554,-6.11631 3.61695,-1.1937 13.87654,-1.46268 37.7957,-0.9909 28.67179,0.56552 33.94127,1.00548 41.59396,3.47278 4.81956,1.5539 12.31956,5.12603 16.66667,7.93808 4.3471,2.81206 10.77214,8.30619 14.27786,12.20916 3.50574,3.90299 8.54842,10.98446 11.20598,15.73662 2.65756,4.75216 6.54981,13.06441 8.64947,18.47169 2.09965,5.40728 5.59164,17.18388 7.75996,26.17023 2.16833,8.98636 4.84992,21.62251 5.95908,28.08035 1.10917,6.45782 2.68816,19.98853 3.50885,30.06821 1.10147,13.52784 1.10077,22.61604 -0.003,34.7076 -0.82214,9.00948 -2.73486,22.10438 -4.25046,29.09975 -1.51562,6.99537 -5.0606,19.39328 -7.87778,27.55089 -2.81716,8.15762 -6.98656,18.97911 -9.26533,24.04778 -2.27878,5.06865 -6.78134,13.16865 -10.0057,18 -3.22434,4.83133 -8.15588,10.99668 -10.95896,13.70076 -2.80308,2.70407 -8.60249,7.01871 -12.88758,9.58808 -4.28508,2.56939 -11.90354,5.60696 -16.92987,6.75017 -7.84424,1.78414 -23.64487,2.08147 -111.54227,2.09899 -56.3219,0.0107 -103.18456,0.51587 -104.13924,1.12141 -1.20542,0.76458 -1.61283,3.71207 -1.33334,9.64626 l 0.40248,8.54525 65.33334,0.66667 c 49.59096,0.50602 66.0524,1.07753 68.31759,2.37181 1.64134,0.93784 3.44134,3.33784 4,5.33333 0.55866,1.99551 0.94317,12.65833 0.85445,23.69517 -0.11747,14.62082 -0.78269,22.20452 -2.45092,27.94305 -1.25931,4.33184 -3.67468,10.60171 -5.36751,13.93303 -1.69282,3.33132 -5.56617,9.17584 -8.60744,12.98781 -3.04128,3.81197 -9.25332,9.7304 -13.80454,13.15207 -4.55123,3.42166 -12.77496,8.47388 -18.27496,11.22715 -5.5,2.75328 -14.59804,6.58389 -20.21786,8.51249 -5.61983,1.9286 -16.41983,4.99 -24,6.80311 -7.58019,1.8131 -20.86288,4.21406 -29.51711,5.33544 -8.65422,1.12138 -22.75422,1.96298 -31.33333,1.87021 z"
       id="path130306" />
    <path
       style="display:inline;fill:#ffca1d;fill-opacity:1;stroke:#000000;stroke-width:10;stroke-miterlimit:4;stroke-dasharray:none;stroke-opacity:1"
       d="m 358.00001,631.31014 c 9.53334,-0.29417 24.23334,-1.73724 32.66667,-3.20683 8.43333,-1.46958 20.73333,-4.23121 27.33333,-6.13694 6.6,-1.90575 17.50839,-6.12092 24.24086,-9.36707 7.94247,-3.82956 15.06468,-8.51647 20.28251,-13.34725 4.95736,-4.58963 9.46748,-10.34862 11.75916,-15.01527 3.31525,-6.75101 3.71748,-9.01276 3.71748,-20.90343 v -13.33333 l -65.46289,-0.66667 c -55.54321,-0.56564 -65.8281,-0.96973 -67.8732,-2.66666 -1.32568,-1.1 -3.21738,-3.93074 -4.20379,-6.29051 -1.25753,-3.0084 -1.79346,-10.89027 -1.79346,-26.37616 0,-16.02826 0.51757,-23.32439 1.88712,-26.60218 1.03792,-2.48408 3.28792,-5.31481 5,-6.2905 2.4978,-1.42346 25.63841,-1.90572 117.11288,-2.44066 l 114.00001,-0.66666 6.66666,-3.07244 c 3.66667,-1.68984 9.38051,-5.96302 12.69744,-9.49595 3.31692,-3.53292 8.57002,-11.54792 11.67354,-17.81109 3.10352,-6.26316 8.01688,-18.48999 10.91858,-27.17073 2.9017,-8.68072 6.21796,-20.26433 7.36946,-25.74136 1.1515,-5.47702 2.60686,-16.34282 3.23414,-24.14621 0.64718,-8.05097 0.6263,-21.57332 -0.0483,-31.26191 -0.65382,-9.39065 -2.96392,-25.87277 -5.13356,-36.62691 -2.16966,-10.75414 -5.5281,-24.60509 -7.46322,-30.77986 -1.93512,-6.17479 -5.67334,-15.35574 -8.30716,-20.4021 -2.63381,-5.04637 -7.523,-11.97479 -10.86485,-15.39648 -3.34187,-3.42169 -9.07611,-7.69285 -12.74277,-9.49145 -6.26983,-3.07554 -8.22232,-3.29584 -32.80079,-3.7012 l -26.13414,-0.43103 -0.76928,31.0977 c -0.62398,25.22446 -1.28237,33.05522 -3.48605,41.46256 -1.49423,5.70068 -5.50336,15.7602 -8.90919,22.3545 -4.1471,8.02956 -9.30396,15.32147 -15.61302,22.07715 -5.18135,5.54814 -12.9591,12.49044 -17.2839,15.42736 -4.3248,2.93692 -11.56985,7.06488 -16.10012,9.17324 -4.53026,2.10838 -11.83685,4.87307 -16.23685,6.14379 -7.07873,2.04433 -17.75838,2.39572 -92.73936,3.0514 l -84.73937,0.74101 -10.13804,5.01224 c -7.05932,3.49012 -12.17084,7.23646 -16.83195,12.33646 -3.68165,4.02832 -8.18002,10.47281 -9.99637,14.32109 -1.81636,3.84828 -3.99564,10.59688 -4.84287,14.99688 -1.08213,5.62004 -1.41717,29.6271 -1.12622,80.69731 l 0.41417,72.69731 4.35693,8.8476 c 2.94331,5.97695 6.97494,11.27139 12.42583,16.31795 5.22151,4.8342 12.38848,9.56028 20.30972,13.39276 6.73247,3.25732 17.50448,7.43496 23.9378,9.28362 6.43332,1.84868 16.33332,4.28922 22,5.42344 5.66668,1.13422 14.80306,2.61483 20.30306,3.29027 5.5,0.67543 17.8,0.98736 27.33333,0.6932 z"
       id="path130308" />
    <path
       style="display:inline;fill:#fffff7;fill-opacity:1;stroke:#000000;stroke-width:10;stroke-miterlimit:4;stroke-dasharray:none;stroke-opacity:1"
       d="m 419.33335,614.55399 c -0.73334,-0.0539 -1.93334,-0.29798 -2.66667,-0.54261 -0.73333,-0.24463 -2.99847,-0.81248 -5.03361,-1.26191 -2.03516,-0.44942 -6.08172,-2.96862 -8.99238,-5.59822 -3.6787,-3.32348 -5.90696,-6.85156 -7.30892,-11.57248 -1.2065,-4.06275 -1.67368,-8.69062 -1.16276,-11.51842 0.46974,-2.59985 1.62031,-6.227 2.55683,-8.06033 0.93652,-1.83333 3.40633,-4.95151 5.48847,-6.92927 2.08214,-1.97777 6.01644,-4.52777 8.74288,-5.66666 2.72645,-1.13891 6.94932,-2.07074 9.38414,-2.07074 2.43484,0 7.06934,1.35 10.29887,3 3.22955,1.65 7.67967,5.27232 9.88916,8.04959 3.28487,4.129 4.1147,6.57983 4.55172,13.44321 0.4222,6.63048 -0.0527,9.54463 -2.261,13.87316 -1.53749,3.01376 -4.75099,6.95539 -7.14109,8.7592 -2.39011,1.8038 -6.74564,3.93522 -9.67898,4.73647 -2.93333,0.80127 -5.93333,1.41281 -6.66666,1.35901 z"
       id="path130310" />
  </g>
</svg>
