<?xml version="1.0" encoding="UTF-8" standalone="no"?>
<!-- Created with Inkscape (http://www.inkscape.org/) -->

<svg
   version="1.1"
   id="svg2178"
   width="570"
   height="512"
   viewBox="0 0 570 512"
   sodipodi:docname="reactIcon.svg"
   inkscape:version="1.1.2 (0a00cf5339, 2022-02-04)"
   xmlns:inkscape="http://www.inkscape.org/namespaces/inkscape"
   xmlns:sodipodi="http://sodipodi.sourceforge.net/DTD/sodipodi-0.dtd"
   xmlns="http://www.w3.org/2000/svg"
   xmlns:svg="http://www.w3.org/2000/svg">
  <defs
     id="defs2182" />
  <sodipodi:namedview
     id="namedview2180"
     pagecolor="#ffffff"
     bordercolor="#666666"
     borderopacity="1.0"
     inkscape:pageshadow="2"
     inkscape:pageopacity="0.0"
     inkscape:pagecheckerboard="0"
     showgrid="false"
     inkscape:zoom="1.515625"
     inkscape:cx="284.70103"
     inkscape:cy="256"
     inkscape:window-width="1920"
     inkscape:window-height="1011"
     inkscape:window-x="0"
     inkscape:window-y="0"
     inkscape:window-maximized="1"
     inkscape:current-layer="g2184" />
  <g
     inkscape:groupmode="layer"
     inkscape:label="Image"
     id="g2184">
    <path
       style="display:inline;fill:#53c1de;fill-opacity:1"
       d="m 379,479.03258 c -24.68863,-3.50255 -51.36474,-17.98079 -81.77802,-44.38434 l -10.80205,-9.3779 -3.95997,3.438 c -26.26058,22.79918 -43.5018,34.36342 -63.66255,42.70049 -25.05868,10.36251 -48.74977,10.23855 -62.81342,-0.32868 -5.30927,-3.98931 -11.7937,-11.8143 -14.96488,-18.05866 -2.80475,-5.52284 -6.69472,-18.75339 -8.09169,-27.52149 -1.60501,-10.07379 -1.60742,-34.95069 -0.005,-47.7951 0.67225,-5.38731 2.45768,-15.82232 3.96762,-23.18893 l 2.74536,-13.39382 -8.56788,-2.65557 C 119.1651,334.77738 102.246,327.77748 91.13111,321.94363 75.540537,313.76065 65.073398,306.24503 54.421783,295.58561 46.07963,287.23734 43.620507,284.0358 40.146061,277 c -5.475492,-11.08794 -6.892163,-18.61739 -5.241128,-27.85602 5.094312,-28.50603 37.721138,-54.69366 89.933577,-72.18439 7.88619,-2.64181 14.48969,-4.95446 14.67445,-5.13922 0.18477,-0.18476 -0.73706,-5.30648 -2.04851,-11.38159 -5.36209,-24.83917 -7.23243,-55.70342 -4.48061,-73.93878 6.07879,-40.282089 29.12005,-59.072961 63.68131,-51.934135 24.30351,5.020026 52.55493,21.024564 80.23449,45.453134 l 8.80352,7.769538 8.39842,-7.517394 c 23.97173,-21.456998 46.59608,-35.690689 69.20241,-43.537401 8.62866,-2.995031 10.06275,-3.193249 23.24478,-3.212851 L 400.59754,33.5 l 7.62284,3.765884 c 9.81027,4.84653 15.69929,11.25951 21.33583,23.234116 6.90516,14.669737 9.36064,27.788365 9.41291,50.28941 0.0399,17.18602 -2.78641,40.76474 -7.2318,60.33124 -0.13053,0.57451 6.51268,3.39717 14.76268,6.27258 33.57999,11.70378 57.26953,25.1672 72.57747,41.24778 12.30539,12.92648 17.32347,23.78948 17.25769,37.35899 -0.0499,10.30403 -2.26494,16.73721 -9.47371,27.51521 -12.97922,19.40555 -43.84761,39.22464 -80.93472,51.96425 l -13.57326,4.66249 1.80941,8.34397 c 3.43366,15.83407 4.93143,28.07056 5.5098,45.01408 0.86875,25.45049 -2.28249,43.81755 -10.22579,59.60115 -3.62419,7.20139 -11.63018,16.61294 -16.90509,19.87302 -8.29333,5.12555 -22.29317,7.65425 -33.5418,6.05841 z m 20.09468,-23.0925 c 13.60766,-6.89814 20.99539,-30.79598 19.58901,-63.36656 -0.67921,-15.72989 -5.02468,-44.24784 -7.05112,-46.27428 -0.29827,-0.29827 -6.75012,0.63066 -14.33744,2.06429 -17.0528,3.22214 -23.18252,4.15706 -40.28244,6.14396 -7.41803,0.86193 -13.75199,1.88785 -14.07547,2.27982 -0.32348,0.39198 -4.15068,5.66269 -8.50487,11.71269 -8.32371,11.56549 -24.27075,31.47361 -30.14647,37.63454 l -3.46629,3.63454 8.84021,7.76818 c 36.68263,32.23428 71.83099,47.32678 89.43488,38.40282 z m -200.59142,0.0591 c 14.565,-3.72509 36.49096,-15.6479 52.99674,-28.81833 10.15224,-8.10077 19.5,-16.41235 19.5,-17.33848 0,-0.44137 -2.76511,-3.84896 -6.14468,-7.57242 -7.49169,-8.25401 -18.92069,-22.33334 -29.15477,-35.91563 l -7.64466,-10.1457 -7.27795,-0.6875 c -13.99788,-1.32227 -30.39728,-3.57837 -45.03773,-6.19594 -8.11789,-1.4514 -15.05021,-2.3485 -15.40515,-1.99355 -1.01424,1.01424 -5.09121,21.75934 -6.3806,32.46678 -1.48857,12.36152 -1.49324,34.66691 -0.009,43.61995 1.60799,9.70034 4.61356,18.21398 8.54531,24.20559 6.59199,10.04558 18.5804,12.83365 36.01261,8.37523 z m 96.219,-71.24916 c 4.34209,-5.0875 10.94325,-13.1875 14.66923,-18 l 6.77452,-8.75 h -30.17429 -30.17428 l 5.27112,6.75 c 2.89911,3.7125 8.67769,10.7177 12.84128,15.5671 4.16359,4.84941 8.44552,9.91191 9.51541,11.25 1.06989,1.3381 2.26858,2.4329 2.66377,2.4329 0.39518,0 4.27114,-4.1625 8.61324,-9.25 z m 26.48119,-48.39334 10.51458,-0.64334 8.08126,-12.69695 c 10.05147,-15.79245 24.49558,-40.94794 31.98907,-55.71134 l 5.68226,-11.19496 -2.81064,-5.80504 c -7.50906,-15.50904 -23.75241,-43.80601 -35.91417,-62.56484 -5.06726,-7.81596 -7.69676,-10.96233 -9.61082,-11.5 -3.44282,-0.96711 -83.83408,-0.96509 -87.27873,0.002 -1.96223,0.55101 -4.77327,4.01897 -10.90468,13.45301 -9.28273,14.2828 -22.46726,37.18259 -31.45158,54.62725 l -6,11.65008 6.94521,13.66355 c 8.51934,16.76041 20.11864,36.72318 31.12188,53.56181 l 8.2976,12.69807 5.81765,0.36284 c 10.82699,0.67526 64.93736,0.74524 75.52111,0.0977 z m -49.4415,-38.29852 c -10.60917,-3.39149 -19.46677,-10.52316 -25.0681,-20.18353 -7.03273,-12.12904 -7.60279,-28.21678 -1.45832,-41.1553 13.41847,-28.25548 49.8625,-34.46562 72.09279,-12.28476 11.17488,11.15004 15.49083,28.92534 10.78502,44.41822 -4.09185,13.47153 -15.56675,25.04483 -28.92173,29.16977 -8.16128,2.52076 -19.60915,2.53562 -27.42966,0.0356 z M 212,332.63821 c 0,-0.19898 -3.52665,-6.16148 -7.837,-13.25 -4.31036,-7.08851 -10.89873,-18.42734 -14.64083,-25.19738 -3.7421,-6.77005 -7.13268,-11.94505 -7.53461,-11.5 -1.00362,1.11128 -8.53911,20.65943 -12.62501,32.7511 -2.16355,6.40271 -2.9898,10.17041 -2.32101,10.58374 0.91947,0.56827 16.26749,3.38745 31.95846,5.87025 5.88285,0.93085 13,1.33724 13,0.74229 z m 162,-1.60545 c 13.89046,-2.16253 30.83099,-5.53042 31.5786,-6.27803 0.57762,-0.57762 -9.46157,-28.07864 -13.69208,-37.50767 l -2.97005,-6.61968 -8.29932,14.93631 c -4.56462,8.21497 -10.78309,19.01117 -13.81882,23.99157 -7.83368,12.85185 -8.12527,13.44685 -6.58351,13.43415 0.70685,-0.006 6.91018,-0.88632 13.78518,-1.95665 z M 147.51438,314 c 3.27396,-10.22985 10.57599,-29.42823 16.62963,-43.72235 l 6.02325,-14.22234 -5.69081,-13.27766 c -5.81307,-13.5629 -12.45164,-30.95887 -16.42002,-43.02765 -1.22072,-3.7125 -2.67604,-6.75 -3.23405,-6.75 -2.10586,0 -12.71219,3.40841 -23.32922,7.49699 -23.276291,8.96361 -41.834526,19.91334 -53.468892,31.54771 -16.433798,16.4338 -16.622357,30.09772 -0.645731,46.7929 15.030902,15.70692 34.278883,26.86381 65.121463,37.74697 6.6,2.32889 12.28219,3.93758 12.62708,3.57488 0.34489,-0.3627 1.41918,-3.13445 2.3873,-6.15945 z m 295.4309,0.31756 c 5.2551,-1.9352 15.40472,-6.36175 22.55472,-9.83678 31.56197,-15.33969 49.88283,-33.31775 49.91475,-48.98078 0.0358,-17.55507 -26.57,-39.46754 -66.67402,-54.91262 -11.19398,-4.31108 -22.72373,-7.98498 -23.21255,-7.39656 -0.14127,0.17005 -1.28554,3.45918 -2.54283,7.30918 -3.8071,11.65792 -11.42469,31.32604 -16.88273,43.5901 l -5.1581,11.59011 3.92095,8.52721 c 5.42956,11.80814 15.33547,36.61348 18.62262,46.63283 l 2.73626,8.34024 3.58311,-0.67219 c 1.97071,-0.36971 7.88273,-2.25554 13.13782,-4.19074 z M 191.00329,215.5 c 4.57202,-8.25 11.19073,-19.66342 14.70824,-25.36316 3.51752,-5.69973 6.25891,-10.46625 6.09198,-10.59225 -0.9511,-0.71791 -42.00727,6.34527 -43.98381,7.56684 -0.98379,0.60802 -0.63117,2.74722 1.58006,9.58563 3.16866,9.79933 12.65635,34.62021 13.04304,34.12208 0.13625,-0.17553 3.98847,-7.06914 8.56049,-15.31914 z m 201.05797,7.75 c 3.69885,-8.82605 13.14055,-35.39162 12.71812,-35.78423 C 403.82515,186.57891 359,178.77396 359,179.49467 c 0,0.11294 4.1625,7.15314 9.25,15.64489 5.0875,8.49174 11.725,20.02599 14.75,25.63167 3.025,5.60567 5.57051,10.20037 5.65668,10.21045 0.0862,0.0101 1.61824,-3.46918 3.40458,-7.73168 z M 207,158.93943 c 9.625,-1.16682 18.4,-2.31506 19.5,-2.55164 1.1,-0.23659 4.46651,-3.90812 7.48113,-8.15897 7.1499,-10.08191 23.15418,-29.96069 30.9128,-38.39652 l 6.13243,-6.6677 -7.26318,-6.494801 c -33.41404,-29.879109 -69.554,-46.897155 -88.60382,-41.722892 -8.73725,2.37319 -16.25137,12.358444 -19.73726,26.228138 -2.17964,8.67236 -3.00353,36.609985 -1.47211,49.917835 1.16422,10.11688 5.44103,33.11276 6.46715,34.77306 0.28037,0.45364 6.93871,-0.44191 14.79631,-1.99011 7.8576,-1.5482 22.16155,-3.76958 31.78655,-4.9364 z M 411.9686,161.75 c 4.49063,-20.78399 5.33643,-28.47086 5.41911,-49.25 0.0928,-23.330963 -1.02346,-30.867679 -6.20678,-41.905936 -5.83159,-12.418799 -11.72294,-16.534673 -23.72083,-16.572102 -20.05284,-0.06256 -45.73666,13.23166 -76.31879,39.503416 -5.61516,4.82373 -10.08156,9.111532 -9.92534,9.528452 0.15621,0.41692 4.78403,6.03523 10.28403,12.48514 5.5,6.44991 14.97009,18.2916 21.04465,26.31487 l 11.04466,14.58775 11.36279,1.26682 c 13.36037,1.48952 40.20287,5.82674 48.0479,7.7636 7.89967,1.95036 7.72758,2.02177 8.9686,-3.72201 z m -99.53534,-11.5 c -2.95646,-3.95373 -16.93792,-20.98864 -22.75497,-27.7245 -3.12649,-3.62031 -3.59229,-3.8431 -5.22709,-2.5 -2.37962,1.95502 -17.72,19.84879 -23.76829,27.7245 l -4.7998,6.25 h 29.67713 29.67714 z"
       id="path28101" />
  </g>
</svg>
