<?xml version="1.0" encoding="UTF-8" standalone="no"?>
<!-- Created with Inkscape (http://www.inkscape.org/) -->

<svg
   version="1.1"
   id="svg1131"
   width="500"
   height="500"
   viewBox="0 0 500 500"
   sodipodi:docname="connectionsIcon.svg"
   inkscape:version="1.1.2 (0a00cf5339, 2022-02-04)"
   xmlns:inkscape="http://www.inkscape.org/namespaces/inkscape"
   xmlns:sodipodi="http://sodipodi.sourceforge.net/DTD/sodipodi-0.dtd"
   xmlns="http://www.w3.org/2000/svg"
   xmlns:svg="http://www.w3.org/2000/svg">
  <defs
     id="defs1135">
    <linearGradient
       id="linearGradient9572"
       inkscape:swatch="gradient">
      <stop
         style="stop-color:#000000;stop-opacity:1;"
         offset="0"
         id="stop9568" />
      <stop
         style="stop-color:#000000;stop-opacity:0;"
         offset="1"
         id="stop9570" />
    </linearGradient>
  </defs>
  <sodipodi:namedview
     id="namedview1133"
     pagecolor="#ffffff"
     bordercolor="#666666"
     borderopacity="1.0"
     inkscape:pageshadow="2"
     inkscape:pageopacity="0.0"
     inkscape:pagecheckerboard="0"
     showgrid="false"
     inkscape:zoom="0.60968318"
     inkscape:cx="112.35344"
     inkscape:cy="150.89805"
     inkscape:window-width="1920"
     inkscape:window-height="1011"
     inkscape:window-x="0"
     inkscape:window-y="0"
     inkscape:window-maximized="1"
     inkscape:current-layer="g1137" />
  <g
     inkscape:groupmode="layer"
     inkscape:label="Image"
     id="g1137"
     transform="translate(-14.201925,-14.201926)">
    <path
       style="display:inline;fill:#000000;stroke-width:0;stroke-miterlimit:4;stroke-dasharray:none;stroke:none;stroke-opacity:1;fill-opacity:1;opacity:1"
       d="M 141.24414 15.935547 C 121.45144 16.90467 101.93544 21.800253 84.452529 31.288035 C 50.943275 49.051377 25.990536 82.22889 18.652847 119.48635 C 15.883901 133.6295 14.772374 148.38379 17.24235 162.55974 C 20.300435 181.19479 27.452303 198.91695 37.227926 214.9943 C 48.275207 232.25703 64.216232 245.76569 81.363281 256.67383 C 91.397591 262.46999 102.52861 266.0389 113.5918 269.29492 C 126.93122 272.59688 140.79225 274.08588 154.53558 272.77989 C 166.07823 271.94368 177.39586 269.44684 188.21497 265.50258 C 199.8459 261.36322 211.2401 255.78958 221.06085 248.14724 C 223.80635 245.86917 227.72708 244.886 230.99379 246.68182 C 237.23885 250.10943 241.95771 255.64743 247.18373 260.38017 C 257.28248 270.37196 267.49604 280.26864 277.14316 290.69942 C 279.66636 293.94028 283.0577 297.62521 282.3418 302.05664 C 281.19784 306.68019 277.22822 309.8206 275.15037 313.99778 C 266.25434 328.4131 260.47823 344.60012 257.03029 361.05185 C 256.17698 365.04558 254.90229 369.48341 250.97731 371.50612 C 246.06884 374.27569 240.18545 373.79676 234.75195 374.26953 C 221.83966 374.4623 208.92036 374.37109 196.00836 374.20293 C 191.04506 373.84102 185.81349 373.93837 181.17743 371.92806 C 177.08759 370.0134 175.11008 365.76671 173.62777 361.76717 C 167.96386 349.46841 158.14728 339.21479 146.26209 332.76617 C 140.20083 329.2217 133.36576 327.21466 126.3759 326.68755 C 117.51378 325.69218 108.67857 327.26793 100.45455 330.64224 C 92.111641 333.75011 84.673663 339.01936 78.892611 345.78078 C 73.318161 352.16043 68.365079 359.49207 66.321586 367.80518 C 64.703602 376.21341 65.256244 384.85649 65.73346 393.34884 C 66.292073 400.76818 68.256439 408.33484 73.099609 414.1582 C 78.270839 421.63113 85.169064 428.04724 92.929544 432.75257 C 99.799986 437.17741 107.95152 439.21579 115.99547 439.53208 C 128.32743 440.41468 141.66495 438.53161 151.9535 431.04196 C 160.2781 425.44053 167.3789 417.9331 171.86367 408.90783 C 173.82862 405.52109 174.70372 401.64564 176.42908 398.17394 C 179.85374 393.24052 186.47579 393.35146 191.84158 393.04476 C 206.19172 392.48493 220.56149 392.74386 234.91747 392.87547 C 240.37858 393.13703 246.24621 393.32277 251.07871 396.15261 C 256.76369 400.27481 257.22658 407.842 259.09582 414.03653 C 262.09776 424.73826 265.5499 435.44724 270.90446 445.225 C 279.79366 459.94576 291.00238 473.40942 304.47792 484.14777 C 315.47998 492.99515 328.11085 499.48017 341.34002 504.25308 C 350.97037 507.97446 361.28334 510.17069 371.51388 511.34134 C 379.78041 512.54966 388.1219 512.46816 396.4002 511.21274 C 412.21777 509.43708 427.65362 504.78013 441.94698 497.73416 C 451.84099 492.69298 460.65458 485.77928 469.02839 478.54818 C 484.74286 464.84682 496.7737 447.11757 504.00781 427.5625 C 509.25508 413.51065 511.90545 398.47113 512.25957 383.40429 C 512.37795 362.16973 505.89825 341.1758 496.12892 322.3645 C 489.0231 308.20721 478.7102 296.07371 466.61328 285.95508 C 456.81242 277.96256 446.6532 270.16561 434.70577 265.65964 C 423.59056 261.34644 412.00246 257.5329 400.23937 256.13059 C 390.88179 254.79909 381.46381 254.61447 372.02034 255.59916 C 356.16648 256.84156 340.88583 261.68856 326.5191 268.3075 C 319.10248 271.76801 312.10927 276.04798 305.48279 280.83856 C 301.52322 283.89757 296.239 281.57224 292.9275 278.6695 C 281.21808 268.6082 270.76458 257.20305 259.8349 246.32369 C 254.93003 241.22932 249.5294 236.2776 246.34046 229.87238 C 244.85828 225.97519 247.03015 222.02173 249.60633 219.17839 C 261.60711 203.01238 268.11851 183.55809 272.20898 164.03711 C 273.35473 159.18167 277.64635 155.34854 282.65904 154.97727 C 292.42511 153.32212 302.34846 154.07306 312.17971 153.88944 C 322.79341 153.9759 333.51631 153.42335 344.02734 155.1543 C 348.60179 156.1337 352.38145 159.62259 353.70508 164.11328 C 359.17658 177.14301 369.0659 188.18043 381.42396 194.94006 C 388.5424 199.30757 396.82668 201.4418 405.14248 201.62198 C 412.87422 202.06157 420.95559 200.40284 428.07419 197.39958 C 436.8798 194.11407 444.58916 188.32935 450.54983 181.09741 C 455.66369 174.92142 460.20924 168.05419 462.08008 160.2207 C 463.67531 151.81451 463.13455 143.24481 462.67403 134.76894 C 462.1109 127.26123 460.13065 119.56214 455.09768 113.75634 C 448.5588 104.81105 440.25025 96.644134 429.72656 92.515625 C 418.46406 87.725421 405.4657 85.929393 393.66091 89.522915 C 385.98117 91.598302 378.5832 94.714104 372.40906 99.843589 C 362.8645 107.10363 356.06938 117.54225 352.42578 128.90039 C 350.02024 134.00168 343.69023 134.66713 338.7047 134.88117 C 323.31119 135.53699 307.89079 135.33788 292.49085 135.05486 C 286.94783 134.79108 280.77168 134.5382 276.26355 130.9126 C 271.4395 126.33134 271.20197 119.21123 269.25966 113.23335 C 266.28631 102.78663 262.93151 92.312919 257.67749 82.767234 C 249.82154 69.683338 240.0348 57.721797 228.74696 47.45166 C 214.15745 34.590307 196.17026 26.14374 177.66108 20.588328 C 165.86039 17.217248 153.59601 15.303205 141.24414 15.935547 z M 146.10156 35.876953 C 161.93623 36.076984 177.54564 40.229321 192.01337 46.49161 C 202.71422 51.862986 212.49704 59.048125 221.10785 67.344891 C 229.23036 75.58748 236.55783 84.771835 241.98062 95.022229 C 248.44475 108.18801 253.0249 122.4502 254.03703 137.14251 C 255.10014 148.83334 254.15743 160.67949 251.10483 172.02098 C 248.69805 181.22099 245.34026 190.40967 239.77734 198.17578 C 237.60093 199.94689 234.97938 197.94961 233.72504 196.06091 C 228.90263 190.42616 225.14299 183.91952 219.69965 178.8102 C 209.96514 168.69955 197.91616 161.43382 185.52734 155.06055 C 182.84815 153.55576 180.92151 150.4417 182.05109 147.35279 C 183.69765 142.33129 187.23708 138.05871 188.22811 132.77172 C 189.99398 124.92045 189.29388 116.65833 188.08946 108.66732 C 186.2428 99.144221 179.34942 91.7276 172.26606 85.579289 C 166.93864 80.958787 160.35775 77.653789 153.24498 77.162493 C 145.95354 76.562995 138.7203 77.103166 131.50781 78.1875 C 121.97734 80.092023 114.28741 86.804304 108.72852 94.484375 C 102.4928 102.8685 98.801825 113.44915 100.10938 123.96094 C 100.85828 131.23357 102.42305 138.68494 106.23155 145.00592 C 107.61176 147.35063 109.798 149.78526 109.51172 152.64844 C 107.16516 156.02595 102.47033 155.56596 99.214881 157.57884 C 89.145763 162.59243 80.154094 169.59744 72.055261 177.35789 C 66.131199 182.83371 61.38402 189.37569 56.03982 195.37375 C 54.448041 196.94278 51.949162 199.75402 49.691406 197.66406 C 46.996486 194.3919 45.656613 190.20053 43.981707 186.3431 C 40.069613 176.05373 37.37634 165.24972 36.199826 154.30508 C 35.223588 140.33969 36.951669 126.22191 41.247222 112.89834 C 44.108461 103.34376 47.988255 94.001933 53.905059 85.909567 C 64.098715 70.756641 77.895574 58.123695 93.694477 49.004096 C 102.42101 44.140449 112.12293 41.367525 121.73753 38.857601 C 129.70847 36.937976 137.89346 35.81631 146.10156 35.876953 z M 146.3125 95.693359 C 155.23791 95.929528 162.75249 102.22573 167.46493 109.36701 C 171.33613 115.21785 171.56397 122.74474 169.30405 129.23745 C 167.26117 136.11452 161.63694 141.23642 155.53918 144.62592 C 149.75129 147.63353 142.53779 149.16072 136.457 146.05271 C 129.15699 142.68621 122.22539 137.16597 119.27724 129.4785 C 117.87135 123.95931 119.37674 118.18722 120.95328 112.87671 C 123.85783 104.5799 131.07627 97.788797 139.84756 96.255365 C 141.97173 95.795118 144.14455 95.678948 146.3125 95.693359 z M 407.61328 107.70703 C 418.8209 107.75187 429.86938 112.99073 436.83971 121.79826 C 442.09654 128.10524 444.9144 136.30806 445.41244 144.43939 C 445.18523 151.10807 443.32241 157.78025 440.10657 163.61394 C 435.52773 171.52658 428.10392 177.72275 419.38536 180.55055 C 410.29565 183.93481 399.75478 183.41674 391.09768 179.0307 C 384.87788 175.42023 379.34399 170.47983 375.126 164.64503 C 371.34782 159.53068 370.01485 153.09483 370.20308 146.83396 C 370.07468 136.46566 373.39636 125.77494 380.82906 118.31606 C 384.7628 113.71348 390.0046 110.09705 396.05691 109.06893 C 399.83361 108.14274 403.72226 107.65049 407.61328 107.70703 z M 144.67773 168.03711 C 156.76548 167.98165 169.49408 168.14026 180.39453 174.07031 C 195.73785 181.7319 208.9589 193.52051 218.49731 207.75556 C 220.54774 211.2596 222.97378 214.83872 223.6062 218.9043 C 223.49773 223.90887 218.58189 226.60381 215.20177 229.47336 C 206.48074 235.79058 196.80781 240.65498 187.17181 245.39945 C 177.704 249.95067 167.45081 253.04144 156.90254 253.40699 C 143.86093 254.281 130.56109 254.09171 117.80273 251.01953 C 102.74468 246.60395 88.328374 239.5823 76.058594 229.74805 C 73.252626 227.05912 69.8274 224.4334 68.682616 220.56784 C 67.583834 215.43593 70.702354 210.67674 73.054688 206.37695 C 82.379165 191.61578 96.648161 180.57292 112.17756 172.93806 C 119.69721 169.27158 128.11539 168.11827 136.40379 168.13198 C 139.16095 168.05522 141.91972 168.05422 144.67773 168.03711 z M 381.1582 273.69922 C 394.66761 273.60704 408.22179 275.78854 420.83341 280.70409 C 430.9318 284.2482 440.48545 289.35106 448.79874 296.11663 C 459.3144 304.05904 468.39459 313.82483 475.59835 324.85645 C 480.9693 332.61837 484.9378 341.2984 487.467 350.35768 C 492.94059 367.85774 494.87498 386.86767 490.22399 404.78605 C 487.78424 415.51344 485.03625 426.43866 479.3457 435.96094 C 478.23204 437.95397 475.41088 437.95243 474.20581 436.03291 C 468.89475 430.647 465.36566 423.77501 459.82885 418.578 C 449.89094 408.08879 437.38013 400.50672 424.60742 394.06836 C 421.83201 392.52355 419.74131 389.42021 420.66998 386.16212 C 421.7624 381.66248 424.39824 377.71474 425.6942 373.26491 C 428.15365 366.56404 429.43203 359.20902 427.59478 352.18533 C 425.47624 342.51217 420.79211 333.19291 413.6161 326.29257 C 408.54046 321.79982 402.70308 317.78661 395.91273 316.55599 C 386.04655 314.42036 375.49307 314.82114 365.97425 318.27219 C 360.35741 320.70881 355.60032 324.79254 351.25743 329.03647 C 345.86341 334.68967 341.14577 341.51154 340.0332 349.41406 C 338.09761 358.97103 339.02557 368.94566 342.89242 377.95678 C 344.27573 381.93908 348.00621 385.79407 346.26945 390.2682 C 344.63662 393.51876 340.74728 394.60245 337.81107 396.36555 C 328.72922 400.70246 320.6306 406.85406 313.05756 413.42506 C 306.44356 419.44775 300.13674 426.036 295.79016 433.91704 C 294.38246 435.87098 292.0383 438.95366 289.34906 437.27687 C 286.6187 435.20336 285.28701 431.80191 283.64962 428.878 C 279.49712 420.06439 277.27315 410.4778 275.4131 400.96102 C 272.92446 385.66348 273.04381 369.71475 277.66427 354.8167 C 282.97338 336.80402 292.52706 319.98208 305.4669 306.35953 C 315.14328 296.73464 326.78281 289.17572 339.13696 283.45573 C 352.31296 277.50496 366.61058 273.52904 381.1582 273.69922 z M 385.34961 333.66016 C 394.53506 333.60168 402.05128 340.4259 406.49883 347.91506 C 409.88104 353.20927 411.34149 360.0964 408.67322 366.0087 C 406.05472 372.86469 401.39138 379.35538 394.78337 382.79022 C 388.80696 385.22835 382.13126 384.63494 375.875 383.92969 C 368.40359 382.1384 363.44046 375.44847 359.89608 369.07298 C 357.46535 364.75078 356.56196 359.57271 357.97371 354.76622 C 359.43124 345.95662 365.58552 337.65199 374.41539 335.22865 C 377.95758 334.17349 381.66658 333.77696 385.34961 333.66016 z M 119.61719 345.19922 C 127.77202 345.09528 136.0333 347.49198 142.39627 352.70586 C 149.08413 357.71572 155.50263 364.22294 157.46289 372.60352 C 159.10882 380.86201 158.28408 389.59544 155.54211 397.5273 C 152.66553 404.67763 147.67146 411.09693 141.26489 415.40459 C 133.92377 419.76924 125.13313 421.61093 116.65399 420.55224 C 107.30385 419.70343 98.950327 414.27353 92.684395 407.53178 C 87.126559 401.22735 83.135114 393.08114 83.484323 384.51173 C 83.445944 375.2404 86.054882 365.67413 92.428212 358.71846 C 98.228695 352.13306 106.32011 347.77253 114.74023 345.56836 C 116.34943 345.28022 117.98564 345.21284 119.61719 345.19922 z M 387.34766 405.73242 C 400.06077 405.5322 412.73575 408.88349 423.75083 415.21873 C 433.03923 420.04478 441.22953 426.79141 447.98219 434.77095 C 453.16531 440.77896 458.0946 447.23265 461.20117 454.57422 C 462.29489 459.02365 458.65541 462.55885 455.54082 465.10882 C 443.732 475.55749 429.58691 483.35381 414.40687 487.64582 C 403.66912 490.75589 392.55077 492.88479 381.3695 493.21768 C 367.79297 492.21899 354.25909 489.57967 341.66803 484.29389 C 330.34706 479.60956 319.68812 473.0972 310.68432 464.76305 C 308.21898 462.37656 305.08732 459.56397 305.91211 455.73047 C 306.93942 450.89037 310.03995 446.81808 312.55879 442.65742 C 318.64584 433.49021 326.65162 425.71247 335.74307 419.54613 C 343.83202 413.64977 353.08683 409.19132 363.0453 407.67786 C 371.0562 406.20722 379.21658 405.79536 387.34766 405.73242 z "
       id="path9473"
       sodipodi:nodetypes="ssssssssssssssssssssssssssssssssssssssssssssssssssssssssssssssssssssssssssssssssssssssssssssssssssssssssssssssssscssssssssssssssssssscssssssssssssssssssssssssscsssssssssssssssssssssssscsssssssssssssssssssssssscsssssssssssss" />
  </g>
</svg>
