<?xml version="1.0" encoding="UTF-8" standalone="no"?>
<!-- Created with Inkscape (http://www.inkscape.org/) -->

<svg
   version="1.1"
   id="svg2341"
   width="500"
   height="500"
   viewBox="0 0 500 500"
   sodipodi:docname="cookingIcon.svg"
   inkscape:version="1.1.2 (0a00cf5339, 2022-02-04)"
   xmlns:inkscape="http://www.inkscape.org/namespaces/inkscape"
   xmlns:sodipodi="http://sodipodi.sourceforge.net/DTD/sodipodi-0.dtd"
   xmlns="http://www.w3.org/2000/svg"
   xmlns:svg="http://www.w3.org/2000/svg">
  <defs
     id="defs2345" />
  <sodipodi:namedview
     id="namedview2343"
     pagecolor="#ffffff"
     bordercolor="#666666"
     borderopacity="1.0"
     inkscape:pageshadow="2"
     inkscape:pageopacity="0.0"
     inkscape:pagecheckerboard="0"
     showgrid="false"
     inkscape:zoom="1.1367187"
     inkscape:cx="212.89348"
     inkscape:cy="341.33334"
     inkscape:window-width="1920"
     inkscape:window-height="1011"
     inkscape:window-x="0"
     inkscape:window-y="0"
     inkscape:window-maximized="1"
     inkscape:current-layer="g2347" />
  <g
     inkscape:groupmode="layer"
     inkscape:label="Image"
     id="g2347">
    <path
       style="fill:#000000;stroke-width:0.976562"
       d="m 91.444547,486.28526 c -17.494599,-0.0306 -25.56456,-0.40543 -28.08022,-1.30442 -1.941612,-0.69386 -4.870106,-2.21565 -6.507765,-3.38177 -1.63766,-1.16611 -4.114009,-4.40076 -5.502999,-7.1881 -2.321172,-4.65798 -2.525438,-6.08008 -2.525438,-17.5821 0,-10.74078 0.295382,-13.14262 2.084362,-16.94851 1.146399,-2.43886 3.477182,-5.49664 5.179518,-6.79508 1.702336,-1.29843 4.705337,-3.03356 6.673335,-3.85585 1.967998,-0.82228 6.004469,-1.49506 8.969934,-1.49506 h 5.391757 l -7.869496,-7.51847 c -4.328223,-4.13516 -9.972506,-10.32662 -12.542849,-13.75882 -2.570345,-3.4322 -6.52571,-9.71686 -8.789701,-13.96591 l -4.116345,-7.72555 -11.894554,-0.01 c -10.429963,-0.008 -12.495781,-0.29148 -16.777367,-2.30093 -2.685547,-1.26038 -6.1354873,-3.55746 -7.6665339,-5.10461 -1.5310467,-1.54716 -3.7152609,-4.57658 -4.8538093,-6.73205 -1.5386819,-2.91301 -2.07008811,-5.67389 -2.07008811,-10.75499 0,-5.0811 0.53140621,-7.84198 2.07008811,-10.75499 1.1385484,-2.15547 3.3227626,-5.18489 4.8538093,-6.73205 1.5310466,-1.54715 4.9809869,-3.84423 7.6665339,-5.10461 4.880094,-2.29034 4.9057,-2.29162 46.008518,-2.30115 l 41.125713,-0.01 3.03108,-6.10351 c 1.6671,-3.35694 5.04024,-8.64373 7.49586,-11.74843 2.45562,-3.10471 7.19443,-7.67376 10.5307,-10.15347 3.33626,-2.47969 9.59703,-6.17859 13.91279,-8.21976 4.31577,-2.04116 12.08045,-4.81119 17.25484,-6.15562 5.1744,-1.34442 15.04664,-2.96228 21.93831,-3.59524 6.89167,-0.63296 14.23911,-1.56695 16.32765,-2.07552 2.27467,-0.5539 5.58534,-2.61404 8.25641,-5.13776 l 4.4591,-4.21309 -9.80088,-9.62888 c -5.39049,-5.29588 -11.68734,-12.43175 -13.993,-15.8575 -2.30568,-3.42574 -5.63652,-9.35836 -7.40192,-13.18359 -1.76538,-3.82523 -3.90803,-10.34221 -4.76146,-14.48216 -1.3074,-6.34219 -1.55168,-15.95095 -1.55171,-61.03515 l -3e-5,-53.50797 -3.45551,-2.75716 c -1.90053,-1.51644 -4.96118,-5.03206 -6.80143,-7.812502 -1.84027,-2.780438 -4.0588,-7.851759 -4.93008,-11.269605 -1.27998,-5.021034 -1.38698,-7.333618 -0.5573,-12.043801 0.56476,-3.206245 2.12039,-8.218138 3.45693,-11.137541 1.34004,-2.927028 4.75043,-7.604921 7.60291,-10.428613 2.84505,-2.816336 7.9107,-6.5648 11.25699,-8.329919 3.3463,-1.76512 9.05919,-3.839727 12.69531,-4.610238 3.70135,-0.784331 12.01848,-1.408393 18.89677,-1.417886 l 12.28563,-0.01673 3.19786,-4.452948 c 1.75883,-2.449121 5.436,-6.22209 8.17149,-8.384375 2.7355,-2.162285 7.59538,-5.254883 10.79975,-6.872439 3.20435,-1.617557 7.84142,-3.571274 10.3046,-4.341593 2.46316,-0.770319 8.21739,-1.664674 12.78718,-1.987453 6.65866,-0.470325 9.93436,-0.175771 16.49482,1.483228 4.50237,1.138556 10.18397,3.240915 12.62579,4.67191 2.44181,1.430995 6.22519,4.252189 8.40751,6.26932 2.18233,2.017132 5.28165,5.856496 6.88737,8.531921 l 2.91951,4.864409 15.63518,0.466429 c 12.70189,0.378923 16.71982,0.858257 21.41652,2.554967 3.17974,1.148695 7.58043,3.142873 9.77932,4.431504 2.19889,1.288632 6.32272,4.801048 9.16408,7.805369 2.84136,3.00432 6.34131,7.990418 7.77767,11.080216 2.18559,4.701512 2.61156,6.971732 2.61156,13.918598 0,6.921784 -0.4286,9.222594 -2.57996,13.849573 -1.41897,3.051835 -5.03495,8.083429 -8.0355,11.181319 l -5.45554,5.63253 -0.008,50.8304 c -0.004,29.91331 -0.4195,53.4425 -1.00886,57.17805 -0.55082,3.49121 -1.91416,9.2041 -3.02965,12.69531 -1.11549,3.49121 -3.55701,9.2041 -5.42562,12.69531 -1.8686,3.49122 -5.836,9.55208 -8.81645,13.46859 -2.98044,3.9165 -8.51278,9.91671 -12.29408,13.33378 l -6.87508,6.21286 1.63147,2.48994 c 0.89732,1.36947 3.60056,3.64392 6.00721,5.05431 3.54732,2.07886 6.36816,2.74059 14.89982,3.49531 5.78824,0.51202 14.25944,1.60424 18.82487,2.42713 4.56543,0.8229 12.25585,2.81067 17.08984,4.41726 4.83398,1.6066 11.20605,4.2694 14.16016,5.91735 2.9541,1.64794 7.56835,4.78131 10.2539,6.96303 2.68555,2.18172 6.77597,6.19211 9.08983,8.91197 2.31385,2.71985 5.75421,8.066 7.64523,11.88033 2.29412,4.62739 4.94704,13.15763 7.97248,25.63477 l 4.53469,18.69962 h 6.13105 6.13107 V 321.41454 269.7822 l -7.70378,-0.44597 c -5.75173,-0.33296 -9.07539,-1.11702 -13.11681,-3.09431 -2.97716,-1.45658 -6.82486,-4.25634 -8.55046,-6.22169 -1.72558,-1.96534 -4.06277,-5.57321 -5.19374,-8.01749 -1.97958,-4.27833 -2.05631,-5.86522 -2.05631,-42.53008 0,-35.11926 0.14497,-38.46182 1.86112,-42.91148 1.02362,-2.65404 3.66034,-6.78557 5.85937,-9.18117 2.19904,-2.39561 6.19553,-5.3834 8.88108,-6.63953 4.6739,-2.18618 5.84755,-2.28431 27.43191,-2.29344 l 22.5491,-0.01 6.03712,3.01678 c 4.06386,2.03073 7.15435,4.47996 9.4552,7.49329 1.87994,2.46208 4.08711,6.77791 4.90481,9.59075 1.24112,4.26929 1.43918,11.29994 1.19883,42.55552 l -0.28791,37.44154 -2.59835,4.88281 c -1.42909,2.68555 -4.06581,6.26366 -5.85938,7.95137 -1.79356,1.6877 -5.21736,4.04899 -7.60843,5.24731 -3.02529,1.51615 -6.81192,2.33251 -12.45118,2.68433 l -8.10376,0.50557 V 321.915 c 0,49.94985 0.0744,52.10844 1.79715,52.10844 0.98843,0 4.47506,1.33817 7.74807,2.97371 3.70202,1.84992 7.94276,5.12514 11.22161,8.66669 3.56351,3.849 6.03578,7.70956 7.63279,11.91887 2.23819,5.89927 2.3621,7.35297 2.3621,27.71026 0,18.15859 -0.27165,22.26283 -1.75486,26.51316 -0.96518,2.76584 -3.12529,7.09777 -4.80026,9.62652 -1.67497,2.52874 -5.16904,6.27634 -7.76458,8.328 -2.59556,2.05167 -7.24697,4.72086 -10.33646,5.93155 -4.83695,1.89546 -7.51649,2.21054 -19.28915,2.26819 -13.5429,0.0663 -13.72255,0.0384 -19.04297,-2.96408 -3.01141,-1.69942 -6.6088,-4.77658 -8.18835,-7.00423 -1.54948,-2.18525 -3.35591,-6.09473 -4.01426,-8.68771 l -1.19703,-4.71453 -85.44735,-0.24945 -85.44735,-0.24944 -0.50591,8.10907 c -0.34262,5.49184 -1.16598,9.40293 -2.55105,12.11788 -1.12482,2.20484 -3.6207,5.30752 -5.54639,6.89483 -1.9257,1.58733 -5.17547,3.38764 -7.22172,4.00072 -2.53257,0.75877 -16.87224,1.11467 -44.91132,1.11467 h -41.19086 l -2.39701,-2.39702 c -1.31836,-1.31836 -2.39702,-3.53559 -2.39702,-4.92719 0,-1.39161 1.07866,-3.60884 2.39702,-4.9272 l 2.39701,-2.39702 h 40.95183 c 38.86588,0 41.06925,-0.0951 43.25728,-1.86685 2.17403,-1.76042 2.30545,-2.48905 2.30545,-12.78159 0,-10.29254 -0.13142,-11.02117 -2.30545,-12.78159 -2.22764,-1.80384 -4.98238,-1.86685 -81.61688,-1.86685 H 67.72327 l -2.123354,2.26021 c -1.904737,2.0275 -2.123354,3.32728 -2.123354,12.62443 0,10.03349 0.08211,10.42882 2.573105,12.38823 2.442501,1.92127 3.775323,2.02401 26.259,2.02401 21.687213,0 23.876313,0.15419 25.942523,1.8273 1.63324,1.32252 2.25662,2.84102 2.25662,5.49692 0,2.65589 -0.62338,4.17439 -2.25662,5.49691 -2.0745,1.67983 -4.23796,1.82385 -26.806643,1.78444 z M 451.88302,463.41638 c 8.93216,-0.28007 10.53293,-0.61805 15.13672,-3.19596 3.70317,-2.0736 6.00242,-4.29136 8.19141,-7.90109 1.67375,-2.76008 3.31687,-6.67423 3.65136,-8.69812 0.3345,-2.0239 0.61302,-10.52142 0.61893,-18.88342 0.008,-10.88595 -0.41715,-16.64452 -1.49602,-20.27743 -0.82872,-2.7906 -2.91292,-6.67535 -4.63156,-8.63277 -1.71864,-1.95742 -5.32527,-4.58366 -8.01472,-5.83608 -4.21052,-1.96074 -6.42681,-2.27844 -15.95137,-2.28666 -10.9292,-0.01 -11.09557,0.0246 -13.91601,2.84503 l -2.85457,2.85456 v 31.73848 31.73848 l 2.47473,2.94106 c 1.36112,1.61758 3.44852,3.15842 4.63868,3.42408 1.19016,0.26567 6.65875,0.34209 12.15242,0.16984 z M 312.65271,439.35293 c 65.24374,0.0947 68.9788,0.007 68.60407,-1.60879 -0.21797,-0.93994 -2.99813,-16.79667 -6.17812,-35.23719 -4.19915,-24.35044 -6.2456,-34.04067 -7.47612,-35.40039 -1.61579,-1.78542 -3.49416,-1.87219 -40.52973,-1.87219 H 288.2374 l -1.17015,3.54562 c -0.64359,1.95009 -2.73509,5.27781 -4.6478,7.39493 -1.91269,2.11713 -5.26542,4.79492 -7.45049,5.95064 -3.36835,1.78157 -5.98396,2.15583 -17.18976,2.45957 l -13.2169,0.35825 -3.83351,7.4469 c -2.10844,4.0958 -6.39714,10.84909 -9.53046,15.00733 -3.13332,4.15823 -8.84665,10.4351 -12.6963,13.94859 l -6.99935,6.38817 h 7.66075 c 4.21342,0 9.46955,0.5378 11.6803,1.1951 2.52675,0.75125 5.65162,2.89013 8.41408,5.75918 l 4.39453,4.56409 z m 94.59246,0.10019 h 10.72358 v -24.26861 c 0,-24.07853 0.0193,-24.30496 2.46714,-28.90866 l 2.46714,-4.64004 -4.84212,-20.30401 c -3.0607,-12.83414 -5.92329,-22.4458 -7.78089,-26.12569 -1.61633,-3.20192 -5.11486,-8.19245 -7.77451,-11.09007 -2.65966,-2.89761 -7.28707,-6.74258 -10.28314,-8.54437 -2.99606,-1.8018 -7.98689,-4.28244 -11.09074,-5.51254 -3.10384,-1.23011 -6.63212,-2.5321 -7.84061,-2.89334 l -2.19727,-0.65679 v 22.41444 22.41443 l 2.39759,1.57097 c 1.31868,0.86402 3.33449,2.56252 4.47958,3.77442 1.14509,1.21191 2.895,3.77977 3.88869,5.70637 1.11665,2.16499 4.07181,16.7117 7.73714,38.08594 3.26173,19.02066 6.15417,35.57179 6.42762,36.78029 0.47862,2.11506 0.89841,2.19727 11.2208,2.19726 z m -262.202,-11.72175 38.10959,0.003 7.60839,-4.33583 c 4.18461,-2.3847 10.56966,-6.75854 14.189,-9.71962 3.61933,-2.9611 8.34938,-7.49191 10.51122,-10.06848 2.16183,-2.57656 5.55488,-7.05695 7.54009,-9.95641 1.98522,-2.89947 5.13173,-8.47958 6.99225,-12.40025 1.86052,-3.92067 4.29103,-10.43913 5.40112,-14.48547 1.13464,-4.13582 1.88771,-9.39591 1.71996,-12.01382 l -0.29838,-4.65676 H 144.53125 52.246094 l -0.315042,4.88281 c -0.173274,2.68555 0.420431,7.73926 1.319344,11.23047 0.898913,3.49121 3.748813,10.75735 6.333111,16.14699 2.584299,5.38963 6.720198,12.48849 9.190889,15.77523 2.470691,3.28675 7.132142,8.42005 10.358782,11.40736 3.226639,2.98729 7.945276,6.86223 10.48586,8.61098 2.540584,1.74874 7.475689,4.61893 10.966902,6.3782 l 6.34765,3.19866 38.10958,0.003 z M 31.071668,370.05528 c 7.554158,0.0576 8.081176,-0.0682 7.53254,-1.79673 -0.324449,-1.02225 -0.995611,-4.35137 -1.491472,-7.39805 -0.495859,-3.04668 -0.644535,-6.82455 -0.330391,-8.39527 l 0.571171,-2.85586 h -7.919163 c -7.369916,0 -8.14036,0.19764 -11.108399,2.84959 -2.702045,2.41427 -3.189235,3.51747 -3.189235,7.22168 0,2.99744 0.614101,5.0547 1.953125,6.54303 1.074218,1.19401 2.832031,2.53065 3.90625,2.97031 1.074218,0.43967 5.608226,0.82726 10.075574,0.8613 z m 226.871072,0.0476 c 4.59476,-0.008 9.23901,-0.55254 10.61195,-1.24403 1.34277,-0.6763 3.27904,-2.78359 4.30283,-4.68286 1.23435,-2.2899 1.64322,-4.32258 1.21373,-6.03384 -0.35623,-1.41934 -1.70514,-3.80995 -2.99756,-5.31249 -2.17157,-2.5246 -2.97642,-2.75761 -10.60776,-3.07102 l -8.25791,-0.33913 -0.53217,8.15161 c -0.29269,4.48339 -0.84074,9.14039 -1.2179,10.34889 -0.67378,2.15893 -0.54318,2.19701 7.48479,2.18287 z m 46.76984,-19.5169 h 17.55304 v -19.04297 c 0,-10.47363 -0.20446,-19.04297 -0.45436,-19.04297 -0.2499,0 -2.49491,1.29407 -4.98891,2.87572 -2.494,1.58164 -8.18857,4.1979 -12.65462,5.81391 -4.46603,1.616 -11.99885,3.70865 -16.7396,4.65033 -5.95263,1.18241 -13.15179,1.705 -23.26797,1.68903 -9.85195,-0.0155 -17.48553,-0.57892 -23.31289,-1.72056 -4.76545,-0.9336 -12.15424,-2.97107 -16.41954,-4.5277 -4.26528,-1.55664 -9.92438,-4.16505 -12.57577,-5.79646 l -4.82071,-2.96621 v 11.17196 11.17196 l 31.98242,0.29363 c 28.9762,0.26601 32.3037,0.46453 35.40039,2.11192 1.87989,1.00008 4.88368,3.19734 6.67512,4.88281 1.79143,1.68548 3.89012,4.273 4.66375,5.75005 l 1.4066,2.68555 z m 42.40805,-0.2101 8.8364,-0.27818 0.26149,-23.05529 0.26149,-23.05527 -5.14431,-0.61787 c -2.82936,-0.33984 -7.2317,-0.6217 -9.78297,-0.62637 l -4.63867,-0.008 v 23.27474 c 0,12.80111 0.30829,23.58303 0.68509,23.95983 0.37679,0.37679 4.66146,0.5599 9.52148,0.4069 z m -208.44876,-15.4149 h 19.53125 v -14.16016 c 0,-7.78808 -0.14275,-14.16016 -0.31723,-14.16016 -0.17447,0 -3.53372,1.094 -7.46499,2.43111 -3.93126,1.33712 -8.95208,3.49208 -11.15737,4.78881 -2.2053,1.29674 -5.8771,3.83979 -8.15959,5.65125 -2.28248,1.81145 -5.90797,5.63323 -8.05665,8.49285 -2.14866,2.85961 -3.90666,5.59462 -3.90666,6.07779 0,0.49102 8.61482,0.87851 19.53124,0.87851 z m 43.94532,0 h 9.76562 V 318.8477 302.73441 h -5.23479 c -2.87913,0 -7.27366,0.27947 -9.76563,0.62102 l -4.53083,0.62103 v 15.49225 15.49227 z m 80.10374,-21.6307 c 3.5053,0.0805 10.0971,-0.30895 14.64844,-0.8654 4.55134,-0.55644 11.48281,-1.87939 15.40327,-2.93987 3.92046,-1.06049 9.75621,-3.25482 12.96834,-4.8763 3.21213,-1.62147 7.57973,-4.51967 9.70578,-6.44043 l 3.86554,-3.49228 -4.07246,-4.56265 -4.07246,-4.56264 -7.91138,3.97054 c -4.35126,2.18379 -10.88262,4.94592 -14.51413,6.13807 -3.63151,1.19214 -10.64801,2.8692 -15.59223,3.72679 -5.82965,1.0112 -11.17273,1.33834 -15.20066,0.93073 -3.41615,-0.34572 -10.22767,-1.93546 -15.13671,-3.53278 -4.90906,-1.59732 -12.53877,-4.80898 -16.95493,-7.13704 l -8.02937,-4.23282 -4.02261,4.77059 c -3.4868,4.13512 -3.84815,4.98324 -2.71281,6.36716 0.72038,0.87812 3.86201,3.25095 6.9814,5.27294 3.11937,2.022 9.05199,4.7798 13.18359,6.12844 4.13159,1.34864 10.14871,2.91171 13.37137,3.47349 3.22265,0.56177 7.17773,1.17796 8.78906,1.36927 1.61133,0.19133 5.79766,0.41372 9.30296,0.49419 z m 2.90407,-27.69742 c 3.49121,-0.2502 9.64355,-1.36991 13.67187,-2.48824 4.02833,-1.11833 10.89207,-3.70439 15.25277,-5.74683 4.3607,-2.04243 10.73277,-5.60836 14.16015,-7.92429 3.42739,-2.31594 8.3497,-5.99695 10.93847,-8.18002 2.58876,-2.18307 7.33321,-7.2066 10.54322,-11.1634 3.21001,-3.9568 7.31755,-10.13539 9.12788,-13.7302 1.81031,-3.59481 4.04033,-9.11196 4.95558,-12.26034 0.94563,-3.25282 1.71859,-9.50298 1.79028,-14.47624 l 0.12619,-8.75193 -3.73705,-1.3094 c -2.05538,-0.72016 -6.75478,-3.31557 -10.44312,-5.76757 -3.74613,-2.49043 -8.24428,-6.55365 -10.19103,-9.20566 -1.91672,-2.61109 -4.34577,-6.69346 -5.39787,-9.0719 -1.0521,-2.37846 -2.21037,-6.85534 -2.57392,-9.94864 -0.36356,-3.09329 -1.14527,-5.78424 -1.73714,-5.97989 -0.59187,-0.19565 -8.08673,-0.98816 -16.65524,-1.76114 -13.99665,-1.26267 -15.75738,-1.62556 -17.33399,-3.57259 -0.96517,-1.19194 -1.75486,-3.15785 -1.75486,-4.36869 0,-1.21083 0.95984,-3.42177 2.133,-4.91318 l 2.13298,-2.71166 10.80647,0.61934 c 5.94354,0.34065 16.07989,1.30909 22.5252,2.15211 6.44532,0.84303 16.11328,2.38316 21.48438,3.42251 5.37109,1.03936 10.09521,1.89107 10.49805,1.8927 0.40283,0.002 0.73242,-10.60543 0.73242,-23.57123 v -23.57419 l 3.58744,-3.03714 c 1.97309,-1.670432 4.89574,-4.355501 6.49476,-5.966829 1.59903,-1.611328 3.71038,-4.6875 4.69189,-6.835937 0.98151,-2.148438 1.78993,-5.444336 1.79648,-7.324219 0.007,-1.879883 -1.02861,-5.615234 -2.30037,-8.300781 -1.27175,-2.685547 -3.79431,-6.287242 -5.60569,-8.003769 -1.81138,-1.716525 -5.93014,-4.348623 -9.15279,-5.849105 -5.63294,-2.62272 -6.53869,-2.73912 -23.4375,-3.012041 -9.66797,-0.156141 -18.59184,-0.504986 -19.83082,-0.77521 -1.63784,-0.357214 -3.00978,-2.178692 -5.02639,-6.673331 -1.52553,-3.400108 -4.36869,-7.777029 -6.31816,-9.726492 -1.94946,-1.949462 -5.26837,-4.423945 -7.37537,-5.49885 -2.10698,-1.074905 -6.85668,-2.473239 -10.55486,-3.107408 -5.08715,-0.872349 -8.35692,-0.882449 -13.43197,-0.04149 -3.6894,0.611352 -9.36504,2.421986 -12.61255,4.02363 -3.24752,1.601645 -7.80674,4.743532 -10.13162,6.981973 -2.32488,2.23844 -5.5494,6.218981 -7.16561,8.845646 -1.67083,2.715457 -3.84957,4.971547 -5.05029,5.229601 -1.16146,0.249616 -9.58244,0.619601 -18.7133,0.822189 -12.67121,0.281139 -17.69841,0.772284 -21.23457,2.07457 -2.54816,0.938425 -6.85471,3.703721 -9.57011,6.145103 -2.71541,2.441381 -5.85642,6.240883 -6.98002,8.443338 -1.2238,2.398838 -2.07155,5.984793 -2.11432,8.94345 -0.0534,3.693362 0.5939,6.074222 2.56653,9.440266 1.45086,2.475702 4.79571,6.08524 7.43302,8.021196 2.63729,1.935957 5.06027,4.21097 5.38438,5.05561 0.32412,0.84464 0.58931,11.86183 0.58931,24.48264 v 22.94694 l 2.68554,-0.5516 c 1.47706,-0.30339 7.73926,-1.43901 13.91602,-2.52361 6.17676,-1.0846 17.38281,-2.6244 24.90234,-3.42178 7.51954,-0.79738 16.85791,-1.45449 20.75196,-1.46024 5.78687,-0.009 7.43682,0.34629 9.0332,1.94267 1.07422,1.07422 1.95313,3.2228 1.95313,4.77463 0,1.55182 -0.77354,3.77677 -1.71897,4.94433 -1.0908,1.34708 -3.14279,2.26917 -5.61523,2.52332 -2.14295,0.22027 -10.29727,0.90142 -18.12072,1.51367 l -14.22443,1.11318 -1.179,6.8754 c -0.66094,3.8543 -2.51007,9.37274 -4.20823,12.5588 -1.66606,3.12587 -5.38442,7.91085 -8.26301,10.6333 -3.05163,2.8861 -8.34416,6.42701 -12.69383,8.49267 l -7.46005,3.54275 0.46257,9.84405 c 0.3334,7.09539 1.15079,11.80082 2.92738,16.85202 1.35565,3.85437 4.58636,10.19919 7.17935,14.0996 2.59297,3.9004 7.86234,10.20898 11.70968,14.01906 3.84735,3.81009 10.24061,9.1531 14.20725,11.8734 3.96665,2.72029 9.62907,6.24591 12.58317,7.8347 2.9541,1.5888 8.00782,3.95228 11.23047,5.25218 3.22266,1.2999 8.27637,2.9138 11.23047,3.58646 2.9541,0.67263 8.22754,1.01826 11.71875,0.76805 z m -46.21611,-85.43751 c -0.75463,0 -2.52995,-0.9108 -3.94516,-2.024 -1.89787,-1.49286 -2.57311,-2.91459 -2.57311,-5.41773 0,-2.39783 0.74292,-4.08223 2.53167,-5.73999 1.39243,-1.29046 4.74254,-3.0806 7.4447,-3.97812 3.52493,-1.17079 7.01731,-1.50699 12.36091,-1.18995 4.33995,0.25749 8.79397,1.14363 10.67364,2.12355 1.77417,0.92492 4.0813,2.53721 5.12696,3.58286 1.14427,1.14428 1.90119,3.23375 1.90119,5.24828 0,2.45277 -0.68752,3.8879 -2.57311,5.3711 -1.4152,1.1132 -3.19053,2.024 -3.94515,2.024 -0.75463,0 -3.09485,-0.8789 -5.20049,-1.95312 -2.17872,-1.1115 -5.75564,-1.95313 -8.30078,-1.95313 -2.54515,0 -6.12206,0.84163 -8.30079,1.95313 -2.10564,1.07422 -4.44585,1.95312 -5.20048,1.95312 z m 60.39073,-0.0619 c -0.54507,-0.0341 -1.95107,-0.44871 -3.12445,-0.92148 -1.17338,-0.47276 -2.60161,-1.73438 -3.17383,-2.80358 -0.57222,-1.0692 -1.0404,-3.026 -1.0404,-4.34845 0,-1.51062 1.23121,-3.48546 3.31208,-5.31249 1.90609,-1.67356 5.4759,-3.42713 8.40935,-4.13086 2.8563,-0.68521 8.00251,-1.01495 11.70545,-0.75001 4.45477,0.31874 7.99772,1.23934 10.87228,2.82503 2.34526,1.29372 4.83986,3.55351 5.54357,5.02174 1.05284,2.19667 1.05381,3.13891 0.006,5.31958 -0.7007,1.45754 -2.4502,3.30938 -3.88779,4.11519 -2.40112,1.34589 -2.96605,1.28919 -6.9429,-0.69695 -2.60316,-1.29989 -6.13802,-2.16206 -8.86474,-2.16206 -2.6695,0 -6.03438,0.8035 -8.17935,1.95313 -2.00426,1.07422 -4.09007,1.92527 -4.63513,1.89122 z m -64.95587,-75.70419 c -1.34277,0.26897 -3.40145,0.0928 -4.57483,-0.39156 -1.17338,-0.48433 -2.60161,-1.75541 -3.17383,-2.82461 -0.63471,-1.18597 -1.0404,-9.41196 -1.0404,-21.09557 0,-19.031672 0.015,-19.166566 2.39702,-21.548578 1.31836,-1.31836 3.53559,-2.397017 4.9272,-2.397017 1.3916,0 3.60883,1.078657 4.92719,2.397017 2.38466,2.384656 2.39702,2.497406 2.39702,21.864468 0,17.11999 -0.20607,19.711 -1.70898,21.48712 -0.93994,1.11082 -2.80762,2.23974 -4.15039,2.50873 z M 313.07403,125 c -0.70796,0 -2.44509,-0.9108 -3.8603,-2.024 l -2.57311,-2.02401 V 100.58594 80.219883 l 2.57311,-2.024004 c 1.41521,-1.113202 3.35681,-2.024004 4.31466,-2.024004 0.95786,0 2.45293,0.27298 3.32239,0.606622 0.86945,0.333643 2.22376,1.849905 3.00956,3.369473 1.0987,2.12466 1.42872,6.823805 1.42872,20.34352 0,10.80459 -0.4179,18.49787 -1.08425,19.96035 -0.59633,1.3088 -2.1551,2.86757 -3.46391,3.46391 C 315.43208,124.51209 313.78198,125 313.07403,125 Z m -49.47811,-15.625 c -1.45055,0 -3.67481,-0.84008 -4.94281,-1.86685 -2.28761,-1.85239 -2.30545,-2.02222 -2.30545,-21.945522 0,-19.369645 0.0757,-20.154363 2.143,-22.221699 1.26722,-1.267209 3.35734,-2.143012 5.11436,-2.143012 1.63424,0 3.85592,0.800531 4.93706,1.778959 1.84994,1.674174 1.96573,2.975763 1.96573,22.097374 0,19.64436 -0.0709,20.38447 -2.13726,22.30958 -1.1755,1.09514 -3.32409,1.99117 -4.77463,1.99117 z m 193.12263,145.25048 c 18.19139,-0.21319 19.91864,-0.38649 22.46094,-2.25349 1.51476,-1.1124 3.52246,-3.52939 4.46157,-5.37109 1.52996,-3.00043 1.70762,-6.93064 1.70899,-37.80375 9.8e-4,-26.89385 -0.29081,-35.15483 -1.33055,-37.64325 -0.73263,-1.75344 -2.74388,-4.37604 -4.46945,-5.82801 l -3.1374,-2.63995 -20.18875,0.004 c -18.28836,0.003 -20.4825,0.18277 -23.30952,1.90651 -1.71641,1.04656 -3.91368,3.113 -4.88281,4.59207 -1.61824,2.46975 -1.76204,5.64153 -1.76204,38.86498 0,34.4365 0.094,36.33271 1.95313,39.44041 1.07421,1.79556 3.49121,4.09676 5.37109,5.11377 3.07838,1.66539 5.3759,1.82616 23.1248,1.61815 z M 184.77971,184.49417 c 1.2276,-0.63724 4.00253,-2.58841 6.16648,-4.33594 2.16397,-1.74753 5.07437,-5.31493 6.46756,-7.92755 1.39319,-2.61261 2.81709,-5.95871 3.16421,-7.43576 0.51062,-2.17281 0.30129,-2.66769 -1.09647,-2.59205 -0.95017,0.0515 -5.02348,0.82047 -9.0518,1.70899 l -7.32422,1.61548 -0.27889,10.06273 -0.27888,10.06271 z m 161.69474,-7.99338 c 0.15568,-4.88059 0.0845,-9.39131 -0.15825,-10.02381 -0.24271,-0.63251 -3.22653,-1.67084 -6.6307,-2.30741 -3.40417,-0.63656 -7.44265,-1.40526 -8.97439,-1.70822 -2.71589,-0.53717 -2.76744,-0.46964 -2.07808,2.72242 0.38879,1.80029 1.49493,4.81135 2.45808,6.69123 0.96317,1.87988 3.43639,5.01545 5.49607,6.96792 2.05967,1.95247 5.06321,4.22083 6.67454,5.04081 l 2.92969,1.49087 z M 75.636392,293.94531 c -1.365641,0 -3.561641,-1.07866 -4.88,-2.39702 -1.31836,-1.31836 -2.397017,-3.47404 -2.397017,-4.79041 0,-1.31637 1.538086,-4.23437 3.417969,-6.48444 2.253844,-2.69768 3.417969,-5.09868 3.417969,-7.04956 0,-1.62719 -1.574403,-6.44548 -3.498672,-10.70731 -2.566062,-5.68325 -3.5112,-9.14283 -3.545666,-12.97853 -0.03114,-3.46613 0.674983,-6.72116 2.093909,-9.65227 1.177496,-2.43238 3.87119,-6.20546 5.985986,-8.38461 2.677119,-2.75859 4.669319,-3.9621 6.558567,-3.9621 1.492414,0 3.639955,0.64893 4.772311,1.44206 1.132357,0.79314 2.339407,2.55996 2.682333,3.92629 0.342926,1.36633 0.108967,3.46399 -0.519909,4.66146 -0.628876,1.19747 -2.397324,3.62074 -3.929885,5.38504 -1.883252,2.168 -2.786475,4.27891 -2.786475,6.51221 0,1.81743 1.538086,6.51386 3.417969,10.43652 2.717914,5.67133 3.417969,8.31593 3.417969,12.91207 0,4.01398 -0.66152,7.10452 -2.165131,10.11521 -1.190821,2.38439 -3.828807,5.83828 -5.862187,7.67532 -2.16643,1.95724 -4.725044,3.34007 -6.18004,3.34007 z m 43.889038,-40.40935 c -2.25424,0.91983 -3.49609,0.89878 -5.87031,-0.0995 -1.65619,-0.69637 -3.29675,-2.01012 -3.64569,-2.91945 -0.34893,-0.90931 -0.63016,-2.60613 -0.62495,-3.7707 0.005,-1.16456 1.54329,-4.04692 3.41797,-6.40522 1.87467,-2.3583 3.40849,-5.37916 3.40849,-6.71302 0,-1.33386 -1.50476,-5.77642 -3.3439,-9.87234 -1.83914,-4.09592 -3.63891,-9.05801 -3.99948,-11.02689 -0.41302,-2.25525 -0.0751,-5.57673 0.91343,-8.97697 1.10327,-3.79512 2.96151,-6.91164 6.26012,-10.49902 3.76378,-4.09328 5.30349,-5.1018 7.78896,-5.1018 1.70382,0 3.98243,0.80053 5.06357,1.77896 1.28983,1.16728 1.96573,3.01152 1.96573,5.36362 0,2.59939 -0.69654,4.2354 -2.53418,5.95217 -1.39381,1.30212 -3.17427,3.59795 -3.95658,5.10185 -0.7823,1.50389 -1.15452,3.70116 -0.82714,4.88281 0.32739,1.18165 2.15798,5.57073 4.068,9.75351 3.09194,6.77107 3.42871,8.29676 3.07111,13.91293 -0.34812,5.46706 -0.92783,7.05203 -4.34887,11.89018 -2.19527,3.10462 -5.21619,6.10007 -6.80628,6.74889 z"
       id="path2351" />
  </g>
</svg>
