<?xml version="1.0" encoding="UTF-8" standalone="no"?>
<!-- Created with Inkscape (http://www.inkscape.org/) -->

<svg
   version="1.1"
   id="svg603"
   width="500"
   height="500.0004"
   viewBox="0 0 500 500.0004"
   sodipodi:docname="meditationIcon.svg"
   inkscape:version="1.1.2 (0a00cf5339, 2022-02-04)"
   xmlns:inkscape="http://www.inkscape.org/namespaces/inkscape"
   xmlns:sodipodi="http://sodipodi.sourceforge.net/DTD/sodipodi-0.dtd"
   xmlns="http://www.w3.org/2000/svg"
   xmlns:svg="http://www.w3.org/2000/svg">
  <defs
     id="defs607" />
  <sodipodi:namedview
     id="namedview605"
     pagecolor="#ffffff"
     bordercolor="#666666"
     borderopacity="1.0"
     inkscape:pageshadow="2"
     inkscape:pageopacity="0.0"
     inkscape:pagecheckerboard="0"
     showgrid="false"
     inkscape:zoom="0.73207547"
     inkscape:cx="294.36856"
     inkscape:cy="307.34536"
     inkscape:window-width="1920"
     inkscape:window-height="1011"
     inkscape:window-x="0"
     inkscape:window-y="0"
     inkscape:window-maximized="1"
     inkscape:current-layer="g609" />
  <g
     inkscape:groupmode="layer"
     inkscape:label="Image"
     id="g609"
     transform="translate(-5.6863421,-3.2569679)">
    <path
       style="fill:#000000;stroke-width:0.569968"
       d="m 245.37716,4.3421344 c -10.76502,0.7790618 -21.16197,4.65908 -30.85684,9.4305936 -14.36509,6.886779 -26.57969,18.85578 -33.11091,33.778751 -5.96526,13.499428 -6.55082,29.73029 -0.62719,43.453442 4.82783,12.001209 13.65189,21.771029 23.44738,29.713989 2.49537,2.10602 4.90898,5.56644 3.49488,9.00802 -1.49086,3.63121 -5.54732,4.804 -9.01243,5.22531 -19.80428,4.45015 -39.60555,9.07472 -58.96487,15.34657 -5.86373,2.02322 -11.76036,4.23797 -16.62497,8.32398 -8.28245,6.53675 -14.23879,15.7005 -18.09093,25.56773 -15.78482,35.83892 -31.033502,71.90516 -46.267847,108.00142 -1.20016,5.54877 -0.715394,11.29746 -0.923419,16.97561 0.233492,5.93806 2.455633,11.97487 6.968043,15.84769 6.643492,6.7176 15.231573,11.9381 24.585333,12.6245 13.12059,1.18772 25.82604,-3.39916 38.24772,-7.19077 3.26149,-0.92323 6.53904,-1.98036 9.88647,-2.43753 4.38356,0.59643 5.24874,7.8728 1.24491,9.67502 -10.28256,7.15714 -21.59382,12.50989 -32.4116,18.71713 -19.20753,10.42669 -38.997593,19.82641 -57.339859,31.85797 -7.491621,5.25625 -14.575278,12.38063 -16.951108,21.67297 -4.024806,14.02849 0.907828,30.48189 12.500648,39.13364 9.877066,7.92833 22.055764,12.1473 34.214879,14.53268 11.88807,1.85202 23.94485,0.89163 35.91385,1.17716 63.42521,-0.0198 126.84992,-0.421 190.27526,-0.29348 35.47079,-0.0192 70.94489,0.12099 106.41349,-0.14517 16.05049,-1.06035 32.20322,-3.98164 46.95284,-10.79922 7.94976,-4.15038 15.54835,-9.94263 19.91241,-18.12816 3.56588,-8.14457 2.64901,-17.58615 0.14727,-25.91668 -3.21185,-9.59677 -10.49174,-17.16215 -18.72939,-22.41709 -9.13311,-6.08842 -18.96804,-10.91454 -28.56543,-16.15289 -20.74207,-10.98044 -41.93396,-21.27829 -61.36506,-34.65163 -2.73135,-2.49862 -1.25629,-8.13257 2.57228,-8.31903 3.64677,-0.23072 7.03518,1.54515 10.49633,2.45558 13.44002,4.33809 27.49787,8.5968 41.69162,7.08152 4.97741,-0.55823 9.67081,-2.65403 13.73152,-5.62457 5.95984,-3.95122 11.7993,-8.98588 14.28986,-16.05563 2.02442,-7.07068 0.84631,-14.5116 0.59404,-21.73017 -1.09791,-5.70059 -4.3402,-10.55692 -6.27394,-15.95849 -15.02447,-34.69218 -29.22323,-69.778 -45.21223,-104.0157 -4.89425,-9.2709 -12.68498,-17.23121 -22.42915,-20.72042 -13.87432,-5.97053 -28.67636,-9.0077 -43.17965,-12.8396 -10.21326,-2.50374 -20.55974,-4.65503 -30.6943,-7.54759 -4.15265,-2.39855 -3.30986,-9.44074 0.82661,-11.37731 9.33471,-8.04224 18.90228,-16.73793 23.7638,-28.532103 6.68362,-15.300068 6.22337,-33.793249 -1.48635,-48.682413 C 320.52505,28.819162 306.45288,17.197475 290.74128,10.751834 281.08629,6.6583499 270.76713,4.5748829 260.31009,4.4802159 255.36417,4.3022558 250.34895,4.3144105 245.37716,4.3421344 Z m 11.33616,10.5618836 c 22.65959,0.01851 45.3148,12.34015 57.0172,32.541997 4.35802,7.000115 5.43928,15.60321 4.81393,23.755171 0.0655,7.54496 -0.3373,15.579987 -4.46234,22.093447 -8.28008,15.100177 -22.92204,26.045617 -39.15779,30.302707 -21.28319,5.88291 -45.37711,1.77273 -62.84377,-12.36677 -8.08217,-6.67291 -14.86344,-15.445924 -18.06229,-25.691724 -2.09201,-7.96717 -1.23463,-16.300898 -1.18537,-24.442508 0.7418,-8.577757 5.60354,-16.043047 10.8125,-22.487876 12.81221,-15.36904 32.52875,-23.900442 52.08237,-23.68758 0.32852,-0.0054 0.65703,-0.01233 0.98556,-0.01687 z m 0.11733,124.617042 c 33.97392,0.20021 67.34169,8.24187 99.77276,18.06674 9.17006,2.80575 18.88458,6.00694 25.515,13.52465 5.8786,6.57041 8.26262,15.37396 11.93615,23.26722 13.34229,31.161 25.85519,62.6961 37.85748,94.42919 1.77602,5.00832 3.77042,10.0268 4.55551,15.3184 0.56782,10.27474 -8.21303,20.18331 -18.31424,19.93999 -8.53974,0.32069 -16.66251,-2.87716 -24.85297,-4.8766 -40.05472,-11.19534 -79.5949,-24.36444 -119.84138,-34.77911 -6.06302,-1.65477 -12.21,-2.65419 -18.49866,-2.43764 -9.35477,0.10647 -18.53431,2.39406 -27.46112,5.14961 -40.69873,11.29842 -80.8844,24.49067 -121.67167,35.45299 -6.884963,1.6404 -14.57147,2.83026 -21.1507,-0.56892 -8.02011,-4.36557 -12.321131,-15.29127 -8.60743,-24.01045 4.97078,-14.7668 10.94984,-29.14196 16.52911,-43.66894 10.29371,-26.06296 20.79728,-52.05914 32.45093,-77.50981 3.75018,-7.19957 10.19522,-12.84158 17.75081,-15.35856 11.3283,-4.66592 23.28773,-7.3438 35.02611,-10.64745 25.82573,-6.67762 52.30885,-11.35919 79.00431,-11.29131 z m -1.64079,31.4969 c -8.68512,0.005 -16.11201,6.65539 -19.33855,14.66632 -7.07145,13.7422 -9.81529,29.36477 -16.03715,43.51389 -2.94452,4.83181 -8.71419,6.12 -13.56587,7.9499 -15.56936,5.72 -31.49601,10.44264 -47.06638,16.08848 -3.72552,1.46189 -7.58598,2.71012 -11.13713,4.54865 -2.10201,1.83424 -2.00098,5.86381 0.65127,7.11169 3.17504,2.04776 6.87533,0.27099 10.09593,-0.64325 19.24061,-5.3317 38.10178,-12.00231 57.02774,-18.40983 5.10899,-1.85545 10.33457,-3.61399 15.09762,-6.26364 3.18639,-3.84014 3.56797,-9.07391 5.45701,-13.56817 4.30947,-13.33923 7.39446,-27.2532 13.84469,-39.73952 3.19272,-4.12219 10.61691,-2.83041 12.13122,2.28263 4.3573,8.88472 6.78872,18.57593 9.84703,27.97536 2.37631,7.77365 4.66911,15.63752 8.31182,22.90518 2.62654,2.06737 6.06112,2.42532 8.95277,3.96449 19.24079,7.31274 38.82332,13.71475 58.40083,20.02797 4.04359,1.16589 8.21892,2.56204 12.41015,2.29315 2.54046,-0.53895 5.47236,-3.02832 4.61275,-5.95705 -1.45015,-2.40117 -4.2905,-2.95491 -6.57483,-4.18382 -10.56917,-4.24392 -21.4064,-7.73679 -32.21292,-11.27353 -10.79959,-3.50851 -21.66823,-6.85693 -32.27405,-10.94373 -3.60189,-3.09189 -3.78649,-8.26322 -5.58216,-12.41306 -4.57768,-13.96401 -8.16419,-28.60243 -16.0913,-41.02972 -3.89666,-5.53245 -10.30487,-9.21426 -16.96049,-8.90239 z m 1.9341,121.70904 c 11.90312,1.15655 23.06871,5.87366 34.60519,8.77479 15.61932,4.69123 31.42348,8.91966 46.6169,14.94667 4.26104,2.92124 4.87779,8.55578 6.87506,12.99384 5.0604,10.24575 14.35521,17.29171 23.46178,23.53132 16.69966,11.16706 34.57558,20.28445 52.00916,30.15795 10.45331,5.83388 20.97944,11.68775 30.50837,19.05231 6.81718,6.37037 10.88511,16.54155 8.49358,25.95033 -2.08146,5.72605 -7.66233,8.8078 -12.61034,11.50498 -12.44688,6.22562 -26.48178,7.25175 -40.03324,8.682 -27.08597,2.38412 -54.29634,2.03751 -81.45325,2.41189 -44.9783,0.18605 -89.96659,0.0292 -134.93004,-1.21506 -8.84999,-0.7842 -17.86379,-5.94303 -21.37569,-14.6715 -2.7378,-6.15385 -2.52039,-14.33662 2.44782,-19.24946 6.11963,-6.33982 14.70826,-8.94776 22.77045,-11.52787 16.91521,-4.95094 34.45717,-6.86008 51.76442,-9.77144 27.58218,-4.26579 55.31179,-7.58667 82.76697,-12.67979 2.73149,-0.64762 5.12294,-3.5279 4.15153,-6.50026 -0.88745,-2.87105 -3.82595,-4.23022 -6.34873,-5.20137 -2.32471,-0.76801 -4.61704,0.47024 -6.94866,0.55641 -40.40928,5.9227 -81.00122,10.82346 -121.13129,18.51087 -13.24838,2.9127 -26.72154,6.72708 -37.97337,14.79819 -6.05196,4.5996 -10.88533,11.57704 -11.18316,19.52926 -0.72125,7.02527 0.79088,14.09153 3.31882,20.5916 0.71243,2.49191 -0.45807,5.82935 -3.26005,6.10573 -3.62412,0.78638 -7.35094,0.0897 -11.01593,0.41894 -17.14707,0.10797 -34.37465,0.21605 -51.41087,-2.04925 -10.5156,-1.60554 -21.323853,-4.67843 -29.604773,-11.87093 -4.375668,-4.04407 -6.846664,-10.06953 -6.676902,-16.11953 -0.195624,-6.9981 2.520688,-14.3199 8.168702,-18.47705 7.129828,-5.89446 15.278563,-10.26816 23.141923,-15.00466 24.26332,-14.0618 49.65917,-26.36461 72.07261,-43.55995 5.61997,-4.37131 11.09823,-9.77892 13.14968,-16.92319 1.19997,-3.87797 2.21977,-8.67044 6.21472,-10.48858 3.70858,-1.66868 7.69076,-2.56204 11.49389,-3.97245 18.10207,-5.90174 36.35957,-11.29475 54.70172,-16.34256 5.64436,-1.46543 11.38732,-2.70283 17.223,-2.89218 z"
       id="path783"
       clip-path="none" />
  </g>
</svg>
