<?xml version="1.0" encoding="UTF-8" standalone="no"?>
<!-- Created with Inkscape (http://www.inkscape.org/) -->

<svg
   version="1.1"
   id="svg854"
   width="500"
   height="500"
   viewBox="0 0 500.00001 500.00001"
   sodipodi:docname="passionsIcon.svg"
   inkscape:version="1.1.2 (0a00cf5339, 2022-02-04)"
   xmlns:inkscape="http://www.inkscape.org/namespaces/inkscape"
   xmlns:sodipodi="http://sodipodi.sourceforge.net/DTD/sodipodi-0.dtd"
   xmlns="http://www.w3.org/2000/svg"
   xmlns:svg="http://www.w3.org/2000/svg">
  <defs
     id="defs858" />
  <sodipodi:namedview
     id="namedview856"
     pagecolor="#ffffff"
     bordercolor="#666666"
     borderopacity="1.0"
     inkscape:pageshadow="2"
     inkscape:pageopacity="0.0"
     inkscape:pagecheckerboard="0"
     showgrid="false"
     width="500px"
     showguides="false"
     inkscape:zoom="0.99060459"
     inkscape:cx="179.1835"
     inkscape:cy="259.43752"
     inkscape:window-width="1920"
     inkscape:window-height="1011"
     inkscape:window-x="0"
     inkscape:window-y="0"
     inkscape:window-maximized="1"
     inkscape:current-layer="g860" />
  <g
     inkscape:groupmode="layer"
     inkscape:label="Image"
     id="g860">
    <path
       style="fill:#000000;stroke-width:1"
       d="m 224.18505,499.94947 c -2.36739,0.30049 -10.39187,-0.77037 -17.8322,-2.37967 -7.44032,-1.60929 -19.06199,-4.68633 -25.82591,-6.83786 -6.76393,-2.15151 -18.50355,-6.8344 -26.08806,-10.40641 -7.58449,-3.572 -18.65276,-9.64871 -24.59613,-13.50379 -5.94337,-3.85507 -14.68001,-10.17428 -19.41477,-14.04267 -4.73475,-3.86838 -12.800126,-11.36349 -17.923076,-16.65579 -5.122923,-5.2923 -12.381864,-13.75276 -16.130951,-18.80101 -3.749087,-5.04825 -9.11557,-13.14953 -11.925527,-18.00285 -2.809925,-4.85331 -7.074783,-13.38945 -9.477424,-18.96919 -2.402657,-5.57975 -5.728896,-14.80968 -7.391662,-20.51095 -1.662749,-5.70128 -3.811752,-15.21777 -4.775539,-21.14776 -0.963803,-5.92998 -2.122103,-16.13471 -2.574034,-22.67714 -0.47308,-6.84895 -0.196289,-18.34076 0.65245,-27.08838 0.810775,-8.35616 2.798035,-20.38661 4.416139,-26.73434 1.618103,-6.34773 5.385931,-17.52827 8.372924,-24.84563 2.986993,-7.31737 9.091937,-19.37145 13.566526,-26.78682 4.474588,-7.4154 12.931687,-20.23823 18.793559,-28.49523 5.861871,-8.25698 15.217145,-21.62721 20.789475,-29.71161 5.57233,-8.08441 13.20088,-20.47559 16.95231,-27.53592 3.75142,-7.06037 8.76076,-18.61956 11.13185,-25.687114 2.37112,-7.067554 5.16649,-17.741033 6.21198,-23.71883 1.04548,-5.977782 1.90087,-12.476088 1.90087,-14.44064 0,-1.964567 0.86688,-5.240114 1.92639,-7.279025 1.09551,-2.108176 3.79316,-4.483272 6.25449,-5.506675 3.44,-1.430322 5.19286,-1.515585 8.54238,-0.415532 2.8645,0.94076 7.66512,5.21005 14.98849,13.329517 5.92579,6.569983 13.93066,16.046432 17.78858,21.058752 3.85792,5.012335 9.53091,13.497543 12.60665,18.856027 3.07572,5.35848 7.22575,14.80226 9.22226,20.98619 2.16183,6.69592 4.09733,16.18536 4.78532,23.46175 0.63539,6.72 0.85248,14.46463 0.4824,17.21028 -0.43714,3.24336 -0.19479,4.99205 0.69185,4.99205 0.75058,0 4.46375,-3.71735 8.2515,-8.26078 3.78775,-4.54343 9.12721,-11.98952 11.86549,-16.5469 2.73826,-4.55736 6.56387,-12.8627 8.50133,-18.45628 2.01313,-5.81204 4.03576,-15.10556 4.72005,-21.68745 0.78788,-7.578364 0.77492,-15.614109 -0.038,-23.496285 -0.67941,-6.588468 -2.57242,-17.224423 -4.20666,-23.635459 -1.63423,-6.41105 -5.78103,-18.626119 -9.21508,-27.144596 -4.51088,-11.189719 -6.03661,-16.426496 -5.4975,-18.8691766 0.41044,-1.859556 2.40825,-4.772699 4.4396,-6.4736462 C 241.60732,1.0160744 244.30164,0 247.32813,0 c 3.43337,0 8.17274,2.2012694 19.88999,9.2382044 8.46044,5.0810326 21.85968,13.7548476 29.77608,19.2751546 7.91639,5.520306 20.35007,14.718046 27.63036,20.439393 7.28031,5.721362 22.4133,19.489315 33.62885,30.595479 11.21556,11.106163 24.63142,25.451789 29.81304,31.879189 5.18164,6.42737 14.20072,18.81854 20.04241,27.53592 5.84172,8.71738 15.2413,25.21198 20.88795,36.65469 5.64663,11.44271 12.27044,26.58746 14.71955,33.65502 2.44913,7.06754 6.06648,19.40094 8.03857,27.40755 1.97211,8.00658 4.39592,20.12239 5.38626,26.92401 0.99035,6.80161 2.16669,19.25055 2.61409,27.66431 0.48925,9.20075 0.23079,21.15083 -0.64851,29.98356 -0.80405,8.07721 -2.52079,19.82977 -3.81494,26.11682 -1.29415,6.28704 -4.04521,16.45738 -6.1135,22.60075 -2.06828,6.14336 -5.92222,15.76023 -8.5643,21.3708 -2.64207,5.61061 -8.35088,15.54149 -12.68625,22.06866 -4.33538,6.52716 -11.1603,15.59636 -15.16649,20.15375 -4.00619,4.55741 -11.41117,11.91524 -16.45551,16.35076 -5.04433,4.43552 -12.48949,10.3443 -16.54481,13.13065 -4.05535,2.78634 -11.5123,7.441 -16.57103,10.34364 -5.05877,2.90268 -13.08571,6.97639 -17.83772,9.05272 -4.752,2.07633 -12.23718,5.02524 -16.63374,6.55309 -4.39655,1.52785 -12.42105,3.90063 -17.83219,5.27281 -5.41115,1.37219 -14.52384,3.30302 -20.25044,4.29075 -8.70557,1.50153 -11.04746,1.53162 -14.2895,0.18361 -2.13262,-0.88672 -4.77995,-2.89439 -5.88294,-4.46146 -1.10302,-1.56707 -2.00546,-4.40619 -2.00546,-6.30914 0,-1.90296 0.80404,-5.00717 1.78671,-6.89823 0.98269,-1.89106 3.3347,-4.05082 5.22667,-4.79946 1.892,-0.74865 9.25081,-2.4984 16.35295,-3.88835 7.10213,-1.38995 18.85563,-4.47806 26.1189,-6.86243 7.26328,-2.38438 18.5494,-7.0672 25.08026,-10.40626 6.53087,-3.33906 16.04613,-8.94054 21.14504,-12.44776 5.0989,-3.5072 13.57763,-10.40825 18.84162,-15.33565 5.26399,-4.92742 12.7592,-13.17457 16.65601,-18.32702 3.89683,-5.15247 9.46066,-13.51212 12.36408,-18.57702 2.9034,-5.0649 7.42344,-14.71608 10.04453,-21.4471 2.62107,-6.73099 5.90025,-17.19464 7.28705,-23.25255 1.3868,-6.0579 3.10614,-16.36217 3.82074,-22.89837 0.71459,-6.53621 1.29473,-16.7245 1.28919,-22.64065 -0.006,-5.91616 -0.56269,-15.71311 -1.23807,-21.77102 -0.67539,-6.05791 -2.33912,-16.88944 -3.69719,-24.07007 -1.35806,-7.18064 -4.73656,-20.12252 -7.50782,-28.75976 -2.77122,-8.63722 -7.73211,-21.69854 -11.02415,-29.02515 -3.29205,-7.32662 -9.6699,-19.63498 -14.173,-27.35193 -4.50308,-7.71694 -12.8859,-20.44687 -18.62843,-28.28872 -5.74255,-7.84185 -12.40944,-16.4608 -14.81532,-19.15321 -2.4059,-2.69239 -8.56199,-9.49227 -13.68023,-15.11081 -5.11822,-5.61854 -15.67012,-15.815105 -23.44865,-22.659019 -7.77852,-6.843914 -18.01665,-15.503109 -22.7514,-19.242647 -4.73477,-3.739554 -13.20145,-9.991656 -18.81488,-13.893542 -5.61342,-3.901902 -10.43561,-6.866084 -10.716,-6.587075 -0.28038,0.279024 0.61065,5.713288 1.98005,12.076179 1.40358,6.521734 2.80014,18.903001 3.20112,28.379839 0.46126,10.901261 0.17357,20.150985 -0.81836,26.312115 -0.84134,5.22563 -2.91214,13.9069 -4.60182,19.2917 -1.68966,5.3848 -5.36102,14.1963 -8.15856,19.5811 -2.79753,5.38482 -8.21251,13.92094 -12.03327,18.9692 -3.82076,5.04825 -11.85239,13.85975 -17.84805,19.58111 -5.99568,5.72134 -15.1415,13.29373 -20.32405,16.82751 -6.77461,4.61933 -10.58558,6.42504 -13.56,6.42504 -2.27543,0 -5.42556,-0.89804 -7.0003,-1.99567 -1.57474,-1.09761 -3.61743,-3.79211 -4.53932,-5.98775 -1.42176,-3.38619 -1.41043,-5.26576 0.0747,-12.38421 0.96298,-4.61566 2.38692,-13.62394 3.16429,-20.01839 0.77739,-6.39445 1.05044,-15.48131 0.60679,-20.19301 -0.44365,-4.71171 -1.67417,-12.08701 -2.73451,-16.38959 -1.06032,-4.30257 -3.04782,-10.34235 -4.41664,-13.42176 -1.36883,-3.07939 -4.17468,-8.37061 -6.23522,-11.75825 -2.06053,-3.38764 -6.21373,-9.32598 -9.2293,-13.196304 -3.01558,-3.87033 -5.81629,-7.032796 -6.22382,-7.027688 -0.40751,0.0045 -2.00082,4.509878 -3.5407,10.010608 -1.53985,5.500744 -5.28248,15.822534 -8.31697,22.937334 -3.03447,7.11481 -8.96894,18.56809 -13.1877,25.45176 -4.2188,6.88367 -12.37453,19.16008 -18.12386,27.28093 -5.74936,8.12083 -15.62409,22.31459 -21.94386,31.54171 -6.31978,9.22711 -14.71863,23.38519 -18.664111,31.46239 -3.945467,8.07721 -8.580307,19.91765 -10.299627,26.31211 -1.719318,6.39445 -3.764652,16.85811 -4.545201,23.25256 -0.798958,6.54542 -1.120637,18.04423 -0.736068,26.31211 0.375689,8.07719 1.576799,19.09158 2.669137,24.47638 1.092339,5.3848 3.421553,14.19629 5.176035,19.5811 1.754498,5.3848 5.672584,14.73862 8.706887,20.78625 3.034289,6.04765 8.309322,15.13451 11.722317,20.19301 3.412966,5.05854 12.058401,14.99609 19.212101,22.08346 7.15369,7.08741 17.98742,16.24244 24.07495,20.34457 6.08754,4.10212 16.87086,10.3515 23.96296,13.88748 7.09208,3.536 19.26715,8.49282 27.05572,11.01515 7.78857,2.52236 19.14176,5.51427 25.2293,6.64867 6.08755,1.13441 12.61624,2.65791 14.50822,3.38554 1.89198,0.72765 4.24399,2.87022 5.22667,4.76128 0.98269,1.89106 1.78671,5.10912 1.78671,7.15122 0,2.32956 -1.26007,5.10389 -3.38196,7.44619 -2.1836,2.41041 -4.90718,3.92686 -7.68629,4.2796 z m 51.49694,-44.69339 c -1.60578,-0.003 -4.62394,-1.03881 -6.70703,-2.30289 -2.08308,-1.26408 -4.50638,-4.02558 -5.38509,-6.13666 -1.32927,-3.19352 -1.30516,-4.60559 0.14346,-8.40553 1.51765,-3.98098 3.29013,-5.39211 13.80961,-10.99443 6.63766,-3.53498 16.57863,-9.56128 22.09105,-13.39179 5.51241,-3.83049 16.70254,-13.60475 24.86695,-21.72058 9.94505,-9.88584 17.53155,-18.79772 22.98604,-27.00175 4.47791,-6.73513 9.83322,-16.20147 11.90068,-21.03628 2.06748,-4.83483 4.58243,-12.26615 5.58878,-16.51405 1.00636,-4.2479 1.83792,-11.3251 1.84792,-15.72711 0.0105,-4.40201 -0.84072,-11.28599 -1.89047,-15.29774 -1.04977,-4.01175 -3.36309,-9.76427 -5.1407,-12.78336 -1.77763,-3.01912 -5.71099,-8.12657 -8.74083,-11.34993 -3.37937,-3.59526 -8.93399,-7.54526 -14.37001,-10.21881 -7.15043,-3.51671 -10.73354,-4.4825 -18.55845,-5.00219 -6.61993,-0.43968 -11.94124,-0.0551 -16.76887,1.21212 -3.88946,1.0209 -9.70029,3.38823 -12.91297,5.26078 -3.21268,1.87253 -8.64162,6.19284 -12.06431,9.60068 -3.42269,3.40784 -8.64797,10.26106 -11.61174,15.22935 -3.88052,6.50513 -6.48659,9.48978 -9.3117,10.66444 -2.76399,1.14924 -5.09117,1.29778 -7.87689,0.50274 -2.17463,-0.62063 -4.73693,-1.77515 -5.69399,-2.56558 -0.95708,-0.79042 -3.50579,-4.73373 -5.66381,-8.7629 -2.15803,-4.02916 -7.00123,-10.43623 -10.76268,-14.23793 -3.76144,-3.80169 -9.32893,-8.36428 -12.37222,-10.13909 -3.04329,-1.7748 -8.79969,-4.17186 -12.792,-5.32681 -5.16678,-1.49471 -10.02488,-1.94056 -16.85676,-1.54698 -7.88053,0.45398 -11.21662,1.34898 -18.64338,5.0016 -6.00211,2.95198 -11.20682,6.723 -15.46976,11.20849 -3.53343,3.71788 -8.19612,10.48182 -10.36157,15.03099 -3.78658,7.95487 -3.93564,8.85631 -3.89715,23.56896 0.0354,13.53099 0.42497,16.34423 3.37326,24.359 1.83331,4.98368 5.19149,12.41839 7.46267,16.52156 2.27117,4.10316 6.82516,11.31532 10.11998,16.02701 3.29483,4.71171 11.5403,14.29462 18.32326,21.29536 6.78298,7.00072 17.61146,16.6601 24.06333,21.46528 6.45188,4.80517 16.82736,11.35619 23.05664,14.55783 8.02471,4.12442 11.86429,6.85711 13.17289,9.37536 1.01583,1.95482 1.84695,4.71035 1.84695,6.12342 0,1.41305 -0.83584,4.17766 -1.85742,6.14359 -1.02159,1.96591 -2.92216,4.14143 -4.22348,4.83449 -1.30131,0.69305 -4.35514,1.2601 -6.78628,1.2601 -2.48137,0 -7.6725,-1.63375 -11.83478,-3.72464 -4.07802,-2.04854 -11.39495,-6.25264 -16.25987,-9.34242 -4.86492,-3.08979 -13.57596,-9.35924 -19.35785,-13.93213 -5.78192,-4.5729 -14.76609,-12.74479 -19.96484,-18.15976 -5.19875,-5.41499 -13.51147,-15.27312 -18.47269,-21.90696 -4.96123,-6.63384 -11.81726,-17.5257 -15.23566,-24.20415 -3.41839,-6.67847 -7.36356,-15.72231 -8.76707,-20.09747 -1.4035,-4.37515 -3.21275,-11.43028 -4.02056,-15.67809 -0.86659,-4.55681 -1.1995,-12.58571 -0.81202,-19.58327 0.45407,-8.20025 1.67415,-14.88051 3.9538,-21.6484 1.8134,-5.38361 4.98996,-12.54196 7.05901,-15.90747 2.06905,-3.3655 5.97246,-8.75679 8.67421,-11.98064 2.70175,-3.22385 8.37282,-8.3189 12.60235,-11.32235 4.22954,-3.00344 10.73524,-6.80095 14.45713,-8.43893 3.72186,-1.63799 10.9597,-3.83995 16.08405,-4.89325 5.12436,-1.05332 12.24575,-1.90556 15.82534,-1.89388 3.57958,0.012 10.38223,0.82786 15.11697,1.81369 4.73476,0.98585 13.24519,4.06686 18.91209,6.84672 7.38833,3.6243 12.97979,7.59882 19.76309,14.04798 l 9.45967,8.99372 7.29262,-7.34356 c 4.01095,-4.03895 10.71944,-9.56847 14.90773,-12.28779 4.18831,-2.71933 11.65598,-6.30473 16.59488,-7.96755 4.93889,-1.6628 13.14184,-3.34268 18.22876,-3.73304 5.32076,-0.40831 13.1338,-0.0577 18.39583,0.82556 5.03079,0.84441 12.78851,3.01006 17.23938,4.81253 4.45088,1.80249 10.61461,5.00404 13.69719,7.11458 3.08257,2.11055 8.24278,6.48748 11.46716,9.72651 3.22434,3.23904 7.51395,8.26415 9.53243,11.16693 2.01849,2.9028 5.24491,8.73432 7.16982,12.95896 1.92491,4.22463 4.44018,12.29926 5.58946,17.94363 1.52655,7.49716 1.88715,13.23883 1.33819,21.308 -0.4133,6.07501 -1.88911,15.17588 -3.27955,20.22414 -1.39046,5.04825 -5.53859,15.23654 -9.21807,22.64065 -3.67948,7.4041 -10.84389,18.9638 -15.92092,25.68821 -5.07703,6.72442 -14.08631,17.11158 -20.02063,23.08255 -5.93432,5.97099 -14.94027,14.19238 -20.01323,18.26978 -5.07294,4.07739 -12.99502,9.84859 -17.60462,12.82487 -4.60958,2.9763 -12.70379,7.56449 -17.98709,10.196 -5.28331,2.6315 -10.91984,4.7825 -12.52564,4.77998 z"
       id="path939" />
  </g>
</svg>
