<?xml version="1.0" encoding="UTF-8" standalone="no"?>
<!-- Created with Inkscape (http://www.inkscape.org/) -->

<svg
   version="1.1"
   id="svg2705"
   width="500"
   height="500"
   viewBox="0 0 500 499.99999"
   sodipodi:docname="psychologyIcon.svg"
   inkscape:version="1.1.2 (0a00cf5339, 2022-02-04)"
   xmlns:inkscape="http://www.inkscape.org/namespaces/inkscape"
   xmlns:sodipodi="http://sodipodi.sourceforge.net/DTD/sodipodi-0.dtd"
   xmlns="http://www.w3.org/2000/svg"
   xmlns:svg="http://www.w3.org/2000/svg">
  <defs
     id="defs2709" />
  <sodipodi:namedview
     id="namedview2707"
     pagecolor="#ffffff"
     bordercolor="#666666"
     borderopacity="1.0"
     inkscape:pageshadow="2"
     inkscape:pageopacity="0.0"
     inkscape:pagecheckerboard="0"
     showgrid="false"
     inkscape:zoom="0.796"
     inkscape:cx="407.66332"
     inkscape:cy="179.64824"
     inkscape:window-width="1920"
     inkscape:window-height="1011"
     inkscape:window-x="0"
     inkscape:window-y="0"
     inkscape:window-maximized="1"
     inkscape:current-layer="g2711" />
  <g
     inkscape:groupmode="layer"
     inkscape:label="Image"
     id="g2711"
     transform="translate(-74.813586,-24.501809)">
    <path
       style="fill:#000000;stroke:#000000;stroke-width:4.97521;stroke-miterlimit:4;stroke-dasharray:none;stroke-opacity:1"
       d="m 293.76186,522.0142 c -77.75703,0 -93.51804,-0.49739 -94.51272,-2.98266 -0.65657,-1.64044 1.90026,-11.98665 5.68184,-22.99157 5.78146,-16.82481 7.03855,-24.29196 7.89944,-46.92358 0.84526,-22.22051 0.23919,-29.88958 -3.47497,-43.97181 -2.47438,-9.38141 -7.45433,-23.25565 -11.0666,-30.83161 -3.61225,-7.57596 -12.69642,-21.65943 -20.18703,-31.2966 -7.4906,-9.63717 -18.14795,-25.03618 -23.68297,-34.22003 -5.53504,-9.18382 -13.56539,-26.80347 -17.84524,-39.15476 -4.28618,-12.36958 -8.92887,-31.536 -10.33578,-42.66922 -1.94354,-15.37974 -1.91968,-25.04575 0.0998,-40.42821 1.45969,-11.11874 5.13528,-27.5278 8.16797,-36.46457 3.0327,-8.93678 8.9746,-22.19837 13.20422,-29.47018 4.22962,-7.27183 13.14763,-19.78353 19.81784,-27.803775 6.67018,-8.02025 16.44647,-18.006834 21.72511,-22.192408 5.27862,-4.185575 14.44125,-10.778159 20.36138,-14.650188 5.92013,-3.872029 17.9659,-10.199172 26.76837,-14.060314 8.80245,-3.861144 23.03117,-8.796196 31.61936,-10.966782 11.48204,-2.901983 23.58536,-3.946519 45.72929,-3.946519 21.83549,0 34.40719,1.065073 45.72931,3.874193 8.58818,2.130808 25.65301,8.529152 37.92184,14.218545 12.32511,5.715494 28.9619,15.639672 37.17904,22.178083 8.17963,6.50855 19.97416,17.879415 26.21004,25.268587 6.23588,7.389168 14.83425,19.814008 19.10744,27.610738 4.27322,7.79673 9.39794,20.80392 11.38826,28.90486 2.49281,10.14612 3.23386,19.71995 2.38162,30.76961 -0.68043,8.82234 -3.2824,22.29648 -5.78207,29.94252 -2.4997,7.64603 -4.55608,16.30798 -4.56971,19.24875 -0.0155,3.24792 5.25956,12.06361 13.43643,22.4569 7.40368,9.4105 17.04592,24.00065 21.42719,32.42258 7.42364,14.27009 7.78072,15.8508 5.24468,23.21831 -2.13634,6.2064 -4.70515,8.71446 -11.95073,11.6682 -5.07616,2.06935 -10.9203,4.31901 -12.98696,4.99926 -3.23201,1.06377 -3.39152,2.16648 -1.14056,7.88414 2.17664,5.5289 1.97656,7.71721 -1.18895,13.00549 -3.03014,5.06205 -3.30151,7.41953 -1.33138,11.56529 1.96999,4.14546 1.72113,6.30966 -1.22054,10.61414 -2.03232,2.97386 -7.69567,7.36381 -12.58525,9.75548 l -8.89018,4.34847 -0.005,14.3931 c -0.003,9.47512 -1.33616,16.89893 -3.90372,21.72672 -2.14513,4.03348 -6.72788,9.32687 -10.18385,11.76312 -4.91208,3.46271 -10.75479,4.66293 -26.76837,5.4989 l -20.48478,1.06938 -4.8736,9.62439 c -2.68049,5.29339 -6.90121,16.84266 -9.37936,25.665 -2.47815,8.82235 -4.94086,22.93608 -5.47274,31.36383 -0.53187,8.42775 -1.64042,16.36786 -2.46345,17.64469 -1.0366,1.60965 -30.11036,2.32151 -94.81446,2.32151 z m 1.80338,-10.69376 h 82.21547 l 1.40576,-14.43657 c 0.77317,-7.94012 2.97544,-20.2112 4.89391,-27.26907 1.91848,-7.05789 6.7097,-20.05079 10.64718,-28.87314 l 7.15903,-16.04064 18.93945,-0.53635 c 10.41674,-0.295 21.1703,-1.02848 23.89682,-1.62997 2.72654,-0.60146 6.99273,-3.18829 9.48047,-5.74848 3.76072,-3.87024 4.52888,-7.56115 4.55728,-21.8963 0.0179,-9.48277 0.77164,-18.31517 1.67303,-19.62756 0.90136,-1.31236 5.83698,-4.42652 10.96797,-6.92038 5.13102,-2.49382 9.94087,-5.48324 10.68852,-6.64313 0.74769,-1.15991 -0.23581,-4.44317 -2.18552,-7.29615 -3.35245,-4.90559 -3.23636,-5.5065 2.13798,-11.06649 3.12561,-3.23356 5.68293,-6.03291 5.68293,-6.22076 0,-0.18779 -2.43957,-3.51193 -5.42127,-7.38682 -2.98172,-3.8749 -4.95333,-8.21453 -4.38135,-9.64365 0.57197,-1.42912 8.09192,-4.776 16.71101,-7.43753 8.61906,-2.66152 16.21988,-6.21052 16.89073,-7.88667 0.67083,-1.67613 0.64556,-5.21085 -0.0562,-7.85492 -0.70173,-2.64407 -6.3691,-12.5069 -12.59411,-21.91741 -6.22503,-9.4105 -14.79344,-21.27518 -19.04096,-26.36596 -6.34815,-7.6085 -7.71759,-11.03457 -7.69394,-19.24876 0.0155,-5.49604 2.02345,-16.09379 4.4614,-23.55055 3.10854,-9.50789 4.41087,-19.41037 4.35977,-33.15064 -0.0483,-13.04731 -1.39461,-23.25968 -4.02939,-30.56867 -2.17613,-6.03668 -7.41336,-16.49572 -11.63832,-23.24232 -4.22496,-6.74658 -14.1155,-18.958998 -21.97894,-27.138693 C 435.4505,83.543163 423.02518,72.949585 415.70213,68.18157 408.37907,63.413557 395.23841,56.376799 386.50067,52.544332 377.76298,48.711865 363.58724,43.860773 354.99905,41.76413 344.0929,39.101601 331.31204,37.986819 312.61579,38.067349 c -22.16458,0.09548 -30.14316,1.07899 -46.39088,5.718591 -10.79239,3.081811 -25.35436,8.37745 -32.35992,11.768089 -7.00561,3.390638 -18.84369,10.565753 -26.30688,15.944694 -7.46319,5.378943 -17.54571,13.915809 -22.40556,18.970817 -4.85987,5.055006 -13.13841,15.2652 -18.39678,22.68932 -5.25835,7.42412 -12.46075,20.24128 -16.00528,28.48258 -3.54455,8.24132 -7.97458,22.08589 -9.84453,30.76573 -1.86995,8.67985 -3.3999,24.42113 -3.3999,34.98063 0,10.55952 1.4557,25.75849 3.23488,33.7755 1.77919,8.01701 5.15357,19.8698 7.4986,26.33952 2.34504,6.46973 8.31696,19.48934 13.27096,28.93247 4.95398,9.44315 15.2165,25.19858 22.80556,35.01206 7.58908,9.81349 17.16817,23.74215 21.28689,30.95257 4.11873,7.21042 10.22255,21.77177 13.5641,32.35859 5.34145,16.92304 6.06888,22.73735 6.02063,48.1219 -0.0474,24.95637 -0.85412,31.41618 -5.94639,47.61953 -3.24034,10.31051 -5.89153,19.21306 -5.89153,19.78344 0,0.57039 36.99697,1.03706 82.21548,1.03706 z m -0.95478,-190.85848 c -46.70946,0.30787 -85.60726,-0.0931 -86.43954,-0.89113 -0.83229,-0.79799 -1.51326,-37.40574 -1.51326,-81.35055 v -79.89963 l 5.01907,-1.76527 c 2.76049,-0.9709 23.58962,-1.18768 46.28697,-0.48176 l 41.2679,1.28352 0.67463,12.47828 c 0.37178,6.87727 -0.41835,13.74089 -1.7603,15.2912 -1.58969,1.83651 -5.41198,2.4301 -11.01145,1.71 -6.75,-0.86804 -9.58184,-0.13909 -13.2969,3.42286 -2.59624,2.48919 -4.72039,6.9319 -4.72039,9.87269 0,2.94077 2.10673,7.36678 4.68167,9.83556 3.874,3.71432 6.32783,4.25198 14.22423,3.11664 7.63005,-1.09703 9.82133,-0.67564 10.93324,2.1025 0.76484,1.911 1.39061,6.28313 1.39061,9.71586 0,4.08632 1.14066,6.24132 3.30357,6.24132 1.81694,0 3.90579,-2.30063 4.64184,-5.1125 0.73612,-2.81188 4.11188,-7.66022 7.50175,-10.77405 3.38987,-3.11384 9.70114,-6.21197 14.02509,-6.88471 5.21762,-0.81182 10.70194,0.0691 16.30695,2.61919 5.89826,2.68353 9.51896,6.29528 12.00515,11.97548 3.04075,6.94716 4.57715,8.13626 10.53647,8.15485 3.83715,0.0128 8.12544,1.34894 9.52957,2.97106 1.77159,2.04663 2.36723,15.62964 1.94616,44.37908 l -0.60679,41.42978 z m -41.17817,-10.18412 h 33.53047 l 0.0341,-8.02031 c 0.0179,-4.41117 0.89721,-9.32623 1.95204,-10.92237 1.3137,-1.98783 4.07263,-2.44832 8.7578,-1.46168 3.8664,0.81419 8.89097,0.38793 11.55798,-0.98058 2.59493,-1.33152 5.52736,-4.51851 6.51649,-7.08224 0.98916,-2.56372 0.83224,-7.31878 -0.34873,-10.56685 -1.20491,-3.31391 -4.25193,-6.35043 -6.94334,-6.91933 -2.6379,-0.55762 -8.30952,-1.27365 -12.60361,-1.5912 -7.47968,-0.5531 -7.83624,-0.9589 -8.49337,-9.66702 -0.46702,-6.18893 -1.71283,-9.0897 -3.90374,-9.0897 -1.92222,0 -3.21777,2.09673 -3.21777,5.20764 0,2.86423 -0.97878,7.67597 -2.17508,10.69278 -1.19633,3.01682 -5.46253,7.46403 -9.48046,9.88267 -5.59214,3.36623 -9.89003,4.18328 -18.32639,3.48389 -8.89167,-0.73713 -12.23182,-2.21292 -17.28791,-7.63842 -4.37996,-4.7 -6.26687,-9.0157 -6.26687,-14.3335 0,-6.09411 -0.77709,-7.46575 -3.90372,-6.89061 -3.45877,0.6362 -3.9748,4.11617 -4.52727,30.53103 -0.34296,16.39712 -0.12352,31.06234 0.48766,32.58937 0.84276,2.10569 9.21175,2.77643 34.64169,2.77643 z m 80.93279,-0.47897 34.01815,-0.5904 0.61505,-32.49029 0.61508,-32.49029 -9.51123,-0.66035 c -9.07363,-0.62999 -9.57238,-1.02417 -10.8407,-8.5686 -0.73125,-4.34951 -2.62282,-9.40231 -4.20352,-11.22844 -1.66408,-1.92244 -6.40039,-3.32021 -11.25049,-3.32021 -4.70709,0 -9.58738,1.39884 -11.14059,3.19326 -1.52025,1.75628 -2.91642,5.84664 -3.10262,9.08968 -0.18626,3.24306 -1.13212,7.0995 -2.1021,8.56989 -0.96998,1.4704 -5.21768,2.67344 -9.43938,2.67344 -5.06239,0 -7.67579,1.01125 -7.67579,2.9701 0,1.67402 3.25138,3.55493 7.45069,4.31026 4.0979,0.73707 9.55199,3.49089 12.12025,6.11958 2.56825,2.6287 5.7817,7.59336 7.14098,11.03255 1.35928,3.43923 1.7964,9.19973 0.97142,12.80116 -0.82503,3.6014 -2.88818,8.57928 -4.58484,11.06194 -1.69663,2.48264 -5.62747,5.6247 -8.7352,6.98228 -3.10773,1.35763 -7.61082,2.46841 -10.00684,2.46841 -2.88798,0 -4.35646,1.46064 -4.35646,4.33322 0,4.18814 1.13874,4.31343 34.01814,3.74281 z m -80.80907,-46.57356 c 2.15238,0 6.12497,-1.71695 8.82793,-3.81548 2.73634,-2.12442 4.87443,-6.15305 4.82408,-9.08968 -0.0498,-2.90082 -0.39335,-7.6803 -0.76362,-10.62109 -0.62563,-4.96875 0.0761,-5.39299 9.92255,-5.99875 8.77621,-0.53992 10.59581,-1.36634 10.59581,-4.81219 0,-3.22655 -1.55205,-4.16032 -6.91515,-4.16032 -4.89003,0 -9.13628,-2.12955 -14.49954,-7.27175 -6.41024,-6.14602 -7.58437,-8.78329 -7.58437,-17.03559 0,-7.80402 1.34642,-11.23409 6.70779,-17.08867 4.20879,-4.59599 9.6106,-7.84698 14.49954,-8.72635 4.66109,-0.83838 7.79173,-2.65155 7.79173,-4.51269 0,-2.58886 -5.81481,-3.11122 -34.6339,-3.11122 h -34.63391 l 0.61577,32.61595 0.61578,32.61595 10.78724,0.65938 10.78726,0.65935 -1.47559,10.28654 c -1.35524,9.44767 -0.98249,10.65845 4.57079,14.84659 3.3255,2.50801 7.80744,4.56002 9.95981,4.56002 z m 126.5882,-55.63123 c -0.33413,-0.0131 -3.901,-2.51224 -7.92641,-5.55376 -5.0118,-3.78683 -8.17605,-4.8836 -10.03814,-3.47931 -1.49556,1.1279 -5.47126,2.68095 -8.83486,3.45122 -3.52866,0.80809 -9.26779,0.13775 -13.56732,-1.58466 -4.09845,-1.64185 -9.55845,-5.55311 -12.13338,-8.69167 -2.57496,-3.13857 -5.33088,-8.54028 -6.12429,-12.00381 -0.91394,-3.98955 -0.14455,-8.79221 2.09965,-13.10524 3.30627,-6.35439 3.26561,-7.10365 -0.61051,-11.24694 -2.28398,-2.44146 -4.90536,-5.70746 -5.82524,-7.25778 -1.12806,-1.90114 8.35227,-12.51887 29.12203,-32.61595 16.937,-16.388459 31.85808,-29.797198 33.15798,-29.797198 1.29989,0 16.15244,13.24598 33.00568,29.435518 16.8532,16.18953 30.64217,30.42571 30.64217,31.63596 0,1.21025 -4.30419,6.25058 -9.56487,11.20075 -5.26072,4.95017 -10.59289,9.00032 -11.84935,9.00032 -1.25642,0 -4.51089,-2.88732 -7.23212,-6.41627 -3.56576,-4.62416 -6.79812,-6.41624 -11.57298,-6.41624 -3.65106,0 -8.62813,1.92027 -11.08671,4.2775 -2.45377,2.35263 -4.4614,6.77044 -4.4614,9.81736 0,3.47842 2.49019,7.6349 6.6921,11.17002 3.68065,3.09659 6.69209,6.73693 6.69209,8.08964 0,1.3527 -4.49473,6.4318 -9.98831,11.28685 -5.49356,4.85508 -10.26167,8.81673 -10.59581,8.80369 z m 1.95382,-17.34939 c 2.40784,-1.91594 2.13563,-3.34269 -1.47801,-7.74735 -2.85471,-3.4796 -4.42936,-8.65951 -4.42936,-14.57077 0,-6.733 1.5266,-10.91134 5.74114,-15.71357 3.15763,-3.59795 9.61445,-7.65436 14.34851,-9.01426 7.49754,-2.15373 9.83993,-1.88783 18.16689,2.0622 6.40066,3.03627 10.29984,3.8249 11.79993,2.38665 1.50009,-1.43827 -5.65882,-9.72172 -21.66477,-25.06793 l -23.90519,-22.919849 -24.50906,23.425969 -24.50907,23.42596 5.53558,5.53973 c 3.04457,3.04685 5.53559,6.54095 5.53559,7.76467 0,1.2237 -2.00763,3.96691 -4.4614,6.09601 -2.46988,2.14306 -4.46139,6.58729 -4.46139,9.95586 0,3.34662 2.00761,8.00965 4.46139,10.36227 2.45377,2.35263 6.83556,4.2775 9.73729,4.2775 2.90177,0 7.82821,-1.92487 10.94769,-4.2775 3.11943,-2.35262 6.5932,-4.2775 7.71943,-4.2775 1.12621,0 4.39348,2.39409 7.26058,5.32018 3.95451,4.03588 5.92535,4.75325 8.16423,2.97173 z"
       id="path2795" />
  </g>
</svg>
