<?xml version="1.0" encoding="UTF-8" standalone="no"?>
<!-- Created with Inkscape (http://www.inkscape.org/) -->

<svg
   width="55.212212mm"
   height="98.004944mm"
   viewBox="0 0 55.212212 98.004944"
   version="1.1"
   id="svg5"
   inkscape:version="1.1.2 (0a00cf5339, 2022-02-04)"
   sodipodi:docname="smallFlame.svg"
   xmlns:inkscape="http://www.inkscape.org/namespaces/inkscape"
   xmlns:sodipodi="http://sodipodi.sourceforge.net/DTD/sodipodi-0.dtd"
   xmlns="http://www.w3.org/2000/svg"
   xmlns:svg="http://www.w3.org/2000/svg">
  <sodipodi:namedview
     id="namedview7"
     pagecolor="#ffffff"
     bordercolor="#666666"
     borderopacity="1.0"
     inkscape:pageshadow="2"
     inkscape:pageopacity="0"
     inkscape:pagecheckerboard="true"
     inkscape:document-units="mm"
     showgrid="false"
     width="250mm"
     inkscape:zoom="1.3826038"
     inkscape:cx="71.965664"
     inkscape:cy="239.40336"
     inkscape:window-width="1920"
     inkscape:window-height="1011"
     inkscape:window-x="0"
     inkscape:window-y="0"
     inkscape:window-maximized="1"
     inkscape:current-layer="layer1" />
  <defs
     id="defs2">
    <inkscape:path-effect
       effect="bspline"
       id="path-effect1403"
       is_visible="true"
       lpeversion="1"
       weight="33.333333"
       steps="2"
       helper_size="0"
       apply_no_weight="true"
       apply_with_weight="true"
       only_selected="false" />
    <inkscape:path-effect
       effect="bspline"
       id="path-effect1366"
       is_visible="true"
       lpeversion="1"
       weight="33.333333"
       steps="2"
       helper_size="0"
       apply_no_weight="true"
       apply_with_weight="true"
       only_selected="false" />
    <inkscape:path-effect
       effect="spiro"
       id="path-effect1170"
       is_visible="true"
       lpeversion="1" />
  </defs>
  <g
     inkscape:label="Layer 1"
     inkscape:groupmode="layer"
     id="layer1"
     transform="translate(-81.336205,-90.362125)"
     style="display:inline;opacity:1">
    <path
       style="display:inline;fill:#000000;fill-opacity:1;stroke:#000000;stroke-width:1;stroke-linecap:round;stroke-linejoin:round;stroke-miterlimit:4;stroke-dasharray:none"
       id="path3256"
       d="m 112.18265,95.174884 c 0.14159,0.656317 0.19929,1.324763 0.26198,1.992053 0.11756,1.331685 0.20267,2.666148 0.2462,4.002273 0.0602,1.64197 -0.0825,3.27342 -0.37193,4.88792 -0.41099,2.09541 -1.11152,4.10787 -1.93524,6.07203 -1.00374,2.2738 -2.30901,4.39211 -3.72239,6.43002 -1.63355,2.25342 -3.38286,4.41919 -5.13766,6.57838 -1.569126,1.93514 -3.185643,3.83106 -4.757252,5.76407 -1.502061,1.8544 -2.93219,3.76456 -4.322339,5.70372 -1.469888,2.01992 -2.70451,4.19192 -3.883563,6.38979 -1.255178,2.35045 -2.259557,4.81739 -3.204231,7.30494 -0.86248,2.29962 -1.608349,4.64005 -2.264346,7.00619 -0.61287,2.27441 -0.932614,4.60795 -1.135335,6.95002 -0.194157,2.03601 -0.137068,4.079 0.05555,6.11136 0.165463,1.88799 0.688054,3.70568 1.379892,5.46116 0.65265,1.71309 1.709626,3.17624 2.904315,4.54593 1.269807,1.51485 2.895413,2.61222 4.582081,3.60602 1.651672,0.94401 3.405103,1.68529 5.189074,2.3367 1.972435,0.7079 4.046164,1.04938 6.117954,1.30653 2.01204,0.25265 4.03786,0.30109 6.05975,0.17896 2.25754,-0.18403 4.45325,-0.7448 6.61676,-1.38801 2.0761,-0.63465 4.05137,-1.54015 5.97341,-2.53954 2.02815,-1.07354 3.86193,-2.45505 5.58438,-3.96102 1.81785,-1.6575 3.2889,-3.63698 4.64238,-5.6786 1.31209,-1.95987 2.34675,-4.06347 3.16146,-6.27156 0.82823,-2.35197 1.24509,-4.81042 1.54196,-7.2772 0.30909,-2.4079 0.34097,-4.82915 0.21032,-7.24924 -0.15262,-2.36395 -0.50068,-4.70677 -0.95133,-7.03033 -0.41666,-2.17405 -1.11727,-4.27785 -1.84658,-6.36313 -0.66643,-1.88812 -1.51715,-3.70027 -2.41372,-5.48772 -0.81854,-1.63623 -1.79425,-3.18294 -2.85433,-4.67139 -0.96908,-1.31686 -2.02971,-2.56155 -3.11798,-3.78034 -0.9186,-1.007 -1.83893,-2.01222 -2.72368,-3.04926 -0.75758,-0.88397 -1.41502,-1.84627 -2.064,-2.81086 -0.51045,-0.75011 -0.8604,-1.58925 -1.17361,-2.43612 -0.26152,-0.76191 -0.41919,-1.55052 -0.51931,-2.34812 -0.0924,-0.76844 -0.11728,-1.5426 -0.11765,-2.31586 0.002,-0.69175 0.0632,-1.38004 0.14215,-2.06651 0.56202,-4.91774 -6.39272,-5.71255 -6.95473,-0.79481 v 0 c -0.10846,0.95423 -0.18647,1.9118 -0.18741,2.873 0.003,1.07771 0.0436,2.15644 0.17869,3.22666 0.1808,1.31792 0.44692,2.62321 0.90157,3.87716 0.51168,1.35843 1.10324,2.69115 1.92447,3.89514 0.79883,1.18486 1.61439,2.36172 2.54721,3.44671 0.91967,1.07559 1.87079,2.123 2.82631,3.16675 0.92029,1.02932 1.81913,2.07863 2.64344,3.18738 0.85478,1.18985 1.63471,2.43121 2.29324,3.74167 0.76346,1.51853 1.4933,3.05558 2.06253,4.65955 0.6192,1.76667 1.22623,3.54638 1.58247,5.38823 0.39339,2.01032 0.69561,4.03753 0.83317,6.08302 0.1175,2.01382 0.0848,4.0278 -0.17227,6.03183 -0.22634,1.93172 -0.53443,3.85995 -1.1676,5.70641 -0.60976,1.70191 -1.42426,3.30529 -2.42701,4.81296 -1.00459,1.53071 -2.08934,3.02494 -3.42899,4.28348 -1.28684,1.14776 -2.67496,2.18441 -4.19472,3.00666 -1.52349,0.79912 -3.08997,1.52448 -4.73575,2.03725 -1.66122,0.49785 -3.34358,0.94896 -5.07632,1.11096 -1.58293,0.11854 -3.17229,0.0404 -4.74828,-0.14231 -1.54799,-0.18606 -3.103164,-0.42203 -4.580391,-0.93847 -1.389549,-0.5002 -2.753966,-1.0751 -4.043487,-1.79929 -1.048258,-0.60632 -2.078011,-1.23643 -2.857727,-2.18443 -0.682035,-0.76709 -1.30641,-1.54649 -1.663565,-2.52628 -0.464778,-1.1313 -0.80186,-2.31116 -0.911101,-3.53406 -0.16006,-1.6098 -0.203248,-3.22867 -0.04833,-4.84193 0.160374,-1.91317 0.414229,-3.81992 0.907452,-5.67936 0.59513,-2.15834 1.27876,-4.29132 2.062438,-6.38905 0.835958,-2.20609 1.718577,-4.39648 2.829406,-6.48169 1.033801,-1.93178 2.111431,-3.84411 3.403293,-5.61838 1.307105,-1.82456 2.652242,-3.6215 4.064702,-5.36631 1.57098,-1.93367 3.18951,-3.82812 4.75748,-5.76434 1.86927,-2.30032 3.73182,-4.60857 5.46475,-7.01455 1.68386,-2.44577 3.24086,-4.98509 4.42442,-7.71613 1.01472,-2.44797 1.87872,-4.95615 2.37061,-7.56725 0.35435,-2.08954 0.55582,-4.19746 0.47113,-6.31995 -0.0508,-1.477798 -0.14068,-2.954038 -0.27339,-4.426867 -0.0808,-0.84839 -0.16299,-1.697771 -0.33464,-2.533592 -0.84921,-4.876356 -7.74542,-3.675383 -6.89621,1.200973 z" />
  </g>
</svg>
