<?xml version="1.0" encoding="UTF-8" standalone="no"?>
<!-- Created with Inkscape (http://www.inkscape.org/) -->

<svg
   version="1.1"
   id="svg1161"
   width="500"
   height="500"
   viewBox="0 0 500 500"
   sodipodi:docname="workoutIcon.svg"
   inkscape:version="1.1.2 (0a00cf5339, 2022-02-04)"
   xmlns:inkscape="http://www.inkscape.org/namespaces/inkscape"
   xmlns:sodipodi="http://sodipodi.sourceforge.net/DTD/sodipodi-0.dtd"
   xmlns="http://www.w3.org/2000/svg"
   xmlns:svg="http://www.w3.org/2000/svg">
  <defs
     id="defs1165" />
  <sodipodi:namedview
     id="namedview1163"
     pagecolor="#ffffff"
     bordercolor="#666666"
     borderopacity="1.0"
     inkscape:pageshadow="2"
     inkscape:pageopacity="0.0"
     inkscape:pagecheckerboard="0"
     showgrid="false"
     height="500px"
     inkscape:zoom="0.97718229"
     inkscape:cx="28.142139"
     inkscape:cy="174.99294"
     inkscape:window-width="1920"
     inkscape:window-height="1011"
     inkscape:window-x="0"
     inkscape:window-y="0"
     inkscape:window-maximized="1"
     inkscape:current-layer="g1167" />
  <g
     inkscape:groupmode="layer"
     inkscape:label="Image"
     id="g1167"
     transform="translate(-2.2222222,-55.555556)">
    <path
       style="fill:#000000;stroke-width:0.37795276;stroke-miterlimit:4;stroke-dasharray:none;stroke:#000000;stroke-opacity:1"
       d="m 178.80266,504.2042 c -1.59587,0 -4.47933,-2.25254 -6.40768,-5.00565 -1.92835,-2.75309 -3.51175,-9.08755 -3.51866,-14.07658 -0.007,-4.98901 -0.99922,-12.61822 -2.20514,-16.95381 -1.20592,-4.33558 -6.78177,-14.97747 -12.39079,-23.64865 -5.60902,-8.67117 -11.45194,-18.55293 -12.98429,-21.95946 -1.53235,-3.40653 -3.38486,-6.19369 -4.1167,-6.19369 -0.73183,0 -9.85942,5.19582 -20.28353,11.54624 -10.42411,6.35043 -21.709813,12.52009 -25.07934,13.71038 -4.077163,1.44025 -8.597352,1.34212 -13.513513,-0.29336 C 74.127087,439.94039 68.572895,435.4287 65.525942,430.9508 62.561455,426.59407 55.51796,411.14175 49.873726,396.61233 39.865573,370.84927 39.614264,369.58179 39.723727,345.42041 c 0.08372,-18.47749 1.66472,-31.64452 6.220028,-51.8018 3.359285,-14.86486 6.702138,-35.38851 7.428562,-45.6081 0.826452,-11.62685 0.487933,-18.58108 -0.904494,-18.58108 -1.223894,0 -3.401462,-2.58148 -4.839036,-5.73661 -1.437574,-3.15513 -2.613773,-7.71594 -2.613773,-10.13513 0,-4.05454 -1.673337,-4.39853 -21.396396,-4.39853 H 2.2222222 V 194.51951 179.87988 H 22.713635 43.205046 L 41.68526,166.78532 c -1.121998,-9.66721 -0.737754,-13.71525 1.468047,-15.46598 1.643309,-1.30427 9.802872,-4.60726 18.132365,-7.33997 8.329493,-2.73272 17.451114,-4.64127 20.27027,-4.24124 3.287646,0.46651 5.380326,2.51785 5.835685,5.7204 0.542493,3.81536 2.667441,5.31023 9.009008,6.33771 4.564485,0.73955 12.453785,2.82561 17.531785,4.63568 5.07799,1.81007 11.29596,5.54595 13.81771,8.30193 2.52175,2.75599 5.27654,7.2913 6.12176,10.07846 1.48513,4.89729 2.46759,5.06757 29.23915,5.06757 h 27.70239 l 7.13829,-18.91316 c 5.68545,-15.0638 9.29887,-20.92534 17.75394,-28.79974 5.83861,-5.43762 13.77408,-11.18273 17.63438,-12.7669 3.86031,-1.58417 8.339,-5.34726 9.95265,-8.36242 1.61368,-3.01516 4.2473,-5.4821 5.8525,-5.4821 1.60521,0 3.97311,1.97046 5.262,4.37881 1.28893,2.40834 8.42129,7.61825 15.84973,11.57757 7.42845,3.95932 17.37683,11.39782 22.10753,16.53002 6.53169,7.08606 9.61556,13.24197 12.81682,25.58459 l 4.21557,16.25333 h 30.5852 30.5852 l 4.27388,-7.93609 c 2.35063,-4.36486 7.51695,-9.94043 11.48071,-12.39018 3.96376,-2.44974 12.54448,-5.46634 19.06825,-6.70355 6.52376,-1.2372 12.11157,-2.24946 12.41741,-2.24946 0.30581,0 1.08478,-2.02191 1.73101,-4.49314 0.64624,-2.47122 2.86727,-5.14253 4.93561,-5.93623 2.06836,-0.7937 10.0193,0.3706 17.66878,2.58732 7.64949,2.21671 16.30325,5.49329 19.23059,7.28126 4.83531,2.95335 5.23441,4.46762 4.36078,16.54547 l -0.96164,13.2946 h 18.7248 18.7248 v 14.55196 14.55194 l -19.70721,0.65076 c -19.07219,0.62978 -19.73265,0.83123 -20.49684,6.25188 -0.43428,3.08062 -2.71469,8.30464 -5.06757,11.60894 -2.35286,3.3043 -4.2721,8.89189 -4.26496,12.41688 0.007,3.525 1.96315,17.55772 4.34671,31.18385 2.38356,13.62613 5.90741,31.86937 7.83081,40.54054 1.92338,8.67117 3.51466,24.07893 3.53617,34.23946 0.0343,16.1519 -1.21606,22.03271 -9.94786,46.79169 -5.49284,15.57491 -12.17851,31.86403 -14.85707,36.19804 -2.67858,4.33401 -7.8868,9.44001 -11.57383,11.34665 -4.35741,2.25328 -9.12955,2.9338 -13.63464,1.94432 -3.81202,-0.83725 -15.93583,-6.98261 -26.94182,-13.65635 -11.006,-6.67374 -20.46142,-12.13408 -21.01207,-12.13408 -0.55063,0 -3.19144,4.30743 -5.86845,9.57208 -2.677,5.26463 -8.67254,15.18783 -13.32338,22.05155 -4.65085,6.86371 -9.57011,16.49209 -10.93169,21.39639 -1.36157,4.9043 -2.48126,13.75284 -2.48815,19.6634 -0.0113,9.23683 -0.79419,11.10262 -5.57651,13.28158 -4.25439,1.93844 -6.37475,1.86217 -9.00901,-0.32405 -2.46948,-2.04949 -3.42993,-7.08627 -3.3916,-17.78608 0.0372,-10.3734 1.63106,-18.70579 5.225,-27.31433 2.84435,-6.81306 9.24696,-18.62964 14.22807,-26.25907 4.98108,-7.62944 10.38117,-17.06965 12.00016,-20.97827 2.60768,-6.29549 2.41456,-8.05399 -1.69205,-15.40759 -2.54963,-4.56556 -6.30715,-14.08853 -8.35003,-21.16219 -2.04288,-7.07364 -3.4007,-17.20878 -3.01739,-22.52252 0.61303,-8.49824 1.398,-9.74283 6.52034,-10.33828 3.20287,-0.37231 6.81291,0.64121 8.02232,2.25225 1.20939,1.61106 3.48384,9.46236 5.05429,17.44734 1.57044,7.985 4.79587,18.32185 7.16758,22.97079 2.37172,4.64896 6.59838,10.10607 9.39257,12.12694 2.79419,2.02085 13.69522,9.15984 24.2245,15.8644 10.52928,6.70458 20.97356,12.19742 23.20953,12.20629 2.78946,0.0113 5.86469,-4.04837 9.79835,-12.93432 3.15316,-7.12275 8.79717,-22.07208 12.54225,-33.22073 6.03684,-17.97078 6.65204,-22.18651 5.42314,-37.16215 -0.76239,-9.29054 -2.96338,-23.98649 -4.8911,-32.65767 -1.92773,-8.67116 -5.14126,-23.36711 -7.14116,-32.65765 -1.99988,-9.29053 -3.69984,-23.49764 -3.77766,-31.57133 -0.1099,-11.4132 0.97362,-16.48372 4.8701,-22.78837 3.94157,-6.37757 5.0116,-11.50365 5.0116,-24.00844 0,-14.49391 -0.52465,-16.31219 -5.93437,-20.56749 -4.28088,-3.36733 -9.20759,-4.66797 -17.68193,-4.66797 -6.46115,0 -15.01172,1.13789 -19.00122,2.52864 -4.20444,1.46568 -8.13286,4.84105 -9.34511,8.0295 -1.15028,3.02548 -2.09143,10.70136 -2.09143,17.05751 0,8.65138 1.41206,13.59423 5.61689,19.66183 3.75494,5.41837 6.08886,12.62055 7.04062,21.72654 1.07085,10.24551 0.57492,14.96503 -2.00106,19.04291 -1.88363,2.98185 -5.61957,15.04991 -8.30208,26.81793 -2.68252,11.76802 -5.47493,28.29475 -6.20538,36.72608 -0.79385,9.16291 -0.11915,21.73719 1.6773,31.25768 2.81464,14.91707 2.73725,16.12406 -1.2193,19.01716 -2.32358,1.69903 -4.97209,3.08917 -5.88558,3.08917 -0.9135,0 -3.22679,-1.56588 -5.14067,-3.47973 -1.91384,-1.91384 -4.63551,-7.74155 -6.04817,-12.95045 -1.41265,-5.20889 -2.54243,-17.185 -2.5106,-26.61356 0.0317,-9.42855 1.82031,-26.30312 3.97448,-37.49905 3.79833,-19.74135 3.78732,-20.577 -0.36424,-27.66677 -2.35446,-4.02081 -6.93919,-9.29186 -10.18824,-11.71343 -3.53823,-2.63709 -12.87874,-5.4072 -23.29,-6.90709 -16.27133,-2.34412 -18.91738,-2.09603 -41.38991,3.88065 -13.20401,3.51167 -25.48874,6.51392 -27.29939,6.67165 -1.81063,0.15774 -3.62883,-1.33223 -4.04041,-3.31104 -0.56426,-2.71285 4.40052,-5.42191 20.18399,-11.01351 11.51277,-4.07863 21.42392,-7.84988 22.02477,-8.38054 0.60086,-0.53066 -1.42616,-2.90002 -4.5045,-5.26523 l -5.59699,-4.30038 10.19422,-0.0501 c 5.60683,-0.0276 18.77845,1.02628 29.27025,2.34184 10.49182,1.31557 23.13414,4.1914 28.09407,6.39074 4.95992,2.19934 10.40903,5.68378 12.10912,7.7432 1.70012,2.05943 3.98052,3.74442 5.06757,3.74442 1.08707,0 1.97649,-3.4232 1.97649,-7.60711 0,-4.18391 -1.51561,-8.86495 -3.36802,-10.40232 -1.85241,-1.53735 -4.54662,-6.72903 -5.98714,-11.53703 l -2.61912,-8.74183 H 254.35334 137.8281 l -6.99213,14.49772 c -3.84567,7.97375 -6.99213,16.58861 -6.99213,19.14415 0,2.55553 0.88942,4.64642 1.97647,4.64642 1.08707,0 3.36747,-1.68499 5.06757,-3.74441 1.70011,-2.05942 7.14515,-5.52882 12.1001,-7.70978 4.95496,-2.18097 16.93708,-5.0568 26.62694,-6.39074 9.68986,-1.33394 21.75573,-2.42534 26.81304,-2.42534 9.06181,0 9.13583,0.0655 5.10609,4.5183 -2.24896,2.48508 -3.67293,4.8807 -3.16439,5.32362 0.50855,0.44291 10.80639,4.06757 22.88409,8.0548 13.44405,4.4383 21.95946,8.436 21.95946,10.30924 0,1.68285 -0.79989,3.55408 -1.7775,4.15828 -0.97764,0.60422 -12.37966,-1.931 -25.33785,-5.6338 -20.21846,-5.77745 -26.07448,-6.56039 -41.2852,-5.51983 -11.16468,0.76376 -20.33412,2.73231 -24.77477,5.31881 -3.87745,2.25844 -9.36106,8.27996 -12.18581,13.38117 -5.12012,9.24639 -5.124,9.32569 -1.26239,25.78576 2.24116,9.55285 3.91642,26.0023 3.97531,39.03338 0.0592,13.0874 -1.13873,26.06792 -2.85944,30.98576 -1.62866,4.65477 -4.83365,9.46533 -7.12218,10.69011 -2.28853,1.2248 -5.71607,1.63014 -7.61677,0.90076 -1.90069,-0.72934 -4.07448,-3.27542 -4.83066,-5.6579 -0.75617,-2.3825 -0.16158,-8.00804 1.3213,-12.50124 1.73025,-5.2427 2.29296,-16.32464 1.5707,-30.9331 -0.61899,-12.52004 -3.42448,-31.88532 -6.23441,-43.03397 -2.80994,-11.14864 -6.68203,-22.08924 -8.60468,-24.31242 -2.98956,-3.45687 -3.12544,-6.20374 -0.9385,-18.97103 1.40646,-8.21088 4.6451,-17.75289 7.19697,-21.20448 3.65341,-4.94151 4.63976,-9.6536 4.63976,-22.16569 0,-15.51026 -0.17496,-15.99674 -7.31983,-20.35304 -4.95467,-3.02092 -11.322374,-4.46299 -19.707201,-4.46299 -8.384827,0 -14.752536,1.44207 -19.707208,4.46299 -7.159116,4.365 -7.319819,4.81636 -7.319819,20.55907 0,12.30348 1.089462,17.85888 4.623744,23.57747 2.543058,4.11475 5.452274,12.72262 6.464923,19.12861 1.265248,8.00389 0.944454,14.20107 -1.025527,19.81149 -1.576691,4.49034 -5.664935,22.8602 -9.084989,40.82192 -3.420054,17.96171 -6.22631,39.75225 -6.236126,48.42341 -0.01441,12.78735 1.588783,20.02067 8.486561,38.28829 4.677423,12.38739 10.034018,25.81644 11.903545,29.84235 1.917903,4.13007 5.098065,7.31982 7.297835,7.31982 2.144284,0 9.883534,-3.8571 17.198332,-8.57133 7.3148,-4.71421 17.38909,-10.85942 22.38733,-13.65599 4.99824,-2.7966 11.75661,-9.32802 15.01861,-14.51428 3.26202,-5.18626 7.42296,-16.69461 9.24657,-25.57413 1.8236,-8.8795 3.99328,-17.24099 4.82152,-18.58107 0.82822,-1.34009 3.85573,-2.43653 6.72779,-2.43653 2.87206,0 6.4706,1.50455 7.99676,3.34347 2.13376,2.57101 2.20956,6.55252 0.32812,17.23369 -1.3457,7.63963 -5.45838,20.32598 -9.13928,28.19191 -6.45903,13.80262 -6.57132,14.59187 -3.21794,22.61761 1.91104,4.57378 7.60602,14.39971 12.65551,21.83541 5.04947,7.4357 11.05781,18.45914 13.35185,24.49655 2.29404,6.03741 4.80043,16.99937 5.56975,24.35989 1.15271,11.02856 0.6861,14.17028 -2.65244,17.85932 -2.22817,2.46212 -5.35694,4.47656 -6.95282,4.47656 z m 71.59745,-324.3744 27.723,-0.0501 -5.63062,-4.34868 c -3.09685,-2.39178 -9.54205,-6.1204 -14.32266,-8.28584 -8.67606,-3.92989 -8.7147,-3.92492 -21.03195,2.70959 -6.78697,3.65569 -12.81712,7.40686 -13.40036,8.33591 -0.58323,0.92905 11.41492,1.66665 26.66259,1.63911 z m -46.41119,-6.70668 c 0.68779,0 5.74416,-3.0917 11.23638,-6.87045 5.49222,-3.77874 14.28969,-8.82405 19.54993,-11.21179 5.61767,-2.54998 14.6255,-4.36176 21.83025,-4.39082 l 12.26613,-0.0495 -7.19856,-7.42704 c -3.95921,-4.08488 -7.19858,-9.21907 -7.19858,-11.40933 0,-2.19026 -1.12246,-6.07961 -2.49435,-8.643 -1.40819,-2.63124 -3.12446,-3.67611 -3.94144,-2.39956 -0.7959,1.24364 -6.7052,4.91309 -13.13175,8.15433 -6.42658,3.24125 -14.20133,9.20187 -17.27725,13.24582 -3.07592,4.04396 -7.68479,12.6736 -10.24193,19.17698 -2.55715,6.50337 -4.08661,11.82432 -3.39883,11.82432 z m 22.33239,303.86236 c -7.43242,-0.0901 -14.7804,-0.67513 -16.32882,-1.29993 -1.54843,-0.6248 -2.81532,-2.57182 -2.81532,-4.32669 0,-2.42313 3.49632,-3.1907 14.53367,-3.1907 7.99352,0 17.06705,-1.15428 20.16341,-2.56509 4.77617,-2.17617 5.73132,-4.31044 6.29968,-14.07657 0.49077,-8.4332 1.57333,-11.51149 4.04829,-11.51149 2.39957,0 3.70464,3.24738 4.5045,11.20856 0.91453,9.10254 2.1841,11.74121 6.75676,14.04338 3.09685,1.55915 11.90527,2.84975 19.57428,2.86802 7.669,0.018 14.53863,0.99586 15.26578,2.17245 0.72719,1.17658 -0.66663,3.20361 -3.09738,4.5045 -2.43074,1.30088 -9.65392,2.36525 -16.05153,2.36525 -6.39762,0 -14.90234,-1.55187 -18.8994,-3.4486 -6.5158,-3.09196 -7.94855,-3.09338 -13.85388,-0.0135 -3.91564,2.04191 -12.06636,3.36824 -20.10004,3.27078 z m 4.04809,-50.28473 c -7.1814,0.50464 -15.42237,-0.0925 -18.31328,-1.32722 -2.8909,-1.23465 -4.82201,-3.51295 -4.29136,-5.06293 0.65216,-1.90483 4.70278,-2.57079 12.49906,-2.05498 6.34382,0.41971 15.11615,-0.41904 19.49405,-1.86385 l 7.95984,-2.62699 v -21.22172 c 0,-19.72023 0.31872,-21.22174 4.50451,-21.22174 4.14822,0 4.5045,1.50151 4.5045,18.98326 0,14.04805 0.89712,19.88041 3.45079,22.43406 1.89793,1.89793 7.01368,4.11918 11.36831,4.93613 4.35464,0.81691 11.81692,0.8618 16.58282,0.0997 6.60178,-1.05565 8.97959,-0.56661 9.98507,2.05364 0.87984,2.29281 -0.59165,4.16596 -4.41446,5.61938 -3.15383,1.1991 -10.01478,2.18016 -15.24654,2.18016 -5.23176,0 -13.11308,-1.83579 -17.51407,-4.07954 -6.98926,-3.56331 -8.60349,-3.68003 -12.75696,-0.92221 -2.61537,1.73652 -10.63088,3.57022 -17.81228,4.07488 z m -37.69894,-10.33439 c -1.785,0 -3.85345,-0.98374 -4.59655,-2.1861 -0.7431,-1.20237 0.36465,-5.5098 2.46167,-9.57208 2.09702,-4.06227 10.41283,-14.22718 18.47957,-22.58867 8.06674,-8.36148 16.0208,-15.2027 17.67567,-15.2027 1.65489,0 3.00888,1.66104 3.00888,3.69118 0,2.03013 -7.60135,11.6474 -16.8919,21.3717 -9.29054,9.72431 -16.89189,19.21192 -16.89189,21.08361 0,1.87169 -1.46045,3.40306 -3.24545,3.40306 z m 121.50755,0 c -1.70153,0 -3.76985,-2.13043 -4.59629,-4.73425 -0.82642,-2.60385 -8.49608,-12.09658 -17.04367,-21.09498 -8.54756,-8.99838 -15.54106,-18.01662 -15.54106,-20.04052 0,-2.02387 1.3975,-3.6798 3.10557,-3.6798 1.70806,0 9.78031,7.07559 17.93832,15.72352 8.15803,8.64792 16.43033,18.81281 18.38287,22.58865 1.95256,3.77585 2.94214,7.84891 2.19903,9.05128 -0.74311,1.20236 -2.74325,2.1861 -4.44477,2.1861 z M 190.98637,356.31553 c -3.56082,0.8872 -6.6812,0.49666 -7.57402,-0.94795 -0.8351,-1.35121 -0.63575,-3.33937 0.44299,-4.41813 1.07875,-1.07874 16.14247,-6.37818 33.47493,-11.77651 l 31.51358,-9.81515 0.45744,-23.50023 c 0.25158,-12.92511 0.50496,-26.28737 0.56307,-29.6939 0.0665,-3.90182 1.33153,-6.19369 3.4186,-6.19369 2.71667,0 3.42616,5.34806 3.94145,29.71067 l 0.62843,29.71065 31.53155,9.90674 c 17.34234,5.44871 32.49436,10.82892 33.67116,11.95602 1.34775,1.29081 1.24838,2.94051 -0.26849,4.45738 -1.70933,1.70933 -12.17493,-0.56029 -36.06578,-7.82138 l -33.65766,-10.22948 -28.0108,8.57309 c -15.40593,4.71518 -30.73583,9.25203 -34.06645,10.08187 z"
       id="path1269" />
  </g>
</svg>
