<svg xmlns="http://www.w3.org/2000/svg" width="500" height="500"><path d="m91 486-28-1-6-3-6-8c-2-4-2-6-2-17s0-13 2-17c1-3 3-6 5-7l7-4 9-1h5l-8-8c-4-4-10-10-12-14-3-3-7-9-9-14l-4-7H32c-11 0-13-1-17-3l-8-5-4-6c-2-3-2-6-2-11s0-8 2-11l4-7 8-5c5-2 5-2 46-2h41l3-6 8-12a67 67 0 0 1 24-18 119 119 0 0 1 39-10l17-2 8-5 4-4-9-10c-6-5-12-13-14-16l-8-13c-1-4-4-10-4-15-2-6-2-16-2-61v-53l-3-3-7-8-5-11c-1-5-2-7-1-12l4-11a43 43 0 0 1 19-19l12-5 19-1h12l4-4a51 51 0 0 1 19-16l10-4 13-2 16 1 13 5 8 6 7 9 3 5h16c12 1 16 1 21 3l10 4a54 54 0 0 1 17 19c2 5 2 7 2 14s0 9-2 14l-8 11-6 6v51a919 919 0 0 1-4 69 92 92 0 0 1-26 40l-7 6 2 3 6 5c3 2 6 2 14 3a258 258 0 0 1 36 7c5 2 12 4 14 6a87 87 0 0 1 20 16c2 3 6 8 7 12 3 4 5 13 8 25l5 19h12V270l-7-1a31 31 0 0 1-22-9l-5-8c-2-4-2-6-2-43l1-42 6-10 9-6c5-2 6-3 28-3h22l6 3a26 26 0 0 1 15 18l1 42v38l-3 4-6 8-8 6-12 2-8 1v52c0 50 0 52 2 52l7 3a42 42 0 0 1 19 21c3 5 3 7 3 27 0 18-1 23-2 27l-5 9-8 9-10 6c-5 2-8 2-19 2-14 0-14 0-19-3l-9-7-4-9-1-4-85-1h-86v8c0 6-1 10-3 12-1 3-3 6-5 7l-7 4-45 1h-42l-2-2-2-5 2-5 2-2h41c39 0 41 0 44-2 2-2 2-3 2-13s0-11-2-13c-3-2-5-2-82-2H68l-2 3c-2 2-3 3-3 12 0 10 1 11 3 13s4 2 26 2 24 0 26 2c2 1 3 2 3 5s-1 4-3 6l-27 1zm361-23c9 0 10 0 15-3 4-2 6-4 8-8l4-8a208 208 0 0 0-1-40l-5-8-8-6c-4-2-6-2-16-2-11 0-11 0-14 3l-2 2v64l2 3 5 3h12zm-139-24c65 0 69 0 68-1a3509 3509 0 0 1-13-71c-2-2-4-2-41-2h-39l-1 4-5 7-7 6c-3 2-6 2-17 3h-13l-4 7a127 127 0 0 1-22 29l-7 7h7l12 1 8 6 5 4zm94 0h11v-24c0-24 0-24 2-29l3-4-5-21-8-26-7-11a56 56 0 0 0-22-14l-8-3h-2v44l2 2 5 4 4 5 8 38 6 37c1 2 1 2 11 2zm-262-11h38l8-5a124 124 0 0 0 24-19 155 155 0 0 0 15-23l5-14c2-4 2-10 2-12v-5H52v5l1 11a113 113 0 0 0 16 32 104 104 0 0 0 21 20l11 7 6 3h38zM31 370c8 0 8 0 8-2l-2-7v-11h-8c-7 0-8 0-11 2-2 3-3 4-3 8l2 6 4 3 10 1zm227 0 11-1 4-5c1-2 2-4 1-6l-3-5c-2-3-3-3-11-3l-8-1v9l-2 10c0 2 0 2 8 2zm47-19h17v-38l-5 2a139 139 0 0 1-29 10 127 127 0 0 1-63-5c-5 0-10-3-13-5l-5-2v22h32c29 0 32 1 35 2l7 5 5 6 1 3zm42-1h9v-46l-5-1h-14v23l1 24h9zm-208-15h19v-28a163 163 0 0 0-19 7l-8 6a56 56 0 0 0-12 14l20 1zm44 0h9v-32h-15l-4 1v31zm80-22a125 125 0 0 0 30-3l13-5 9-7 4-3-4-5-4-4-8 4-14 6-16 3c-6 1-11 2-15 1a91 91 0 0 1-32-10l-8-5-4 5c-4 4-4 5-3 7l7 5 13 6a119 119 0 0 0 32 5zm3-27a85 85 0 0 0 29-9 126 126 0 0 0 25-16 102 102 0 0 0 19-25l5-12 2-14v-9l-4-1-10-6-10-9-6-9-2-10-2-6-17-2c-14-1-15-2-17-4l-2-4 3-5 2-3 10 1a377 377 0 0 1 55 7l1-23v-24l3-3 7-6 4-7 2-7-2-8-6-8c-1-2-6-5-9-6-5-3-6-3-23-3l-20-1c-2 0-3-2-5-7l-6-9-8-6a46 46 0 0 0-24-3l-12 4-11 7-7 9c-1 3-4 5-5 5l-18 1c-13 0-18 1-22 2a37 37 0 0 0-16 15l-2 9c0 3 0 6 2 9l8 8 5 5 1 25v23l2-1a893 893 0 0 1 60-7c6 0 7 0 9 2l2 4-2 5c-1 2-3 3-5 3l-19 1-14 1-1 7-4 13-8 10-13 9-8 4 1 9a55 55 0 0 0 10 31 109 109 0 0 0 61 43l12 1zm-47-86-4-2-2-5 2-6 8-4 12-1 11 2 5 4 2 5c0 2-1 4-3 5l-4 2-5-2-8-2-8 2-6 2zm61 0-3-1-3-3-2-4 4-5c2-2 5-4 8-4l12-1c4 0 8 1 11 3 2 1 5 3 5 5v5l-4 4c-2 1-3 1-7-1l-8-2-9 2-4 2zm-65-76h-5l-3-3-1-21c0-19 0-19 2-21l5-3c2 0 4 1 5 3 3 2 3 2 3 21 0 18-1 20-2 22l-4 2zm98 1-4-2-2-2V80l2-2 5-2 3 1 3 3 1 20-1 20c0 2-2 3-3 4l-4 1Zm-49-16-5-1c-3-2-3-3-3-22 0-20 0-21 2-23l6-2 5 2c1 2 2 3 2 22 0 20-1 20-3 22l-4 2zm193 146c18-1 20-1 22-3l5-5 1-38-1-37-4-6-4-3h-20c-18 0-20 0-23 2l-5 5c-2 2-2 5-2 38 0 35 0 37 2 40l6 5c3 2 5 2 23 2zm-272-71 6-4a31 31 0 0 0 10-15c0-2 0-3-2-3l-9 2-7 2v20zm161-7v-11l-6-2-9-2c-3 0-3 0-2 3l2 7a32 32 0 0 0 12 12l3 1zM76 294l-5-2-3-5 4-7c2-2 3-5 3-7l-3-10c-3-6-4-10-4-13l2-10 6-8c3-3 5-4 7-4l5 1 2 4v5l-4 5-3 6 3 11a25 25 0 0 1 2 23l-6 8-6 3zm44-40-6-1-4-2-1-4 4-7 3-6-3-10-4-11c-1-3 0-6 1-9 1-4 3-7 6-11 4-4 5-5 8-5l5 2 2 5c0 3-1 5-3 6l-4 5v5l4 10c3 7 3 8 3 14-1 5-1 7-5 12l-6 7z" style="fill:#000;stroke-width:.976562"/></svg>