<svg xmlns="http://www.w3.org/2000/svg" width="500" height="500"><g style="display:inline"><path d="M63 658c-30-6-48-31-53-71-5-42 8-91 38-140 18-28 33-43 58-56 15-7 37-12 78-17 15-2 113-2 132 0 25 2 56 8 71 13s31 16 43 28c9 10 15 16 24 31 24 39 36 74 39 113 3 29-4 58-17 76-12 17-27 24-50 24-22 0-42-7-62-22-13-10-21-17-30-28-10-13-18-18-39-25-17-6-24-7-44-7-16 0-19 1-29 3-12 3-28 9-38 15-5 2-9 5-12 9-9 13-23 26-35 34-13 9-21 13-32 16-17 5-32 6-42 4zm26-27c16-5 32-14 45-26 10-9 13-12 22-24 3-4 5-5 19-12 21-10 28-13 44-16 24-5 54-4 79 3l35 15c10 5 11 6 18 15 13 17 25 28 40 35 17 9 22 11 35 11h12l6-4c9-6 14-13 18-26 5-14 6-39 2-60-4-25-19-59-37-87-10-15-14-19-24-27-15-13-20-15-64-24-21-4-25-4-86-4a350 350 0 0 0-138 17c-8 4-17 11-25 19-15 15-40 63-49 93-6 22-7 49-2 68 4 17 14 30 25 34 5 2 19 1 25 0zm259-96c-5-3-7-5-7-11s2-10 7-12c9-5 19 2 19 12s-11 17-19 11zm-213-2c-4-2-4-5-4-17v-14h-16c-11 0-13 0-14-2-1-3-1-22 1-23 1-1 6-2 15-2l13-1 1-13c0-9 1-14 2-15h22c3 1 3 3 3 17v11l14 1c17 0 17 0 17 14 0 7-1 10-2 11-1 2-4 2-15 2h-13l-1 14c0 17 0 17-13 17h-10zm176-33c-4-3-6-8-5-13s5-10 10-11c4-1 5-1 9 1 5 3 8 7 8 12 0 4-4 10-7 12-4 2-11 1-15-1zm71 0c-4-2-6-7-6-12 1-6 4-9 8-12 5-2 10-1 15 4 3 3 3 4 3 9 0 8-5 13-13 13l-7-2zm-37-36c-3-4-3-5-3-10 0-6 0-7 3-9 2-2 4-3 8-3 9-1 14 4 14 12s-6 14-14 14c-3 0-4-1-8-4z" style="display:inline;fill:none;fill-opacity:1;fill-rule:nonzero;stroke:#000;stroke-width:14.9248;stroke-miterlimit:4;stroke-dasharray:none;stroke-opacity:1" transform="translate(-1 -167)"/><path d="M251 374a40 40 0 0 0-11-52c-6-4-12-7-19-8-14-4-29-2-42 4-22 8-39 25-60 35-11 5-23 9-34 8-12 0-24-5-32-13-5-6-8-13-9-20-1-8 0-15 3-22 4-13 13-23 24-30s24-11 37-12c26-2 52 7 76 17 27 12 52 26 80 35 28 8 58 12 86 2 8-3 16-7 21-15 4-5 6-11 6-17s-2-12-5-18c-6-11-18-18-29-21-20-6-40-1-60 1-10 1-20 2-30 0-10-1-20-4-28-10-6-5-11-12-15-20a72 72 0 0 1-3-41" style="mix-blend-mode:normal;fill:none;stroke:#000;stroke-width:12.5812;stroke-linecap:round;stroke-linejoin:round;stroke-miterlimit:4;stroke-dasharray:none;stroke-dashoffset:0;stroke-opacity:1;paint-order:normal" transform="translate(-1 -167)"/></g></svg>