<svg xmlns="http://www.w3.org/2000/svg" width="500" height="500"><path d="M240.6 21c-8.9 1-18.6 5-26.5 10A66.5 66.5 0 0 0 184 64.6a59.3 59.3 0 0 0 0 42.7 74.7 74.7 0 0 0 20.3 29.8c2.7 2 4.5 5 3.6 9-1.8 3-5.3 5-8 5-17.7 4-35.4 8.9-52.2 14.8-5.3 2-10.6 5-15 9-7 6-12.4 14.9-16 24.8L76.2 307.1l-.9 17c0 5.9 1.8 11.8 6.2 15.8a33 33 0 0 0 21.2 13c12.4 1 23-4 34.5-8l8.9-2c3.5 1 4.4 8 .8 10l-29.1 17.8c-16.9 11-34.5 19.9-50.5 31.8-6.2 6-13.2 13-15 21.9-3.5 13.9.9 29.8 11.5 38.7 8 8 19.5 12 30 15l32 .9 168-1h93.7c14.2-1 29.2-4 41.6-10 7-4.9 14.1-9.9 17.7-18.8a37 37 0 0 0 0-25.8c-2.7-9-8.9-17-16-21.9l-25.6-15.9c-18.6-11-37.1-20.9-54-34.8-2.6-2-1.7-8 1.8-8l9.7 2c11.5 5 24 9 37.2 7 3.5 0 8-2 11.5-5a37 37 0 0 0 13.3-15.8c1.7-7 0-15 0-21.9-1-6-3.6-10-5.4-15.9-13.2-34.8-25.6-69.5-39.8-103.3a43.9 43.9 0 0 0-20.3-20.9 171 171 0 0 0-38-11.9l-27.4-8c-3.6-2-2.7-8.9.8-10.9a83 83 0 0 0 21.3-28.8A65.3 65.3 0 0 0 281.3 28c-8.9-4-17.7-6-27.4-6.9Zm10.6 11a59 59 0 0 1 50.4 31.7c3.6 7 4.4 16 4.4 23.9 0 8-.8 15.9-4.4 21.8a61 61 0 0 1-34.5 30.8 61 61 0 0 1-55.7-12.9c-7-6-13.3-14.9-16-24.8-1.7-8-.8-17-.8-24.9.9-8 4.4-15.9 9.7-21.8a54.8 54.8 0 0 1 46-23.9zm0 124.1c30 0 59.3 8 88.4 17.9 8 2 16 6 22.2 13 5.3 6.9 7 14.8 10.6 22.8L406 304c1.8 5 3.5 10 3.5 15 .9 9.9-7 19.8-15.9 19.8-7 0-15-3-22.1-5l-106.1-34.7-16-2c-8 0-16.8 2-24.7 5-35.4 10.9-70.8 24.8-107 35.7-6.2 1-13.3 2-18.6-1-7-4-11.5-14.9-8-23.8l15-43.7c8.9-25.9 17.7-51.7 28.4-76.5 3.5-7 8.8-13 15.9-16l31-9.9c23-7 46-11.9 69.8-10.9zm-1.8 30.8c-7 0-14.1 7-16.8 15-6.2 12.8-8.8 28.7-14.1 42.6-2.7 5-8 6-12.4 8l-41.6 15.9-9.7 5c-1.8 2-1.8 6 .9 6.9 2.6 2 6.2 0 8.8-1l50.4-17.9 13.3-6c2.7-4 2.7-8.9 4.4-13.8 4.5-13 7.1-26.9 12.4-39.8 2.7-4 9.7-3 10.6 3 4.4 8 6.2 17.9 8.9 27.8 2.6 7 4.4 15 8 21.9 1.7 3 5.2 3 7 4a560 560 0 0 0 52.2 19.8l10.6 3c2.7-1 5.3-3 4.4-6-1.7-3-3.5-3-6.2-4-8.8-5-18.5-7.9-28.3-11.9L284 248.5c-3.5-3-3.5-8-5.3-12-3.5-13.8-7-28.7-14.1-40.6a17 17 0 0 0-15-9zm1.8 121.2c10.6 1 20.3 6 31 9 13.2 4 27.4 8 40.6 13.9 4.5 3 4.5 9 6.2 12.9a58.2 58.2 0 0 0 21.3 23.8c14.1 11 30 19.9 46 29.8 8.8 6 18.5 12 26.5 19 6.2 6.9 9.7 16.8 8 25.7-1.8 6-7.1 9-11.6 12-10.6 6-23 7-35.3 8-24 2.9-47.8 1.9-71.7 2.9l-119.4-1c-8-1-15.9-6-19.4-14.9-1.8-6-1.8-14 2.6-18.9 5.3-7 12.4-9 20.4-11.9 14.1-5 30-7 45-10 24.8-4 49.6-6.9 73.5-11.9 2.6-1 4.4-4 3.5-7-.9-2.9-3.5-3.9-5.3-4.9H307c-36.2 6-71.6 11-107 18.9-11.5 3-23.9 7-33.6 14.9-5.3 4-9.7 11-9.7 18.9-1 7 0 13.9 2.6 20.8 1 2-.9 6-2.6 6h-9.8c-15 1-31 1-46-2a43 43 0 0 1-25.6-11c-4.4-4.9-6.2-10.8-6.2-16.8 0-7 1.8-14 7-17.9 6.3-6 13.4-10 20.4-14.9 22.1-13.9 44.2-25.8 63.7-43.7 5.3-4 9.7-9 11.5-16.9 1.8-3 2.7-8 6.2-10l9.7-3.9a1083.4 1217 0 0 1 63.7-18.9z" style="fill:#000;stroke:#000;stroke-width:7;stroke-miterlimit:4;stroke-dasharray:none;stroke-opacity:1"/></svg>