<svg xmlns="http://www.w3.org/2000/svg" width="500" height="500"><path d="M294 522c-78 0-94 0-95-3 0-2 2-12 6-23 6-17 7-24 8-47 1-22 0-30-4-44-2-9-7-23-11-31-3-7-12-21-20-31l-24-34a251 251 0 0 1-28-82c-2-15-2-25 0-40a196 196 0 0 1 41-94 189 189 0 0 1 43-37 225 225 0 0 1 58-25c11-3 24-4 46-4s34 1 45 4a266 266 0 0 1 76 36 204 204 0 0 1 45 53l11 29c3 10 4 20 3 31l-6 30c-3 7-5 16-5 19s6 12 14 22c7 10 17 24 21 33 8 14 8 16 5 23-2 6-4 9-12 12l-13 5c-3 1-3 2-1 8 3 5 2 7-1 13-3 5-3 7-1 11s2 7-1 11c-2 3-8 7-13 10l-9 4v14c0 10-1 17-4 22-2 4-7 9-10 12-5 3-11 4-27 5l-20 1-5 10a176 176 0 0 0-15 57l-2 18c-1 1-31 2-95 2zm2-11h82l1-14a200 200 0 0 1 16-56l7-16 19-1 24-1 9-6c4-4 5-8 5-22l1-20 11-7c6-2 10-5 11-6s0-5-2-8c-3-5-3-5 2-11l6-6-6-7c-3-4-5-8-4-10 0-1 8-5 17-7l17-8-1-8a377 377 0 0 0-32-48c-6-8-7-11-7-20 0-5 2-16 5-23 3-10 4-20 4-33s-1-24-4-31a149 149 0 0 0-34-50l-27-24a245 245 0 0 0-61-26c-11-3-24-4-42-4-23 0-31 1-47 6-11 3-25 8-32 12a216 216 0 0 0-49 34l-18 23c-6 8-13 20-16 29-4 8-8 22-10 30a202 202 0 0 0 0 69 258 258 0 0 0 21 55c4 10 15 26 22 35l22 31c4 8 10 22 13 33 6 17 6 22 6 48 0 25-1 31-6 47l-6 20 83 1zm-1-191h-87l-1-82v-80l5-1c2-1 23-2 46-1l41 1 1 13-2 15c-1 2-5 3-11 2-7-1-9 0-13 3-3 3-5 7-5 10s2 7 5 10c4 4 6 4 14 3s10-1 11 2l1 10c0 4 1 6 4 6 1 0 4-2 4-5a29 29 0 0 1 22-18c5 0 11 0 16 3 6 3 10 6 12 12 3 7 5 8 11 8 4 0 8 1 9 3 2 2 3 16 2 44v42zm-42-10h34v-8l2-11c1-2 4-2 9-1 4 1 9 0 11-1 3-1 6-5 7-7 1-3 1-8-1-11-1-3-4-6-7-7l-12-1c-8-1-8-1-9-10 0-6-1-9-4-9-1 0-3 2-3 5l-2 11c-1 3-5 7-9 10-6 3-10 4-19 3-9 0-12-2-17-7-4-5-6-9-6-15s-1-7-4-7c-4 1-4 4-5 31l1 33c1 2 9 2 34 2zm81 0 34-1 1-32 1-33h-10c-9-1-9-1-11-9 0-4-2-9-4-11s-6-4-11-4-10 2-11 4c-2 1-3 5-3 9l-3 8c-1 2-5 3-9 3-5 0-8 1-8 3s4 4 8 4l12 6 7 11c1 4 2 10 1 13l-5 11c-1 3-5 6-8 7-3 2-8 3-10 3-3 0-5 1-5 4 0 4 1 4 34 4zm-80-47c2 0 6-1 8-4 3-2 5-6 5-9l-1-10c0-5 1-6 10-6 9-1 11-2 11-5s-2-4-7-4-9-2-14-8c-7-6-8-8-8-17 0-7 1-11 7-17 4-4 9-8 14-8 5-1 8-3 8-5s-6-3-35-3h-34v33l1 32 11 1 11 1-2 10c-1 9-1 10 5 15 3 2 7 4 10 4zm126-55-8-6c-5-4-8-5-10-3l-9 3c-3 1-9 0-13-2-4-1-10-5-12-8-3-3-6-9-6-12-1-4-1-9 2-13 3-7 3-7-1-12l-6-7c-1-2 9-12 29-32 17-17 32-30 33-30 2 0 17 13 33 29 17 16 31 31 31 32l-9 11-12 9c-2 0-5-3-8-6-3-5-6-7-11-7-4 0-9 2-11 4-3 3-5 7-5 10 0 4 3 8 7 11 4 4 7 7 7 9l-10 11-11 9zm2-18c3-2 2-3-1-8-3-3-5-8-5-14 0-7 2-11 6-16l14-9c8-2 10-2 18 2 7 3 11 4 12 3 2-2-5-10-21-25l-24-23-25 23-24 24 5 5 6 8c0 1-2 4-5 6-2 2-4 6-4 10 0 3 2 8 4 10 3 3 7 5 10 5s8-2 11-5l8-4 7 5c4 4 6 5 8 3z" style="fill:#000;stroke:#000;stroke-width:4.97521;stroke-miterlimit:4;stroke-dasharray:none;stroke-opacity:1" transform="translate(-75 -25)"/></svg>