<svg xmlns="http://www.w3.org/2000/svg" width="500" height="500"><path d="M250 475H25V170.4l8.6-.8 8.5-.8 1.2-18.2 1.1-18.3 11.4-1.3 11.5-1.3 1.1-23.4 1.1-23.5 14.9.7c8.2.5 21 2 28.4 3.5 7.5 1.5 22 5.7 32 9.3a266.8 266.8 0 0 1 61.8 32.9c6.3 4.5 18.4 14.5 27 22.3a90.4 90.4 0 0 0 16 13.1c.4-.5 3.6-6.9 7.2-14a397 397 0 0 1 51.4-77A276.8 276.8 0 0 1 339 43.3c7.5-5.8 17.1-12.6 21.3-15 4.2-2.5 9.1-3.9 10.9-3 2.5 1 3.2 8.3 3.2 34.2 0 30 .3 32.7 4 31.4a207 207 0 0 1 17.7-3.8c7.5-1.4 20.3-3.3 28.3-4.2 11-1.3 15.1-.9 16.5 1.7 1 1.9 2 21.9 2 44.5v41h32V475Zm-114.8-10.5 101-.2-13-7.7a271.7 271.7 0 0 0-33.3-15.4c-11-4.3-29.8-9.7-41.6-12.1-14.9-3-32.4-4.3-56-4-18.8.2-36.7.7-39.9 1l-5.7.7-1.4-40.4c-.8-22.2-1.7-134.1-1.7-134.1l-.9-71.7c-3 0-5.5.1-8.7-.1l.1 142v142zm230.2 0h100.5v-284H443v101.1c0 75.2-.7 102-2.7 104.3-1.5 1.7-7 3.1-12 3.1a273 273 0 0 0-69.6 14.5 361.9 361.9 0 0 0-37.9 18c-11.3 6.2-28.5 18-38.2 26a174.6 174.6 0 0 0-17.8 16c0 .6 45.3 1 100.6 1zm-123.1-10.3c1.1 0 2-61.2 2-139.5V175.3L226.2 159c-10-9-23.8-20.2-30.7-25-7-4.7-20.7-12.6-30.6-17.5a271 271 0 0 0-36.2-14.2c-10-3-25.5-6-34.6-7l-16.6-1.5.6 141.6.6 141.7 20.5 3c11.3 1.6 26.8 4.9 34.3 7.2 7.5 2.3 20.2 7 28.2 10.7 8 3.5 21.3 10.7 29.6 16 8.3 5 21.4 14.5 29.2 20.8 7.7 6.4 15.4 13.3 17 15.4 1.5 2.2 3.7 4 4.8 4zm26.5-29.8a468.5 468.5 0 0 1 26.8-40c7.5-9.6 19.3-23.2 26.3-30.2 7-6.9 19-17.3 26.9-23.1l14.3-10.6V39.7l-6.7 4a279.7 279.7 0 0 0-69.2 74.4 685 685 0 0 0-18.7 32.2l-12.8 23.2v273.1zm15.6 8.2c8.7-6.4 23-15.8 31.8-20.8a339 339 0 0 1 32.6-16c9.2-3.7 26.8-9 39.2-12a202 202 0 0 1 33.1-5.2h10.5v-284H423a197 197 0 0 0-28.5 4.1l-20 4.2v223.4l-6.3 4.4c-3.4 2.4-13 9.4-21.4 15.7-8.3 6.3-22 19.3-30.4 29a413.8 413.8 0 0 0-43.7 61.4c-3.9 7-3.3 6.8 11.7-4.2zm-86 .5c.7.1.1-.9-1-2.2-1.2-1.3-10.4-7-20.5-12.8-10-5.7-27-13.4-37.7-17a267.6 267.6 0 0 0-60.5-12.7l-9.2-.7-.6-123.1-.5-123.2h-16v41c0 22.7.7 84 1.5 136.2l1.5 95.2 39 .2c30.8.1 44 1.4 62 5.8a301.2 301.2 0 0 1 42 13.3z" style="fill:#000;stroke-width:7.55905512;stroke:#000;stroke-opacity:1;stroke-miterlimit:4;stroke-dasharray:none"/></svg>