<svg xmlns="http://www.w3.org/2000/svg" width="500" height="500">
<path d="M179 504c-2 0-5-2-7-5s-3-9-3-14l-2-17c-2-4-7-15-13-23a252 252 0 0 1-17-29l-20 12-25 14c-4 1-9 1-14-1-4-1-9-6-12-10s-10-20-16-34a96 96 0 0 1-10-52c0-18 1-31 6-51 3-15 7-36 7-46 1-12 1-19-1-19-1 0-3-2-4-5-2-3-3-8-3-10 0-4-2-5-21-5H2v-29h41l-1-13c-1-10-1-14 1-16l18-7c9-3 18-5 21-4 3 0 5 2 5 5 1 4 3 6 9 7l18 4c5 2 11 6 14 9l6 10c1 5 2 5 29 5h28l7-19c6-15 9-21 18-29l17-13c4-1 9-5 10-8 2-3 5-5 6-5 2 0 4 2 5 4l16 12c8 3 18 11 22 16 7 7 10 13 13 26l4 16h62l4-8c2-4 7-10 11-12 4-3 13-6 19-7l13-2 2-5c0-2 2-5 4-6 3-1 10 1 18 3l19 7c5 3 6 5 5 17l-1 13h37v29l-19 1c-20 0-20 0-21 6 0 3-3 8-5 11-2 4-4 9-4 13l4 31 8 41c2 8 3 24 3 34a292 292 0 0 1-25 83c-2 4-7 9-11 11s-9 3-14 2l-27-13-21-13-5 10-14 22-11 21-2 20c0 9-1 11-6 13-4 2-6 2-9 0-2-2-3-7-3-18 0-10 1-18 5-27 3-7 9-19 14-26 5-8 11-17 12-21 3-7 3-8-1-16a79 79 0 0 1-11-44c0-8 1-9 6-10l8 2 5 18c1 8 5 18 7 23s7 10 9 12a827 827 0 0 0 48 28c3 0 6-4 10-13l12-33c6-18 7-22 6-37l-5-33-7-33c-2-9-4-23-4-31 0-12 1-17 5-23s5-11 5-24c0-14-1-16-6-20s-9-5-18-5l-19 2c-4 2-8 5-9 8l-2 17c0 9 1 14 5 20s6 13 7 22c1 10 1 15-2 19-2 3-5 15-8 27s-6 28-6 36c-1 10 0 22 1 32 3 15 3 16-1 19l-6 3-5-4-6-13-2-26c0-10 1-27 4-38 3-19 3-20-1-27-2-4-7-10-10-12-3-3-13-6-23-7-17-2-19-2-42 4l-27 7c-2 0-4-2-4-4-1-2 4-5 20-11l22-8c1-1-1-3-4-5l-6-5h10a298 298 0 0 1 58 9c5 2 10 6 12 8l5 3c1 0 2-3 2-7s-2-9-4-11l-6-11-2-9H138l-7 15c-4 8-7 16-7 19l2 4 5-3c2-2 7-6 12-8s17-5 27-6l26-3c9 0 10 0 6 5-3 2-4 5-4 5l23 8c14 5 22 9 22 10l-2 5-25-6c-20-6-26-7-41-6-11 1-21 3-25 6-4 2-9 8-12 13-5 9-5 9-1 26a203 203 0 0 1 1 70l-7 11h-8c-2 0-4-3-5-5-1-3 0-8 1-13 2-5 3-16 2-31-1-12-3-31-6-43-3-11-7-22-9-24-3-3-3-6-1-19l7-21c4-5 5-10 5-22 0-16 0-16-7-21-5-3-12-4-20-4s-15 1-20 4c-7 5-7 5-7 21 0 12 1 18 5 23 2 5 5 13 6 20 1 8 1 14-1 19a487 487 0 0 0-15 90c0 12 1 20 8 38l12 30c2 4 5 7 7 7 3 0 10-4 18-8l22-14c5-3 12-9 15-15 3-5 7-16 9-25l5-19 7-2c3 0 6 1 8 3 2 3 2 7 0 17-1 8-5 21-9 29-6 13-7 14-3 22 2 5 7 15 12 22 6 7 12 18 14 25 2 6 5 17 5 24 2 11 1 14-2 18l-7 4zm71-324h28l-6-5-14-8c-9-4-9-4-21 3l-13 8c-1 1 11 2 26 2zm-46-7 11-7 20-11c5-3 14-4 22-4h12l-7-8c-4-4-8-9-8-11l-2-9c-1-3-3-4-4-2l-13 8c-7 3-14 9-17 13a97 97 0 0 0-14 31zm22 304-16-1c-2-1-3-3-3-5s4-3 15-3l20-2c5-3 6-5 6-14 1-9 2-12 4-12 3 0 4 3 5 11 1 9 2 12 6 14s12 3 20 3 15 1 15 2c1 1 0 4-3 5l-16 2c-6 0-15-1-19-3-6-3-8-3-14 0-3 2-12 3-20 3zm4-50c-7 0-15 0-18-2-3-1-5-3-4-5 0-2 4-2 12-2 7 1 15 0 20-2l8-2v-21c0-20 0-22 4-22s5 2 5 19c0 14 1 20 3 23 2 2 7 4 12 5h16c7-1 9-1 10 2 1 2 0 4-4 5-3 2-10 3-16 3-5 0-13-2-17-4-7-4-9-4-13-1l-18 4zm-37-11-5-2c-1-1 0-5 3-9a145 145 0 0 1 36-38c1 0 3 1 3 4 0 2-8 11-17 21s-17 19-17 21-2 3-3 3zm121 0c-2 0-4-2-4-4-1-3-9-12-17-21-9-9-16-18-16-21 0-2 1-3 3-3s10 7 18 16c8 8 16 18 18 22l3 9-5 2zm-123-60c-4 1-7 1-8-1l1-4 33-12 32-10v-23l1-30c0-4 1-6 3-6 3 0 4 5 4 30l1 29 31 10 34 12v5c-2 1-12-1-36-8l-34-10-28 8-34 10z" 
style="fill:#000;stroke-width:.37795276;stroke-miterlimit:4;stroke-dasharray:none;stroke:#000;stroke-opacity:1" 
transform="translate(-2 -56)"/>
</svg>