<svg xmlns="http://www.w3.org/2000/svg" width="500" height="500"><path d="M141 16A130 130 0 0 0 17 163c3 18 10 36 20 52 11 17 27 31 44 42 10 5 22 9 33 12a123 123 0 0 0 74-3c12-5 23-10 33-18 3-2 7-3 10-1 6 3 11 9 16 13l30 31c3 3 6 7 5 11-1 5-5 8-7 12-9 14-15 31-18 47-1 4-2 8-6 11-5 2-11 2-16 2h-39c-5 0-10 0-15-2-4-2-6-6-7-10-6-13-16-23-28-29-6-4-13-6-20-6-8-1-17 0-26 4-8 3-15 8-21 15-6 6-11 13-13 22v25c0 8 2 15 7 21 5 8 12 14 20 19 7 4 15 6 23 7 12 0 26-1 36-9 8-6 15-13 20-22l4-11c4-5 10-5 16-5h43c5 0 11 0 16 3 6 4 6 12 8 18 3 11 7 21 12 31a127 127 0 0 0 101 66 138 138 0 0 0 70-14 138 138 0 0 0 62-69c5-14 8-30 8-45a132 132 0 0 0-77-117c-11-5-23-8-35-10h-28a134 134 0 0 0-67 25c-3 3-9 1-12-2-12-10-22-22-33-33l-14-16c-1-4 1-8 4-11 12-16 18-35 22-55 1-5 6-9 11-9 9-2 19-1 29-1 11 0 22-1 32 1 5 1 8 5 10 9 5 13 15 24 27 31 8 4 16 6 24 7 8 0 16-2 23-5 9-3 17-9 23-16 5-6 9-13 11-21s1-17 1-25c-1-8-3-15-8-21-6-9-15-17-25-21-12-5-25-7-36-3-8 2-15 5-22 10-9 7-16 18-20 29-2 5-8 6-13 6h-47c-5 0-11 0-16-4-5-5-5-12-7-18-3-10-6-21-11-30-8-13-18-25-29-36a135 135 0 0 0-88-31zm5 20c16 0 32 4 46 10a119 119 0 0 1 50 49 114 114 0 0 1 9 77c-2 9-6 18-11 26-2 2-5 0-6-2l-14-17c-10-10-22-18-34-24-3-1-5-5-4-8 2-5 5-9 6-14 2-8 1-16 0-24-2-10-9-17-16-23-5-5-12-8-19-9l-21 1c-10 2-18 9-23 16-7 9-10 19-9 30 1 7 2 15 6 21 2 2 4 5 4 8-3 3-8 3-11 5-10 5-19 12-27 19l-16 18c-2 2-4 5-6 3l-6-12c-4-10-7-21-8-32a110 110 0 0 1 18-68c10-15 24-28 40-37a118 118 0 0 1 52-13zm0 60c9 0 17 6 21 13 4 6 5 14 2 20-2 7-7 12-13 16-6 3-13 4-20 1s-14-9-17-17c-1-5 0-11 2-16a25 25 0 0 1 25-17zm262 12c11 0 22 5 29 14 5 6 8 14 8 22 0 7-2 14-5 20-4 8-12 14-21 17s-19 2-28-2c-6-4-12-9-16-14s-5-12-5-18c0-11 3-21 11-29 4-4 9-8 15-9l12-1zm-263 60c12 0 24 0 35 6 16 8 29 20 38 34 3 3 5 7 6 11-1 5-5 8-9 10-9 7-18 12-28 16-9 5-20 8-30 8-13 1-26 1-39-2-15-4-30-11-42-21-3-3-6-6-7-9-1-6 2-10 4-15 9-14 24-25 39-33 8-4 16-5 24-5h9zm236 106a107 107 0 0 1 68 22 115 115 0 0 1 38 54c6 18 8 37 3 55-2 11-5 21-11 31-1 2-4 2-5 0l-14-17c-10-11-23-18-35-25-3-1-5-5-4-8l5-13c2-6 3-14 2-21-3-9-7-19-14-26-5-4-11-8-18-9-10-3-21-2-30 1-6 3-10 7-15 11-5 6-10 13-11 20-2 10-1 20 3 29 1 4 5 8 3 12-1 4-5 5-8 6a112 112 0 0 0-42 38c-2 2-4 5-7 3l-5-8c-5-9-7-19-9-28-2-15-2-31 3-46 5-18 15-35 27-49a118 118 0 0 1 76-32zm4 60c10 0 17 6 21 14 4 5 5 12 3 18-3 7-8 13-14 17-6 2-13 2-19 1-8-2-13-9-16-15-3-4-3-9-2-14 1-9 8-17 16-20l11-1zm-265 11c8 0 16 2 22 8 7 5 14 11 15 20 2 8 1 17-1 25-3 7-8 13-15 17-7 5-16 7-24 6-10-1-18-7-24-13-6-7-10-15-10-23 0-10 3-19 9-26s14-11 23-13l5-1zm267 61a81 81 0 0 1 61 29c5 6 10 12 13 20 1 4-2 8-5 10-12 11-26 18-42 23-10 3-21 5-33 5-13-1-27-3-39-9-12-4-22-11-31-19-3-3-6-5-5-9 1-5 4-9 7-13a85 85 0 0 1 50-35c8-2 16-2 24-2z" style="display:inline;fill:#000;stroke-width:0;stroke-miterlimit:4;stroke-dasharray:none;stroke:none;stroke-opacity:1;fill-opacity:1;opacity:1" transform="translate(-14 -14)"/></svg>