<svg xmlns="http://www.w3.org/2000/svg" width="500" height="500"><path d="M245 4c-10 1-21 5-30 10-15 7-27 19-34 34-6 13-6 29 0 43 5 12 13 22 23 30 3 2 5 5 4 9-2 3-6 5-9 5-20 4-40 9-59 15-6 2-12 5-17 9-8 6-14 15-18 25L59 292l-1 17c0 6 2 12 7 16 6 7 15 12 24 13 14 1 26-4 39-8l10-2c4 1 5 8 1 10l-33 18c-19 11-39 20-57 32-7 6-15 13-17 22-4 14 1 30 13 39 9 8 22 12 34 15l36 1 190-1h106c16-1 33-4 47-10 8-5 16-10 20-19 4-8 3-17 0-26s-10-17-18-22l-29-16c-21-11-42-21-61-35-3-2-2-8 2-8l11 2c13 5 27 9 42 7 4 0 9-2 13-5 6-4 12-9 15-16 2-7 0-15 0-22-1-6-4-10-6-16-15-35-29-70-45-104-5-9-13-17-23-21-14-6-28-9-43-12l-31-8c-4-2-3-9 1-11 9-8 19-17 24-29 7-15 6-34-2-49-7-15-22-27-37-33-10-4-20-6-31-7h-15Zm12 11c22 0 45 12 57 32 4 7 5 16 5 24s-1 16-5 22c-8 15-23 26-39 31-21 5-45 1-63-13-8-6-15-15-18-25-2-8-1-17-1-25 1-8 5-16 11-22 12-16 32-24 52-24h1zm0 125c34 0 67 8 100 18 9 2 18 6 25 13 6 7 8 15 12 23l38 95c2 5 4 10 4 15 1 10-8 20-18 20-8 0-17-3-25-5l-120-35-18-2c-9 0-19 2-28 5-40 11-80 25-121 36-7 1-15 2-21-1-8-4-13-15-9-24l17-44c10-26 20-52 32-77 4-7 10-13 18-16l35-10c26-7 52-12 79-11zm-2 31c-8 0-16 7-19 15-7 13-10 29-16 43-3 5-9 6-14 8l-47 16-11 5c-2 2-2 6 1 7 3 2 7 0 10-1l57-18 15-6c3-4 3-9 5-14 5-13 8-27 14-40 3-4 11-3 12 3 5 8 7 18 10 28 3 7 5 15 9 22 2 3 6 3 8 4 20 8 39 14 59 20l12 3c3-1 6-3 5-6-2-3-4-3-7-4-10-5-21-8-32-12l-32-11c-4-3-4-8-6-12-4-14-8-29-16-41-4-6-10-9-17-9zm2 122c12 1 23 6 35 9 15 4 31 8 46 14 5 3 5 9 7 13 5 11 15 18 24 24 16 11 34 20 52 30 10 6 21 12 30 19 7 7 11 17 9 26-2 6-8 9-13 12-12 6-26 7-40 8-27 3-54 2-81 3l-135-1c-9-1-18-6-22-15-2-6-2-14 3-19 6-7 14-9 23-12 16-5 34-7 51-10 28-4 56-7 83-12 3-1 5-4 4-7s-4-4-6-5h-7c-41 6-81 11-121 19-13 3-27 7-38 15-6 4-11 11-11 19-1 7 0 14 3 21 1 2-1 6-3 6h-11c-17 1-35 1-52-2-10-1-21-4-29-11-5-5-7-11-7-17 0-7 2-14 8-18 7-6 15-10 23-15 25-14 50-26 72-44 6-4 11-9 13-17 2-3 3-8 7-10l11-4a1225 1225 0 0 1 72-19z" style="fill:#000;stroke-width:.569968" transform="translate(-6 -3)"/></svg>