<svg xmlns="http://www.w3.org/2000/svg" width="500" height="500"><path d="m224 500-18-2a341 341 0 0 1-52-18 253 253 0 0 1-44-27 256 256 0 0 1-34-36 230 230 0 0 1-21-37 215 215 0 0 1-12-41 301 301 0 0 1-2-50 217 217 0 0 1 13-52 234 234 0 0 1 32-55 3169 3169 0 0 0 38-57 206 206 0 0 0 17-50l2-14 2-7 6-6h9a439 439 0 0 1 45 53l9 21a123 123 0 0 1 6 41v5l9-9 11-16 9-19a113 113 0 0 0 0-68c-1-7-5-19-9-28-4-11-6-16-5-18l4-7c3-2 5-3 8-3a631 631 0 0 1 111 80 516 516 0 0 1 50 59 390 390 0 0 1 44 98 346 346 0 0 1 8 54 218 218 0 0 1-32 122 230 230 0 0 1-32 37 219 219 0 0 1-51 32 280 280 0 0 1-54 17h-15l-6-5-2-6 2-7 5-5 17-4a264 264 0 0 0 51-17 230 230 0 0 0 40-28 176 176 0 0 0 29-37 194 194 0 0 0 21-67 251 251 0 0 0-3-69A294 294 0 0 0 326 84a723 723 0 0 0-52-40l2 12a204 204 0 0 1 2 55 166 166 0 0 1-12 39 161 161 0 0 1-51 55c-6 5-10 7-13 7l-7-2-5-6v-13a296 296 0 0 0 4-40 136 136 0 0 0-7-30 126 126 0 0 0-22-32l-3 10a231 231 0 0 1-40 76 3007 3007 0 0 0-40 63 182 182 0 0 0-15 50 187 187 0 0 0 7 70 183 183 0 0 0 20 41 190 190 0 0 0 120 74l14 3 5 5 2 7c0 3-1 5-3 8-2 2-5 4-8 4zm52-45-7-2c-2-1-5-4-5-6-2-3-2-5 0-9 1-4 3-5 14-11l22-13a242 242 0 0 0 47-49 124 124 0 0 0 17-38c2-3 3-11 3-15l-2-15-5-13-9-11a54 54 0 0 0-33-16 52 52 0 0 0-30 7 74 74 0 0 0-23 25c-4 6-7 9-10 10-2 1-5 2-7 1l-6-3-6-8a75 75 0 0 0-23-25l-13-5c-5-2-10-2-17-2a54 54 0 0 0-44 31c-4 8-4 9-4 24 0 14 0 16 3 24a144 144 0 0 0 36 54 244 244 0 0 0 47 36c8 4 12 7 14 10l1 6-1 6-5 5-6 1-12-4a229 229 0 0 1-56-41 283 283 0 0 1-34-46 172 172 0 0 1-12-36 94 94 0 0 1 3-41l7-16 9-12a81 81 0 0 1 59-27l15 2 19 7c7 4 13 8 19 14l10 9 7-7 15-13 17-8 18-3a88 88 0 0 1 35 5l14 7a98 98 0 0 1 21 21l7 13 6 18c1 8 2 13 1 22l-3 20a161 161 0 0 1-25 48 273 273 0 0 1-58 54 225 225 0 0 1-30 15z" style="fill:#000;stroke-width:1"/></svg>