<svg xmlns="http://www.w3.org/2000/svg" width="500" height="500"><path d="M146 16c-32.1.7-64 13.5-87.5 35.6-21.2 19.5-36 45.9-40.9 74.3-2.2 13.2-1.9 26.7-.7 40 1 9.3 3.6 18.4 6.6 27.3 8.4 25 21.5 48.3 36.5 70 7.9 11.6 16.3 22.8 24 34.3 1.4 2.5.8 5.5-.7 7.7-2.3 3.9-5.3 7.3-8.1 10.8-9 10.8-20 19.8-28.4 31a6.6 6.6 0 0 0-.2 7c1.6 3 4.5 5 6.7 7.5 25 26 51 51.3 76.4 77 18.8 18.8 37.6 37.6 56.7 56.1 3.7 2.6 9 1.4 11.9-2 8-7.2 15.5-15 23.4-22.3 5.3-1.6 10.9-1 16.3-1.3 8.8-.3 17.7-.3 26.3-2.3a70.2 70.2 0 0 0 29.8-16.2c6.4-5.5 12-11.7 18-17.6 39.3-39.6 78.7-79 117.2-119.5 2.6-2.8 4.8-6 6-9.7 2-5.2 2.1-10.9 2.6-16.4.4-3.3 1.7-6.5 3.7-9.2 3.8-5.5 7.6-11 11.2-16.5 14-20.9 26.6-42.9 35-66.6 4.8-13.8 8.1-28.3 8.1-43a125.9 125.9 0 0 0-29-86.4A131.6 131.6 0 0 0 264.3 62c-1.6 1.8-3.2 3.8-5 5.6-1.4 1.3-3.9 1.7-5.4.2-2.5-2-4.1-4.7-6.4-7A132.4 132.4 0 0 0 146 16Zm221.6 22.3A113.2 113.2 0 0 1 475.7 142c1.4 17.9-1.8 36-8.3 52.7a286 286 0 0 1-32.4 60.9c-1.5 2-2.8 4.1-4.7 5.7-2.8 1.7-6.4.6-8.6-1.4-2.8-1.9-6.2-3.3-7.8-6.4-1.1-2.9.7-6 3-7.8 6.8-6.6 12.1-15 13.1-24.5 1.1-9.4-1-19.3-7-26.8-4-5.3-9.5-9.5-15-13-2.5-2-2.7-5.7-1.4-8.3 4-8.9 5.2-19.2 2.3-28.5a37 37 0 0 0-30-25.7c-8-1.1-16.2.3-23.8 3.2-2.9 1.4-6.4 0-8.3-2.4-1-1.4-1.6-3-2.7-4.3-5.2-7.7-13-14-22-16.4a36.2 36.2 0 0 0-31.4 6c-6.5 5.5-12.3 11.8-18.5 17.7-31 30.4-61.8 61.3-92.8 91.7-3.1 2.2-8-.8-7.7-4.5-.5-12.2 0-24.5-2.6-36.4a57.1 57.1 0 0 0-35.2-39c-7.3-2.6-15.4-4-23.3-3A18 18 0 0 0 96.7 142a18.3 18.3 0 0 0-1.3 7.9c-.3 12.9-.3 25.8-.5 38.7l-.6 75.8c-.3 3.4-5 4.9-7.5 2.7-1.8-1.6-2.6-3.9-4-5.7A323.8 323.8 0 0 1 49 201.6c-6.7-16.5-11.5-34-11.5-51.9-.1-35 17.5-69.6 46.2-89.8a113 113 0 0 1 82.1-20c29 4.3 55.9 20.6 73.2 44 3.8 5 7.2 10.3 11.2 15 4 3.4 11 2.4 13.7-2.2 6.2-8.2 11.9-17 19.5-24a108.7 108.7 0 0 1 41-27.2c13.7-5.1 28.4-7.6 43.1-7.2zm-55.4 78.8c10-.2 19.2 8.7 19.3 18.7 0 5.7-3.4 10.8-7.3 14.8-22.6 23.8-46.3 46.7-69 70.4-3.9 4.1-7.8 8.1-11.5 12.3a7 7 0 0 0 .3 8c2.5 3.7 7.8 5.4 11.7 3 2.5-1.6 4.3-4.1 6.5-6 32.9-32 65-64.7 98.3-96.2a19.4 19.4 0 0 1 27.9 2.3c4.9 6.4 5.3 15.9.6 22.4-2.6 3.8-6.3 6.6-9.3 10-31.7 32-63.7 64-95.7 95.7-.2 3-1 6.4.8 9.2 2 2.8 5.9 4.6 9.4 3.5 5.2-2.8 8.8-7.7 13.3-11.5 25.2-24.2 49.3-49.6 75.4-73 5.4-4.3 13.3-5 19.4-1.6 7.4 3.8 12 12.9 10 21.1-.9 4-3.5 7.1-6.2 10l-11.7 12.2c-23 23.7-47 46.5-69.5 70.8-3.2 4.5 0 11.6 5.4 12.5a10 10 0 0 0 9.8-3.7c14.6-13.7 28.5-28.2 43.3-41.7 3-2.6 6-5.3 9.1-7.6a18.2 18.2 0 0 1 20.6 3.4c5.4 5 7.8 13.3 4.7 20.1-2.3 5.1-6.9 8.7-10.5 12.8-30.3 31-61.3 61.3-92.3 91.6-13.5 13-27 26.1-40.9 38.7a47 47 0 0 1-28.2 8c-10.4.3-20.7.4-31 1.2-4.2 1.9-7 5.7-10.4 8.4l-11.6 10.8c-2.6 1-5.2-.9-6.9-2.8-37.7-37.2-75.4-74.4-113-111.9-1.3-2.7.2-6 2.5-7.5a132 132 0 0 0 28-36.5 105.7 105.7 0 0 0 10.6-50c.5-34.4.3-68.8 1.6-103.3.2-3 4-5.2 6.8-4a40.8 40.8 0 0 1 28.9 29c.9 6.2.2 12.5.6 18.8l.8 48.1c1.5 4.1 5.6 7.3 10 7 4-1.5 6.6-5.2 9.8-7.8 30.6-29.3 60.3-59.3 90.5-88.9 12.5-12.2 25-24.3 37.9-36a19 19 0 0 1 11.2-4.8z" style="fill:#000;fill-opacity:1;stroke:none;stroke-width:0;stroke-miterlimit:4;stroke-dasharray:none" transform="translate(-6 -6)"/></svg>