<svg xmlns="http://www.w3.org/2000/svg" width="500" height="500"><path d="M44.6 470H14.7l-2.3-2.3-2.4-2.2.3-27.6.3-27.6 3-6c1.6-3.3 4.6-7.8 6.7-10a43 43 0 0 1 9.6-7c4.4-2.2 9-3.4 19.4-5.3l13.8-2.3.2-4.7c.3-4.7.3-4.7-5.3-10-4-3.7-6.7-7.3-9-12-1.9-3.9-3.7-9.3-4.3-13.3-.7-4.2-.9-13-.6-23.3.4-13.3.8-17.8 2.4-22.3 1-3 3.2-7.6 4.8-10a49.6 49.6 0 0 1 15.4-14c2.4-1.4 6.8-3.2 9.8-4l5.3-1.6.5-69.6c.4-64.2.6-69.7 2.1-72.4a32 32 0 0 1 12.3-11.7c4.7-2.4 5.2-2.4 24.6-2.7l19.8-.3.5-6a104.9 104.9 0 0 1 9-30.5c2.1-4.2 6.2-11 9-15.2a119.8 119.8 0 0 1 26.8-26.3c3.8-2.6 10.5-6.4 14.9-8.6 4.4-2 11.5-4.9 15.9-6.2a136.6 136.6 0 0 1 32.8-5 136.6 136.6 0 0 1 32.8 5c4.4 1.3 11.5 4.1 16 6.2 4.3 2.2 11 6 15 8.6a122 122 0 0 1 26.7 26.4c2.7 4 6.8 10.9 8.8 15a104.9 104.9 0 0 1 9 30.5l.6 6 19.8.4c19.4.3 20 .3 24.6 2.7 2.6 1.3 6.1 4 7.8 5.8 1.7 1.8 3.8 4.8 4.6 6.5 1.4 2.9 1.6 11.1 2 72.3l.5 69 5.1 1.6a70 70 0 0 1 9 3.4 51.7 51.7 0 0 1 16.2 14.4 56 56 0 0 1 4.9 10.1c1.8 5 2.1 8.4 2.5 22.5.3 10.2 0 19.2-.6 23.3-.6 4-2.4 9.4-4.3 13.4-2.3 4.6-5 8.2-9 11.9-5.6 5.3-5.6 5.3-5.3 10l.2 4.6 13.6 2.4c7.5 1.3 15.6 3.3 18 4.4a35.4 35.4 0 0 1 17.3 16.9l3.6 6.9.3 27.6.3 27.7-2.4 2.2-2.3 2.3h-30c-28.8 0-30 0-32.3-1.9a5.4 5.4 0 0 1-2.5-4.8c0-2.2.7-3.6 2.5-5 2.2-1.5 3.8-1.8 12.7-1.8h10.1v-9.9c0-8.6.3-10 2-11.6 1-1 3-1.8 4.5-1.8s3.7.7 5 1.7c2 1.6 2.1 2.5 2.4 11.7l.4 10H476l-.4-22.3c-.2-19.6-.5-22.6-2-25.4-1-1.7-2.9-4.3-4.2-5.7-1.4-1.4-4-3.3-6-4.2-1.8-1-9.1-2.8-16.1-4a372 372 0 0 0-13.6-2.3c-.5 0-4.5 5-9 11s-8.8 11.6-9.6 12.2c-.8.6-2.8 1-4.4 1-1.9 0-3.6-.6-4.8-2-1-1-5.2-6.4-9.2-11.8l-7.6-10.2a175.2 175.2 0 0 0-27.7 4.9c-2.4.7-6 2.8-7.9 4.6-2 1.8-4.4 5-5.5 7.3-1.8 3.8-2 6-2.3 25.5l-.3 21.3h17v-9.7c0-9 .2-9.9 2.2-11.7 1.2-1 3.3-2 4.7-2a8 8 0 0 1 4.9 2.3c2.1 2 2.3 2.8 2.3 11.6v9.5h9.8a73 73 0 0 1 11.2.6c.9.3 2.2 1.7 3 3.2 1.2 2.2 1.2 3.2.3 5.3a8 8 0 0 1-2.8 3.5c-1 .5-14.2.9-31.6.9-28.7 0-30 0-31.9-1.8-2-1.8-2-2.2-2-29.3 0-24.7.1-27.8 1.8-32.3 1-2.7 3.4-7 5.3-9.5a40.1 40.1 0 0 1 18.4-12.5l15-3 11.5-2 .2-4.7c.3-4.7.3-4.8-5.7-10.8a55 55 0 0 1-8-10.3 58.7 58.7 0 0 1-3.5-9c-1-3.3-1.3-10.2-1.3-24 0-10.6.5-21 1-23.3a44 44 0 0 1 23.7-28.7c3.4-1.5 7.7-3 9.5-3.4l3.3-.5v-67.5c0-66 0-67.5-2-70.4-1-1.7-3.3-3.6-5.1-4.3-2.6-1-7-1.3-20.3-1.1l-17 .2-1.3 8.6a110 110 0 0 1-10.6 31.7c-2.1 4-5.6 9.6-7.7 12.7-2.1 3-8.8 10.3-14.7 16.2-6 6-12.2 12.6-13.8 14.9a106.9 106.9 0 0 0-10.7 20.5c-1 2.7-1.8 5.4-1.8 6.1 0 .7 1 1.2 2.2 1.2 1.2 0 3.6 1 5.3 2 1.7 1.1 3.9 3.5 4.8 5.2 1.4 2.5 1.8 5.1 1.8 13.3 0 6.6-.5 11.1-1.3 13.1-.7 1.7-2.7 4-4.5 5.2a23.7 23.7 0 0 1-6.4 3.1l-3.2.8-2.6 15.4c-1.3 8.4-3.1 16.5-3.9 18-.7 1.4-2.1 3.2-3 4-1 .8-3.2 2.1-4.8 2.9-2.1 1-5.5 1.5-11.4 1.5-8 0-8.5-.2-10.4-2.4-1-1.3-2-3.3-2-4.4 0-1.1.9-3 1.8-4.1 1.5-1.8 2.9-2.2 9.6-2.6l7.9-.5 2-11.6c1.1-6.5 2.1-12.8 2.1-14.2l.1-2.5h-33.3c-31.3 0-33.3.1-32.9 1.6.2.9 1.2 6.4 2 12.4 1 5.9 2 11.6 2.4 12.7.7 1.7 1.6 2 8.4 2.2 6.7.3 7.9.6 9.4 2.5 1 1.1 1.8 3 1.8 4.1 0 1.1-.8 3-2 4.4-1.7 2.2-2.3 2.4-10.2 2.4-4.5 0-9.4-.5-10.9-1s-4-2.2-5.7-3.7c-1.6-1.6-3.4-4-4-5.6A165 165 0 0 1 205 293c-1-6.7-2.1-13.2-2.4-14.5-.4-1.9-1.3-2.6-4.4-3.3-2.2-.6-5.1-2.1-6.5-3.5-1.4-1.4-3-3.6-3.5-5s-1-7-1-12.6c0-8.1.4-10.7 1.8-13.2 1-1.7 3-4 4.8-5.2 1.7-1 4-2 5.3-2 1.2 0 2.2-.5 2.2-1.2s-.8-3.4-1.8-6a103.4 103.4 0 0 0-10.7-20.6c-1.6-2.3-7.8-9-13.8-14.9-6-5.9-12.6-13.2-14.7-16.3a121.2 121.2 0 0 1-14.7-29c-1.4-4.2-3-11.3-3.7-15.8l-1.2-8-17-.3c-13.3-.2-17.7 0-20.3 1-1.8.8-4.1 2.7-5.2 4.4-1.8 2.9-1.9 4.3-1.9 70.4V265l3.3.5a45.4 45.4 0 0 1 33.2 32.1c.5 2.2 1 12.7 1 23.4 0 13.7-.4 20.6-1.3 24-.7 2.6-2.3 6.6-3.4 8.9A55 55 0 0 1 121 364c-6 6-6 6-5.7 10.8l.2 4.8 4.3.7 13.9 2.5c5.3 1 11.8 2.8 14.4 4.1 2.6 1.3 6.7 4.2 9 6.6 2.4 2.3 5.6 6.6 7.2 9.5l2.8 5.4.3 28.9.2 28.9-2 1.8c-2.1 1.8-3 1.9-31.9 1.9-16.3 0-30.4-.3-31.2-.6-.9-.3-2.2-1.7-3-3a7.4 7.4 0 0 1-.7-5 7.3 7.3 0 0 1 2.5-3.6c1.5-1 4.7-1.3 12.1-1.3h10.1V447c0-8.8.2-9.6 2.3-11.6a7.9 7.9 0 0 1 5-2.2c1.6 0 3.5.8 4.7 2 1.8 2 2 3.1 2 11.7v9.6h17.1l-.3-21.3c-.3-19.5-.5-21.7-2.3-25.5-1.1-2.2-3.6-5.5-5.5-7.3-2-1.8-5.5-3.9-7.9-4.6a176.8 176.8 0 0 0-27.7-5l-7.6 10.3c-4 5.4-8.1 10.8-9.2 11.9-1.2 1.3-3 2-4.8 2-1.6 0-3.6-.5-4.4-1.1-.8-.6-5-6.1-9.6-12.2-4.5-6-8.5-11-8.9-11L52.8 395c-7.1 1.3-14.5 3-16.3 4-1.9.9-4.5 2.8-5.9 4.2-1.3 1.4-3.2 4-4.2 5.7-1.5 2.8-1.8 5.8-2 25.4l-.3 22.2H40l.3-10c.3-9.1.4-10 2.5-11.6 1.2-1 3.4-1.7 5-1.7 1.4 0 3.5.8 4.5 1.8 1.6 1.5 1.9 3 1.9 11.6v10h10.1c9 0 10.5.2 12.7 1.8a5.4 5.4 0 0 1 2.5 4.9c0 2.1-.7 3.5-2.5 4.8-2.4 1.8-3.5 1.9-32.4 1.9Zm46-73c1-1.1 3.6-4.7 6-8 3.5-4.6 4.4-6.7 4.4-9.5V376l-6.2.9c-4 .6-8 .6-11.7 0l-5.5-.9v3.9c0 3.2.8 5 5.7 11.5L89 399zm320.2 2c.1 0 2.8-3.4 5.9-7.6 4.9-6.5 5.7-8.3 5.7-11.5V376l-5.5.9c-3.7.6-7.7.6-11.7 0l-6.2-.9v3.5c0 2.9 1 5 5.8 11.5l6 8zM91 363.6a28 28 0 0 0 11.4-2.7 31.7 31.7 0 0 0 15.5-16.1c1.4-3.6 2-7.2 2-12.1v-7l-3.2-1c-1.8-.7-5-2.8-7.4-4.7l-4.2-3.6-6 2.3a130.3 130.3 0 0 1-33.4 7.2l-8 .6.6 7.6c.4 5.1 1.3 9 2.8 12.2 1.2 2.6 3.6 6.2 5.1 7.9a34 34 0 0 0 7.9 5.7c2.7 1.4 6.2 2.9 7.7 3.3 1.6.4 5.7.6 9.2.4zm321.9 0c5.3-.3 8-1 12.4-3.3 3.1-1.6 7-4.3 8.6-6 1.6-1.8 4-5.4 5.2-8 1.5-3.2 2.4-7 2.8-12.3l.6-7.6-4.7-2.3c-2.6-1.2-6-3.5-7.6-5l-2.8-2.7-7.8 2.8a145.3 145.3 0 0 1-32.1 6.7l-7.4.6.4 8.2a25.4 25.4 0 0 0 9.5 21c2.3 2 5.1 4.1 6.4 4.7 1.2.7 3.9 1.7 6 2.4 2.3.7 6.3 1 10.5.8zM61.4 312.8a175.5 175.5 0 0 0 25.6-4.2c2.8-.8 8.6-3 13-5 7-3.2 8-3.4 10.5-2.4 1.6.6 3.5 2.5 4.5 4.3a18 18 0 0 0 3.4 4.6c1.5 1.2 1.6 1 1.2-5a26.7 26.7 0 0 0-8.9-18.7c-2-1.9-5.7-4.5-8.3-5.8-4-2-5.8-2.4-13.1-2.4s-9.1.3-13.7 2.5c-3 1.4-6.9 4.1-8.8 6.2-2 2-4.5 5.8-5.8 8.4a35.6 35.6 0 0 0-2.8 11.1l-.6 6.4zm326.4-.4a114.7 114.7 0 0 0 33.7-8.6c6.8-3.2 8.4-3.6 10.5-2.8 1.4.5 3.5 2.5 4.8 4.3 1.2 2 3 4 4 4.8 1.5 1.3 1.6 1 1-4.4-.4-3.2-1.7-8-2.9-10.5a39.4 39.4 0 0 0-5.7-8.3c-1.9-2-5.8-4.8-8.8-6.2-4.6-2.2-6.4-2.5-13.7-2.5-7.3 0-9 .3-13.1 2.4-2.6 1.3-6.3 3.9-8.3 5.8-2 1.9-4.7 5.5-6 8a25.6 25.6 0 0 0-2.9 11.5l-.4 7.1zm-137.8-50h48.8l-.3-7.8-.2-7.9h-96.6l-.2 7.9-.3 7.9zm-27.6-28.7h5.1v-35.5c0-19.5-.2-35.5-.4-35.5-.3 0-2 1-4 2.3-1.8 1.2-4.4 2.5-5.7 2.8-1.2.3-3.8.1-5.7-.4-2.2-.7-5.7-3.3-9.9-7.3-6-5.7-6.4-6.5-6.9-10.8-.4-4.2-.1-5 3-9.4 1.8-2.6 3.4-5.1 3.4-5.6 0-.6-2.2-1.3-4.9-1.6-2.6-.3-6-1.2-7.5-2-1.5-.7-3.5-2.6-4.5-4.2-1.5-2.3-1.9-4.5-1.9-11.7 0-7.4.4-9.4 2-11.9a11 11 0 0 1 5.8-4.3c2.2-.7 5.5-1.6 7.5-1.9 1.9-.3 3.5-1 3.5-1.4 0-.5-1.5-3-3.3-5.5-2.4-3.3-3.3-5.5-3.3-8 0-2 .6-4.7 1.3-6 .8-1.4 3.6-4.5 6.4-7 2.7-2.6 5.9-5.1 7-5.7 1.1-.5 3.7-1 5.8-1 2.7 0 5 .9 8.6 3.1a31 31 0 0 0 5.6 3.2c.4 0 1-.7 1.3-1.4.3-.8.6-2.5.6-3.8 0-1.3.8-4 1.8-6s3.1-4.4 4.6-5.2c2.1-1.2 5-1.6 12.7-1.6 10 0 10 0 13.2 3 2.6 2.3 3.5 4 4.3 8.3.6 3 1.4 5.7 1.9 6.2.4.4 2.9-.6 5.7-2.5 4-2.6 5.8-3.3 9.3-3.3 3.5 0 5.2.6 8.4 3 2.2 1.5 5.7 4.8 7.8 7.2 3.4 3.9 3.8 4.9 3.8 9 0 4-.5 5.3-3.5 9.3-3.3 4.2-3.4 4.7-2 5.5 1 .4 3.6 1 5.9 1.3 2.3.3 5.2 1.3 6.6 2.2 1.3 1 3.1 3.1 4 4.8 1.2 2.2 1.7 5.2 1.7 10.6 0 5-.5 8.5-1.5 10.5-.9 1.7-2.9 3.8-4.5 4.8s-5.1 2-7.9 2.3c-2.7.4-5 1-5.3 1.3-.2.4 1 2.6 2.8 5 1.7 2.3 3.4 5.4 3.7 6.8.4 1.5.3 4 0 5.6-.4 1.8-3 5.1-6.8 9a33.5 33.5 0 0 1-9.3 7c-1.8.5-4.6.7-6.3.4-1.6-.3-4.4-1.5-6.2-2.7a15 15 0 0 0-3.9-2.3c-.4 0-.7 15.9-.5 35.3l.2 35.3h11.2l3.9-10.4c2-5.7 4.6-11.7 5.5-13.5 1-1.7 3.5-5.8 5.8-9.2 2.2-3.3 9-11 15.1-17 6.1-6.1 13-13.7 15.2-16.8a103.9 103.9 0 0 0 13.6-29 88.3 88.3 0 0 0-13-72.8c-2.8-4.1-7.8-10.1-11.1-13.4-3.3-3.2-8.4-7.6-11.4-9.7a112.3 112.3 0 0 0-26-13.2c-3.8-1.2-10.4-2.8-14.8-3.5-4.3-.7-11.5-1.3-16-1.3s-11.8.6-16.2 1.3c-4.4.7-11.5 2.6-15.8 4a119 119 0 0 0-14 6.1 96.7 96.7 0 0 0-35.8 33.3 94.4 94.4 0 0 0-10 22.4 89 89 0 0 0-3.2 30.8 114 114 0 0 0 2.7 16c1.2 4.5 3.9 11.6 6 15.7 2 4.2 5.4 10.2 7.6 13.3 2.3 3.1 9 10.7 15.2 16.7 6 6 13 13.9 15.3 17.3a107.1 107.1 0 0 1 11.6 23.9c1.2 3.4 2.6 7 3 7.8.7 1.2 2 1.6 6 1.6zm28-.2 7.6-.2.2-26.8.3-26.7h-16.9v26.4c0 14.4.3 26.6.6 27 .4.3 4 .5 8.2.3zm-.5-67.2h4.5l.7-4.6c.3-2.6 1.2-5.8 2-7.2a15 15 0 0 1 6-4.8c2.6-1.2 6-2.2 7.7-2.2 1.9 0 5.2 1.2 8.5 3.2l5.5 3.2 2.8-2.5c1.5-1.4 2.7-2.8 2.7-3.2 0-.4-1.3-2.4-2.8-4.5a21 21 0 0 1-3.4-7.2c-.4-2.4 0-4.5 1.8-8.2 1.6-3.4 3.3-5.4 5.3-6.4a28 28 0 0 1 7.6-2l4.6-.5V115c0-4.3 0-4.3-3.5-4.9-2-.3-4.8-1-6.4-1.4a13 13 0 0 1-4.9-2.8c-1-1.1-2.6-3.8-3.5-5.9-1-2.4-1.4-5-1-7 .2-1.6 1.8-4.9 3.5-7.1l3-4-3-3.1-3.2-3.1-4.6 3c-3.6 2.5-5.7 3.2-8.9 3.2A21 21 0 0 1 263 80c-2-1-4.5-3-5.5-4.6-1-1.5-2-4.7-2.4-7.1l-.6-4.4H250c-2.5 0-4.6.1-4.6.3l-1 5c-.4 2.6-1.7 5.9-2.7 7.2-1 1.4-3.6 3.2-5.7 4a26 26 0 0 1-7.7 1.5c-3 0-5-.8-8.6-3.2l-4.6-3.1-3 2.8c-1.8 1.6-2.9 3.3-2.5 3.9L213 87c2 2.7 2.7 5 2.7 7.6 0 2-.9 5.4-2 7.5-1 2-3 4.3-4.3 5.2-1.3.8-4.6 1.9-7.2 2.3l-5.2 1c-.2 0-.3 1.9-.3 4.3v4.4l5.2.6c3.9.5 6 1.3 8.4 3.4 2.1 1.7 3.7 4.2 4.6 7a12 12 0 0 1 .5 7.4c-.5 1.6-2.1 4.5-3.7 6.6L209 148l3.1 3 3.2 2.8 4.4-2.9c2.6-1.7 6-3 8.3-3.3 2.8-.3 5 .2 8 1.7 2.4 1.2 5.1 3.4 6.2 5 1.1 1.5 2.3 4.9 2.7 7.4l.6 4.5zm-.2-30.5c-3.5 0-6.4-.7-10-2.4-2.8-1.4-6-3.8-7.5-5.9a21.7 21.7 0 0 1-4.2-15.8c.3-1.8 1.4-4.7 2.3-6.4 1-1.8 3-4.3 4.4-5.6a33 33 0 0 1 6-4c2.1-1.1 5.2-1.6 9.3-1.6a20.3 20.3 0 0 1 16.4 6.8c1.5 1.6 3.2 4.3 3.9 5.9a25 25 0 0 1-.5 16.8c-1 2-3.2 5-5 6.5a26.7 26.7 0 0 1-6.6 4.3c-1.9.7-5.7 1.4-8.5 1.4zm.4-13.6c2.3 0 4-.5 5.3-2 1-1 2-2.8 2.1-3.7.1-1 .2-2.6.1-3.5 0-.8-1.1-2.6-2.4-3.8a7.7 7.7 0 0 0-5.2-2.2c-2 0-3.8.9-5.7 2.6-1.5 1.5-2.7 3.5-2.7 4.6 0 1 .6 3 1.4 4.5.7 1.4 1.9 2.7 2.5 3 .7.2 2.7.5 4.6.5z" style="fill:#000;stroke-width:.999992"/></svg>