<?xml version="1.0" encoding="UTF-8" standalone="no"?>
<!-- Created with Inkscape (http://www.inkscape.org/) -->

<svg
   version="1.1"
   id="svg1977"
   width="500"
   height="500"
   viewBox="0 0 500 500"
   sodipodi:docname="CSSIcon.svg"
   inkscape:version="1.1.2 (0a00cf5339, 2022-02-04)"
   xmlns:inkscape="http://www.inkscape.org/namespaces/inkscape"
   xmlns:sodipodi="http://sodipodi.sourceforge.net/DTD/sodipodi-0.dtd"
   xmlns="http://www.w3.org/2000/svg"
   xmlns:svg="http://www.w3.org/2000/svg">
  <defs
     id="defs1981" />
  <sodipodi:namedview
     id="namedview1979"
     pagecolor="#ffffff"
     bordercolor="#666666"
     borderopacity="1.0"
     inkscape:pageshadow="2"
     inkscape:pageopacity="0.0"
     inkscape:pagecheckerboard="0"
     showgrid="false"
     inkscape:zoom="1.4208985"
     inkscape:cx="272.71476"
     inkscape:cy="273.06665"
     inkscape:window-width="1920"
     inkscape:window-height="1011"
     inkscape:window-x="0"
     inkscape:window-y="0"
     inkscape:window-maximized="1"
     inkscape:current-layer="g1983" />
  <g
     inkscape:groupmode="layer"
     inkscape:label="Image"
     id="g1983">
    <path
       style="display:inline;fill:#2196f3;fill-opacity:1;stroke-width:0.999997"
       d="m 249.10378,494.99976 c -0.35362,-0.0576 -42.40352,-10.37833 -93.4442,-22.93489 C 104.61891,459.50832 62.676912,449.07588 62.455157,448.88167 62.233401,448.68746 52.873715,357.60768 41.655852,246.48216 30.437991,135.35663 20.976299,42.312697 20.62987,39.717869 L 20,35 h 230 230 l -0.63093,4.717869 c -0.34701,2.594828 -9.82228,95.650651 -21.05616,206.790721 -11.23389,111.14006 -20.59888,202.22491 -20.81112,202.41078 -0.21223,0.18587 -42.54395,10.65357 -94.07047,23.26156 -51.52652,12.608 -93.97391,22.87646 -94.32754,22.81883 z m 0.10476,-88.04077 c 0.97559,0.0433 27.98837,-6.24893 60.02838,-13.98266 32.04002,-7.73373 58.6467,-14.3654 59.12599,-14.73704 0.47929,-0.37165 3.1221,-22.65455 5.87292,-49.51758 2.75081,-26.86301 8.46364,-83.0127 12.69517,-124.77707 4.23154,-41.76437 7.95379,-77.85607 8.27167,-80.20377 l 0.57798,-4.26855 H 249.9346 104.08855 l 0.60609,5.16719 c 0.33336,2.84196 1.07144,11.63741 1.64018,19.54545 0.56874,7.90805 1.29461,16.47701 1.61304,19.04214 l 0.57896,4.66388 112.41266,-0.54051 112.41265,-0.5405 -0.58304,2.61644 c -0.32066,1.43905 -1.38868,12.99232 -2.37339,25.67394 l -1.79036,23.05749 -13.39298,0.51681 c -7.36614,0.28424 -43.86893,0.72909 -81.11731,0.98854 -37.24839,0.25945 -79.51198,0.72265 -93.91907,1.02933 l -26.19472,0.55758 2.78706,22.57507 c 1.53288,12.41629 2.81545,23.18165 2.85016,23.92303 0.0557,1.19087 11.95579,1.31307 102.11218,1.04862 l 102.04909,-0.29934 -0.50696,2.99527 c -0.27882,1.64739 -2.32335,17.51029 -4.54339,35.25089 -2.22004,17.7406 -4.16245,32.32557 -4.31646,32.41105 -0.15402,0.0855 -14.38396,3.46465 -31.62208,7.50926 -17.23813,4.04463 -32.01435,7.35423 -32.83605,7.3547 -0.82169,4.6e-4 -15.57758,-3.30381 -32.79085,-7.34284 -17.21327,-4.03904 -31.42795,-7.42303 -31.58818,-7.52001 -0.16024,-0.097 -1.22403,-9.22764 -2.36398,-20.29039 -1.13995,-11.06274 -2.26419,-20.61956 -2.49831,-21.23738 -0.32705,-0.86306 -7.08953,-1.1233 -29.18942,-1.1233 h -28.76375 l 0.0229,2.02195 c 0.0126,1.11207 1.80954,19.33308 3.99318,40.49115 2.18363,21.15807 4.28832,38.74898 4.6771,39.09091 0.38878,0.34194 26.64358,6.95543 58.34401,14.69664 31.70043,7.74121 58.43537,14.11033 59.41099,14.15361 z"
       id="path18736" />
  </g>
</svg>
