<?xml version="1.0" encoding="UTF-8" standalone="no"?>
<!-- Created with Inkscape (http://www.inkscape.org/) -->

<svg
   version="1.1"
   id="svg2044"
   width="500"
   height="500"
   viewBox="0 0 500 500"
   sodipodi:docname="javaScriptIcon.svg"
   inkscape:version="1.1.2 (0a00cf5339, 2022-02-04)"
   xmlns:inkscape="http://www.inkscape.org/namespaces/inkscape"
   xmlns:sodipodi="http://sodipodi.sourceforge.net/DTD/sodipodi-0.dtd"
   xmlns="http://www.w3.org/2000/svg"
   xmlns:svg="http://www.w3.org/2000/svg">
  <defs
     id="defs2048" />
  <sodipodi:namedview
     id="namedview2046"
     pagecolor="#ffffff"
     bordercolor="#666666"
     borderopacity="1.0"
     inkscape:pageshadow="2"
     inkscape:pageopacity="0.0"
     inkscape:pagecheckerboard="0"
     showgrid="false"
     inkscape:zoom="0.57058824"
     inkscape:cx="600.25773"
     inkscape:cy="399.58763"
     inkscape:window-width="1920"
     inkscape:window-height="1011"
     inkscape:window-x="0"
     inkscape:window-y="0"
     inkscape:window-maximized="1"
     inkscape:current-layer="g2050" />
  <g
     inkscape:groupmode="layer"
     inkscape:label="Image"
     id="g2050">
    <path
       style="display:inline;fill:#d4b830;fill-opacity:1;stroke-width:1"
       d="m 250.00106,494.60569 c -0.37599,0.52238 -0.45438,0.52464 -0.46089,0.0132 -0.006,-0.39341 -0.37897,-0.53101 -1.03382,-0.38032 -0.63987,0.1472 -0.90047,0.0574 -0.69249,-0.23867 0.22062,-0.31402 -0.14068,-0.37 -1.06751,-0.16536 -1.02208,0.22571 -1.29836,0.1633 -1.02156,-0.23075 0.26645,-0.37927 0.05,-0.46434 -0.7267,-0.28565 -0.70153,0.16141 -0.98425,0.081 -0.77292,-0.21982 0.21382,-0.30435 -0.14777,-0.39344 -1.00904,-0.24857 -0.82203,0.13824 -1.2193,0.0507 -1.02499,-0.22592 0.20078,-0.28578 -0.19711,-0.33801 -1.08374,-0.14227 -1.02208,0.22572 -1.29836,0.16331 -1.02155,-0.23074 0.26645,-0.37927 0.05,-0.46434 -0.72669,-0.28564 -0.70203,0.1615 -0.98431,0.0811 -0.77266,-0.22024 0.22062,-0.31402 -0.14067,-0.36996 -1.06751,-0.16536 -1.02208,0.22571 -1.29838,0.1633 -1.02155,-0.23072 0.2664,-0.37924 0.0502,-0.46441 -0.726,-0.28581 -0.60798,0.13986 -1.10542,0.0467 -1.10542,-0.20708 0,-0.25375 -0.46168,-0.35512 -1.02598,-0.22533 -0.64614,0.14866 -0.90114,0.0584 -0.68878,-0.24394 0.21604,-0.30753 -0.06,-0.38858 -0.76825,-0.22561 -0.60797,0.13983 -1.10541,0.0467 -1.10541,-0.2071 0,-0.25372 -0.46168,-0.35513 -1.02597,-0.22531 -0.6394,0.1471 -0.90043,0.0573 -0.69275,-0.23826 0.21381,-0.30438 -0.14778,-0.39344 -1.00906,-0.24861 -0.83147,0.13983 -1.22011,0.0519 -1.02128,-0.23115 0.19669,-0.27999 -0.10708,-0.3584 -0.78446,-0.20254 -0.60797,0.13983 -1.10542,0.0467 -1.10542,-0.20711 0,-0.25371 -0.46168,-0.35512 -1.02598,-0.2253 -0.64613,0.14863 -0.90113,0.0584 -0.68877,-0.24393 0.21602,-0.30754 -0.06,-0.38858 -0.76825,-0.22565 -0.60797,0.13987 -1.10542,0.0467 -1.10542,-0.20711 0,-0.25371 -0.46168,-0.35508 -1.02596,-0.2253 -0.63988,0.14721 -0.90048,0.0574 -0.69249,-0.23867 0.22062,-0.31401 -0.14067,-0.37 -1.06752,-0.16536 -1.02209,0.22571 -1.29837,0.1633 -1.02156,-0.23074 0.26641,-0.37925 0.0502,-0.46438 -0.72599,-0.28579 -0.60798,0.13986 -1.10542,0.0467 -1.10542,-0.2071 0,-0.25372 -0.46169,-0.3551 -1.02597,-0.22531 -0.63987,0.1472 -0.90048,0.0574 -0.69249,-0.23866 0.22062,-0.31406 -0.14067,-0.37 -1.06751,-0.16537 -1.02208,0.22568 -1.29837,0.16327 -1.02156,-0.23075 0.26644,-0.37927 0.05,-0.46434 -0.7267,-0.28564 -0.70152,0.1614 -0.98424,0.081 -0.77291,-0.21983 0.21381,-0.30435 -0.14778,-0.39345 -1.00905,-0.2486 -0.83148,0.13986 -1.22011,0.0518 -1.02128,-0.23112 0.19671,-0.28004 -0.10719,-0.35841 -0.78518,-0.20241 -0.70152,0.16137 -0.98424,0.081 -0.77292,-0.21986 0.21383,-0.30435 -0.14776,-0.39344 -1.00903,-0.24858 -0.82204,0.13824 -1.21929,0.0507 -1.02499,-0.22587 0.20078,-0.28582 -0.19711,-0.33804 -1.08373,-0.14226 -1.0221,0.22567 -1.29838,0.16326 -1.02157,-0.23079 0.26645,-0.37927 0.05,-0.46434 -0.7267,-0.28561 -0.70202,0.16151 -0.98429,0.0811 -0.77265,-0.22023 0.22063,-0.31406 -0.14066,-0.37004 -1.0675,-0.16536 -1.02209,0.22566 -1.29837,0.16327 -1.02156,-0.23079 0.26641,-0.3792 0.0502,-0.46434 -0.72599,-0.28579 -0.60798,0.13987 -1.10543,0.0468 -1.10543,-0.20703 0,-0.25375 -0.46169,-0.35515 -1.02596,-0.22534 -0.63987,0.1472 -0.90048,0.0574 -0.69249,-0.23866 0.22062,-0.31406 -0.14067,-0.37004 -1.06751,-0.16537 -1.02209,0.22568 -1.29837,0.16327 -1.02157,-0.23078 0.26645,-0.37928 0.05,-0.46431 -0.72669,-0.28561 -0.70153,0.16138 -0.98425,0.081 -0.77293,-0.21986 0.21382,-0.30435 -0.14776,-0.3934 -1.00903,-0.24857 -0.83149,0.13983 -1.22012,0.0518 -1.0213,-0.23116 0.1967,-0.27996 -0.10707,-0.3584 -0.78445,-0.20257 -0.60798,0.13989 -1.10542,0.0467 -1.10542,-0.20704 0,-0.25375 -0.4617,-0.35515 -1.02597,-0.22533 -0.64616,0.14865 -0.90115,0.0584 -0.68879,-0.24395 0.21603,-0.30749 -0.06,-0.3886 -0.76824,-0.22564 -0.60799,0.13986 -1.10542,0.0467 -1.10542,-0.20707 0,-0.25375 -0.46169,-0.35515 -1.02598,-0.22534 -0.63939,0.14711 -0.90041,0.0573 -0.69275,-0.23826 0.21381,-0.30435 -0.14778,-0.39344 -1.00904,-0.2486 -0.83148,0.13986 -1.22011,0.0519 -1.0213,-0.23112 0.19669,-0.28001 -0.10707,-0.35844 -0.78445,-0.20258 -0.60798,0.13987 -1.10542,0.0467 -1.10542,-0.20707 0,-0.25375 -0.46169,-0.35516 -1.02597,-0.22533 -0.63987,0.14723 -0.90047,0.0574 -0.69249,-0.23868 0.22062,-0.31401 -0.14067,-0.37 -1.0675,-0.16533 -1.02209,0.22568 -1.29837,0.16327 -1.02157,-0.23077 0.26645,-0.37927 0.05,-0.46434 -0.7267,-0.28562 -0.70153,0.16138 -0.98425,0.081 -0.77292,-0.21986 0.21381,-0.30434 -0.14778,-0.39344 -1.00903,-0.24857 -0.83149,0.13983 -1.22012,0.0519 -1.0213,-0.23116 0.19673,-0.28002 -0.10719,-0.35837 -0.78517,-0.2024 -0.70152,0.16138 -0.98425,0.081 -0.77292,-0.21986 0.21382,-0.30435 -0.14777,-0.3934 -1.00903,-0.24857 -0.82203,0.13824 -1.21929,0.0507 -1.025,-0.22588 0.20078,-0.28581 -0.19711,-0.33804 -1.08373,-0.14227 -1.02208,0.22568 -1.29836,0.16328 -1.02156,-0.23078 0.26645,-0.37927 0.05,-0.4643 -0.72669,-0.28561 -0.70154,0.16138 -0.98425,0.081 -0.77293,-0.21985 0.21382,-0.30436 -0.14777,-0.39342 -1.00903,-0.24858 -0.83149,0.13982 -1.22011,0.0519 -1.0213,-0.23116 0.19673,-0.28003 -0.10719,-0.35837 -0.78517,-0.2024 -0.70151,0.16141 -0.98424,0.081 -0.77291,-0.21982 0.21381,-0.30436 -0.14778,-0.39344 -1.00904,-0.24861 -0.82204,0.13827 -1.21929,0.0507 -1.02499,-0.22588 0.20077,-0.28578 -0.19711,-0.33804 -1.08374,-0.14226 -1.02208,0.22567 -1.29837,0.16327 -1.02155,-0.23075 0.26645,-0.37927 0.05,-0.46434 -0.72671,-0.28565 -0.70152,0.16141 -0.98424,0.081 -0.77291,-0.21982 0.21381,-0.30435 -0.14778,-0.39345 -1.00904,-0.24862 -0.83148,0.13987 -1.22013,0.0519 -1.0213,-0.23112 0.1967,-0.27999 -0.10707,-0.35843 -0.78446,-0.20257 -0.60797,0.13987 -1.10542,0.0467 -1.10542,-0.20707 0,-0.25374 -0.46168,-0.35515 -1.02597,-0.22534 -0.63985,0.14724 -0.90047,0.0574 -0.69248,-0.23866 0.22062,-0.31402 -0.14068,-0.37 -1.06751,-0.16533 -1.02208,0.22567 -1.29838,0.16327 -1.02156,-0.23079 0.26645,-0.37927 0.05,-0.46433 -0.7267,-0.28561 -0.70153,0.16138 -0.98425,0.081 -0.77292,-0.21985 0.21381,-0.30435 -0.14777,-0.39345 -1.00904,-0.24858 -0.83149,0.13984 -1.22013,0.0519 -1.02129,-0.23115 0.19672,-0.28003 -0.10719,-0.35837 -0.78517,-0.2024 -0.70153,0.16137 -0.98425,0.081 -0.77291,-0.21987 0.21381,-0.30434 -0.14778,-0.3934 -1.00905,-0.24857 -0.82204,0.13824 -1.21928,0.0507 -1.02498,-0.22588 0.20077,-0.28581 -0.19712,-0.33804 -1.08375,-0.14226 -1.02207,0.22568 -1.29837,0.16327 -1.02155,-0.23079 0.26644,-0.37927 0.05,-0.4643 -0.7267,-0.28561 -0.70153,0.16137 -0.98424,0.081 -0.77291,-0.21985 0.21381,-0.30436 -0.14778,-0.39342 -1.00906,-0.24858 -0.83147,0.13983 -1.22011,0.0518 -1.02128,-0.23115 0.19668,-0.27997 -0.10707,-0.35841 -0.78447,-0.20258 -0.60797,0.1399 -1.10541,0.0467 -1.10541,-0.20703 0,-0.25375 -0.46169,-0.35516 -1.02598,-0.22535 -0.63987,0.14721 -0.90046,0.0574 -0.69247,-0.23866 0.22062,-0.31406 -0.14068,-0.37 -1.06752,-0.16536 -1.0221,0.22567 -1.29837,0.16327 -1.02156,-0.23075 0.26645,-0.37928 0.05,-0.46434 -0.72671,-0.28565 -0.70152,0.16141 -0.98423,0.081 -0.7729,-0.21982 0.21381,-0.30435 -0.14778,-0.39344 -1.00906,-0.24861 -0.83147,0.13987 -1.22011,0.0518 -1.02128,-0.23112 0.19671,-0.28003 -0.10719,-0.3584 -0.78517,-0.2024 -0.70153,0.16137 -0.98424,0.081 -0.77292,-0.21986 0.21381,-0.30435 -0.14777,-0.39345 -1.00903,-0.24858 -0.82205,0.13824 -1.2193,0.0507 -1.02499,-0.22588 0.20077,-0.28581 -0.19713,-0.33804 -1.08374,-0.14226 -1.0221,0.22568 -1.29837,0.16327 -1.02156,-0.23079 0.26644,-0.37927 0.05,-0.46433 -0.72671,-0.28561 -0.70152,0.16138 -0.98424,0.081 -0.77292,-0.21985 0.21382,-0.30436 -0.14776,-0.39344 -1.00903,-0.24858 -0.83149,0.13983 -1.22012,0.0518 -1.02129,-0.23115 0.19669,-0.28 -0.10708,-0.3584 -0.78446,-0.20257 -0.60797,0.13986 -1.10543,0.0467 -1.10543,-0.20704 0,-0.25375 -0.46169,-0.35516 -1.02596,-0.22534 -0.63987,0.14721 -0.90047,0.0574 -0.6925,-0.23867 0.22063,-0.31405 -0.14066,-0.37003 -1.0675,-0.16536 -1.02209,0.22567 -1.29837,0.16327 -1.02157,-0.23078 0.26645,-0.37927 0.05,-0.46431 -0.72669,-0.28562 -0.70153,0.16138 -0.98424,0.081 -0.77293,-0.21986 0.21382,-0.30434 -0.14775,-0.3934 -1.00903,-0.24857 -0.82204,0.13824 -1.21929,0.0507 -1.02499,-0.22588 0.20079,-0.28581 -0.19712,-0.33803 -1.08373,-0.14226 -1.02209,0.22568 -1.29837,0.16327 -1.02156,-0.23078 0.26644,-0.37928 0.05,-0.46431 -0.7267,-0.28561 -0.70202,0.16151 -0.9843,0.0811 -0.77266,-0.22024 0.22063,-0.31405 -0.14066,-0.37 -1.0675,-0.16536 -1.02209,0.22567 -1.29837,0.16327 -1.02156,-0.23075 0.26645,-0.37927 0.05,-0.46433 -0.7267,-0.28564 -0.70152,0.16141 -0.984249,0.081 -0.77292,-0.21983 0.21381,-0.30435 -0.14778,-0.39344 -1.009039,-0.24861 -0.82203,0.13828 -1.21928,0.0507 -1.02499,-0.22588 0.20124,-0.28642 -0.22629,-0.34006 -1.16893,-0.14662 -1.15666,0.23734 -1.31569,0.19408 -0.71725,-0.19503 0.61452,-0.39961 0.48894,-0.46072 -0.62528,-0.30436 -0.84869,0.1191 -1.27008,0.019 -1.07696,-0.25594 0.20079,-0.28581 -0.19711,-0.33804 -1.08373,-0.14227 -1.02208,0.22568 -1.29836,0.16328 -1.02156,-0.23078 0.26645,-0.37927 0.05,-0.46434 -0.7267,-0.28561 -0.70152,0.16137 -0.98425,0.081 -0.77292,-0.21986 0.21381,-0.30435 -0.14777,-0.39345 -1.00903,-0.24858 -0.83149,0.13983 -1.22013,0.0519 -1.02129,-0.23115 0.19671,-0.28003 -0.10719,-0.35837 -0.78518,-0.20241 -0.70152,0.16139 -0.98425,0.081 -0.77291,-0.21985 0.21381,-0.30435 -0.14777,-0.39341 -1.00905,-0.24858 -0.82203,0.13824 -1.21928,0.0507 -1.02499,-0.22587 0.20079,-0.28582 -0.19711,-0.33804 -1.08373,-0.14226 -1.02208,0.22566 -1.29837,0.16326 -1.02156,-0.23079 0.26645,-0.37927 0.05,-0.4643 -0.7267,-0.28561 -0.70152,0.16137 -0.98424,0.081 -0.77292,-0.21986 0.21382,-0.30435 -0.14777,-0.39341 -1.00904,-0.24858 -0.83148,0.13984 -1.22011,0.0519 -1.02129,-0.23115 0.19672,-0.28003 -0.10718,-0.35836 -0.78516,-0.2024 -0.70153,0.16141 -0.98425,0.081 -0.77292,-0.21983 0.21381,-0.30434 -0.14778,-0.39344 -1.00904,-0.24861 -0.82204,0.13828 -1.21929,0.0507 -1.02499,-0.22588 0.20077,-0.28577 -0.19712,-0.33803 -1.08374,-0.14226 -1.02208,0.22568 -1.29837,0.16327 -1.02156,-0.23075 0.26645,-0.37927 0.05,-0.46434 -0.7267,-0.28564 -0.70152,0.1614 -0.98424,0.081 -0.77292,-0.21982 0.21382,-0.30436 -0.14777,-0.39345 -1.009034,-0.24861 -0.822038,0.13826 -1.219292,0.0507 -1.02499,-0.22588 0.200779,-0.28579 -0.197115,-0.33805 -1.08373,-0.14227 -1.022092,0.22568 -1.298375,0.16327 -1.021561,-0.23074 0.266443,-0.37927 0.05006,-0.46435 -0.726701,-0.28566 -0.702025,0.16152 -0.984298,0.0811 -0.772648,-0.22022 0.220618,-0.31403 -0.140672,-0.37 -1.067506,-0.16533 -1.022092,0.22567 -1.298375,0.16326 -1.021561,-0.23079 0.266443,-0.37927 0.05005,-0.46434 -0.726701,-0.28561 -0.608375,0.13993 -0.991794,0.0917 -0.852053,-0.10723 0.139743,-0.19891 -0.07571,-0.47299 -0.478805,-0.60907 -0.403086,-0.13607 -0.833345,-0.005 -0.956132,0.29099 -0.122788,0.2961 -0.120285,-0.88223 0.0056,-2.61853 0.149852,-2.06748 0.06085,-2.94603 -0.257908,-2.54578 -0.319343,0.40098 -0.419053,-0.52956 -0.28994,-2.70594 0.127577,-2.15048 0.03841,-2.99987 -0.253498,-2.41512 -0.28799,0.5769 -0.368744,-0.31714 -0.224059,-2.48043 0.155358,-2.32292 0.06653,-3.18009 -0.283588,-2.73646 -0.351024,0.44476 -0.430022,-0.25757 -0.253632,-2.25495 0.1843,-2.087 0.106495,-2.71128 -0.27731,-2.22506 -0.380697,0.4823 -0.453721,-0.29269 -0.254972,-2.70594 0.181849,-2.20801 0.108655,-3.16967 -0.210868,-2.77065 -0.322773,0.40312 -0.422386,-0.51811 -0.292595,-2.70594 0.133504,-2.25039 0.04517,-3.02703 -0.274683,-2.41512 -0.316976,0.60644 -0.399772,-0.20635 -0.252676,-2.48043 0.139872,-2.16235 0.05686,-3.05706 -0.230122,-2.48044 -0.288014,0.57867 -0.381633,-0.39124 -0.261192,-2.70593 0.122027,-2.34531 0.02863,-3.29228 -0.266872,-2.70594 -0.295397,0.58611 -0.372951,-0.20358 -0.221458,-2.25496 0.15651,-2.11925 0.06942,-2.95072 -0.264945,-2.52961 -0.334226,0.42098 -0.418549,-0.39504 -0.256316,-2.48044 0.158175,-2.03321 0.07349,-2.89646 -0.244954,-2.4966 -0.319345,0.40099 -0.419052,-0.52958 -0.289939,-2.70594 0.126083,-2.1253 0.03679,-2.99304 -0.248492,-2.41511 -0.283197,0.57365 -0.376943,-0.41131 -0.257549,-2.70594 0.123712,-2.37765 0.03061,-3.30037 -0.273052,-2.70594 -0.305572,0.59815 -0.379724,-0.0854 -0.220143,-2.02946 0.173348,-2.11174 0.09146,-2.74247 -0.292852,-2.2556 -0.380698,0.4823 -0.45372,-0.29268 -0.25497,-2.70594 0.186467,-2.26409 0.113021,-3.17444 -0.222228,-2.75444 -0.337679,0.42304 -0.422014,-0.38472 -0.258977,-2.48047 0.162234,-2.08536 0.07791,-2.90139 -0.256315,-2.48043 -0.334226,0.42096 -0.418548,-0.39506 -0.256316,-2.48044 0.158176,-2.03323 0.07349,-2.89646 -0.244953,-2.49662 -0.318139,0.39948 -0.407393,-0.53777 -0.257687,-2.70593 0.134218,-1.94383 0.04465,-3.08763 -0.216358,-2.76283 -0.26375,0.32824 -0.370676,-0.68336 -0.262181,-2.48044 0.122305,-2.02582 0.02003,-2.82616 -0.307633,-2.4074 -0.324828,0.41515 -0.409075,-0.42382 -0.24908,-2.48043 0.158175,-2.03323 0.07348,-2.89647 -0.244955,-2.49662 -0.319343,0.40098 -0.419052,-0.52957 -0.289937,-2.70594 0.129189,-2.17768 0.0402,-3.00727 -0.259047,-2.41512 -0.29705,0.58779 -0.374622,-0.19768 -0.222693,-2.25495 0.167241,-2.2646 0.08272,-2.9659 -0.299032,-2.48107 -0.37898,0.48129 -0.451997,-0.29764 -0.253656,-2.70594 0.16832,-2.04377 0.09697,-3.15719 -0.180335,-2.8141 -0.281375,0.34812 -0.370674,-0.5048 -0.230872,-2.20513 0.145758,-1.77279 0.04402,-2.67281 -0.282088,-2.4955 -0.32676,0.17767 -0.44106,-0.89374 -0.318043,-2.98125 0.125004,-2.12126 0.03487,-2.94377 -0.258256,-2.35661 -0.291491,0.58391 -0.38188,-0.29082 -0.256315,-2.48044 0.124092,-2.16394 0.03357,-3.0575 -0.25131,-2.48045 -0.283199,0.57367 -0.376946,-0.41128 -0.257551,-2.70594 0.120477,-2.31542 0.02686,-3.28479 -0.261321,-2.70594 -0.289859,0.58223 -0.380285,-0.29709 -0.255081,-2.48043 0.127156,-2.21736 0.03696,-3.07175 -0.261865,-2.48045 -0.297049,0.58779 -0.374621,-0.19768 -0.222692,-2.25495 0.152601,-2.06636 0.06499,-2.94581 -0.253585,-2.54577 -0.319344,0.40099 -0.419051,-0.52956 -0.289938,-2.70594 0.135122,-2.27765 0.04712,-3.03446 -0.280853,-2.41511 -0.323441,0.61079 -0.394302,-0.11718 -0.219495,-2.25495 0.16953,-2.07328 0.08997,-2.94715 -0.231779,-2.54578 -0.322289,0.40205 -0.411553,-0.52382 -0.260882,-2.70594 0.134216,-1.94381 0.04464,-3.08762 -0.216359,-2.76281 -0.263752,0.32822 -0.370676,-0.68336 -0.262181,-2.48045 0.122305,-2.02582 0.02003,-2.82616 -0.307634,-2.40739 -0.324827,0.41515 -0.409073,-0.42383 -0.24908,-2.48044 0.158176,-2.03322 0.07348,-2.89646 -0.244954,-2.49662 -0.319345,0.40099 -0.419051,-0.52956 -0.289938,-2.70594 0.12919,-2.17767 0.04021,-3.00727 -0.259047,-2.41512 -0.29705,0.58779 -0.374621,-0.19768 -0.222692,-2.25495 0.170037,-2.30246 0.08605,-2.97383 -0.310325,-2.48044 -0.448293,0.55801 -0.544839,0.49412 -0.551314,-0.36486 -0.0043,-0.57274 0.165164,-0.94698 0.376623,-0.83164 0.211461,0.11533 0.302395,-0.81391 0.202076,-2.065 -0.120211,-1.49915 -0.332156,-2.06151 -0.621647,-1.64943 -0.253916,0.36144 -0.321734,-0.80163 -0.160731,-2.75654 0.181846,-2.20801 0.108655,-3.16965 -0.210868,-2.77062 -0.322775,0.40309 -0.42239,-0.51815 -0.292599,-2.70594 0.12919,-2.17768 0.0402,-3.00727 -0.259046,-2.41512 -0.292988,0.57975 -0.359068,-0.20989 -0.184973,-2.21036 0.168068,-1.9312 0.08436,-3.01094 -0.220551,-2.84515 -0.300663,0.16348 -0.416941,-0.81666 -0.299557,-2.52504 0.140167,-2.03998 0.04693,-2.60997 -0.346089,-2.11573 -0.442536,0.5565 -0.539336,0.4918 -0.545794,-0.36487 -0.0043,-0.57274 0.165165,-0.94679 0.376624,-0.83125 0.21146,0.11556 0.303505,-0.91675 0.204545,-2.294 -0.106518,-1.48237 -0.346252,-2.26734 -0.587561,-1.92383 -0.224197,0.31913 -0.298834,-0.81826 -0.165861,-2.52753 0.154455,-1.9854 0.0696,-2.89218 -0.234977,-2.51082 -0.305706,0.38279 -0.416005,-0.66891 -0.307438,-2.93143 0.111963,-2.33335 0.02244,-3.14652 -0.264353,-2.40092 -0.283744,0.73771 -0.370953,-0.11977 -0.252265,-2.48045 0.122954,-2.44559 0.03669,-3.24468 -0.267776,-2.48044 -0.295656,0.74214 -0.352479,0.0628 -0.166257,-1.98773 0.208778,-2.29889 0.127183,-3.03053 -0.311386,-2.79206 -0.357112,0.19421 -0.594297,0.0319 -0.594297,-0.40655 0,-0.40134 0.173013,-0.63517 0.384473,-0.51962 0.21146,0.11555 0.303506,-0.91675 0.204544,-2.29401 -0.106518,-1.48236 -0.346252,-2.26733 -0.58756,-1.92383 -0.224197,0.31913 -0.298835,-0.81824 -0.165862,-2.52753 0.158176,-2.03322 0.07348,-2.89646 -0.244953,-2.49661 -0.319345,0.40099 -0.419052,-0.52957 -0.28994,-2.70594 0.126084,-2.1253 0.03681,-2.99303 -0.248491,-2.41512 -0.284834,0.57698 -0.383495,-0.39802 -0.273814,-2.70594 0.114209,-2.4032 0.02483,-3.23145 -0.267682,-2.48045 -0.291216,0.74769 -0.370434,-0.0119 -0.235173,-2.25494 0.138768,-2.30123 0.05211,-3.09411 -0.271141,-2.48045 -0.318527,0.60472 -0.392242,-0.21275 -0.223673,-2.48044 0.164686,-2.21544 0.08259,-3.17156 -0.23795,-2.77127 -0.322775,0.4031 -0.422389,-0.51814 -0.292599,-2.70594 0.127577,-2.15048 0.03842,-2.99987 -0.253496,-2.41511 -0.28799,0.57688 -0.368748,-0.31713 -0.224063,-2.48045 0.136264,-2.03739 0.04535,-3.15667 -0.228604,-2.81473 -0.276154,0.3447 -0.365264,-0.52155 -0.22684,-2.20512 0.148553,-1.80678 0.04687,-2.67436 -0.29188,-2.49017 -0.340171,0.18494 -0.438481,-0.76757 -0.284419,-2.75577 0.158252,-2.04228 0.07214,-2.83275 -0.262645,-2.41108 -0.334225,0.42096 -0.418548,-0.39506 -0.256315,-2.48044 0.162231,-2.08538 0.07791,-2.9014 -0.256316,-2.48045 -0.334226,0.42096 -0.418547,-0.39506 -0.256315,-2.48044 0.154455,-1.9854 0.0696,-2.89219 -0.234977,-2.51082 -0.305707,0.38279 -0.416005,-0.6689 -0.307438,-2.93143 0.114877,-2.39402 0.02621,-3.16591 -0.275812,-2.40092 -0.28995,0.73442 -0.346496,0.0415 -0.16221,-1.98772 0.191241,-2.10579 0.109645,-3.02099 -0.251828,-2.82446 -0.359423,0.19542 -0.457551,-0.7054 -0.2993,-2.74767 0.1543,-1.99126 0.0677,-2.82779 -0.251283,-2.42725 -0.319345,0.40099 -0.419051,-0.52957 -0.289938,-2.70594 0.12919,-2.17767 0.04021,-3.00727 -0.259046,-2.41512 -0.292988,0.57976 -0.359068,-0.20989 -0.184973,-2.21036 0.161908,-1.86042 0.07964,-3.00837 -0.204514,-2.85386 -0.279366,0.15188 -0.423896,-1.0752 -0.350526,-2.97603 0.08606,-2.22951 -0.0099,-2.88417 -0.308927,-2.10702 -0.278479,0.72383 -0.349065,-0.0835 -0.197164,-2.25495 0.159151,-2.27513 0.07268,-3.17706 -0.264137,-2.75509 -0.337658,0.423 -0.421992,-0.38476 -0.258956,-2.48049 0.154455,-1.9854 0.0696,-2.89218 -0.234977,-2.51081 -0.305705,0.38278 -0.416003,-0.66891 -0.307438,-2.93144 0.114877,-2.39402 0.02621,-3.16591 -0.275812,-2.40091 -0.289948,0.73442 -0.346496,0.0415 -0.162208,-1.98773 0.194757,-2.14451 0.112872,-3.02275 -0.262795,-2.81849 -0.374472,0.20361 -0.455947,-0.57415 -0.259651,-2.47863 0.209512,-2.03271 0.127925,-2.68936 -0.304907,-2.45403 -0.353192,0.19204 -0.590962,0.0277 -0.590962,-0.4084 0,-0.40134 0.173013,-0.63517 0.384473,-0.51962 0.211461,0.11555 0.303506,-0.91675 0.204544,-2.294 -0.106518,-1.48237 -0.346252,-2.26734 -0.58756,-1.92385 -0.224198,0.31914 -0.298835,-0.81824 -0.165862,-2.52752 0.158176,-2.033221 0.07347,-2.896456 -0.244954,-2.496612 -0.319344,0.400985 -0.419051,-0.529563 -0.289938,-2.70594 0.129189,-2.177679 0.0402,-3.007269 -0.259046,-2.415118 -0.292988,0.579751 -0.359068,-0.209897 -0.184973,-2.21036 0.178003,-2.045345 0.09271,-3.015468 -0.248826,-2.829776 -0.339229,0.184444 -0.453005,-0.848944 -0.327659,-2.976026 0.126567,-2.147755 0.03663,-2.951107 -0.263803,-2.356605 -0.297052,0.58779 -0.374622,-0.197686 -0.222694,-2.254951 0.152602,-2.066371 0.065,-2.945804 -0.253585,-2.545768 -0.319345,0.400986 -0.419052,-0.529563 -0.289937,-2.705939 0.127576,-2.150484 0.03842,-2.999875 -0.253497,-2.415119 -0.287989,0.576884 -0.368747,-0.317133 -0.224064,-2.480445 0.136263,-2.037393 0.04535,-3.156677 -0.228602,-2.814726 -0.276171,0.344589 -0.36528,-0.521652 -0.226856,-2.205233 0.148553,-1.806768 0.04686,-2.674351 -0.29188,-2.49017 -0.340172,0.184957 -0.438482,-0.767568 -0.284421,-2.755758 0.158254,-2.042289 0.07214,-2.832748 -0.262643,-2.411083 -0.334227,0.420953 -0.418549,-0.395062 -0.256315,-2.480445 0.158175,-2.033225 0.07348,-2.89646 -0.244956,-2.496616 -0.319344,0.400987 -0.41905,-0.529561 -0.289937,-2.705939 0.131981,-2.224739 0.04339,-3.020066 -0.269025,-2.415119 -0.309501,0.599308 -0.400025,-0.308709 -0.269767,-2.705939 0.144469,-2.658737 0.06521,-3.3113 -0.301259,-2.480444 -0.444191,1.007062 -0.470669,0.964917 -0.247924,-0.394616 0.137158,-0.83715 0.249378,-1.902614 0.249378,-2.367698 C 20.386248,35.02005 25.829981,35 249.97528,35 H 479.5643 l 0.3293,2.113775 c 0.18111,1.162576 0.12521,2.22804 -0.1243,2.367697 -0.24949,0.139657 -0.54357,1.099369 -0.65353,2.132692 -0.10992,1.033324 -0.0226,1.782392 0.19396,1.664596 0.21666,-0.117796 0.3939,0.114198 0.3939,0.515542 0,0.401345 -0.2075,0.616889 -0.46114,0.478988 -0.2536,-0.1379 -0.54365,0.661904 -0.64445,1.777343 -0.10082,1.11544 -0.009,2.028073 0.2048,2.028073 0.21351,0 0.38817,0.304418 0.38817,0.676485 0,0.372066 -0.20746,0.676484 -0.46102,0.676484 -0.25356,0 -0.54191,0.893884 -0.64076,1.986408 -0.0989,1.092524 -0.007,1.892329 0.20469,1.777343 0.21146,-0.114986 0.38446,0.208805 0.38446,0.719532 0,0.510727 -0.20545,0.928595 -0.45654,0.928595 -0.25111,0 -0.55081,0.710309 -0.66604,1.578465 -0.11518,0.868155 -0.025,1.578464 0.20024,1.578464 0.22533,0 0.40969,0.304419 0.40969,0.676485 0,0.372067 -0.26271,0.676485 -0.58382,0.676485 -0.40281,0 -0.49735,0.839016 -0.30492,2.705939 0.17909,1.737628 0.0872,2.705939 -0.25683,2.705939 -0.34307,0 -0.4308,0.894496 -0.24395,2.487363 0.17417,1.484613 0.0998,2.382939 -0.18459,2.228335 -0.262,-0.142468 -0.47639,0.446656 -0.47639,1.309164 0,0.862507 -0.13711,1.939948 -0.30467,2.394313 -0.2534,0.687062 -0.21157,0.712251 0.24846,0.149631 0.46001,-0.562584 0.55445,-0.505634 0.56098,0.338243 0.005,0.5581 -0.19962,1.014727 -0.45314,1.014727 -0.25356,0 -0.54192,0.893883 -0.64081,1.98641 -0.0989,1.092523 -0.007,1.892327 0.2047,1.777341 0.21145,-0.114985 0.38448,0.191892 0.38448,0.681951 0,0.490056 -0.19608,0.95866 -0.43577,1.041344 -0.23968,0.08268 -0.56986,1.053033 -0.73381,2.156346 -0.19238,1.295252 -0.13159,1.774629 0.17164,1.352969 0.36359,-0.505645 0.47136,-0.418007 0.47746,0.388296 0.005,0.580681 -0.21894,0.91804 -0.50481,0.762615 -0.28192,-0.153298 -0.53183,0.189875 -0.55533,0.762614 -0.0234,0.57274 -0.0995,1.488561 -0.1689,2.035157 -0.0693,0.546593 0.0651,0.889771 0.29906,0.762615 0.23387,-0.127158 0.42517,0.186673 0.42517,0.697402 0,0.510726 -0.20745,0.928597 -0.46097,0.928597 -0.25357,0 -0.54192,0.893884 -0.6408,1.986407 -0.0989,1.092523 -0.007,1.892331 0.20469,1.777341 0.21146,-0.114985 0.38447,0.119309 0.38447,0.520654 0,0.401344 -0.2075,0.616893 -0.46114,0.478988 -0.25363,-0.137898 -0.54199,0.642537 -0.6408,1.734297 -0.0988,1.09176 -0.007,1.89095 0.20484,1.77596 0.21147,-0.11498 0.38448,0.2088 0.38448,0.71953 0,0.51073 -0.20746,0.9286 -0.46102,0.9286 -0.25356,0 -0.54191,0.89388 -0.64081,1.9864 -0.0989,1.09253 -0.007,1.89234 0.2047,1.77735 0.21147,-0.11499 0.38448,0.19189 0.38448,0.68195 0,0.49006 -0.19608,0.95866 -0.43576,1.04134 -0.23969,0.0827 -0.56987,1.05304 -0.73378,2.15635 -0.19243,1.29525 -0.13163,1.77463 0.1716,1.35297 0.36363,-0.50565 0.47141,-0.41801 0.47748,0.3883 0.005,0.64225 -0.20782,0.92409 -0.55484,0.73541 -0.39747,-0.21612 -0.47018,0.50427 -0.24768,2.45382 0.17948,1.57245 0.11298,2.75976 -0.15462,2.75976 -0.25834,0 -0.55058,0.89389 -0.64946,1.98641 -0.0989,1.09253 -0.007,1.89233 0.2047,1.77734 0.21145,-0.11498 0.38445,0.11931 0.38445,0.52066 0,0.43848 -0.23717,0.60075 -0.59427,0.40658 -0.4396,-0.23901 -0.51085,0.46291 -0.27377,2.69645 0.17684,1.6663 0.12163,2.91145 -0.12315,2.77834 -0.24403,-0.13268 -0.52454,0.65203 -0.62336,1.74379 -0.0988,1.09176 -0.007,1.89095 0.20484,1.77596 0.21148,-0.11499 0.38449,0.11931 0.38449,0.52065 0,0.40135 -0.23069,0.60429 -0.51266,0.45099 -0.28209,-0.15338 -0.53035,0.18958 -0.55207,0.76262 -0.0216,0.57274 -0.0795,1.68158 -0.12817,2.46409 -0.0488,0.78251 0.0843,1.32863 0.29576,1.2136 0.21146,-0.11502 0.38448,0.006 0.38448,0.26847 0,0.26269 -0.25041,0.47761 -0.55653,0.47761 -0.37275,0 -0.45452,0.89351 -0.24767,2.70594 0.17436,1.52748 0.10537,2.70594 -0.15857,2.70594 -0.25709,0 -0.55355,0.7947 -0.65887,1.76601 -0.10526,0.97132 -0.0142,1.66965 0.20248,1.55186 0.21664,-0.1178 0.39039,0.25443 0.38608,0.82717 -0.006,0.77385 -0.12361,0.88057 -0.4584,0.41544 -0.30186,-0.4193 -0.51074,0.139 -0.63296,1.6915 -0.10037,1.27456 -0.009,2.31725 0.20208,2.31711 0.21146,-1.6e-4 0.38447,0.41758 0.38447,0.92831 0,0.51073 -0.2075,0.81577 -0.46114,0.67786 -0.25361,-0.13789 -0.54196,0.64254 -0.64076,1.73431 -0.0988,1.09176 -0.007,1.89094 0.20481,1.77595 0.21146,-0.11498 0.38447,0.1919 0.38447,0.68195 0,0.49007 -0.20654,0.95866 -0.45898,1.04135 -0.25249,0.0827 -0.57283,0.9094 -0.71194,1.83715 -0.13917,0.9282 -0.0481,1.57541 0.20266,1.4391 0.25061,-0.13625 0.45564,0.18212 0.45564,0.70749 0,0.60638 -0.21584,0.83786 -0.59097,0.63389 -0.43284,-0.23534 -0.51443,0.42128 -0.30493,2.45383 0.15733,1.52634 0.10037,2.77515 -0.12637,2.77515 -0.22682,0 -0.49328,0.89388 -0.59217,1.98641 -0.0989,1.09252 -0.007,1.89232 0.2047,1.77734 0.21145,-0.11499 0.38447,0.1193 0.38447,0.52065 0,0.40134 -0.20751,0.61689 -0.46114,0.47899 -0.25364,-0.1379 -0.542,0.64253 -0.64081,1.73429 -0.0988,1.09177 -0.007,1.89095 0.20486,1.77597 0.21145,-0.11499 0.38447,0.2088 0.38447,0.71952 0,0.51074 -0.20746,0.9286 -0.46102,0.9286 -0.25357,0 -0.54192,0.89389 -0.6408,1.98642 -0.0989,1.09251 -0.007,1.89232 0.20469,1.77733 0.21146,-0.11498 0.38447,0.20881 0.38447,0.71954 0,0.51072 -0.20451,0.92859 -0.45445,0.92859 -0.24995,0 -0.55748,0.61777 -0.68347,1.37283 -0.12596,0.75506 -0.0369,1.47734 0.19815,1.60508 0.23492,0.12774 0.42715,0.63814 0.42715,1.13423 0,0.5335 -0.22719,0.77846 -0.5561,0.59961 -0.38708,-0.21047 -0.47443,0.53535 -0.28731,2.45383 0.14783,1.51592 0.0752,2.7562 -0.16121,2.7562 -0.23654,0 -0.51094,0.89389 -0.60983,1.9864 -0.0989,1.09253 -0.007,1.89234 0.2047,1.77735 0.21146,-0.11498 0.38448,0.11931 0.38448,0.52065 0,0.43849 -0.23718,0.60076 -0.59428,0.40658 -0.43961,-0.239 -0.51085,0.46292 -0.27378,2.69645 0.20938,1.97269 0.14229,2.92267 -0.19355,2.74007 -0.31226,-0.16978 -0.46836,0.317 -0.39771,1.2402 0.064,0.83583 -0.0785,1.79704 -0.31664,2.13602 -0.29223,0.41599 -0.2406,0.51173 0.15886,0.29454 0.35421,-0.1926 0.59186,-0.0289 0.59186,0.40792 0,0.40134 -0.20931,0.61591 -0.46514,0.47681 -0.25582,-0.13909 -0.54418,0.84475 -0.6408,2.18632 -0.0966,1.34157 -0.005,2.34468 0.20881,2.22912 0.21146,-0.11554 0.38448,0.11828 0.38448,0.51963 0,0.40134 -0.23919,0.59967 -0.53151,0.44073 -0.33418,-0.18171 -0.48831,0.27517 -0.41519,1.23069 0.064,0.83583 -0.0785,1.79704 -0.31661,2.13602 -0.29224,0.41599 -0.2406,0.51173 0.15887,0.29453 0.37416,-0.20344 0.59182,0.0198 0.59182,0.6068 0,0.51074 -0.20747,0.9286 -0.46103,0.9286 -0.25356,0 -0.54191,0.89388 -0.64076,1.98641 -0.0989,1.09252 -0.007,1.89233 0.20469,1.77734 0.21146,-0.11498 0.38449,0.11931 0.38449,0.52066 0,0.43848 -0.23719,0.60075 -0.59433,0.40658 -0.43957,-0.23902 -0.51084,0.4629 -0.27379,2.69644 0.17687,1.66631 0.12169,2.91146 -0.12315,2.77834 -0.24401,-0.13267 -0.5245,0.65204 -0.62331,1.7438 -0.0988,1.09176 -0.007,1.89094 0.20482,1.77595 0.21146,-0.11498 0.38447,0.11932 0.38447,0.52067 0,0.40134 -0.20931,0.61591 -0.46513,0.47681 -0.25583,-0.1391 -0.54418,0.84474 -0.6408,2.18631 -0.0966,1.34157 -0.005,2.34468 0.20884,2.22913 0.21146,-0.11556 0.38447,0.11828 0.38447,0.51962 0,0.40968 -0.24391,0.59711 -0.55614,0.42735 -0.38709,-0.21047 -0.47439,0.53534 -0.28732,2.45383 0.14788,1.5159 0.0754,2.75619 -0.1612,2.75619 -0.23649,0 -0.5109,0.89389 -0.60979,1.98641 -0.0989,1.09253 -0.007,1.89233 0.2047,1.77734 0.21148,-0.11499 0.38448,0.11932 0.38448,0.52066 0,0.40134 -0.20749,0.61688 -0.46113,0.47898 -0.25364,-0.13789 -0.54365,0.66191 -0.6445,1.77734 -0.10082,1.11545 -0.009,2.02808 0.20484,2.02808 0.21347,0 0.38818,0.41787 0.38818,0.92859 0,0.51074 -0.20755,0.81578 -0.46115,0.67787 -0.25363,-0.13789 -0.54198,0.64253 -0.64079,1.73431 -0.0988,1.09175 -0.007,1.89094 0.2048,1.77595 0.21146,-0.11498 0.38449,0.2088 0.38449,0.71953 0,0.51073 -0.20644,0.9286 -0.45877,0.9286 -0.25236,0 -0.54495,0.79471 -0.65025,1.76602 -0.10525,0.97132 -0.0143,1.66965 0.20249,1.55185 0.21665,-0.1178 0.39389,0.21567 0.39389,0.74104 0,0.54458 -0.22849,0.83098 -0.5315,0.66621 -0.33421,-0.1817 -0.48835,0.27519 -0.41519,1.2307 0.064,0.83583 -0.0564,1.76569 -0.26767,2.06634 -0.21122,0.30065 -0.13975,0.54665 0.15883,0.54665 0.29863,0 0.54291,0.30441 0.54291,0.67648 0,0.37207 -0.20745,0.67648 -0.46101,0.67648 -0.25357,0 -0.54192,0.89389 -0.6408,1.98642 -0.0989,1.09251 -0.007,1.89232 0.20469,1.77734 0.21146,-0.11499 0.38447,0.2088 0.38447,0.71953 0,0.51072 -0.20642,0.92859 -0.45875,0.92859 -0.25237,0 -0.54496,0.79472 -0.65026,1.76603 -0.10526,0.97131 -0.0143,1.66964 0.2025,1.55185 0.21666,-0.1178 0.39389,0.21567 0.39389,0.74103 0,0.52537 -0.20657,0.84289 -0.45906,0.70562 -0.25249,-0.13728 -0.54691,0.56105 -0.65433,1.55185 -0.10741,0.99079 -0.0161,1.80144 0.20273,1.80144 0.21892,0 0.39805,0.40589 0.39805,0.90198 0,0.49609 -0.20648,0.90198 -0.45881,0.90198 -0.25232,0 -0.54493,0.79471 -0.6502,1.76603 -0.10537,0.97131 -0.0143,1.66963 0.20245,1.55184 0.21665,-0.11779 0.3939,0.21567 0.3939,0.74104 0,0.57176 -0.22324,0.83383 -0.5561,0.65284 -0.3871,-0.21047 -0.47441,0.53535 -0.28732,2.45383 0.14783,1.5159 0.0753,2.7562 -0.16121,2.7562 -0.23649,0 -0.51092,0.89388 -0.60976,1.9864 -0.0989,1.09252 -0.007,1.89234 0.20469,1.77735 0.21146,-0.11498 0.38446,0.11931 0.38446,0.52065 0,0.40135 -0.20846,0.61639 -0.46317,0.47787 -0.25476,-0.1385 -0.54311,0.74369 -0.6408,1.96044 -0.0978,1.21674 -0.005,2.11789 0.20684,2.00256 0.21147,-0.11533 0.38447,0.22015 0.38447,0.74551 0,0.54459 -0.22845,0.83099 -0.53148,0.66622 -0.3342,-0.1817 -0.48832,0.27518 -0.4152,1.2307 0.0639,0.83583 -0.0785,1.79704 -0.31662,2.13602 -0.29223,0.41599 -0.2406,0.51173 0.15886,0.29453 0.35422,-0.19259 0.59184,-0.0288 0.59184,0.40793 0,0.40134 -0.20932,0.61591 -0.46515,0.47681 -0.25583,-0.1391 -0.54418,0.84475 -0.6408,2.18632 -0.0966,1.34157 -0.005,2.34467 0.20884,2.22912 0.21146,-0.11555 0.38449,0.11828 0.38449,0.51963 0,0.43612 -0.23781,0.60043 -0.59099,0.40839 -0.43283,-0.23534 -0.51441,0.42129 -0.30492,2.45383 0.15734,1.52633 0.10048,2.77515 -0.12638,2.77515 -0.2268,0 -0.49327,0.89388 -0.59216,1.98641 -0.0989,1.09252 -0.007,1.89232 0.20469,1.77733 0.21146,-0.11498 0.38447,0.11932 0.38447,0.52066 0,0.40135 -0.20749,0.6169 -0.46113,0.47899 -0.25365,-0.1379 -0.54364,0.6619 -0.6445,1.77735 -0.10082,1.11544 -0.009,2.02807 0.20486,2.02807 0.21345,0 0.38816,0.41786 0.38816,0.92859 0,0.52622 -0.23035,0.80337 -0.53154,0.63961 -0.33419,-0.18171 -0.48832,0.27517 -0.41515,1.2307 0.064,0.83582 -0.0786,1.79703 -0.31666,2.13601 -0.29223,0.416 -0.24059,0.51173 0.15887,0.29453 0.37417,-0.20343 0.59182,0.0197 0.59182,0.60681 0,0.51072 -0.23515,0.92859 -0.52257,0.92859 -0.31967,0 -0.43339,0.9659 -0.29282,2.48721 0.12637,1.36798 0.0297,2.37845 -0.21477,2.24551 -0.24452,-0.13294 -0.51642,0.52359 -0.60431,1.45895 -0.0878,0.93536 0.0709,2.062 0.35291,2.50365 0.36163,0.56645 0.32869,0.90379 -0.11174,1.14519 -0.34345,0.1882 -0.65164,0.94305 -0.68489,1.67745 -0.0334,0.73438 0.0947,1.84262 0.28438,2.46273 0.24623,0.8049 0.20032,0.9474 -0.16043,0.49806 -0.36341,-0.45265 -0.55588,0.0738 -0.68525,1.87469 -0.0989,1.37725 -0.007,2.40956 0.20454,2.29401 0.21146,-0.11555 0.38447,0.21975 0.38447,0.74512 0,0.52537 -0.23068,0.82978 -0.51261,0.67648 -0.28198,-0.1533 -0.53189,0.18988 -0.55538,0.76262 -0.0234,0.57274 -0.0995,1.48856 -0.1689,2.03515 -0.0693,0.5466 0.0651,0.88977 0.29905,0.76262 0.23387,-0.12716 0.42523,0.18667 0.42523,0.6974 0,0.51073 -0.20747,0.9286 -0.46103,0.9286 -0.25356,0 -0.54192,0.89388 -0.6408,1.98641 -0.0989,1.09251 -0.007,1.89232 0.20469,1.77733 0.21147,-0.11498 0.38447,0.11931 0.38447,0.52065 0,0.40135 -0.23916,0.59968 -0.53148,0.44073 -0.33307,-0.18108 -0.49229,0.27207 -0.42646,1.21361 0.0577,0.82643 -0.0642,2.00997 -0.27102,2.63007 -0.28501,0.85442 -0.24568,0.96364 0.16228,0.451 0.46411,-0.58316 0.53947,-0.5676 0.54623,0.11274 0.005,0.43408 -0.19962,0.78923 -0.45318,0.78923 -0.25356,0 -0.54191,0.89389 -0.64077,1.9864 -0.0989,1.09253 -0.007,1.89234 0.20469,1.77735 0.21147,-0.11498 0.38447,0.11931 0.38447,0.52066 0,0.40134 -0.20845,0.61638 -0.46317,0.47787 -0.25474,-0.1385 -0.54311,0.7437 -0.64079,1.96043 -0.0978,1.21676 -0.005,2.1179 0.20684,2.00256 0.21146,-0.11535 0.38447,0.22016 0.38447,0.74552 0,0.52535 -0.20657,0.8429 -0.45906,0.70561 -0.25248,-0.13726 -0.54691,0.56103 -0.65433,1.55186 -0.10742,0.99077 -0.0161,1.80144 0.20277,1.80144 0.21888,0 0.398,0.40588 0.398,0.90198 0,0.49608 -0.20745,0.90197 -0.46101,0.90197 -0.25357,0 -0.54193,0.8939 -0.64077,1.98642 -0.0989,1.09253 -0.007,1.89234 0.2047,1.77734 0.21146,-0.11497 0.38447,0.11929 0.38447,0.52065 0,0.40136 -0.22953,0.60491 -0.51008,0.4524 -0.30942,-0.16824 -0.47928,0.4139 -0.4318,1.47984 0.043,0.96646 -0.10913,2.02388 -0.33806,2.34984 -0.27602,0.3929 -0.21689,0.4842 0.17546,0.2709 0.35068,-0.1907 0.59183,-0.0354 0.59183,0.3813 0,0.38671 -0.20747,0.70311 -0.46099,0.70311 -0.25356,0 -0.54192,0.89387 -0.64081,1.98639 -0.0989,1.09252 -0.007,1.89234 0.2047,1.77733 0.21145,-0.11497 0.38448,0.11933 0.38448,0.52066 0,0.40136 -0.20658,0.61739 -0.45906,0.48013 -0.25249,-0.13729 -0.54857,0.57623 -0.658,1.58555 -0.10946,1.00934 -0.0181,1.93345 0.20274,2.05357 0.22092,0.12011 0.40169,0.62429 0.40169,1.12036 0,0.50787 -0.23225,0.77572 -0.53153,0.613 -0.33418,-0.18171 -0.48832,0.27519 -0.41515,1.23069 0.0639,0.83583 -0.0785,1.79705 -0.31665,2.13604 -0.29224,0.41596 -0.24061,0.51172 0.15886,0.29453 0.37417,-0.20344 0.59181,0.0197 0.59181,0.60678 0,0.51074 -0.23513,0.92861 -0.52257,0.92861 -0.31965,0 -0.43337,0.96588 -0.29281,2.4872 0.13564,1.46848 0.0347,2.38119 -0.24637,2.22834 -0.26186,-0.14237 -0.47613,0.44682 -0.47613,1.30933 0,0.86249 -0.13711,1.93993 -0.30466,2.39429 -0.25341,0.68707 -0.21158,0.71227 0.24845,0.14964 0.46248,-0.56558 0.55444,-0.51626 0.56102,0.30066 0.005,0.53743 -0.201,1.04479 -0.45626,1.1275 -0.25525,0.0827 -0.52149,0.65767 -0.59162,1.27777 -0.0701,0.62014 0.0546,1.70739 0.27717,2.4161 0.23953,0.76271 0.19851,1.40696 -0.1006,1.57848 -0.27781,0.15941 -0.63926,1.19254 -0.80315,2.29585 -0.1924,1.29527 -0.13162,1.77462 0.17161,1.35298 0.36364,-0.50565 0.47141,-0.41801 0.47749,0.38829 0.005,0.57275 -0.19967,0.92851 -0.4533,0.79061 -0.25364,-0.1379 -0.54199,0.64252 -0.64079,1.73431 -0.0988,1.09174 -0.007,1.89094 0.20484,1.77594 0.21146,-0.11497 0.38447,0.20883 0.38447,0.71954 0,0.51075 -0.20747,0.92861 -0.46103,0.92861 -0.25355,0 -0.54191,0.89388 -0.6408,1.9864 -0.0989,1.09252 -0.007,1.89233 0.20469,1.77732 0.21147,-0.11496 0.38448,0.11933 0.38448,0.52066 0,0.40136 -0.23068,0.60431 -0.51261,0.45102 -0.30893,-0.16797 -0.51262,0.434 -0.51262,1.51495 0,0.98652 -0.13711,2.16543 -0.3047,2.61978 -0.25336,0.68708 -0.21157,0.71228 0.24849,0.14965 0.48221,-0.58973 0.55413,-0.58009 0.56098,0.0752 0.005,0.41339 -0.21553,0.81929 -0.48851,0.90195 -0.27302,0.0827 -0.52354,0.75919 -0.55675,1.50332 -0.0331,0.74414 0.10423,1.81823 0.30554,2.38691 0.20127,0.56866 0.16344,1.00123 -0.0841,0.96131 -0.24748,-0.04 -0.75191,-0.0486 -1.121,-0.0193 -0.36906,0.0294 -0.52277,0.26447 -0.34153,0.52245 0.21576,0.30715 -0.1541,0.36229 -1.07145,0.15971 -0.88664,-0.19574 -1.28454,-0.14351 -1.08376,0.14231 0.19431,0.27657 -0.20291,0.36411 -1.02496,0.22588 -0.86126,-0.14488 -1.22286,-0.0558 -1.00905,0.24857 0.21134,0.30083 -0.0714,0.38123 -0.77291,0.21982 -0.67798,-0.15596 -0.9819,-0.0776 -0.78517,0.20241 0.19881,0.28303 -0.18982,0.37098 -1.02131,0.23115 -1.01005,-0.16986 -1.24036,-0.0807 -0.93054,0.36033 0.25714,0.36601 0.20927,0.47601 -0.12746,0.29288 -0.29655,-0.16124 -1.2512,-0.16786 -2.12141,-0.0148 -0.8702,0.15312 -1.4703,0.43771 -1.33354,0.6324 0.1368,0.19473 -0.21297,0.2478 -0.77725,0.11798 -0.5643,-0.12982 -1.02598,-0.0285 -1.02598,0.22534 0,0.25375 -0.49742,0.34694 -1.10542,0.20707 -0.77615,-0.17856 -0.99241,-0.0934 -0.72597,0.28578 0.27679,0.39405 0,0.45646 -1.02158,0.23078 -0.92682,-0.20467 -1.28814,-0.14869 -1.06749,0.16534 0.20797,0.29606 -0.0526,0.38589 -0.69251,0.23866 -0.56426,-0.12982 -1.02598,-0.0285 -1.02598,0.22534 0,0.25375 -0.49742,0.34693 -1.10539,0.20707 -0.67745,-0.15586 -0.98118,-0.0774 -0.78449,0.20258 0.19886,0.283 -0.18981,0.37098 -1.02126,0.23112 -0.86126,-0.14484 -1.22286,-0.0558 -1.00906,0.2486 0.21135,0.3008 -0.0714,0.38123 -0.7729,0.21982 -0.77675,-0.17869 -0.99318,-0.0936 -0.7267,0.28565 0.27679,0.39402 0,0.45643 -1.02158,0.23075 -0.92682,-0.20463 -1.28815,-0.14869 -1.06749,0.16537 0.20796,0.29606 -0.0526,0.38586 -0.69251,0.23866 -0.56426,-0.12981 -1.02597,-0.0285 -1.02597,0.22534 0,0.25374 -0.49743,0.34693 -1.10541,0.20703 -0.67743,-0.15582 -0.98117,-0.0773 -0.78447,0.20258 0.19884,0.28304 -0.18981,0.37099 -1.02128,0.23116 -0.86125,-0.14484 -1.22285,-0.0558 -1.00904,0.24857 0.21134,0.30083 -0.0714,0.38123 -0.77291,0.21986 -0.77676,-0.1787 -0.99317,-0.0936 -0.72672,0.28561 0.27681,0.39405 3.9e-4,0.45646 -1.02155,0.23078 -0.92684,-0.20467 -1.28813,-0.14869 -1.06752,0.16537 0.21165,0.30127 -0.0706,0.38174 -0.77264,0.22023 -0.77675,-0.17873 -0.99314,-0.0936 -0.72669,0.28561 0.2768,0.39405 3.8e-4,0.45646 -1.02157,0.23078 -0.88661,-0.19578 -1.28451,-0.14355 -1.08373,0.14227 0.1943,0.27658 -0.20296,0.36411 -1.02499,0.22587 -0.86127,-0.14487 -1.22286,-0.0558 -1.00905,0.24858 0.21135,0.30084 -0.0714,0.38123 -0.77292,0.21986 -0.77675,-0.17873 -0.99314,-0.0936 -0.72669,0.28561 0.27681,0.39405 3.9e-4,0.45645 -1.02155,0.23079 -0.88662,-0.19578 -1.28452,-0.14356 -1.08375,0.14226 0.19432,0.27658 -0.20294,0.36412 -1.02499,0.22588 -0.86126,-0.14487 -1.22285,-0.0558 -1.00903,0.24857 0.21132,0.30083 -0.0715,0.38124 -0.77292,0.21985 -0.7088,-0.16306 -0.98501,-0.0821 -0.76895,0.22548 0.21236,0.30229 -0.0427,0.3926 -0.68878,0.24394 -0.56428,-0.12982 -1.02597,-0.0285 -1.02597,0.22534 0,0.25374 -0.49746,0.34693 -1.10543,0.20704 -0.77615,-0.17856 -0.9924,-0.0934 -0.72599,0.28581 0.27681,0.39402 3.8e-4,0.45642 -1.02157,0.23075 -0.88661,-0.19577 -1.2845,-0.14351 -1.08372,0.14226 0.19431,0.27658 -0.20295,0.36416 -1.025,0.22588 -0.86126,-0.14483 -1.22284,-0.0558 -1.00903,0.24861 0.21133,0.3008 -0.0714,0.38123 -0.77293,0.21982 -0.77674,-0.17869 -0.99314,-0.0936 -0.72669,0.28565 0.2768,0.39402 3.9e-4,0.45642 -1.02156,0.23075 -0.92683,-0.20464 -1.28813,-0.14869 -1.06751,0.16536 0.21165,0.30128 -0.0706,0.38174 -0.77265,0.22024 -0.77676,-0.1787 -0.99314,-0.0936 -0.7267,0.28561 0.27682,0.39405 3.9e-4,0.45645 -1.02157,0.23078 -0.8866,-0.19577 -1.28449,-0.14355 -1.08372,0.14227 0.19429,0.27657 -0.20295,0.36411 -1.025,0.22587 -0.86125,-0.14484 -1.22284,-0.0558 -1.00903,0.24858 0.21133,0.30083 -0.0714,0.38122 -0.77292,0.21985 -0.67796,-0.15596 -0.98189,-0.0776 -0.78516,0.20241 0.19882,0.28301 -0.1898,0.37098 -1.0213,0.23115 -0.86127,-0.14487 -1.22286,-0.0558 -1.00903,0.24857 0.21132,0.30084 -0.0714,0.38124 -0.77293,0.21986 -0.77675,-0.17873 -0.99314,-0.0936 -0.72669,0.28562 0.27681,0.39405 3.8e-4,0.45646 -1.02157,0.23078 -0.92683,-0.20467 -1.28813,-0.14869 -1.06751,0.16533 0.20799,0.29606 -0.0526,0.38591 -0.69249,0.23867 -0.56427,-0.12982 -1.02595,-0.0285 -1.02595,0.22533 0,0.25376 -0.49746,0.34694 -1.10544,0.20708 -0.77615,-0.17856 -0.9924,-0.0934 -0.72598,0.28578 0.2768,0.39405 3.7e-4,0.45646 -1.02157,0.23078 -0.92684,-0.20467 -1.28813,-0.14869 -1.0675,0.16533 0.21165,0.30131 -0.0706,0.38174 -0.77265,0.22023 -0.77676,-0.17869 -0.99315,-0.0936 -0.7267,0.28564 0.2768,0.39402 3.8e-4,0.45643 -1.02157,0.23075 -0.92683,-0.20463 -1.28813,-0.14868 -1.06751,0.16537 0.20799,0.29607 -0.0526,0.38587 -0.69248,0.23867 -0.56428,-0.12982 -1.02598,-0.0285 -1.02598,0.22534 0,0.25375 -0.49743,0.34693 -1.10541,0.20704 -0.77615,-0.17857 -0.99241,-0.0934 -0.72599,0.28581 0.27681,0.39402 3.7e-4,0.45642 -1.02157,0.23075 -0.88661,-0.19578 -1.28452,-0.14352 -1.08373,0.14226 0.1943,0.27659 -0.20295,0.36415 -1.02499,0.22588 -0.86127,-0.14483 -1.22284,-0.0558 -1.00903,0.24861 0.21132,0.30079 -0.0714,0.38123 -0.77292,0.21982 -0.67796,-0.15596 -0.98189,-0.0776 -0.78518,0.2024 0.19883,0.28305 -0.1898,0.37099 -1.02128,0.23116 -0.86127,-0.14484 -1.22286,-0.0558 -1.00904,0.24858 0.21132,0.30083 -0.0714,0.38123 -0.77292,0.21985 -0.77675,-0.17869 -0.99314,-0.0936 -0.7267,0.28561 0.27681,0.39406 3.8e-4,0.45646 -1.02156,0.23079 -0.92684,-0.20468 -1.28813,-0.14869 -1.06751,0.16537 0.21165,0.30127 -0.0706,0.38174 -0.77265,0.22022 -0.77675,-0.17873 -0.99314,-0.0936 -0.7267,0.28561 0.27681,0.39406 3.8e-4,0.45647 -1.02156,0.23079 -0.92684,-0.20467 -1.28813,-0.1487 -1.06751,0.16533 0.20799,0.29607 -0.0526,0.3859 -0.69249,0.23866 -0.56428,-0.12981 -1.02597,-0.0285 -1.02597,0.22535 0,0.25374 -0.49743,0.34693 -1.10542,0.20706 -0.67741,-0.15586 -0.98116,-0.0774 -0.78445,0.20258 0.19882,0.283 -0.18982,0.37099 -1.0213,0.23112 -0.86126,-0.14484 -1.22285,-0.0558 -1.00904,0.24861 0.21133,0.3008 -0.0714,0.38123 -0.77291,0.21982 -0.77676,-0.17869 -0.99315,-0.0936 -0.72671,0.28565 0.2768,0.39401 3.8e-4,0.45642 -1.02156,0.23075 -1.01528,-0.22419 -1.29755,-0.16209 -1.02526,0.2255 0.27228,0.38759 -0.0102,0.44966 -1.02526,0.22551 -0.92684,-0.20467 -1.28814,-0.1487 -1.06752,0.16533 0.21166,0.30131 -0.0706,0.38174 -0.77263,0.22023 -0.77676,-0.1787 -0.99315,-0.0936 -0.72672,0.28565 0.27683,0.39401 3.9e-4,0.45642 -1.02155,0.23074 -0.88661,-0.19577 -1.28451,-0.14352 -1.08374,0.14227 0.19431,0.27658 -0.20295,0.36415 -1.02497,0.22588 -0.86128,-0.14484 -1.22287,-0.0558 -1.00906,0.24861 0.21133,0.30079 -0.0714,0.38123 -0.77291,0.21982 -0.67796,-0.15597 -0.98188,-0.0776 -0.78517,0.2024 0.19883,0.28304 -0.1898,0.37099 -1.02128,0.23116 -0.86128,-0.14483 -1.22285,-0.0558 -1.00904,0.24857 0.21133,0.30083 -0.0714,0.38124 -0.77292,0.21986 -0.77675,-0.1787 -0.99315,-0.0936 -0.72671,0.28561 0.27681,0.39405 3.9e-4,0.45646 -1.02155,0.23078 -0.88662,-0.19577 -1.28452,-0.14355 -1.08374,0.14227 0.19431,0.27658 -0.20295,0.36411 -1.02499,0.22587 -0.86127,-0.14483 -1.22286,-0.0558 -1.00904,0.24858 0.21132,0.30084 -0.0714,0.38123 -0.77292,0.21986 -0.67795,-0.15596 -0.98189,-0.0776 -0.78516,0.20241 0.19882,0.283 -0.18981,0.37098 -1.0213,0.23115 -1.01006,-0.16987 -1.24035,-0.0807 -0.93054,0.36033 0.25712,0.36601 0.20927,0.47598 -0.12748,0.29288 -0.29654,-0.16124 -1.25118,-0.1679 -2.1214,-0.0149 -0.87023,0.15309 -1.47761,0.4273 -1.34974,0.60931 0.12786,0.18201 -0.37154,0.22936 -1.10978,0.10519 -0.86126,-0.14483 -1.22285,-0.0558 -1.00904,0.24858 0.21133,0.30083 -0.0714,0.38126 -0.77291,0.21985 -0.67796,-0.15596 -0.98189,-0.0776 -0.78517,0.20241 0.19882,0.28304 -0.1898,0.37098 -1.02131,0.23115 -0.86125,-0.14483 -1.22284,-0.0558 -1.00903,0.24857 0.20767,0.29563 -0.0534,0.3854 -0.69275,0.2383 -0.56429,-0.12982 -1.02597,-0.0285 -1.02597,0.22534 0,0.25374 -0.49744,0.34689 -1.10543,0.20703 -0.70825,-0.16293 -0.98427,-0.0818 -0.76823,0.22568 0.21235,0.30229 -0.0427,0.39259 -0.6888,0.24394 -0.56428,-0.12985 -1.02595,-0.0284 -1.02595,0.2253 0,0.25379 -0.49745,0.34694 -1.10543,0.20708 -0.77616,-0.17856 -0.99242,-0.0934 -0.72599,0.28577 0.2768,0.39406 3.9e-4,0.45647 -1.02156,0.23079 -0.92683,-0.20467 -1.28813,-0.14869 -1.06751,0.16533 0.20798,0.29607 -0.0526,0.3859 -0.69249,0.2387 -0.56428,-0.12985 -1.02596,-0.0285 -1.02596,0.22531 0,0.25377 -0.49745,0.34693 -1.10544,0.20706 -0.67742,-0.15586 -0.98114,-0.0774 -0.78445,0.20257 0.19882,0.28302 -0.18981,0.37096 -1.0213,0.23116 -0.86126,-0.14487 -1.22284,-0.0558 -1.00903,0.24858 0.21133,0.30083 -0.0714,0.38123 -0.77292,0.21982 -0.67796,-0.15596 -0.9819,-0.0776 -0.78516,0.20241 0.19882,0.28303 -0.18981,0.37098 -1.02131,0.23119 -0.86127,-0.14487 -1.22285,-0.0558 -1.00903,0.24857 0.21132,0.3008 -0.0714,0.38123 -0.77292,0.21982 -0.77676,-0.17869 -0.99315,-0.0936 -0.7267,0.28564 0.27682,0.39402 3.8e-4,0.45647 -1.02157,0.23072 -0.8866,-0.1957 -1.2845,-0.14348 -1.08372,0.1423 0.19429,0.27658 -0.20295,0.36412 -1.02499,0.22591 -0.86127,-0.14487 -1.22285,-0.0558 -1.00904,0.24858 0.21132,0.3008 -0.0714,0.38123 -0.77292,0.21982 -0.77676,-0.17869 -0.99315,-0.0936 -0.7267,0.28565 0.27681,0.39402 3.8e-4,0.45645 -1.02156,0.23072 -0.92685,-0.20461 -1.28814,-0.14863 -1.0675,0.1654 0.21164,0.30123 -0.0706,0.3817 -0.77266,0.22019 -0.77675,-0.17866 -0.99314,-0.0936 -0.7267,0.28568 0.27682,0.39402 3.9e-4,0.45643 -1.02156,0.23071 -0.88662,-0.19574 -1.28451,-0.14351 -1.08373,0.1423 0.1943,0.27658 -0.20295,0.36412 -1.02499,0.22588 -0.86127,-0.14483 -1.22286,-0.0558 -1.00903,0.24861 0.21131,0.3008 -0.0714,0.3812 -0.77293,0.21979 -0.77675,-0.17866 -0.99314,-0.0936 -0.72669,0.28568 0.2768,0.39402 3.7e-4,0.45642 -1.02157,0.23072 -0.88661,-0.19574 -1.28452,-0.14352 -1.08373,0.14229 0.19429,0.27658 -0.20296,0.36412 -1.02499,0.22588 -0.86128,-0.14484 -1.22285,-0.0558 -1.00903,0.24861 0.21132,0.3008 -0.0714,0.38119 -0.77293,0.21979 -0.77675,-0.17866 -0.99314,-0.0936 -0.7267,0.28568 0.27681,0.39402 3.8e-4,0.45642 -1.02156,0.23071 -0.92684,-0.2046 -1.28813,-0.14866 -1.0675,0.16537 0.21165,0.30127 -0.0706,0.38174 -0.77265,0.22023 -0.77676,-0.1787 -0.99315,-0.0936 -0.7267,0.28565 0.2768,0.39404 3.7e-4,0.45645 -1.02157,0.23074 -0.98357,-0.21715 -1.29391,-0.1569 -1.0416,0.20227 0.236,0.33588 0.0684,0.41337 -0.48791,0.22554 -0.48003,-0.16205 -1.04366,-0.0132 -1.30035,0.34342 z m -17.45775,-94.30391 c 0.55747,0 1.37849,-0.12319 1.82447,-0.27373 0.73702,-0.24882 0.81086,-13.18567 0.81086,-142.06182 0,-99.49243 -0.16194,-141.78806 -0.54288,-141.78806 -0.29858,0 -0.40031,-0.20294 -0.22606,-0.45099 0.21058,-0.29975 -21.36438,-0.45099 -64.3352,-0.45099 -42.97081,0 -64.54576,0.15124 -64.33518,0.45099 0.17424,0.24805 0.0725,0.45099 -0.22607,0.45099 -0.29858,0 -0.54288,0.30442 -0.54288,0.67649 0,0.37206 0.22714,0.67648 0.50476,0.67648 0.31235,0 0.37902,1.0586 0.17487,2.77685 -0.24622,2.07242 -0.177,2.6937 0.27284,2.44911 0.44872,-0.24398 0.517,0.31408 0.2672,2.18405 -0.23135,1.73175 -0.1569,2.51177 0.23979,2.51177 0.39879,0 0.47411,0.85207 0.24543,2.77684 -0.22741,1.91423 -0.16045,2.68471 0.21559,2.48025 0.37419,-0.20346 0.45566,0.57493 0.25944,2.47874 -0.20952,2.03272 -0.12793,2.68937 0.30491,2.45403 0.35318,-0.19203 0.59095,-0.0277 0.59095,0.4084 0,0.40135 -0.18764,0.62769 -0.41697,0.503 -0.22935,-0.1247 -0.35127,0.50733 -0.27097,1.40453 0.0803,0.89718 0.4378,1.78987 0.7944,1.98376 0.47837,0.2601 0.51512,0.68304 0.14016,1.61304 -0.27952,0.69329 -0.43366,1.82206 -0.34253,2.50838 0.0912,0.68633 0.39129,1.12521 0.66704,0.97529 0.31877,-0.17333 0.37281,0.57983 0.14838,2.06822 -0.266,1.76412 -0.17883,2.43549 0.35382,2.72509 0.53774,0.29239 0.58522,0.68573 0.19854,1.6448 -0.27951,0.69329 -0.43363,1.82206 -0.34252,2.50838 0.0912,0.68633 0.36438,1.13984 0.60721,1.00781 0.24284,-0.13203 0.3065,0.91079 0.14149,2.31739 -0.23962,2.0425 -0.1646,2.4838 0.37255,2.19174 0.51898,-0.28218 0.60311,-0.06 0.3683,0.97284 -0.16736,0.73619 -0.34603,1.52879 -0.39705,1.76133 -0.051,0.23254 -0.0655,0.99288 -0.032,1.68964 0.0344,0.71939 0.28223,1.14639 0.57334,0.98811 0.28194,-0.1533 0.51263,-0.0668 0.51263,0.19227 0,0.32115 10.35697,0.50898 32.55215,0.59036 21.34498,0.0783 32.62645,-0.0359 32.76792,-0.33164 0.11867,-0.24804 0.2338,38.31159 0.25587,85.68807 l 0.0401,86.13906 -1.27782,0.0649 c -0.7726,0.0392 -1.14679,-0.12167 -0.94643,-0.40689 0.2203,-0.31358 -0.3824,-0.38751 -1.79772,-0.2205 -1.42872,0.16859 -2.01893,0.0944 -1.7942,-0.22549 0.22472,-0.31991 -0.36549,-0.39409 -1.79422,-0.2255 -1.42871,0.16859 -2.01893,0.0944 -1.7942,-0.2255 0.22574,-0.32134 -0.39206,-0.39094 -1.89561,-0.21352 -1.5757,0.18593 -2.01259,0.12983 -1.48822,-0.19108 0.52597,-0.32188 0.0125,-0.39273 -1.76182,-0.2431 -1.71281,0.14445 -2.27979,0.0722 -1.79421,-0.22847 0.48056,-0.29761 -0.11818,-0.35576 -1.85322,-0.18001 -1.9037,0.19284 -2.36533,0.13483 -1.79422,-0.22549 0.57111,-0.36032 0.10947,-0.41834 -1.79421,-0.2255 -1.89999,0.19248 -2.3642,0.13446 -1.7942,-0.22421 0.57877,-0.3642 0.23012,-0.42983 -1.40986,-0.26535 -1.4549,0.14591 -2.06752,0.0601 -1.84389,-0.25821 0.22473,-0.31991 -0.36548,-0.39408 -1.7942,-0.2255 -1.21549,0.14343 -2.00611,0.0761 -1.84244,-0.15685 0.1577,-0.22445 -0.0729,-0.40809 -0.51248,-0.40809 -0.62138,0 -0.80096,-0.52685 -0.80705,-2.36769 -0.006,-1.49483 -0.17014,-2.14239 -0.44805,-1.75654 -0.25907,0.35968 -0.35922,-0.75371 -0.24341,-2.70594 0.12757,-2.15048 0.0384,-2.99987 -0.25349,-2.41512 -0.29149,0.58389 -0.38188,-0.29082 -0.25632,-2.48044 0.12716,-2.21736 0.0369,-3.07174 -0.26187,-2.48045 -0.29705,0.58779 -0.37461,-0.19768 -0.22268,-2.25495 0.16724,-2.2646 0.0826,-2.96589 -0.29903,-2.48107 -0.38025,0.48291 -0.46198,-0.28958 -0.28631,-2.70594 0.16514,-2.27135 0.0899,-3.08563 -0.22923,-2.47982 -0.31853,0.60472 -0.39224,-0.21276 -0.22368,-2.48044 0.19277,-2.59312 0.11492,-3.22456 -0.33365,-2.70594 -0.45925,0.53102 -0.51233,0.35265 -0.24685,-0.82954 0.18602,-0.82832 0.17331,-3.33909 -0.0282,-5.5795 -0.2328,-2.58777 -0.52892,-3.84785 -0.81188,-3.45486 -0.32903,0.45696 -0.44748,0.35345 -0.45328,-0.39611 l -0.008,-1.01473 -28.83551,0.004 -28.835499,0.004 -0.51263,1.01122 c -0.28194,0.55616 -0.44001,1.67463 -0.35127,2.48548 0.0888,0.81086 0.36939,1.36117 0.62364,1.22294 0.26336,-0.14319 0.35336,0.7264 0.20916,2.02089 -0.15017,1.34824 -0.0468,2.27224 0.25418,2.27224 0.31575,0 0.38697,1.13366 0.18859,3.00245 -0.23565,2.22018 -0.16385,2.91826 0.27562,2.67932 0.35357,-0.19224 0.5943,-0.0383 0.5943,0.37997 0,0.38671 -0.19214,0.70311 -0.42697,0.70311 -0.23483,0 -0.36939,0.45663 -0.29903,1.01472 0.0704,0.55811 0.14714,1.48334 0.17065,2.05608 0.0235,0.57273 0.26341,0.92134 0.53315,0.77467 0.30258,-0.16451 0.37113,0.61956 0.17898,2.04693 -0.23129,1.71806 -0.12843,2.41309 0.3996,2.70019 0.54212,0.29476 0.59031,0.68612 0.20285,1.64713 -0.27951,0.69328 -0.43364,1.82205 -0.34251,2.50838 0.0912,0.68633 0.38457,1.12886 0.65209,0.98341 0.29934,-0.16277 0.35736,0.70148 0.15084,2.2473 -0.22779,1.70506 -0.15444,2.51177 0.22836,2.51177 0.3856,0 0.46315,0.94951 0.24523,3.00246 -0.25525,2.40484 -0.18561,2.93008 0.34994,2.6389 0.49989,-0.2718 0.60286,-0.0906 0.40804,0.71822 -0.14331,0.59496 -0.31941,1.2847 -0.39134,1.53275 -0.072,0.24804 -0.10344,1.02106 -0.0701,1.71782 0.0351,0.73216 0.28034,1.14742 0.58111,0.98389 0.34025,-0.18501 0.42442,0.58629 0.24317,2.22834 -0.16755,1.51777 -0.0768,2.51128 0.22927,2.51128 0.31475,0 0.38584,1.13657 0.18778,3.00245 -0.23565,2.22018 -0.16385,2.91827 0.27561,2.67933 0.35357,-0.19226 0.5943,-0.0383 0.5943,0.37996 0,0.3867 -0.20042,0.70311 -0.44539,0.70311 -0.24496,0 -0.3583,0.65957 -0.25185,1.46571 0.10639,0.80614 0.41685,1.5318 0.68979,1.61256 0.29395,0.087 0.36685,1.23607 0.17883,2.81869 -0.20664,1.73926 -0.12998,2.67184 0.21961,2.67184 0.34712,0 0.43589,0.98146 0.251,2.77514 -0.21178,2.0549 -0.1304,2.69053 0.3136,2.44913 0.44473,-0.24181 0.51294,0.32281 0.26408,2.18573 -0.22779,1.70507 -0.15446,2.51178 0.22836,2.51178 0.38558,0 0.46314,0.9495 0.24523,3.00245 -0.23566,2.22018 -0.16386,2.91827 0.27559,2.67934 0.32688,-0.17771 0.5943,-0.0845 0.5943,0.20707 0,0.30828 0.42942,0.43139 1.02598,0.29417 0.64538,-0.14849 0.90105,-0.0583 0.68923,0.24326 -0.22621,0.32205 0.27819,0.39156 1.5372,0.21181 1.16364,-0.16614 1.87391,-0.0874 1.87391,0.20772 0,0.26136 0.46168,0.36902 1.02597,0.2392 0.56427,-0.12981 0.91291,-0.0751 0.77471,0.1216 -0.1382,0.19672 0.20728,0.46316 0.76773,0.59209 0.56044,0.12895 1.14816,0.0505 1.30606,-0.17422 0.1579,-0.22477 0.517759,-0.40864 0.799709,-0.40864 0.28196,0 0.34781,0.23461 0.14636,0.52137 -0.26237,0.37349 0.0999,0.43938 1.2768,0.2323 1.16552,-0.20507 1.53801,-0.13955 1.28158,0.22548 -0.25592,0.36432 0.11094,0.43146 1.2561,0.23 1.01874,-0.17926 1.61759,-0.10374 1.61759,0.20396 0,0.296 0.50525,0.37708 1.28158,0.20565 0.79943,-0.17652 1.28159,-0.0917 1.28159,0.22548 0,0.3216 0.48686,0.40098 1.32452,0.21604 0.9571,-0.21134 1.21941,-0.14284 0.94555,0.24698 -0.27813,0.39594 0.0582,0.46255 1.26411,0.25036 0.9037,-0.159 1.51897,-0.11243 1.36727,0.10354 -0.15171,0.21593 0.2912,0.48798 0.98426,0.60455 0.69305,0.11655 1.13811,0.0383 0.98903,-0.17393 -0.14908,-0.21222 -0.0268,-0.38584 0.27182,-0.38584 0.2986,0 0.5429,0.22659 0.5429,0.50358 0,0.29187 0.45926,0.39794 1.09233,0.2523 0.64387,-0.14816 1.42371,0.0403 1.89948,0.45878 0.53526,0.47091 0.87242,0.53785 1.00092,0.19869 0.1065,-0.28125 0.41883,-0.51139 0.69392,-0.51139 0.2751,0 0.33844,0.23021 0.14079,0.51159 -0.24843,0.3536 0.12962,0.44845 1.22423,0.30709 0.95205,-0.12291 1.46043,-0.029 1.27469,0.23532 -0.1921,0.27347 0.35131,0.32813 1.43681,0.14453 1.30697,-0.22108 1.5525,-0.17477 0.97681,0.18417 -0.58718,0.36615 -0.32303,0.44158 1.11746,0.31914 1.07069,-0.091 1.75964,0.0199 1.59325,0.25699 -0.16613,0.23647 0.39308,0.3287 1.29046,0.21282 0.92888,-0.11994 1.45875,-0.0267 1.28159,0.22551 -0.17718,0.25219 0.35269,0.34542 1.28156,0.22551 0.87101,-0.11247 1.48317,-0.0615 1.36038,0.1133 -0.1228,0.17481 0.35074,0.41436 1.05233,0.53237 0.73795,0.1241 1.27892,0.004 1.28345,-0.2867 0.005,-0.27563 0.21139,-0.2184 0.46016,0.12721 0.26513,0.36836 0.89861,0.52573 1.53075,0.38032 0.59314,-0.13647 0.9618,-0.0821 0.81925,0.12086 -0.14256,0.20291 0.65478,0.50482 1.77188,0.67083 1.11709,0.16604 2.50217,0.17038 3.07797,0.01 0.6489,-0.1812 1.04688,-0.0908 1.04688,0.23795 0,0.34045 0.45882,0.42896 1.28156,0.24729 0.79943,-0.17649 1.28158,-0.0916 1.28158,0.2255 0,0.32157 0.48688,0.401 1.32454,0.21601 0.9571,-0.21133 1.2194,-0.14281 0.94555,0.24702 -0.27815,0.39591 0.0582,0.46254 1.26411,0.25037 1.16552,-0.20508 1.53801,-0.13956 1.28157,0.22546 -0.25642,0.36504 0.11607,0.43059 1.28159,0.22552 1.16552,-0.20508 1.53801,-0.13953 1.28157,0.22551 -0.25591,0.36428 0.11094,0.43146 1.25609,0.22997 1.01875,-0.17928 1.61761,-0.10374 1.61761,0.20399 0,0.30019 0.51072,0.37582 1.32452,0.19614 0.95711,-0.21133 1.21941,-0.14284 0.94556,0.24699 -0.27814,0.39595 0.0582,0.46254 1.2641,0.25037 1.16552,-0.20508 1.53802,-0.13953 1.28159,0.2255 -0.25644,0.36503 0.11605,0.43055 1.28157,0.22548 1.16552,-0.20509 1.53801,-0.13954 1.28157,0.2255 -0.25642,0.36503 0.11607,0.43058 1.28159,0.22551 1.16551,-0.20509 1.538,-0.13956 1.28158,0.22547 -0.25644,0.36503 0.11605,0.43058 1.28157,0.2255 1.16552,-0.20507 1.53801,-0.13952 1.28159,0.22551 -0.25644,0.36503 0.11605,0.43055 1.28157,0.22547 1.16551,-0.20507 1.53802,-0.13952 1.28158,0.22551 -0.25643,0.36503 0.11606,0.43058 1.28157,0.2255 0.9037,-0.159 1.51897,-0.11243 1.36727,0.1035 -0.15171,0.21597 0.29122,0.48803 0.98425,0.60455 0.69306,0.11656 1.13812,0.0383 0.98904,-0.17393 -0.14908,-0.21221 -0.0268,-0.38583 0.27183,-0.38583 0.29859,0 0.54289,0.22662 0.54289,0.50357 0,0.29231 0.53114,0.41425 1.26606,0.29065 0.69634,-0.11709 1.1604,-0.0625 1.03124,0.12134 -0.12915,0.18387 0.33222,0.42963 1.02526,0.54619 0.69305,0.11655 1.13813,0.0382 0.98904,-0.17393 -0.14909,-0.21221 -0.0268,-0.38583 0.27183,-0.38583 0.29858,0 0.54289,0.22493 0.54289,0.49989 0,0.31234 0.49694,0.39013 1.32452,0.20741 0.76591,-0.16912 1.20084,-0.11639 1.03123,0.12505 -0.1613,0.2296 0.27376,0.51284 0.96681,0.6294 0.69304,0.11656 1.13811,0.0382 0.98903,-0.17392 -0.14908,-0.21222 -0.0268,-0.38584 0.27183,-0.38584 0.29858,0 0.54288,0.22659 0.54288,0.50355 0,0.2923 0.53114,0.41424 1.26608,0.29064 0.7748,-0.13028 1.14168,-0.0358 0.94554,0.24334 -0.20654,0.294 0.30028,0.35123 1.42524,0.16096 1.30698,-0.22104 1.5525,-0.17477 0.97682,0.18418 -0.58718,0.36615 -0.32305,0.44158 1.11746,0.31913 1.03752,-0.0882 1.78985,-0.023 1.67181,0.14514 -0.11802,0.16801 0.2442,0.411 0.80491,0.54 0.56072,0.12901 1.0195,0.0506 1.0195,-0.17422 0,-0.22484 0.24429,-0.40877 0.54289,-0.40877 0.29858,0 0.38115,0.23021 0.18349,0.5116 -0.24841,0.35359 0.12963,0.4484 1.22425,0.30708 0.92887,-0.11994 1.45875,-0.0267 1.28157,0.22547 -0.17716,0.25223 0.35271,0.34545 1.28159,0.22551 0.92887,-0.11994 1.45874,-0.0267 1.28157,0.22551 -0.17716,0.25219 0.35271,0.34541 1.28158,0.22547 0.92887,-0.11991 1.45875,-0.0267 1.28159,0.2255 -0.17718,0.2522 0.3527,0.34545 1.28157,0.22551 0.92887,-0.11994 1.45874,-0.0267 1.28157,0.22548 -0.17717,0.25222 0.35271,0.34544 1.28158,0.2255 0.92888,-0.11994 1.45875,-0.0267 1.28159,0.22551 -0.17719,0.25219 0.35269,0.34541 1.28156,0.22547 0.92888,-0.11991 1.45876,-0.0267 1.28158,0.22551 -0.17717,0.25218 0.3527,0.34544 1.28157,0.2255 0.92888,-0.11994 1.45876,-0.0267 1.28159,0.22547 -0.17718,0.25224 0.3527,0.34545 1.28157,0.22551 0.92887,-0.11994 1.45875,-0.0267 1.28158,0.2255 -0.17717,0.2522 0.3527,0.34542 1.28158,0.22548 0.92887,-0.11991 1.45874,-0.0267 1.28158,0.2255 -0.17717,0.2522 0.3527,0.34546 1.28157,0.22551 0.92887,-0.11994 1.45875,-0.0267 1.28159,0.22548 -0.17718,0.25222 0.3527,0.34544 1.28157,0.2255 0.871,-0.11247 1.48317,-0.0614 1.36037,0.11334 -0.1228,0.1748 0.35075,0.41435 1.05233,0.53233 0.73796,0.1241 1.27892,0.004 1.28346,-0.28666 0.005,-0.27567 0.21138,-0.2184 0.46015,0.12721 0.26514,0.36835 0.89862,0.52573 1.53076,0.38029 0.59314,-0.13645 0.94916,-0.064 0.79115,0.16084 -0.15799,0.22475 0.16885,0.40876 0.72633,0.40876 z m -91.34926,-99.55601 c -0.14222,0.31006 -0.25857,0.0564 -0.25857,-0.56374 0,-0.62011 0.11635,-0.87379 0.25857,-0.56373 0.14221,0.31005 0.14221,0.81742 0,1.12747 z M 107.2345,116.14257 c -0.5972,-0.0217 -0.71867,-0.12851 -0.30974,-0.27247 0.37006,-0.13028 0.81221,-0.11426 0.98256,0.0356 0.17034,0.14986 -0.13243,0.25645 -0.67282,0.23687 z m 8.75743,-0.12448 c -2.53752,-0.001 -3.51096,-0.0788 -2.16321,-0.17197 1.34775,-0.0932 3.42392,-0.0921 4.61368,0.003 1.18976,0.0946 0.0871,0.17085 -2.45047,0.16947 z m 15.37893,0 c -2.53752,-0.001 -3.51096,-0.0788 -2.16321,-0.17197 1.34776,-0.0932 3.42391,-0.0921 4.61367,0.003 1.18978,0.0946 0.0871,0.17085 -2.45046,0.16947 z m 15.37894,0 c -2.53752,-0.001 -3.51097,-0.0788 -2.16322,-0.17197 1.34776,-0.0932 3.42391,-0.0921 4.61369,0.003 1.18976,0.0946 0.0871,0.17085 -2.45047,0.16947 z m 15.37893,0 c -2.53753,-0.001 -3.51098,-0.0788 -2.16322,-0.17197 1.34776,-0.0932 3.42392,-0.0921 4.61368,0.003 1.18978,0.0946 0.0871,0.17085 -2.45046,0.16947 z m 15.37893,0 c -2.53753,-0.001 -3.51096,-0.0788 -2.16322,-0.17197 1.34776,-0.0932 3.42391,-0.0921 4.61368,0.003 1.18977,0.0946 0.0871,0.17085 -2.45046,0.16947 z m 15.37893,0 c -2.53753,-0.001 -3.51097,-0.0788 -2.16322,-0.17197 1.34776,-0.0932 3.42392,-0.0921 4.61368,0.003 1.18976,0.0946 0.0871,0.17085 -2.45046,0.16947 z m 15.37892,0 c -2.53751,-0.001 -3.51096,-0.0788 -2.1632,-0.17197 1.34776,-0.0932 3.4239,-0.0921 4.61367,0.003 1.18977,0.0946 0.0871,0.17085 -2.45047,0.16947 z m 15.12263,0.003 c -2.39656,0 -3.37697,-0.0777 -2.17868,-0.17264 1.19827,-0.0949 3.15908,-0.0949 4.35736,0 1.19827,0.0949 0.21786,0.17264 -2.17868,0.17264 z m 43.62406,284.19584 c 0.99426,0.0666 1.43935,-0.0692 1.22522,-0.37406 -0.22406,-0.31893 0.13128,-0.37545 1.0647,-0.16936 0.98124,0.21668 1.29365,0.15658 1.04272,-0.20061 -0.25239,-0.35928 0.12726,-0.42456 1.28483,-0.22087 1.05345,0.18535 1.52807,0.12535 1.32258,-0.16716 -0.19829,-0.28223 0.19139,-0.37014 1.02175,-0.23048 0.91527,0.1539 1.22836,0.0636 0.98426,-0.28385 -0.25207,-0.35881 0.12819,-0.42405 1.2851,-0.2205 1.05342,0.18536 1.52807,0.12539 1.32257,-0.16713 -0.19828,-0.28226 0.19139,-0.37017 1.02174,-0.23051 0.82134,0.13814 1.21923,0.0506 1.02527,-0.22551 -0.19397,-0.27611 0.20392,-0.36361 1.02525,-0.22547 0.91528,0.1539 1.22839,0.0636 0.98426,-0.28386 -0.25206,-0.3588 0.12821,-0.42405 1.28511,-0.22049 1.05343,0.18535 1.52806,0.12538 1.32257,-0.16713 -0.19828,-0.28226 0.1914,-0.37017 1.02175,-0.23051 0.91528,0.15394 1.22837,0.0636 0.98425,-0.28385 -0.25205,-0.35881 0.12821,-0.42406 1.2851,-0.2205 1.05344,0.18535 1.52806,0.12539 1.32257,-0.16713 -0.19826,-0.28222 0.19141,-0.37014 1.02175,-0.23051 0.82134,0.13814 1.21924,0.0506 1.02528,-0.22547 -0.19398,-0.27614 0.20392,-0.36365 1.02525,-0.22551 0.91527,0.15393 1.22837,0.0636 0.98426,-0.28385 -0.25206,-0.35881 0.12821,-0.42406 1.28511,-0.22051 1.05341,0.18536 1.52806,0.12539 1.32257,-0.16712 -0.19828,-0.28223 0.19139,-0.37014 1.02174,-0.23051 0.94907,0.15961 1.23227,0.0692 0.96679,-0.30872 -0.26956,-0.38369 -0.002,-0.45196 0.94907,-0.24197 0.74225,0.16388 1.32454,0.10018 1.32454,-0.1449 0,-0.24053 0.611,-0.33456 1.35775,-0.20901 0.83255,0.14003 1.23516,0.0539 1.04078,-0.22287 -0.19396,-0.2761 0.20393,-0.36361 1.02527,-0.2255 0.91528,0.15393 1.22838,0.0636 0.98427,-0.28385 -0.25206,-0.35881 0.1282,-0.42403 1.28509,-0.22047 1.05343,0.18536 1.52806,0.12535 1.32257,-0.16716 -0.19827,-0.28223 0.1914,-0.37014 1.02174,-0.23048 0.98617,0.16584 1.23702,0.0759 0.94557,-0.33898 -0.29045,-0.41343 -0.10491,-0.48322 0.69275,-0.26048 0.63523,0.17737 1.08946,0.1082 1.08946,-0.16591 0,-0.28696 0.63019,-0.35921 1.6176,-0.1855 1.03478,0.18208 1.50212,0.12025 1.29709,-0.17162 -0.19827,-0.28223 0.1914,-0.37014 1.02175,-0.23047 0.91528,0.1539 1.22837,0.0636 0.98426,-0.28386 -0.25207,-0.35881 0.12818,-0.42405 1.28509,-0.2205 1.05344,0.18536 1.52807,0.12538 1.32257,-0.16713 -0.19826,-0.28226 0.1914,-0.37016 1.02175,-0.23051 0.82134,0.13814 1.21925,0.0506 1.02526,-0.2255 -0.19397,-0.27611 0.20392,-0.36361 1.02527,-0.22548 0.91528,0.1539 1.22837,0.0636 0.98426,-0.28385 -0.25206,-0.35881 0.1282,-0.42405 1.28509,-0.2205 1.05344,0.18536 1.52809,0.12539 1.32258,-0.16712 -0.19828,-0.28227 0.1914,-0.37018 1.02174,-0.23052 0.91528,0.15394 1.22839,0.0636 0.98428,-0.28385 -0.25207,-0.35881 0.12818,-0.42405 1.28509,-0.2205 1.27889,0.22503 1.55105,0.15809 1.22784,-0.30195 -0.28279,-0.40257 -0.21585,-0.48267 0.20988,-0.25121 0.34381,0.18694 1.42393,0.20805 2.40029,0.0469 0.97635,-0.16113 1.64197,-0.48264 1.47915,-0.7144 -0.17509,-0.24921 0.37529,-0.30326 1.34704,-0.13232 1.05343,0.18536 1.52806,0.12539 1.32257,-0.16712 -0.19827,-0.28223 0.19139,-0.37015 1.02175,-0.23052 0.91528,0.15394 1.22837,0.0636 0.98426,-0.28385 -0.25206,-0.35881 0.1282,-0.42402 1.2851,-0.22047 1.05343,0.18536 1.52807,0.12536 1.32257,-0.16715 -0.19828,-0.28223 0.19139,-0.37014 1.02175,-0.23048 0.82133,0.1381 1.21923,0.0506 1.02526,-0.22551 -0.19397,-0.2761 0.20392,-0.36361 1.02525,-0.2255 0.91529,0.15393 1.22839,0.0636 0.98428,-0.28386 -0.25206,-0.35881 0.12819,-0.42402 1.28509,-0.22047 1.05344,0.18537 1.52806,0.12535 1.32258,-0.16716 -0.19828,-0.28223 0.19139,-0.37013 1.02173,-0.23048 0.91528,0.15391 1.22838,0.0636 0.98427,-0.28385 -0.25206,-0.3588 0.1282,-0.42405 1.2851,-0.2205 1.27889,0.22504 1.55106,0.1581 1.22786,-0.30194 -0.2828,-0.40258 -0.21587,-0.48267 0.20986,-0.25122 0.3438,0.18694 1.42394,0.20806 2.40029,0.0469 0.97637,-0.16113 1.64198,-0.48263 1.47915,-0.71439 -0.17508,-0.24926 0.3753,-0.30331 1.34705,-0.13232 1.10103,0.19374 1.53199,0.13096 1.30635,-0.19023 -0.21183,-0.30151 0.0438,-0.39179 0.68924,-0.2433 0.58143,0.13377 1.02596,0.0142 1.02596,-0.27614 0,-0.3288 0.48619,-0.40484 1.35804,-0.21232 0.94641,0.20897 1.24945,0.14528 0.99978,-0.21011 -0.25239,-0.35928 0.12726,-0.42453 1.28482,-0.22088 1.10106,0.19375 1.53201,0.13098 1.30635,-0.19022 -0.2118,-0.30151 0.0438,-0.39179 0.68924,-0.2433 0.57385,0.13202 1.02598,0.0142 1.02598,-0.26755 0,-0.27698 0.2443,-0.50357 0.54289,-0.50357 0.29858,0 0.4209,0.17362 0.27181,0.38583 -0.14907,0.21222 0.296,0.29048 0.98904,0.17392 0.69305,-0.11655 1.15442,-0.36235 1.02527,-0.54619 -0.12916,-0.18384 0.36919,-0.23267 1.10743,-0.10854 0.91527,0.15394 1.22837,0.0636 0.98426,-0.28386 -0.25206,-0.3588 0.12819,-0.42401 1.28509,-0.22046 1.05343,0.18536 1.52807,0.12536 1.32258,-0.16716 -0.19827,-0.28223 0.19139,-0.37014 1.02175,-0.23048 0.82134,0.13811 1.21923,0.0506 1.02526,-0.2255 -0.19398,-0.27612 0.20393,-0.36361 1.02526,-0.22552 0.91528,0.15394 1.22837,0.0636 0.98426,-0.28384 -0.25207,-0.35881 0.1282,-0.42403 1.2851,-0.22047 1.05343,0.18535 1.52807,0.12535 1.32257,-0.16716 -0.19827,-0.28223 0.19141,-0.37014 1.02174,-0.23048 0.91529,0.1539 1.22839,0.0636 0.98427,-0.28385 -0.25205,-0.35881 0.1282,-0.42405 1.2851,-0.2205 1.05343,0.18536 1.52806,0.12539 1.32257,-0.16713 -0.19827,-0.28226 0.1914,-0.37017 1.02174,-0.23051 0.86127,0.14484 1.22286,0.0558 1.00904,-0.24858 -0.20766,-0.29561 0.0534,-0.38539 0.69276,-0.23829 0.57386,0.13202 1.02597,0.0142 1.02597,-0.26754 0,-0.27699 0.24431,-0.50362 0.54289,-0.50362 0.29859,0 0.40194,0.20065 0.22969,0.44584 -0.1796,0.25564 0.0261,0.33125 0.48237,0.17724 0.43757,-0.1477 0.79558,-0.4618 0.79558,-0.69793 0,-0.23615 0.26502,-0.28527 0.58893,-0.10915 0.43104,0.23437 0.49654,-0.33289 0.2443,-2.11557 -0.25772,-1.82137 -0.20256,-2.26516 0.21868,-1.75932 0.4219,0.50663 0.50264,-0.10384 0.32157,-2.43129 -0.16318,-2.09781 -0.0789,-2.90391 0.25951,-2.48045 0.33753,0.4224 0.41696,-0.40398 0.24315,-2.5296 -0.14438,-1.76564 -0.0785,-2.75941 0.14935,-2.25495 0.29351,0.64965 0.46157,0.18827 0.60075,-1.64919 0.10628,-1.40314 0.0201,-2.45663 -0.19125,-2.34107 -0.21146,0.11554 -0.38093,-0.25852 -0.37662,-0.83125 0.007,-0.859 0.10299,-0.92289 0.55132,-0.36487 0.39627,0.49326 0.47798,-0.16522 0.30169,-2.43129 -0.16223,-2.08538 -0.0779,-2.90139 0.2563,-2.48044 0.33423,0.42095 0.41855,-0.39506 0.25632,-2.48045 -0.16303,-2.09572 -0.0786,-2.90348 0.25899,-2.48044 0.33525,0.41999 0.40869,-0.49036 0.22222,-2.75446 -0.19932,-2.4203 -0.1263,-3.18964 0.25686,-2.70594 0.38372,0.48442 0.45433,-0.21831 0.24929,-2.48107 -0.20724,-2.28701 -0.13661,-2.97052 0.25632,-2.48045 0.39402,0.49144 0.47177,-0.18706 0.28425,-2.48044 -0.17481,-2.13778 -0.10389,-2.86575 0.21949,-2.25495 0.32751,0.61849 0.41667,-0.16111 0.28367,-2.48045 -0.12661,-2.2079 -0.0363,-3.06921 0.25996,-2.48044 0.29068,0.57763 0.36551,-0.31413 0.20805,-2.47981 -0.17654,-2.42814 -0.0949,-3.19121 0.2895,-2.70594 0.38485,0.48586 0.46279,-0.21156 0.27721,-2.48108 -0.17608,-2.1536 -0.10514,-2.87026 0.22314,-2.25495 0.32734,0.61348 0.40264,-0.17971 0.2354,-2.47981 -0.17653,-2.42814 -0.0949,-3.1912 0.28951,-2.70594 0.38372,0.48443 0.45433,-0.21831 0.24929,-2.48108 -0.20724,-2.28699 -0.13661,-2.97051 0.25631,-2.48044 0.39403,0.49144 0.47177,-0.18706 0.28426,-2.48045 -0.17587,-2.1506 -0.10503,-2.8694 0.22244,-2.25495 0.32749,0.61467 0.4129,-0.24728 0.26814,-2.70594 -0.14168,-2.4061 -0.0559,-3.30745 0.25747,-2.70594 0.31669,0.60786 0.3964,-0.12742 0.24447,-2.25495 -0.15429,-2.16082 -0.0747,-2.87232 0.25223,-2.25494 0.32796,0.61934 0.41597,-0.13747 0.28085,-2.41512 -0.12911,-2.17637 -0.0294,-3.10692 0.28994,-2.70594 0.31842,0.39985 0.40313,-0.46339 0.24495,-2.49662 -0.16303,-2.09572 -0.0787,-2.90348 0.25898,-2.48044 0.33626,0.42128 0.41815,-0.48368 0.24931,-2.75509 -0.16857,-2.26769 -0.0949,-3.08516 0.22367,-2.48044 0.3191,0.6058 0.39438,-0.20847 0.22924,-2.47982 -0.17654,-2.42813 -0.0949,-3.19121 0.28949,-2.70594 0.38374,0.48443 0.45434,-0.21831 0.24929,-2.48107 -0.20723,-2.28701 -0.13661,-2.97052 0.25631,-2.48045 0.39293,0.49008 0.46355,-0.19344 0.25633,-2.48044 -0.20724,-2.28701 -0.13661,-2.97052 0.25633,-2.48045 0.39401,0.49145 0.47174,-0.18705 0.28424,-2.48044 -0.17613,-2.1536 -0.10526,-2.87027 0.22312,-2.25495 0.32999,0.61839 0.4125,-0.16148 0.26251,-2.48044 -0.14821,-2.29098 -0.0655,-3.09138 0.25629,-2.48045 0.31911,0.6058 0.39439,-0.20846 0.22922,-2.47981 -0.17566,-2.41636 -0.0939,-3.18885 0.28631,-2.70594 0.38175,0.48482 0.4663,-0.21648 0.29906,-2.48108 -0.15321,-2.07442 -0.0756,-2.84764 0.22633,-2.25495 0.29812,0.58531 0.37314,-0.28535 0.21358,-2.47981 -0.17652,-2.42814 -0.0949,-3.1912 0.28951,-2.70594 0.38374,0.48443 0.45433,-0.21831 0.24928,-2.48108 -0.20626,-2.27615 -0.13564,-2.96818 0.25311,-2.48044 0.39078,0.49025 0.47263,-0.17906 0.29742,-2.43128 -0.16301,-2.09573 -0.0787,-2.90349 0.25899,-2.48046 0.33626,0.42128 0.41814,-0.48367 0.24932,-2.75509 -0.15939,-2.14409 -0.0865,-3.0522 0.19924,-2.48043 0.34125,0.683 0.42338,0.46403 0.33826,-0.90199 l -0.11241,-1.80395 -40.88231,-0.11546 -40.88233,-0.11545 v -25.1659 -25.1659 l 42.57897,0.026 c 23.41844,0.0143 43.04685,-0.12634 43.61868,-0.31245 0.89317,-0.29067 0.99747,-0.60849 0.74007,-2.25494 -0.22895,-1.46486 -0.17713,-1.70399 0.22,-1.01461 0.37812,0.65642 0.45264,-0.0187 0.27371,-2.47981 -0.17568,-2.41636 -0.0939,-3.18885 0.28631,-2.70594 0.38175,0.48482 0.46625,-0.21648 0.29901,-2.48107 -0.15294,-2.07119 -0.0752,-2.84672 0.22565,-2.25495 0.29861,0.58709 0.38462,-0.35756 0.24632,-2.70594 -0.14151,-2.40378 -0.0558,-3.30689 0.25703,-2.70594 0.31154,0.59856 0.38674,-0.2356 0.22357,-2.47982 -0.17566,-2.41636 -0.0939,-3.18885 0.28632,-2.70594 0.38174,0.48482 0.46624,-0.21647 0.299,-2.48107 -0.15336,-2.07676 -0.0757,-2.8483 0.22684,-2.25495 0.29831,0.58495 0.37858,-0.36615 0.22838,-2.70594 -0.15836,-2.46702 -0.0782,-3.3227 0.25341,-2.70594 0.33886,0.63024 0.42192,-0.0343 0.27561,-2.2058 -0.14171,-2.10369 -0.0475,-2.90509 0.29137,-2.48044 0.3363,0.42127 0.41818,-0.48367 0.24933,-2.75509 -0.16856,-2.26769 -0.0949,-3.08517 0.22369,-2.48044 0.31906,0.6058 0.39434,-0.20847 0.22922,-2.47982 -0.16882,-2.32186 -0.0866,-3.16997 0.26208,-2.70594 0.37042,0.49282 0.46934,0.18732 0.36534,-1.12811 l -0.14264,-1.80397 -75.77616,-0.11424 c -69.29502,-0.10446 -75.84721,-0.0517 -76.60713,0.61682 -0.75934,0.66804 -0.83367,7.22934 -0.86218,76.10604 -0.0172,41.45623 0.0523,75.931 0.15437,76.61059 0.10207,0.67958 0.39043,1.12424 0.64079,0.98811 0.25037,-0.13613 0.45522,-0.0326 0.45522,0.23009 0,0.33193 11.80335,0.47761 38.6979,0.47761 h 38.69789 l -0.0393,1.01473 c -0.0217,0.5581 0.13263,1.50309 0.34281,2.09997 0.28446,0.80783 0.21934,0.99673 -0.25473,0.73898 -0.4909,-0.26693 -0.57587,0.27899 -0.37076,2.38221 0.14636,1.50068 0.0852,2.7917 -0.13596,2.86896 -0.22115,0.0772 -0.53619,1.04314 -0.7001,2.14646 -0.19242,1.29525 -0.1316,1.77462 0.17162,1.35297 0.36361,-0.50565 0.47139,-0.41801 0.47747,0.38829 0.005,0.60528 -0.21473,0.92033 -0.52367,0.75235 -0.33419,-0.18171 -0.48832,0.27519 -0.41518,1.2307 0.0639,0.83583 -0.0786,1.79704 -0.31664,2.13602 -0.29224,0.416 -0.2406,0.51173 0.15887,0.29453 0.37416,-0.20344 0.59182,0.0197 0.59182,0.60681 0,0.51072 -0.20449,0.92859 -0.45443,0.92859 -0.24995,0 -0.55752,0.61777 -0.68349,1.37282 -0.12595,0.75506 -0.0368,1.47735 0.19814,1.60509 0.23495,0.12774 0.42716,0.63814 0.42716,1.13423 0,0.49609 -0.20751,0.78916 -0.46114,0.65126 -0.25363,-0.13791 -0.54198,0.64253 -0.64079,1.73429 -0.0988,1.09177 -0.007,1.89095 0.20483,1.77596 0.21146,-0.11498 0.38447,0.11931 0.38447,0.52066 0,0.40134 -0.20751,0.61689 -0.46114,0.47898 -0.25363,-0.1379 -0.54365,0.66191 -0.64449,1.77734 -0.10082,1.11544 -0.009,2.02808 0.20483,2.02808 0.21349,0 0.38817,0.21493 0.38817,0.47761 0,0.26268 -0.20843,0.36427 -0.46318,0.22576 -0.25475,-0.13851 -0.5431,0.74369 -0.64079,1.96043 -0.0978,1.21674 -0.005,2.1179 0.20686,2.00257 0.21146,-0.11534 0.38448,0.22014 0.38448,0.7455 0,0.52537 -0.20752,0.84239 -0.46113,0.70449 -0.25363,-0.1379 -0.54199,0.64254 -0.64079,1.7343 -0.0988,1.09176 -0.007,1.89094 0.20482,1.77595 0.21145,-0.11498 0.38447,0.11932 0.38447,0.52066 0,0.40135 -0.20753,0.61689 -0.46114,0.47899 -0.25362,-0.1379 -0.54364,0.6619 -0.64448,1.77733 -0.10094,1.11545 -0.009,2.02809 0.20481,2.02809 0.2135,0 0.38816,0.30441 0.38816,0.67648 0,0.37207 -0.20644,0.67648 -0.45877,0.67648 -0.25234,0 -0.54494,0.79471 -0.65023,1.76603 -0.10537,0.97131 -0.0142,1.66964 0.20248,1.55185 0.21664,-0.1178 0.3939,0.21566 0.3939,0.74103 0,0.54459 -0.22848,0.83098 -0.53151,0.66622 -0.33419,-0.18171 -0.48833,0.27518 -0.41518,1.2307 0.064,0.83582 -0.0786,1.79704 -0.31664,2.13601 -0.29224,0.416 -0.2406,0.51173 0.15887,0.29454 0.3542,-0.19281 0.59182,-0.029 0.59182,0.40771 0,0.40135 -0.23069,0.6043 -0.51263,0.45099 -0.28262,-0.15367 -0.52732,0.18852 -0.54536,0.76262 -0.018,0.57273 -0.109,1.72903 -0.2023,2.56954 -0.11174,1.00736 -0.0159,1.31477 0.28119,0.90197 0.33515,-0.46559 0.45277,-0.35912 0.45862,0.41514 0.005,0.58068 -0.21893,0.91804 -0.50478,0.76261 -0.29074,-0.15807 -0.51263,0.22081 -0.51263,0.87536 0,0.63476 -0.24431,1.1541 -0.54289,1.1541 -0.2986,0 -0.40875,0.19092 -0.24483,0.42428 0.17781,0.25309 -0.4626,0.31567 -1.58734,0.1551 -1.30176,-0.18584 -1.77784,-0.11604 -1.53789,0.22549 0.23871,0.33981 -0.25793,0.42075 -1.58634,0.25854 -1.44644,-0.17662 -1.74006,-0.11626 -1.16493,0.23942 0.56823,0.35141 0.24631,0.40166 -1.23311,0.19246 -1.43447,-0.20284 -1.89958,-0.13721 -1.64056,0.23149 0.25641,0.36501 -0.1161,0.43056 -1.2816,0.22548 -1.13021,-0.19887 -1.53462,-0.1347 -1.29556,0.20558 0.23993,0.34155 -0.2361,0.41135 -1.5379,0.22549 -1.34306,-0.19173 -1.78141,-0.12114 -1.52389,0.24542 0.25643,0.36502 -0.1161,0.43056 -1.28159,0.22549 -1.13021,-0.19887 -1.53462,-0.1347 -1.29557,0.20557 0.23995,0.34156 -0.2361,0.41136 -1.53788,0.22551 -1.30177,-0.18584 -1.77782,-0.11604 -1.5379,0.22549 0.23872,0.33981 -0.2579,0.42075 -1.58634,0.25854 -1.44644,-0.17662 -1.74004,-0.11626 -1.16491,0.23942 0.56821,0.35141 0.2463,0.40166 -1.23313,0.19246 -1.39056,-0.19663 -1.89593,-0.13201 -1.65457,0.21157 0.23873,0.33979 -0.2579,0.42073 -1.58633,0.25852 -1.44643,-0.17661 -1.74005,-0.11626 -1.16491,0.23943 0.56821,0.35142 0.24631,0.40166 -1.23314,0.19247 -1.43445,-0.20284 -1.89957,-0.13723 -1.64054,0.23147 0.25642,0.36502 -0.11609,0.43056 -1.2816,0.22549 -1.13022,-0.19886 -1.53461,-0.1347 -1.29557,0.20557 0.23995,0.34155 -0.2361,0.41136 -1.53789,0.22551 -1.34308,-0.19175 -1.78141,-0.12116 -1.52389,0.24542 0.25643,0.36501 -0.11609,0.43056 -1.28159,0.22548 -1.13023,-0.19887 -1.53461,-0.1347 -1.29558,0.20557 0.23996,0.34155 -0.23609,0.41136 -1.53788,0.22551 -1.13304,-0.16176 -1.76565,-0.0987 -1.58534,0.15795 0.17507,0.24921 -0.48571,0.36034 -1.58635,0.26679 -1.41834,-0.12056 -1.69562,-0.0444 -1.11746,0.30697 0.5607,0.34075 0.22678,0.39063 -1.23311,0.1842 -1.43447,-0.20284 -1.89958,-0.13722 -1.64057,0.23148 0.25642,0.36502 -0.11609,0.43056 -1.28159,0.22549 -1.13023,-0.19886 -1.53462,-0.1347 -1.29557,0.20557 0.23994,0.34155 -0.23609,0.41136 -1.5379,0.22551 -1.30176,-0.18584 -1.77782,-0.11605 -1.53788,0.22549 0.2387,0.33981 -0.25792,0.42074 -1.58636,0.25853 -1.44641,-0.17661 -1.74003,-0.11626 -1.1649,0.23943 0.56821,0.35141 0.2463,0.40166 -1.23312,0.19246 -1.21127,-0.17128 -1.88355,-0.11438 -1.70202,0.14402 0.17507,0.24921 -0.48571,0.36034 -1.58635,0.26679 -1.41834,-0.12056 -1.69559,-0.0444 -1.11746,0.30697 0.56073,0.34075 0.22679,0.39063 -1.23311,0.1842 -1.43447,-0.20284 -1.89958,-0.13722 -1.64057,0.23148 0.25642,0.36501 -0.11609,0.43056 -1.28159,0.22549 -1.16552,-0.20507 -1.53801,-0.13953 -1.28158,0.2255 0.25334,0.36062 -0.0876,0.43556 -1.13969,0.25046 -0.95149,-0.16743 -1.64936,-0.0533 -1.9058,0.31179 -0.22253,0.31676 -0.43343,12.26025 -0.46866,26.54109 -0.0351,14.28085 0.0102,26.17606 0.0996,26.43386 0.09,0.25778 0.86625,0.51579 1.72509,0.57339 z m 3.53798,-284.19007 c -2.1146,0 -2.97967,-0.0796 -1.92236,-0.1769 1.0573,-0.0973 2.78743,-0.0973 3.84474,0 1.0573,0.0973 0.19223,0.1769 -1.92238,0.1769 z m 14.60998,-0.008 c -2.53751,-0.001 -3.51096,-0.0788 -2.1632,-0.17196 1.34776,-0.0932 3.42391,-0.0921 4.61367,0.003 1.18977,0.0946 0.0871,0.17084 -2.45047,0.16947 z m 15.37894,0 c -2.53752,-0.001 -3.51097,-0.0788 -2.16322,-0.17196 1.34777,-0.0932 3.42391,-0.0921 4.61369,0.003 1.18977,0.0946 0.0871,0.17084 -2.45047,0.16947 z m 15.37894,0 c -2.53753,-0.001 -3.51098,-0.0788 -2.16323,-0.17196 1.34776,-0.0932 3.42393,-0.0921 4.61369,0.003 1.18976,0.0946 0.0871,0.17084 -2.45046,0.16947 z m 15.37892,0 c -2.53752,-0.001 -3.51097,-0.0788 -2.16322,-0.17196 1.34777,-0.0932 3.42392,-0.0921 4.61368,0.003 1.18978,0.0946 0.0871,0.17084 -2.45046,0.16947 z m 15.37892,0 c -2.53752,-0.001 -3.51095,-0.0788 -2.1632,-0.17196 1.34775,-0.0932 3.42391,-0.0921 4.61367,0.003 1.18977,0.0946 0.0871,0.17084 -2.45047,0.16947 z m 15.37894,0 c -2.53751,-0.001 -3.51097,-0.0788 -2.16322,-0.17196 1.34778,-0.0932 3.42392,-0.0921 4.61368,0.003 1.18977,0.0946 0.0871,0.17084 -2.45046,0.16947 z m 15.37893,0 c -2.53752,-0.001 -3.51097,-0.0788 -2.16321,-0.17196 1.34776,-0.0932 3.42391,-0.0921 4.61368,0.003 1.18977,0.0946 0.0871,0.17084 -2.45047,0.16947 z m 15.37894,0 c -2.53754,-0.001 -3.51098,-0.0788 -2.16323,-0.17196 1.34776,-0.0932 3.42392,-0.0921 4.61368,0.003 1.18978,0.0946 0.0871,0.17084 -2.45045,0.16947 z m 15.37891,0 c -2.53752,-0.001 -3.51096,-0.0788 -2.1632,-0.17196 1.34777,-0.0932 3.42393,-0.0921 4.61368,0.003 1.18975,0.0946 0.0871,0.17084 -2.45048,0.16947 z"
       id="path23206" />
  </g>
</svg>
