<?xml version="1.0" encoding="UTF-8" standalone="no"?>
<!-- Created with Inkscape (http://www.inkscape.org/) -->

<svg
   version="1.1"
   id="svg878"
   width="500"
   height="500"
   viewBox="0 0 500 500"
   sodipodi:docname="techStack.svg"
   inkscape:version="1.1.2 (0a00cf5339, 2022-02-04)"
   xmlns:inkscape="http://www.inkscape.org/namespaces/inkscape"
   xmlns:sodipodi="http://sodipodi.sourceforge.net/DTD/sodipodi-0.dtd"
   xmlns="http://www.w3.org/2000/svg"
   xmlns:svg="http://www.w3.org/2000/svg">
  <defs
     id="defs882" />
  <sodipodi:namedview
     id="namedview880"
     pagecolor="#ffffff"
     bordercolor="#666666"
     borderopacity="1.0"
     inkscape:pageshadow="2"
     inkscape:pageopacity="0.0"
     inkscape:pagecheckerboard="0"
     showgrid="false"
     inkscape:zoom="0.79499576"
     inkscape:cx="341.51126"
     inkscape:cy="413.83869"
     inkscape:window-width="1920"
     inkscape:window-height="1011"
     inkscape:window-x="0"
     inkscape:window-y="0"
     inkscape:window-maximized="1"
     inkscape:current-layer="g884" />
  <g
     inkscape:groupmode="layer"
     inkscape:label="Image"
     id="g884">
    <path
       style="fill:#000000;stroke-width:1"
       d="m 250.17715,439.99995 c -0.38786,-0.0209 -23.05715,-8.99996 -50.3762,-19.95355 -27.31904,-10.95359 -59.01817,-23.66875 -70.4425,-28.25589 -11.42433,-4.58713 -34.318143,-13.79595 -50.875143,-20.46403 -16.556994,-6.66807 -38.342224,-15.47449 -48.411616,-19.56981 -10.069392,-4.09533 -18.57472,-7.61398 -18.900728,-7.81922 -0.326008,-0.20526 0.134765,-0.7615 1.02394,-1.23609 0.889175,-0.4746 11.155565,-4.73623 22.8142,-9.4703 11.658636,-4.73407 28.03857,-11.40905 36.399855,-14.8333 8.361289,-3.42424 15.202339,-6.39408 15.202339,-6.59962 0,-0.20555 -1.016,-0.7945 -2.25778,-1.30878 -1.24177,-0.51428 -8.760154,-3.62823 -16.707514,-6.91991 -7.947359,-3.29166 -24.067856,-9.82867 -35.823325,-14.52668 -11.75547,-4.69801 -21.572755,-8.74259 -21.81619,-8.98797 -0.2434343,-0.24537 6.394418,-3.16281 14.750782,-6.4832 8.356364,-3.32038 25.353276,-10.15536 37.770917,-15.18885 12.417641,-5.03348 22.82863,-9.40758 23.13553,-9.72022 0.34262,-0.34903 -1.28404,-1.42812 -4.21431,-2.79567 -2.62477,-1.22499 -14.254958,-6.08202 -25.844858,-10.79344 -11.589899,-4.7114 -26.063337,-10.62827 -32.163195,-13.14862 -6.099858,-2.52032 -11.497221,-4.8142 -11.994139,-5.09749 -0.71533,-0.4078 -0.498245,-0.72855 1.042387,-1.54014 1.070231,-0.56379 14.595574,-6.12738 30.056319,-12.36356 15.460748,-6.23617 32.649833,-13.18557 38.197966,-15.44308 5.54814,-2.25753 9.99847,-4.37676 9.88963,-4.70938 -0.10884,-0.33264 -8.30582,-3.83698 -18.215504,-7.78745 -9.909683,-3.95048 -26.010124,-10.44416 -35.778754,-14.43041 -9.768629,-3.98625 -17.655616,-7.52373 -17.526638,-7.86106 0.128979,-0.33733 1.754576,-1.25719 3.612436,-2.04414 1.857862,-0.78695 18.414696,-7.58693 36.792965,-15.11107 18.378269,-7.52415 46.826208,-19.06888 63.217628,-25.65497 16.39143,-6.58609 35.49218,-14.234388 42.44612,-16.99623 6.95394,-2.761841 21.04244,-8.332075 31.30778,-12.378299 10.26534,-4.046223 26.52131,-10.384643 36.12437,-14.085375 12.39868,-4.778085 17.9325,-6.634243 19.08969,-6.403086 0.89627,0.179036 10.37892,3.771458 21.07255,7.983159 10.69362,4.211701 32.17679,12.744388 47.74037,18.961526 15.56358,6.217138 42.52138,17.019865 59.90623,24.006055 17.38485,6.98619 47.18745,19.0527 66.228,26.81447 19.04055,7.76177 34.85351,14.33685 35.13991,14.61128 0.28641,0.27442 -0.25546,0.90484 -1.20414,1.4009 -0.94868,0.49607 -8.0918,3.45851 -15.87359,6.58322 -7.78179,3.1247 -22.93048,9.23982 -33.66377,13.58917 -10.73329,4.34936 -19.78048,8.07501 -20.10488,8.27925 -0.32439,0.20423 0.17628,0.78023 1.11261,1.27999 0.93633,0.49978 5.2422,2.41138 9.5686,4.24801 4.3264,1.83664 20.73549,8.59836 36.46464,15.02604 15.72915,6.42768 29.34352,11.98792 30.25416,12.35608 0.91063,0.36817 1.6557,0.85728 1.6557,1.08692 0,0.22963 -2.37067,1.431 -5.26814,2.6697 -2.89748,1.2387 -19.53756,8.05026 -36.97798,15.13681 -17.4404,7.08654 -32.17905,13.23415 -32.75255,13.66134 -0.89698,0.66814 2.81994,2.34258 26.59222,11.97956 15.19922,6.16157 32.30853,13.14022 38.02069,15.50813 5.71217,2.3679 10.38576,4.51594 10.38576,4.77342 0,0.25747 -15.7121,6.85702 -34.91578,14.66565 -19.20368,7.80863 -36.30333,14.8524 -37.99923,15.65281 l -3.08345,1.4553 1.77426,0.93465 c 0.97585,0.51407 17.19497,7.19185 36.0425,14.83951 18.84752,7.64767 35.19867,14.38949 36.33587,14.98182 1.90473,0.9921 1.97589,1.12672 0.90311,1.7085 -0.6405,0.34735 -13.22104,5.52046 -27.95677,11.49581 -14.73573,5.97534 -30.44983,12.3259 -34.92022,14.11235 -4.47039,1.78646 -13.2757,5.31684 -19.56736,7.84531 -6.29166,2.52847 -18.75457,7.5446 -27.69535,11.14699 -8.94078,3.60238 -27.90607,11.20644 -42.14509,16.89789 -14.23902,5.69146 -39.38935,15.7434 -55.88963,22.33765 -16.50028,6.59425 -30.31785,11.97248 -30.70571,11.95162 z m 0.88542,-34.94959 c 0.54369,0.0152 4.47222,-1.31959 8.73005,-2.96621 4.25783,-1.6466 21.28815,-8.38485 37.84515,-14.97388 16.557,-6.58903 39.45081,-15.74001 50.87514,-20.3355 11.42433,-4.59548 28.69629,-11.56734 38.38214,-15.49301 9.68584,-3.92567 17.61062,-7.34519 17.61062,-7.59893 0,-0.25374 -1.55786,-1.19217 -3.46192,-2.0854 -1.90405,-0.89323 -9.18717,-3.936 -16.18472,-6.76171 -6.99754,-2.82571 -13.36446,-5.29932 -14.1487,-5.49692 -0.99643,-0.25106 -7.68232,2.15177 -22.19742,7.97748 -11.42433,4.58521 -27.95122,11.20587 -36.72643,14.71255 -8.77521,3.50669 -20.83172,8.33523 -26.79224,10.73008 -5.96052,2.39485 -15.99071,6.41038 -22.28933,8.9234 -6.2986,2.51302 -11.82906,4.56913 -12.2899,4.56913 -0.46084,0 -15.89832,-6.04984 -34.30551,-13.44408 -18.40719,-7.39424 -39.97,-16.04834 -47.91736,-19.23132 -7.94736,-3.18298 -19.55745,-7.81733 -25.8002,-10.29857 l -11.35045,-4.51132 -3.7825,1.34478 c -2.08038,0.73964 -9.90971,3.99669 -17.39851,7.23789 -7.48881,3.24121 -13.616023,6.08028 -13.616023,6.30902 0,0.22875 3.996263,2.03717 8.880573,4.01871 4.88432,1.98153 14.97655,6.0619 22.4272,9.06748 7.45065,3.00558 17.61063,7.0926 22.57773,9.08227 4.9671,1.98968 18.78466,7.518 30.7057,12.28514 11.92104,4.76716 27.36421,10.88968 34.31815,13.60558 6.95394,2.7159 17.65578,6.82075 23.78187,9.12186 6.12609,2.30111 11.58319,4.19628 12.12689,4.21148 z m -1.55304,-63.8003 c 0.68295,0.0228 3.52774,-0.76299 6.32176,-1.74625 2.79403,-0.98326 7.2475,-2.61233 9.89662,-3.62015 2.64912,-1.00782 10.50617,-4.04215 17.46011,-6.74295 6.95394,-2.70078 15.89472,-6.20553 19.8684,-7.7883 3.97368,-1.58279 13.99819,-5.57978 22.27669,-8.88222 8.2785,-3.30243 29.27579,-11.71916 46.66064,-18.70384 17.38485,-6.98467 31.83484,-12.91687 32.1111,-13.18267 0.27627,-0.2658 -0.13013,-0.93532 -0.90311,-1.48781 -0.77297,-0.55249 -8.60399,-3.91255 -17.40227,-7.46678 l -15.99688,-6.46226 -8.38706,3.34963 c -4.61289,1.84231 -20.57905,8.22705 -35.48035,14.18834 -14.90129,5.96127 -31.83459,12.73832 -37.62954,15.0601 -5.79495,2.32178 -16.69594,6.68917 -24.22444,9.70532 l -13.68817,5.48389 -11.29785,-4.57611 c -6.21381,-2.51685 -17.5293,-7.07182 -25.14552,-10.12217 -7.61622,-3.05033 -24.54951,-9.81478 -37.62954,-15.03212 -13.08003,-5.21733 -28.74274,-11.4295 -34.80602,-13.80483 l -11.02415,-4.31877 -2.82352,1.07469 c -1.55294,0.59107 -7.56485,3.0842 -13.3598,5.5403 -5.79494,2.45608 -12.08895,5.19542 -13.98667,6.08741 -1.897723,0.89198 -3.593423,1.85753 -3.768233,2.14565 -0.1748,0.28812 12.350663,5.63914 27.834343,11.89112 15.4837,6.25199 33.2999,13.42712 39.59156,15.94474 6.29166,2.51761 20.10923,8.02334 30.70571,12.23497 10.59648,4.21163 26.44604,10.45612 35.22125,13.87665 8.77521,3.42053 16.49679,6.46523 17.15907,6.76602 0.66228,0.30079 1.76292,0.56557 2.44587,0.5884 z m 4.7271,-64.36133 c 1.68425,-0.60199 9.02279,-3.4423 16.30787,-6.31181 7.28508,-2.8695 20.15438,-7.97189 28.59845,-11.33864 8.44407,-3.36676 26.19016,-10.46857 39.43576,-15.7818 13.2456,-5.31322 32.85723,-13.22261 43.58139,-17.57643 10.72417,-4.35381 20.19193,-8.28616 21.03948,-8.73853 l 1.54099,-0.82251 -2.37522,-1.23311 c -1.30638,-0.67822 -5.62642,-2.60964 -9.6001,-4.29204 -3.97368,-1.68239 -11.28617,-4.64506 -16.24998,-6.58368 -4.96381,-1.93863 -9.56967,-3.52332 -10.23524,-3.52151 -0.66556,0.002 -5.54504,1.67071 -10.84328,3.70869 -5.29824,2.03798 -14.78089,5.75661 -21.07255,8.26362 -6.29166,2.50701 -19.43189,7.74695 -29.20052,11.64431 -9.76863,3.89736 -26.08292,10.41747 -36.25398,14.48912 l -18.49284,7.40301 -16.12634,-6.4578 c -8.86949,-3.55179 -27.23459,-10.89429 -40.81133,-16.31666 -13.57674,-5.42237 -32.11424,-12.72207 -41.19445,-16.22154 -9.0802,-3.49948 -17.16183,-6.36269 -17.95916,-6.36269 -0.79733,0 -5.01818,1.36297 -9.37966,3.02882 -4.36148,1.66585 -12.15855,4.84966 -17.32682,7.07513 -5.16828,2.22547 -9.882023,4.40769 -10.475003,4.8494 -0.96345,0.71766 -0.57229,1.01775 3.677183,2.82107 2.61542,1.10989 13.96701,5.72309 25.22577,10.25155 11.25876,4.52847 24.53446,9.85919 29.50156,11.84603 4.9671,1.98685 15.66894,6.2718 23.78187,9.52212 8.11293,3.25033 22.87876,9.09738 32.81296,12.99345 9.9342,3.89609 22.78015,8.81025 28.54655,10.92037 l 10.48437,3.83659 z m -2.05535,-59.87388 c 0.49671,-0.17794 4.69617,-1.79259 9.33213,-3.5881 4.63596,-1.7955 23.33031,-9.19903 41.54301,-16.45229 18.2127,-7.25326 40.83558,-16.27775 50.27307,-20.05441 9.43749,-3.77665 26.37079,-10.58281 37.62955,-15.12479 11.25876,-4.54198 20.69244,-8.48116 20.96373,-8.75375 0.2713,-0.27258 -2.5735,-1.80815 -6.32176,-3.41237 -3.74826,-1.60423 -19.95527,-8.23775 -36.01555,-14.74115 -16.06029,-6.50339 -45.45649,-18.309 -65.32489,-26.23467 -19.8684,-7.92565 -39.70571,-15.818167 -44.0829,-17.538909 -4.37721,-1.720741 -8.47902,-3.128621 -9.11516,-3.128621 -0.63613,0 -7.62117,2.456792 -15.52229,5.459536 -7.90113,3.002747 -26.55766,10.283164 -41.45896,16.178704 -14.9013,5.89554 -34.81485,13.82634 -44.25234,17.62398 -9.43749,3.79765 -24.88065,10.0646 -34.31814,13.92657 -9.43748,3.86196 -19.409673,8.00383 -22.160423,9.20415 -2.75074,1.20031 -4.78274,2.38359 -4.51554,2.62952 0.26719,0.24592 10.10391,4.32581 21.859383,9.06641 11.75546,4.7406 28.68876,11.56194 37.62954,15.15855 8.94078,3.5966 25.33221,10.13078 36.4254,14.52039 11.09319,4.38962 26.94275,10.61668 35.22125,13.83789 8.2785,3.22122 18.70941,7.18205 23.1798,8.80184 4.47039,1.6198 8.53438,2.79948 9.03109,2.62152 z"
       id="path986" />
  </g>
</svg>
