<?xml version="1.0" encoding="UTF-8" standalone="no"?>
<!-- Created with Inkscape (http://www.inkscape.org/) -->

<svg
   version="1.1"
   id="svg1910"
   width="500"
   height="500"
   viewBox="0 0 500 500"
   sodipodi:docname="typeScriptIcon.svg"
   inkscape:version="1.1.2 (0a00cf5339, 2022-02-04)"
   xmlns:inkscape="http://www.inkscape.org/namespaces/inkscape"
   xmlns:sodipodi="http://sodipodi.sourceforge.net/DTD/sodipodi-0.dtd"
   xmlns="http://www.w3.org/2000/svg"
   xmlns:svg="http://www.w3.org/2000/svg">
  <defs
     id="defs1914" />
  <sodipodi:namedview
     id="namedview1912"
     pagecolor="#ffffff"
     bordercolor="#666666"
     borderopacity="1.0"
     inkscape:pageshadow="2"
     inkscape:pageopacity="0.0"
     inkscape:pagecheckerboard="0"
     showgrid="false"
     inkscape:zoom="1.515625"
     inkscape:cx="255.6701"
     inkscape:cy="256"
     inkscape:window-width="1920"
     inkscape:window-height="1011"
     inkscape:window-x="0"
     inkscape:window-y="0"
     inkscape:window-maximized="1"
     inkscape:current-layer="g1916" />
  <g
     inkscape:groupmode="layer"
     inkscape:label="Image"
     id="g1916">
    <path
       style="display:inline;fill:#3178c6;fill-opacity:1;stroke-width:0.999997"
       d="m 249.68075,479.9768 -192.395594,-0.0232 -5.839844,-1.99829 c -3.211914,-1.09906 -7.659179,-3.07292 -9.882812,-4.38634 -2.223633,-1.31344 -6.138935,-4.50253 -8.700672,-7.08688 -2.561737,-2.58435 -5.858625,-6.96773 -7.326417,-9.74085 -1.467793,-2.77312 -3.313721,-7.23797 -4.102062,-9.92189 C 20.140869,442.41908 20,423.06899 20,249.93157 20,60.814009 20.026891,57.837696 21.786355,52.213778 c 0.982496,-3.140429 2.902906,-7.637427 4.267578,-9.993328 1.364673,-2.355901 4.637014,-6.461328 7.27187,-9.123171 2.634856,-2.661843 7.082121,-6.052659 9.882812,-7.535148 2.800692,-1.482489 7.288106,-3.340441 9.97203,-4.128782 C 57.580918,20.140869 76.931007,20 250.06843,20 c 189.11756,0 192.09387,0.02689 197.71779,1.786355 3.14043,0.982496 7.63743,2.902906 9.99333,4.267578 2.3559,1.364673 6.46133,4.637014 9.12317,7.27187 2.66185,2.634856 6.05266,7.082121 7.53515,9.882812 1.48249,2.800692 3.34044,7.288106 4.12878,9.97203 C 479.85912,57.580894 480,76.925222 480,250 c 0,173.07478 -0.14088,192.41911 -1.43335,196.81936 -0.78834,2.68392 -2.64629,7.17133 -4.12878,9.97202 -1.48249,2.80069 -4.8733,7.24796 -7.53515,9.88282 -2.66184,2.63485 -6.76727,5.90719 -9.12317,7.27187 -2.3559,1.36467 -6.8529,3.28508 -9.99333,4.26758 -5.62507,1.75982 -8.56739,1.78601 -198.10547,1.76315 z m 110.89563,-37.85496 c 4.23791,0.0791 12.1217,-0.30002 17.51953,-0.84245 5.39784,-0.54242 13.45292,-1.90932 17.90018,-3.03754 4.44727,-1.12822 10.80173,-3.33535 14.12102,-4.90474 3.31929,-1.56939 8.44318,-4.62618 11.3864,-6.79286 2.94322,-2.16668 6.95485,-6.08556 8.91473,-8.70863 1.95986,-2.62307 4.58892,-6.81956 5.84234,-9.32555 1.25342,-2.50598 2.99116,-7.1554 3.86166,-10.33203 1.07509,-3.92321 1.59006,-9.08958 1.60559,-16.10773 0.0164,-7.4192 -0.43386,-11.85177 -1.59714,-15.72265 -0.89098,-2.96485 -3.05606,-8.13337 -4.81125,-11.4856 -1.7552,-3.35223 -5.40632,-8.34569 -8.11359,-11.09656 -2.70728,-2.75087 -8.35462,-7.23888 -12.54966,-9.97335 -4.19505,-2.73446 -16.24459,-8.90289 -26.77679,-13.70761 -10.53218,-4.80473 -21.7993,-10.62676 -25.03801,-12.93787 -3.55371,-2.53587 -6.74987,-5.7035 -8.06076,-7.98879 -1.19469,-2.08273 -2.45622,-4.73638 -2.80338,-5.897 -0.34718,-1.16062 -0.37235,-3.83648 -0.056,-5.94636 0.38116,-2.54169 1.65775,-5.10077 3.78322,-7.58391 1.76437,-2.06128 5.09649,-4.70477 7.40471,-5.87443 2.30821,-1.16966 6.7147,-2.62203 9.79217,-3.22749 3.58994,-0.70628 9.69745,-0.92838 17.04037,-0.61968 7.50077,0.31534 13.92193,1.145 18.63246,2.40746 3.95313,1.05948 11.1294,3.83803 15.94727,6.17457 l 8.75976,4.24825 v -20.431 c 0,-19.2739 -0.0983,-20.48363 -1.7363,-21.36025 -0.95496,-0.51108 -5.8925,-1.93561 -10.9723,-3.16562 -5.32986,-1.29056 -15.07532,-2.69424 -23.04289,-3.31898 -10.77591,-0.84493 -16.40431,-0.84459 -25.63901,0.002 -6.50769,0.5963 -14.86438,1.8499 -18.57044,2.78578 -3.70605,0.93587 -8.83827,2.50019 -11.40491,3.47627 -2.56666,0.97607 -7.41822,3.30284 -10.78125,5.1706 -3.39842,1.88741 -8.70877,6.0272 -11.95446,9.31933 -3.21191,3.25787 -7.11794,8.34695 -8.68007,11.30906 -1.56213,2.9621 -3.5646,7.81143 -4.44994,10.77627 -1.10877,3.71305 -1.62051,8.46617 -1.64441,15.27344 -0.0191,5.43554 0.51474,12.10644 1.18626,14.82422 0.67153,2.71777 2.37405,7.36718 3.78339,10.33203 1.40935,2.96484 4.41188,7.69644 6.6723,10.51465 2.26043,2.81822 6.8211,7.16793 10.13484,9.66602 3.31374,2.4981 9.86579,6.51689 14.56013,8.93066 4.69434,2.41377 12.17383,5.88344 16.62109,7.71037 4.44727,1.82692 11.62776,5.14748 15.95666,7.379 4.32889,2.23153 9.86588,5.85114 12.3044,8.04358 2.43853,2.19245 5.24643,5.30131 6.23978,6.90857 0.99335,1.60727 2.07123,4.58043 2.3953,6.60702 0.34315,2.14604 0.12773,5.1301 -0.5159,7.14601 -0.60781,1.90372 -2.37111,4.81137 -3.91845,6.46145 -1.54734,1.65008 -4.64616,3.93721 -6.88626,5.0825 -2.2401,1.14531 -6.59085,2.57774 -9.66832,3.1832 -3.57221,0.70278 -9.73372,0.93076 -17.04037,0.63047 -8.70643,-0.3578 -13.33424,-1.03261 -19.34072,-2.82023 -4.34267,-1.29244 -10.81142,-3.80942 -14.375,-5.59327 -3.56358,-1.78387 -9.0061,-5.03595 -12.09448,-7.22686 l -5.61523,-3.98346 0.003,22.28172 0.003,22.28172 6.06153,2.46699 c 3.33384,1.35683 9.09375,3.2313 12.79981,4.16547 3.70605,0.93417 10.37695,2.15371 14.82422,2.71009 4.44726,0.55638 9.50097,1.14407 11.23047,1.30598 1.72949,0.1619 6.61191,0.35908 10.84982,0.43816 z m -154.1506,-2.55153 h 22.91016 v -82.20703 -82.20703 h 28.75 28.75 v -18.41797 -18.41797 h -80.41016 -80.41015 v 18.41797 18.41797 h 28.74999 28.75 v 82.20703 82.20703 z"
       id="path124804" />
  </g>
</svg>
