<?xml version="1.0" encoding="UTF-8" standalone="no"?>
<!-- Created with Inkscape (http://www.inkscape.org/) -->

<svg
   version="1.1"
   id="svg870"
   width="500"
   height="500"
   viewBox="0 0 500.00001 500.00001"
   sodipodi:docname="aboutIcon.svg"
   inkscape:version="1.1.2 (0a00cf5339, 2022-02-04)"
   xmlns:inkscape="http://www.inkscape.org/namespaces/inkscape"
   xmlns:sodipodi="http://sodipodi.sourceforge.net/DTD/sodipodi-0.dtd"
   xmlns="http://www.w3.org/2000/svg"
   xmlns:svg="http://www.w3.org/2000/svg">
  <defs
     id="defs874" />
  <sodipodi:namedview
     id="namedview872"
     pagecolor="#ffffff"
     bordercolor="#666666"
     borderopacity="1.0"
     inkscape:pageshadow="2"
     inkscape:pageopacity="0.0"
     inkscape:pagecheckerboard="0"
     showgrid="false"
     inkscape:zoom="0.74625003"
     inkscape:cx="156.1139"
     inkscape:cy="214.40535"
     inkscape:window-width="1920"
     inkscape:window-height="1011"
     inkscape:window-x="0"
     inkscape:window-y="0"
     inkscape:window-maximized="1"
     inkscape:current-layer="g876" />
  <g
     inkscape:groupmode="layer"
     inkscape:label="Image"
     id="g876">
    <path
       style="fill:#000000;stroke-width:1"
       d="m 248.11242,489.99327 c -15.8285,-0.11945 -37.1604,-2.014 -47.40422,-4.20974 -10.24384,-2.19573 -27.75487,-7.5146 -38.91341,-11.81967 -11.15854,-4.30509 -30.97723,-14.88434 -44.04152,-23.50948 C 104.68897,441.82923 86.576312,427.02043 77.502918,417.54589 68.429524,408.07137 54.91401,390.83199 47.46844,379.23616 40.022872,367.64033 30.452434,349.14887 26.200802,338.14404 21.94917,327.13921 16.564688,308.88177 14.235282,297.57199 11.905878,286.2622 10,264.90221 10,250.10539 10,235.30856 11.905878,213.9486 14.235282,202.6388 16.564688,191.32901 22.099048,172.64916 26.53386,161.12804 30.968674,149.60693 41.54272,129.79823 50.03174,117.10872 58.520762,104.41921 73.140796,86.669756 82.520708,77.66549 91.90062,68.661219 108.87043,55.223367 120.2314,47.80359 131.59237,40.383813 150.13797,30.749358 161.44385,26.393686 172.74973,22.038014 191.24942,16.567571 202.55424,14.237142 213.85908,11.906715 235.20966,10 250,10 c 14.79032,0 36.14094,1.906715 47.44576,4.237142 11.30482,2.330429 29.8045,7.800872 41.1104,12.156544 11.30586,4.355672 29.85146,13.990127 41.21242,21.409904 11.36098,7.419777 28.3308,20.857629 37.7107,29.8619 9.37992,9.004266 23.99994,26.75372 32.48898,39.44323 8.48902,12.68951 19.06306,32.49821 23.49786,44.01932 4.43484,11.52112 9.96918,30.20097 12.2986,41.51076 2.3294,11.3098 4.23528,32.66976 4.23528,47.46659 0,14.79682 -1.90588,36.15681 -4.23528,47.4666 -2.32942,11.30978 -7.86376,29.98964 -12.2986,41.51076 -4.4348,11.5211 -15.00884,31.32979 -23.49786,44.01932 -8.48904,12.68951 -23.10906,30.43894 -32.48898,39.44322 -9.3799,9.00427 -26.34972,22.44213 -37.7107,29.8619 -11.36096,7.41978 -29.90656,17.05425 -41.21242,21.40992 -11.3059,4.35567 -29.80558,9.8261 -41.1104,12.15654 -11.97704,2.469 -32.56366,4.14638 -49.33334,4.01962 z m 12.05944,-33.46621 c 12.19454,-0.71743 30.79454,-3.51458 41.33334,-6.21593 10.5388,-2.70132 26.2063,-8.0328 34.81664,-11.84774 8.61034,-3.81491 23.14466,-12.28295 32.29846,-18.81782 9.1538,-6.5349 24.30898,-20.2022 33.67814,-30.37179 9.36918,-10.1696 21.0732,-25.22035 26.00892,-33.44612 4.93572,-8.22577 12.37016,-24.87376 16.52092,-36.99554 4.1508,-12.12174 8.91396,-32.45993 10.5848,-45.19594 2.1956,-16.73596 2.25764,-29.53794 0.22374,-46.17257 -1.54776,-12.65889 -6.3109,-33.16555 -10.58478,-45.57036 -4.27388,-12.40479 -11.809,-29.44374 -16.74474,-37.86432 -4.93566,-8.42059 -19.77398,-26.12451 -32.97398,-39.34206 C 381.69122,91.026639 363.85262,76.317036 354,70.603676 344.46666,65.075467 327.06666,57.503952 315.33334,53.778086 303.6,50.052219 284.1,45.789886 272,44.306229 c -14.9635,-1.834768 -29.2037,-1.81602 -44.52268,0.05861 -12.38746,1.515902 -31.88746,5.878307 -43.33332,9.694234 -11.44587,3.815934 -29.21067,11.867976 -39.47733,17.893431 -10.3799,6.091906 -28.2388,20.531711 -40.22873,32.526906 -11.989926,11.99519 -26.423392,29.86194 -32.512624,40.24639 -6.02281,10.27117 -14.071318,28.04377 -17.88557,39.49467 -3.814254,11.45089 -8.174744,30.95945 -9.689978,43.35235 -1.87382,15.32571 -1.89256,29.57216 -0.05858,44.54223 1.483006,12.10532 5.74347,31.61388 9.467702,43.35237 3.724228,11.73848 11.29242,29.14612 16.818202,38.68364 5.710854,9.85695 20.414,27.70338 34.068238,41.35148 13.21175,13.20579 30.9079,28.05063 39.32478,32.98852 8.41689,4.93788 25.57632,12.52045 38.13207,16.85013 12.55574,4.32968 30.2692,8.91125 39.36324,10.18125 9.09402,1.27 26.51194,1.72208 38.70644,1.00462 z m -5.56572,-57.02277 c -10.83098,0 -14.32514,-1.30931 -20.81126,-7.7983 C 226,383.90773 226,383.90773 226,311.84455 c 0,-41.95153 -1.12282,-75.01769 -2.68714,-79.13397 -2.53716,-6.67619 -3.5374,-7.02088 -17.9227,-6.17631 -12.78676,0.75073 -15.38612,0.14646 -16.17226,-3.75961 -0.57434,-2.85374 4.19448,-9.65422 12.3277,-17.5797 7.2954,-7.10906 17.79964,-15.07866 23.34278,-17.7102 5.54312,-2.63153 14.5239,-4.90124 19.95726,-5.04377 5.43338,-0.14254 12.8833,1.34949 16.5554,3.3156 3.67208,1.9661 8.00906,6.50065 9.63774,10.07676 1.93458,4.24778 2.96122,31.22595 2.96122,77.81452 0,61.26715 0.60542,72.17716 4.29778,77.45111 3.84092,5.48605 5.68236,5.94816 17.32164,4.34665 10.75324,-1.47961 13.32064,-1.01818 14.72636,2.64666 1.14584,2.98736 -1.6841,7.97705 -8.65496,15.26008 -5.6966,5.95174 -15.69242,14.27075 -22.2129,18.48664 -8.93178,5.77497 -15.06534,7.66528 -24.87178,7.66528 z m -7.76416,-242.94232 c -3.39642,-0.093 -8.57532,-1.15183 -11.50864,-2.35295 -2.93334,-1.20112 -7.53504,-4.63343 -10.226,-7.62734 -2.69096,-2.99393 -5.54446,-10.30526 -6.34112,-16.24742 -1.30182,-9.7101 -0.496,-11.75681 7.95932,-20.21585 7.76284,-7.76625 11.35534,-9.41193 20.54626,-9.41193 8.75538,0 12.80618,1.66846 18.93332,7.7983 6.24386,6.24661 7.7831,10.0952 7.73558,19.34182 -0.0354,6.88617 -1.9182,13.83938 -4.66668,17.23392 -2.53404,3.12972 -7.22848,7.03143 -10.43204,8.67047 -3.20358,1.63905 -8.60358,2.90399 -12,2.81098 z"
       id="path1454" />
  </g>
</svg>
