<?xml version="1.0" encoding="UTF-8" standalone="no"?>
<!-- Created with Inkscape (http://www.inkscape.org/) -->

<svg
   version="1.1"
   id="svg1481"
   width="500"
   height="498"
   viewBox="0 0 500 498"
   sodipodi:docname="growthmindsetIcon.svg"
   inkscape:version="1.1.2 (0a00cf5339, 2022-02-04)"
   xmlns:inkscape="http://www.inkscape.org/namespaces/inkscape"
   xmlns:sodipodi="http://sodipodi.sourceforge.net/DTD/sodipodi-0.dtd"
   xmlns="http://www.w3.org/2000/svg"
   xmlns:svg="http://www.w3.org/2000/svg">
  <defs
     id="defs1485">
    <inkscape:path-effect
       effect="spiro"
       id="path-effect11658"
       is_visible="true"
       lpeversion="1" />
    <inkscape:path-effect
       effect="spiro"
       id="path-effect10909"
       is_visible="true"
       lpeversion="1" />
    <inkscape:path-effect
       effect="spiro"
       id="path-effect10517"
       is_visible="true"
       lpeversion="1" />
    <inkscape:path-effect
       effect="spiro"
       id="path-effect10447"
       is_visible="true"
       lpeversion="1" />
    <inkscape:path-effect
       effect="spiro"
       id="path-effect10410"
       is_visible="true"
       lpeversion="1" />
    <inkscape:path-effect
       effect="bspline"
       id="path-effect9240"
       is_visible="true"
       lpeversion="1"
       weight="33.333333"
       steps="2"
       helper_size="0"
       apply_no_weight="true"
       apply_with_weight="true"
       only_selected="false" />
    <inkscape:path-effect
       effect="bspline"
       id="path-effect9236"
       is_visible="true"
       lpeversion="1"
       weight="33.333333"
       steps="2"
       helper_size="0"
       apply_no_weight="true"
       apply_with_weight="true"
       only_selected="false" />
    <inkscape:path-effect
       effect="bspline"
       id="path-effect9232"
       is_visible="true"
       lpeversion="1"
       weight="33.333333"
       steps="2"
       helper_size="0"
       apply_no_weight="true"
       apply_with_weight="true"
       only_selected="false" />
    <inkscape:path-effect
       effect="bspline"
       id="path-effect9228"
       is_visible="true"
       lpeversion="1"
       weight="33.333333"
       steps="2"
       helper_size="0"
       apply_no_weight="true"
       apply_with_weight="true"
       only_selected="false" />
    <inkscape:path-effect
       effect="bspline"
       id="path-effect9224"
       is_visible="true"
       lpeversion="1"
       weight="33.333333"
       steps="2"
       helper_size="0"
       apply_no_weight="true"
       apply_with_weight="true"
       only_selected="false" />
    <inkscape:path-effect
       effect="bspline"
       id="path-effect9220"
       is_visible="true"
       lpeversion="1"
       weight="33.333333"
       steps="2"
       helper_size="0"
       apply_no_weight="true"
       apply_with_weight="true"
       only_selected="false" />
    <inkscape:path-effect
       effect="bspline"
       id="path-effect9216"
       is_visible="true"
       lpeversion="1"
       weight="33.333333"
       steps="2"
       helper_size="0"
       apply_no_weight="true"
       apply_with_weight="true"
       only_selected="false" />
    <inkscape:path-effect
       effect="spiro"
       id="path-effect7790"
       is_visible="true"
       lpeversion="1" />
    <inkscape:path-effect
       effect="fillet_chamfer"
       id="path-effect6932"
       is_visible="true"
       lpeversion="1"
       satellites_param="F,0,0,1,0,0,0,1 @ F,0,0,1,0,0,0,1 @ F,0,0,1,0,0,0,1 @ F,0,0,1,0,0,0,1 @ F,0,0,1,0,0,0,1 @ F,0,0,1,0,0,0,1 @ F,0,0,1,0,0,0,1 @ F,0,0,1,0,0,0,1 @ F,0,0,1,0,0,0,1 @ F,0,0,1,0,0,0,1 @ F,0,0,1,0,0,0,1 @ F,0,0,1,0,0,0,1 @ F,0,0,1,0,0,0,1 @ F,0,0,1,0,0,0,1 @ F,0,0,1,0,0,0,1 @ F,0,0,1,0,0,0,1 @ F,0,0,1,0,0,0,1 @ F,0,0,1,0,0,0,1 @ F,0,0,1,0,0,0,1 @ F,0,0,1,0,0,0,1 @ F,0,0,1,0,0,0,1 @ F,0,0,1,0,0,0,1 @ F,0,0,1,0,0,0,1 @ F,0,0,1,0,0,0,1 @ F,0,0,1,0,0,0,1 @ F,0,0,1,0,0,0,1 @ F,0,0,1,0,0,0,1 @ F,0,0,1,0,0,0,1 @ F,0,0,1,0,0,0,1 @ F,0,0,1,0,0,0,1 @ F,0,0,1,0,0,0,1 @ F,0,0,1,0,0,0,1 | F,0,0,1,0,0,0,1 @ F,0,0,1,0,0,0,1 @ F,0,0,1,0,0,0,1 @ F,0,0,1,0,0,0,1 @ F,0,0,1,0,0,0,1 @ F,0,0,1,0,0.44991253,0,1 @ F,0,0,1,0,0.6813134,0,1 @ F,0,0,1,0,0,0,1 @ F,0,0,1,0,0,0,1 @ F,0,0,1,0,0,0,1 @ F,0,0,1,0,0,0,1 @ F,0,0,1,0,0,0,1 @ F,0,0,1,0,0,0,1 @ F,0,0,1,0,0,0,1 @ F,0,0,1,0,0,0,1 @ F,0,0,1,0,0,0,1 | F,0,0,1,0,0,0,1 @ F,0,0,1,0,0,0,1"
       unit="px"
       method="auto"
       mode="F"
       radius="0"
       chamfer_steps="1"
       flexible="false"
       use_knot_distance="true"
       apply_no_radius="true"
       apply_with_radius="true"
       only_selected="false"
       hide_knots="false" />
    <inkscape:path-effect
       effect="spiro"
       id="path-effect6201"
       is_visible="true"
       lpeversion="1" />
    <inkscape:path-effect
       effect="spiro"
       id="path-effect2084"
       is_visible="true"
       lpeversion="1" />
    <inkscape:path-effect
       effect="bspline"
       id="path-effect2047"
       is_visible="true"
       lpeversion="1"
       weight="33.333333"
       steps="2"
       helper_size="0"
       apply_no_weight="true"
       apply_with_weight="true"
       only_selected="false" />
    <inkscape:path-effect
       effect="bspline"
       id="path-effect2010"
       is_visible="true"
       lpeversion="1"
       weight="33.333333"
       steps="2"
       helper_size="0"
       apply_no_weight="true"
       apply_with_weight="true"
       only_selected="false" />
    <inkscape:path-effect
       effect="bspline"
       id="path-effect1973"
       is_visible="true"
       lpeversion="1"
       weight="33.333333"
       steps="2"
       helper_size="0"
       apply_no_weight="true"
       apply_with_weight="true"
       only_selected="false" />
    <inkscape:path-effect
       effect="bspline"
       id="path-effect1936"
       is_visible="true"
       lpeversion="1"
       weight="33.333333"
       steps="2"
       helper_size="0"
       apply_no_weight="true"
       apply_with_weight="true"
       only_selected="false" />
    <inkscape:path-effect
       effect="spiro"
       id="path-effect1671"
       is_visible="true"
       lpeversion="1" />
    <inkscape:path-effect
       effect="spiro"
       id="path-effect1634"
       is_visible="true"
       lpeversion="1" />
    <inkscape:path-effect
       effect="spiro"
       id="path-effect10909-2"
       is_visible="true"
       lpeversion="1" />
  </defs>
  <sodipodi:namedview
     id="namedview1483"
     pagecolor="#ffffff"
     bordercolor="#666666"
     borderopacity="1.0"
     inkscape:pageshadow="2"
     inkscape:pageopacity="0.0"
     inkscape:pagecheckerboard="0"
     showgrid="false"
     showguides="false"
     inkscape:zoom="1.6145474"
     inkscape:cx="228.8567"
     inkscape:cy="123.87372"
     inkscape:window-width="1920"
     inkscape:window-height="1011"
     inkscape:window-x="0"
     inkscape:window-y="0"
     inkscape:window-maximized="1"
     inkscape:current-layer="g1487" />
  <g
     inkscape:groupmode="layer"
     inkscape:label="Image"
     id="g1487">
    <path
       id="path6199"
       style="display:inline;fill:none;stroke:#000000;stroke-width:15;stroke-linecap:round;stroke-linejoin:miter;stroke-miterlimit:4;stroke-dasharray:none;stroke-opacity:1"
       inkscape:path-effect="#path-effect6201;#path-effect6932"
       inkscape:original-d="m 100.31077,102.39805 c -2.192045,8.6725 -4.385345,17.34344 -6.579875,26.01282 -2.19453,8.66938 -3.67628,16.3052 -5.51626,24.45546 -1.84,8.15028 1.38267,17.13402 2.07215,25.69869 0.68949,8.56466 2.99935,9.35516 4.49717,14.0304 1.49783,4.67525 -2.45627,10.50905 -3.68627,15.76123 -1.23,5.25218 -20.14545,36.6424 -30.22003,54.96127 -10.07458,18.31886 -3.677005,7.58609 -5.517365,11.3768 -1.840359,3.79072 1.764748,12.02947 2.645265,18.04186 0.880527,6.01238 9.833513,7.29601 14.748413,10.94169 4.91489,3.64567 4.933082,3.34535 7.397761,5.01568 2.46468,1.67035 -0.231802,9.17651 -0.349575,13.76243 -0.117704,4.5859 -0.85641,1.7135 -1.286476,2.56793 -0.430047,0.85442 -0.607284,4.52412 -0.912792,6.78383 -0.305499,2.2597 4.239075,9.36068 6.356747,14.03868 2.117691,4.678 1.471801,2.85359 2.205855,4.27806 0.734044,1.42445 -0.76145,6.65967 -1.144022,9.98716 -0.382572,3.3275 2.320685,7.19197 3.479159,10.78561 1.15849,3.59365 2.4836,9.76497 3.72354,14.6451 1.23994,4.88015 -1.38385,15.20104 -2.07764,22.79922 -0.69378,7.59819 13.942755,26.36147 20.912285,39.53985 6.96952,13.17838 12.98356,2.24302 19.47349,3.36221 6.48993,1.11918 25.77304,3.47336 38.6577,5.2077 12.88468,1.73433 2.29365,0.71893 3.43862,1.07607 1.14499,0.35713 7.28103,10.82307 10.91968,16.23227 3.63864,5.40921 1.28845,9.71514 2.03054,16.79255 m 199.19104,-0.1606 c 0.0858,-30.93059 -7.49276,-86.64625 -0.0458,-110.67699 7.44702,-24.03075 7.37619,-16.94008 19.63555,-60.10756 6.12967,-21.58376 16.20548,-41.14141 24.28337,-58.39144 8.07789,-17.25004 14.15781,-32.19248 12.2957,-44.54581 -3.72424,-24.70665 -8.27935,-112.6839 -8.27935,-112.6839 h -15.85497 c 0,0 9.9e-4,26.11109 0,39.16431 -9.9e-4,13.05323 -16.11355,62.67985 -24.1722,94.01743 -8.05861,31.33758 -35.06531,33.66605 -52.59982,50.49674 -17.53454,16.83067 -51.90747,13.69448 -77.86305,20.53938 -25.95556,6.84491 -45.31502,-12.70157 -67.9744,-19.0547 -22.65937,-6.35312 -34.00325,-35.33645 -51.00675,-53.00701 -17.00349,-17.67058 -15.73956,-49.26772 -23.6112,-73.90391 -7.87163,-24.63619 -0.70543,-17.84587 -1.06,-26.77115 l 0.64932,-33.02291 m 0,0 -18.85555,-0.0464"
       d="m 100.31077,102.39805 c -2.060644,8.70377 -4.254277,17.37606 -6.579875,26.01282 -2.174666,8.07623 -4.471995,16.15702 -5.51626,24.45546 -1.082558,8.60274 -0.772559,17.50804 2.07215,25.69869 1.616846,4.65532 4.053381,9.12232 4.49717,14.0304 0.491197,5.43239 -1.518467,10.75595 -3.68627,15.76123 -8.315882,19.20068 -19.434459,37.03109 -30.22003,54.96127 -2.179377,3.62305 -4.370481,7.3073 -5.517365,11.3768 -1.702017,6.03928 -0.874784,12.84773 2.645265,18.04186 3.477228,5.13095 9.13752,8.30814 14.748413,10.94169 1.363984,0.64021 2.741628,1.26157 4.026794,2.04812 1.285166,0.78655 2.484233,1.74936 3.370967,2.96756 1.422528,1.95428 1.949578,4.46777 1.770717,6.87833 -0.178862,2.41057 -1.020058,4.73182 -2.120292,6.8841 -0.435906,0.85272 -0.91407,1.68563 -1.286476,2.56793 -0.896701,2.12446 -1.151718,4.49029 -0.912792,6.78383 0.537947,5.16394 3.446513,9.73912 6.356747,14.03868 0.904654,1.33653 1.835201,2.70729 2.205855,4.27806 0.387658,1.64283 0.128653,3.36654 -0.24047,5.01363 -0.369124,1.6471 -0.849305,3.28645 -0.903552,4.97353 -0.06131,1.90686 0.427088,3.79492 1.115898,5.57408 0.688811,1.77916 1.577813,3.47287 2.363261,5.21153 2.085537,4.61652 3.443081,9.58713 3.72354,14.6451 0.423063,7.62976 -1.589768,15.17333 -2.07764,22.79922 -0.508082,7.94179 0.693561,16.0825 4.187071,23.23272 3.493509,7.15021 9.380134,13.24445 16.725214,16.30713 6.1096,2.54752 12.86815,2.93022 19.47349,3.36221 12.99302,0.84974 26.03116,2.02792 38.6577,5.2077 1.16588,0.29361 2.33217,0.60569 3.43862,1.07607 3.11575,1.32457 5.61013,3.86099 7.34888,6.76601 1.73875,2.90501 2.77715,6.17499 3.5708,9.46626 1.32471,5.49355 2.00767,11.14158 2.03054,16.79255 m 199.19104,-0.1606 c -8.01826,-36.30847 -8.034,-74.3619 -0.0458,-110.67699 4.53403,-20.61212 11.59133,-40.59583 19.63555,-60.10756 8.03573,-19.49115 17.07572,-38.57913 24.28337,-58.39144 5.27261,-14.49329 9.55742,-29.36827 12.2957,-44.54581 6.73157,-37.31127 3.90375,-76.30655 -8.13604,-112.25742 -0.0789,-0.23562 -0.34474,-0.42648 -0.59322,-0.42648 h -14.72375 c -0.37628,0 -0.66679,0.30469 -0.64958,0.68057 0.5871,12.81912 0.57653,25.6656 -0.0317,38.48374 -1.54979,32.65967 -7.30745,66.00608 -24.1722,94.01743 -12.67304,21.04918 -31.27541,38.29249 -52.59982,50.49674 -23.5771,13.49349 -50.70095,20.9572 -77.86305,20.53938 -23.80063,-0.36612 -47.55592,-6.81994 -67.9744,-19.0547 -21.26181,-12.74008 -38.62323,-31.53557 -51.00675,-53.00701 -13.0111,-22.55958 -20.64577,-48.03057 -23.6112,-73.90391 -1.01786,-8.88085 -1.23573,-17.83389 -1.06,-26.77115 l 0.64932,-33.02291 m 0,0 -18.85555,-0.0464"
       sodipodi:nodetypes="cssssssssssssssssssssssssccssssccssssssscccc"
       inkscape:label="path-head" />
    <path
       id="path8015-3-6"
       style="display:inline;fill:none;stroke:#000000;stroke-width:10;stroke-linecap:round;stroke-linejoin:round;stroke-miterlimit:4;stroke-dasharray:none"
       d="m 291.01668,220.52098 c 0,3.82504 -3.04057,6.92585 -6.79131,6.92585 -3.75073,-1e-5 -6.79129,-3.10082 -6.79129,-6.92585 0,-3.82503 3.04056,-6.92583 6.79129,-6.92584 3.75074,0 6.79131,3.1008 6.79131,6.92584 z m -44.3516,31.86838 c 0,5.03767 -4.00452,9.1215 -8.94433,9.1215 -4.93981,0 -8.94432,-4.08383 -8.94432,-9.1215 0,-5.03767 4.00451,-9.1215 8.94432,-9.1215 4.93981,0 8.94433,4.08383 8.94433,9.1215 z m 28.06291,29.38625 c 1e-5,6.94149 -5.51787,12.56868 -12.32452,12.56869 -6.80666,0 -12.32454,-5.6272 -12.32453,-12.56869 1e-5,-6.94148 5.51788,-12.56866 12.32453,-12.56866 6.80664,10e-6 12.32451,5.62718 12.32452,12.56866 z m 32.09945,-19.43563 c -1e-5,6.94148 -5.51789,12.56867 -12.32454,12.56866 -6.80664,-10e-6 -12.3245,-5.62719 -12.32451,-12.56866 -10e-6,-6.94148 5.51786,-12.56867 12.32451,-12.56868 6.80666,-1e-5 12.32455,5.62719 12.32454,12.56868 z m 28.48687,-86.0265 c 0,6.94148 -5.51788,12.56867 -12.32453,12.56867 -6.80665,0 -12.32453,-5.62719 -12.32453,-12.56867 -1e-5,-6.94149 5.51788,-12.56868 12.32453,-12.56868 6.80665,0 12.32454,5.62719 12.32453,12.56868 z m -5.55298,51.96161 c 1e-5,7.41448 -5.89385,13.42511 -13.16431,13.42512 -7.27047,0 -13.16435,-6.01063 -13.16434,-13.42512 0,-7.41448 5.89388,-13.4251 13.16434,-13.4251 7.27045,1e-5 13.16431,6.01063 13.16431,13.4251 z m -103.06332,-2.43667 c 1e-5,8.48673 -6.74621,15.3666 -15.06809,15.36661 -8.32188,-1e-5 -15.0681,-6.87988 -15.06809,-15.36661 1e-5,-8.48673 6.74621,-15.36658 15.06809,-15.36659 8.32188,10e-6 15.06808,6.87986 15.06809,15.36659 z m 17.55304,-54.23043 c 0,10.209 -8.11527,18.48502 -18.12596,18.48501 -10.01068,0 -18.12594,-8.27602 -18.12594,-18.48501 0,-10.20898 8.11526,-18.485 18.12594,-18.485 10.01069,-10e-6 18.12596,8.27601 18.12596,18.485 z"
       inkscape:label="path-balls"
       sodipodi:nodetypes="ssssssssssssssssssssssssssssssssssssssss" />
    <path
       id="path9238"
       style="display:inline;fill:none;stroke:#000000;stroke-width:6;stroke-linecap:round;stroke-linejoin:miter;stroke-miterlimit:4;stroke-dasharray:none;stroke-opacity:1"
       d="m 284.27479,211.13252 c 0.0208,-3.1331 0.0415,-6.26769 0.0623,-9.40382 m 25.19384,-20.29889 c -4.66519,0 -9.33197,0 -11.6661,-3.9964 -2.33413,-3.9964 -2.33413,-11.99043 -7.67071,-15.98828 -5.33657,-3.99786 -16.01085,-3.99786 -26.68686,-3.99786 m -37.38215,-4.32428 c -3e-4,-1.7667 -5.9e-4,-3.53473 6.13662,-4.41941 6.13722,-0.88468 18.40988,-0.88468 30.68127,-0.88468 m -51.82211,63.75003 c -0.10254,-1.74848 -0.20516,-3.49841 8.39855,-4.37412 8.60371,-0.87571 25.91164,-0.87571 43.21837,-0.87571 m -25.01704,36.94876 c -0.0418,-2.41173 -0.0835,-4.82491 3.8649,-6.08353 3.94843,-1.25862 11.88529,-1.36125 19.82079,-1.46385 m 56.31945,-18.98313 c 0,-5.56278 0,-11.12711 -9.09183,-13.91003 -9.09183,-2.78293 -27.27629,-2.78293 -45.46268,-2.78293 m 31.33152,49.72691 c 0.18222,-0.9929 0.36463,-1.98686 -4.79765,-2.48438 -5.16227,-0.49752 -15.67056,-0.49752 -26.18058,-0.49752 m -1.1212,22.41755 c 0,0 0.6208,-81.50243 0.6208,-81.50243 0,0 0,-140.407333 0,-140.407333"
       inkscape:label="path-roots"
       sodipodi:nodetypes="cccccccccccccccccccccccc"
       inkscape:original-d="m 284.27479,211.13252 c 0.0217,-3.13309 0.0425,-6.26768 0.0623,-9.40382 m 25.19384,-20.29889 c -4.66519,0.002 -9.33197,0.002 -14.00023,0 8.8e-4,-7.9928 8.8e-4,-15.98683 0,-23.98254 -10.67315,0.002 -21.34743,0.002 -32.02344,0 m -37.38215,-4.32428 c 7e-4,-1.7667 4.1e-4,-3.53473 -8.9e-4,-5.30409 12.27473,0.002 24.54739,0.002 36.81878,0 m -51.82211,63.75003 c -0.1016,-1.74853 -0.20422,-3.49847 -0.30787,-5.24983 17.31013,0.002 34.61806,0.002 51.92479,0 m -25.01704,36.94876 c -0.0408,-2.41175 -0.0825,-4.82493 -0.12534,-7.23951 7.93868,-0.10163 15.87554,-0.20425 23.81103,-0.30787 m 56.31945,-18.98313 c 8.8e-4,-5.56278 8.8e-4,-11.12711 0,-16.69296 -18.18366,0.002 -36.36812,0.002 -54.55451,0 m 31.33152,49.72691 c 0.18336,-0.99269 0.36577,-1.98665 0.54724,-2.9819 -10.50716,0.002 -21.01545,0.002 -31.52547,0 m -1.1212,22.41755 0.6208,-81.50243 V 47.297187"
       inkscape:path-effect="#path-effect9240" />
    <path
       style="display:inline;fill:none;stroke:#000000;stroke-width:15;stroke-linecap:butt;stroke-linejoin:miter;stroke-miterlimit:4;stroke-dasharray:none;stroke-opacity:1"
       d="m 118.8149,134.19718 297.67671,-0.0549 0.5699,0.82019 v 0"
       id="path9762"
       inkscape:label="path-soil"
       sodipodi:nodetypes="cccc" />
    <path
       id="path10907-9"
       style="display:inline;fill:none;stroke:#000000;stroke-width:12;stroke-linecap:butt;stroke-linejoin:miter;stroke-miterlimit:4;stroke-dasharray:none;stroke-opacity:1"
       inkscape:path-effect="#path-effect10909-2"
       inkscape:original-d="m 258.59172,44.537381 c 0,0 -16.89577,6.342808 -25.4088,7.078881 -8.51297,0.736122 -27.84864,-17.298577 -41.77041,-25.950407 -13.92178,-8.651799 -10.16076,-16.7361446 -10.16076,-16.7361446 0,0 22.11016,-0.2893916 33.16778,-0.436629 11.05763,-0.1472828 16.05387,5.2939726 24.08335,7.9384346 8.02949,2.644445 10.31429,12.152374 15.47402,18.226027 5.15968,6.073639 4.61482,9.879838 4.61482,9.879838 z m 11.71229,50.410258 c 0,0 16.37825,1.736805 24.89125,2.472878 8.51299,0.736122 24.83762,-22.806474 41.77042,-25.950406 367.12554,-68.164692 98.25942,-31.580283 10.16075,-16.736144 0,0 -22.11014,-0.289396 -33.16778,-0.436632 -11.05763,-0.147286 -16.05385,5.293977 -24.08333,7.938432 -8.0295,2.644445 -10.31429,12.152379 -15.474,18.226035 -5.15971,6.073636 -4.09731,14.485837 -4.09731,14.485837 z"
       d="m 258.59172,44.537381 c -7.38566,5.060009 -16.47072,7.591102 -25.4088,7.078881 -8.45046,-0.484276 -16.63188,-3.623382 -23.68333,-8.305443 -7.05146,-4.682062 -13.01873,-10.865836 -18.08708,-17.644964 -3.91397,-5.235095 -7.32186,-10.848361 -10.16076,-16.7361446 10.96329,-1.6918034 22.16375,-1.8392491 33.16778,-0.436629 8.46322,1.0787586 17.01543,3.1599066 24.08335,7.9384346 6.66608,4.506848 11.62227,11.161159 15.47402,18.226027 1.74103,3.193401 3.28327,6.495168 4.61482,9.879838 z m 11.71229,50.410258 c 7.94202,2.789541 16.55562,3.645279 24.89125,2.472878 16.64249,-2.340755 31.46429,-12.675042 41.77042,-25.950406 4.01092,-5.166476 7.42746,-10.794001 10.16075,-16.736144 -10.95492,-1.768436 -22.1701,-1.916076 -33.16778,-0.436632 -8.44674,1.136283 -16.93254,3.301114 -24.08333,7.938432 -6.77583,4.394154 -12.08897,10.893776 -15.474,18.226035 -2.11197,4.574707 -3.50018,9.482657 -4.09731,14.485837 z"
       inkscape:label="path-leaves"
       sodipodi:nodetypes="ccsccssccsscsssc" />
  </g>
</svg>
