<svg xmlns="http://www.w3.org/2000/svg" width="500" height="498"><path d="M100.3 102.4c-2 8.7-4.2 17.4-6.6 26-2.1 8-4.4 16.2-5.5 24.5-1 8.6-.8 17.5 2 25.7 1.7 4.6 4.1 9 4.6 14a33 33 0 0 1-3.7 15.8c-8.3 19.2-19.4 37-30.2 55a47.6 47.6 0 0 0-5.5 11.3 22 22 0 0 0 2.6 18 35 35 0 0 0 14.8 11c1.3.6 2.7 1.2 4 2 1.3.8 2.5 1.8 3.4 3 1.4 2 1.9 4.5 1.7 6.9-.2 2.4-1 4.7-2.1 6.9-.4.8-1 1.6-1.3 2.5-.9 2.1-1.1 4.5-.9 6.8a32 32 0 0 0 6.4 14c.9 1.4 1.8 2.8 2.2 4.3.4 1.7 0 3.4-.3 5-.3 1.7-.8 3.3-.9 5 0 2 .4 3.8 1.1 5.6.7 1.8 1.6 3.5 2.4 5.2 2 4.6 3.4 9.6 3.7 14.6.4 7.7-1.6 15.2-2 22.8-.6 8 .6 16.1 4.1 23.3a33.4 33.4 0 0 0 16.8 16.3c6 2.5 12.8 3 19.4 3.3 13 .9 26 2 38.7 5.3 1.2.2 2.3.6 3.4 1 3.1 1.4 5.6 3.9 7.4 6.8 1.7 2.9 2.8 6.2 3.5 9.5a73 73 0 0 1 2 16.8m199.3-.2a258 258 0 0 1 0-110.7 363 363 0 0 1 19.6-60c8-19.6 17-38.7 24.2-58.5 5.3-14.5 9.6-29.4 12.3-44.5 6.8-37.3 4-76.3-8.1-112.3 0-.2-.3-.4-.6-.4h-14.7c-.4 0-.7.3-.7.7.6 12.8.6 25.6 0 38.5-1.5 32.6-7.3 66-24.2 94a153.2 153.2 0 0 1-130.5 71 137 137 0 0 1-68-19 147.2 147.2 0 0 1-51-53 191.7 191.7 0 0 1-24.6-100.7l.7-33m0 0-18.9-.1" style="display:inline;fill:none;stroke:#000;stroke-width:15;stroke-linecap:round;stroke-linejoin:miter;stroke-miterlimit:4;stroke-dasharray:none;stroke-opacity:1"/><path d="M291 220.5c0 3.8-3 7-6.8 7a6.9 6.9 0 0 1-6.8-7c0-3.8 3-6.9 6.8-6.9s6.8 3.1 6.8 7zm-44.3 31.9c0 5-4 9.1-9 9.1s-9-4-9-9.1c0-5 4-9.1 9-9.1s9 4 9 9zm28 29.4c0 7-5.5 12.5-12.3 12.5-6.8 0-12.3-5.6-12.3-12.5 0-7 5.5-12.6 12.3-12.6 6.8 0 12.3 5.6 12.3 12.6zm32.1-19.5c0 7-5.5 12.6-12.3 12.6-6.8 0-12.3-5.6-12.3-12.6 0-6.9 5.5-12.5 12.3-12.5 6.8 0 12.3 5.6 12.3 12.5zm28.5-86c0 7-5.5 12.6-12.3 12.6-6.8 0-12.3-5.6-12.3-12.6s5.5-12.6 12.3-12.6c6.8 0 12.3 5.7 12.3 12.6zm-5.5 52c0 7.4-6 13.4-13.2 13.4-7.3 0-13.2-6-13.2-13.4s6-13.5 13.2-13.5c7.3 0 13.2 6 13.2 13.5zm-103.1-2.5c0 8.5-6.7 15.4-15 15.4-8.4 0-15.1-6.9-15.1-15.4 0-8.4 6.7-15.3 15-15.3 8.4 0 15.1 6.9 15.1 15.3zm17.6-54.2c0 10.2-8.2 18.5-18.2 18.5s-18.1-8.3-18.1-18.5 8.1-18.5 18.1-18.5c10 0 18.2 8.3 18.2 18.5z" style="display:inline;fill:none;stroke:#000;stroke-width:10;stroke-linecap:round;stroke-linejoin:round;stroke-miterlimit:4;stroke-dasharray:none"/><path d="M284.3 211.1v-9.4m25.2-20.3c-4.6 0-9.3 0-11.6-4-2.4-4-2.4-12-7.7-16-5.3-4-16-4-26.7-4m-37.4-4.3c0-1.7 0-3.5 6.2-4.4 6.1-.9 18.4-.9 30.6-.9m-51.8 63.8c0-1.8-.2-3.5 8.4-4.4 8.6-.9 26-.9 43.2-.9m-25 37c0-2.4 0-4.9 3.9-6.1 4-1.3 11.9-1.4 19.8-1.5m56.3-19c0-5.5 0-11-9-13.9-9.2-2.8-27.3-2.8-45.5-2.8m31.3 49.8c.2-1 .4-2-4.8-2.5s-15.7-.5-26.2-.5m-1.1 22.4.6-81.5V47.3" style="display:inline;fill:none;stroke:#000;stroke-width:6;stroke-linecap:round;stroke-linejoin:miter;stroke-miterlimit:4;stroke-dasharray:none;stroke-opacity:1"/><path d="M118.8 134.2h297.7l.6.8" style="display:inline;fill:none;stroke:#000;stroke-width:15;stroke-linecap:butt;stroke-linejoin:miter;stroke-miterlimit:4;stroke-dasharray:none;stroke-opacity:1"/><path d="M258.6 44.5c-7.4 5.1-16.5 7.6-25.4 7.1a48.3 48.3 0 0 1-23.7-8.3c-7-4.7-13-10.9-18-17.6-4-5.3-7.4-10.9-10.2-16.8a119 119 0 0 1 33.1-.4 55 55 0 0 1 24.1 8A50.8 50.8 0 0 1 254 34.6c1.7 3.2 3.3 6.5 4.6 9.8zM270.3 95c8 2.8 16.6 3.7 24.9 2.5a66.2 66.2 0 0 0 41.8-26c4-5.1 7.4-10.7 10.1-16.7-11-1.7-22.1-1.9-33.1-.4-8.5 1.1-17 3.3-24.1 8a43.3 43.3 0 0 0-15.5 18.2 48.3 48.3 0 0 0-4.1 14.4z" style="display:inline;fill:none;stroke:#000;stroke-width:12;stroke-linecap:butt;stroke-linejoin:miter;stroke-miterlimit:4;stroke-dasharray:none;stroke-opacity:1"/></svg>