<?xml version="1.0" encoding="UTF-8" standalone="no"?>
<!-- Created with Inkscape (http://www.inkscape.org/) -->

<svg
   version="1.1"
   id="svg1138"
   width="500"
   height="500"
   viewBox="0 0 500 500"
   sodipodi:docname="honstyIcon.svg"
   inkscape:version="1.1.2 (0a00cf5339, 2022-02-04)"
   xmlns:inkscape="http://www.inkscape.org/namespaces/inkscape"
   xmlns:sodipodi="http://sodipodi.sourceforge.net/DTD/sodipodi-0.dtd"
   xmlns="http://www.w3.org/2000/svg"
   xmlns:svg="http://www.w3.org/2000/svg">
  <defs
     id="defs1142" />
  <sodipodi:namedview
     id="namedview1140"
     pagecolor="#ffffff"
     bordercolor="#666666"
     borderopacity="1.0"
     inkscape:pageshadow="2"
     inkscape:pageopacity="0.0"
     inkscape:pagecheckerboard="0"
     showgrid="false"
     inkscape:zoom="1.5546875"
     inkscape:cx="249.88945"
     inkscape:cy="250.21106"
     inkscape:window-width="1920"
     inkscape:window-height="1011"
     inkscape:window-x="0"
     inkscape:window-y="0"
     inkscape:window-maximized="1"
     inkscape:current-layer="g1144" />
  <g
     inkscape:groupmode="layer"
     inkscape:label="Image"
     id="g1144"
     transform="translate(-6,-6)">
    <path
       style="fill:#000000;stroke-width:0.999997"
       d="m 189.46978,503.46216 c -1.42766,-0.0208 -3.90093,-0.6299 -5.49615,-1.35351 -1.59521,-0.72361 -34.73963,-33.22722 -73.65426,-72.23022 -62.006098,-62.14693 -70.833091,-71.35346 -71.394682,-74.46448 -0.35245,-1.95244 -0.325185,-4.99785 0.06059,-6.76757 0.523078,-2.39958 4.551768,-7.15055 15.84557,-18.68642 8.329288,-8.50781 16.974393,-18.23744 19.211344,-21.6214 2.236951,-3.38396 4.067184,-6.6592 4.067184,-7.27831 0,-0.61911 -3.765462,-6.11653 -8.367694,-12.21649 -4.602231,-6.09995 -12.809007,-17.83424 -18.23728,-26.07618 -5.428271,-8.24195 -12.738368,-20.20606 -16.244659,-26.58692 -3.50629,-6.38086 -8.515218,-16.60473 -11.130948,-22.71972 -2.615732,-6.11499 -6.094907,-15.3036 -7.731501,-20.41913 C 14.7607,187.92628 12.44976,179.2251 11.26187,173.70587 9.4843024,165.44684 9.1056704,160.67666 9.1224077,146.75195 c 0.016405,-13.64868 0.4265909,-18.82286 2.1221283,-26.76907 1.155986,-5.41756 3.454469,-13.68367 5.10774,-18.36913 1.653271,-4.685464 4.735639,-11.960098 6.849705,-16.165855 2.114066,-4.205758 4.987516,-9.426461 6.385444,-11.601562 1.397929,-2.175103 4.490812,-6.565083 6.873073,-9.755513 2.382262,-3.190429 7.398355,-9.005328 11.146871,-12.921995 3.748516,-3.916668 10.295952,-9.823559 14.549859,-13.126425 4.253906,-3.302866 10.344726,-7.554632 13.535156,-9.44837 3.190429,-1.893738 8.411133,-4.747066 11.601562,-6.340732 3.19043,-1.593664 9.634341,-4.249686 14.319804,-5.902271 4.68546,-1.652585 12.77357,-3.871722 17.97357,-4.931415 5.2,-1.059694 14.4182,-2.2094493 20.48489,-2.555013 6.62642,-0.3774472 15.08331,-0.1679079 21.1817,0.5248271 5.58325,0.6342189 14.38077,2.2087109 19.55004,3.4988719 5.16928,1.290161 13.21786,3.883305 17.88574,5.762541 4.66789,1.879238 11.96754,5.433615 16.22144,7.898617 4.25391,2.465002 10.80241,6.74769 14.55224,9.517083 3.74983,2.769394 9.64823,7.814969 13.10756,11.212388 3.45933,3.39742 7.89605,8.02738 9.85939,10.2888 L 256,61.679399 l 3.55757,-4.111672 c 1.95666,-2.26142 6.85107,-7.312326 10.87647,-11.224235 4.02539,-3.91191 12.42562,-10.503568 18.66718,-14.648128 6.5155,-4.326466 15.78686,-9.40907 21.77087,-11.934906 5.73243,-2.419637 14.76511,-5.483518 20.07262,-6.808624 5.30751,-1.325106 14.21813,-2.928189 19.80138,-3.5624079 6.09839,-0.692735 14.55528,-0.9022743 21.1817,-0.5248271 6.06669,0.3455637 15.28489,1.495319 20.48489,2.555013 5.2,1.059693 13.28811,3.279392 17.97358,4.932663 4.68545,1.653271 11.96009,4.735639 16.16584,6.849705 4.20576,2.114066 9.42647,4.983256 11.60157,6.375977 2.1751,1.392721 7.4352,5.218143 11.6891,8.500936 4.25391,3.282795 10.80135,9.173264 14.54986,13.089932 3.74851,3.916667 8.78106,9.731566 11.18342,12.921995 2.40237,3.19043 5.9216,8.411133 7.82051,11.601563 1.89892,3.190429 4.75648,8.411133 6.35015,11.601562 1.59365,3.19043 4.24968,9.634341 5.90226,14.319805 1.65259,4.68546 3.95051,12.95157 5.1065,18.36913 1.69554,7.94621 2.10572,13.12039 2.12213,26.76907 0.0167,13.92471 -0.36191,18.69489 -2.13947,26.95392 -1.18789,5.51923 -3.49883,14.22041 -5.13542,19.33594 -1.63659,5.11553 -5.09937,14.25462 -7.69505,20.3091 -2.59567,6.05447 -7.60858,16.27834 -11.1398,22.71972 -3.53121,6.44137 -10.10339,17.36736 -14.60486,24.27996 -4.50146,6.91259 -10.25489,15.39624 -12.7854,18.85253 -4.4116,6.0256 -4.60508,6.56341 -4.70172,13.06989 -0.0582,3.92012 -0.88564,9.06691 -1.95932,12.18759 -1.02218,2.97103 -3.0403,7.31346 -4.48472,9.64984 -1.44441,2.33638 -32.4873,34.20453 -68.98419,70.81812 -36.4969,36.61358 -69.5367,69.31602 -73.42178,72.67208 -3.88508,3.35606 -10.42287,7.84952 -14.52841,9.98546 -4.10555,2.13594 -10.71567,4.81669 -14.68916,5.95721 -5.82388,1.67165 -10.78577,2.17161 -25.59365,2.57884 l -18.36914,0.50516 -12.56836,12.42164 c -6.9126,6.8319 -13.79309,12.87826 -15.28999,13.43635 -1.49689,0.55808 -3.88971,0.99767 -5.31738,0.97686 z m 10.45097,-44.86964 c 5.61106,-5.52926 11.27933,-10.29023 12.59616,-10.57994 1.31682,-0.2897 11.74798,-0.67752 23.18036,-0.86181 19.01222,-0.3065 21.28118,-0.52748 26.58691,-2.58946 3.19043,-1.2399 7.54102,-3.46264 9.66797,-4.93944 2.12695,-1.47679 35.04734,-33.93333 73.15643,-72.12563 57.16465,-57.28951 69.4562,-70.06665 70.2434,-73.01846 0.55277,-2.07278 0.61972,-5.06065 0.15917,-7.10272 -0.43724,-1.93866 -1.8102,-4.61177 -3.05102,-5.94025 -1.24081,-1.32847 -3.43083,-3.02665 -4.86671,-3.77374 -1.43588,-0.74709 -3.90914,-1.35834 -5.49614,-1.35834 -1.58701,0 -4.1102,0.46066 -5.6071,1.0237 -1.4969,0.56303 -14.68574,12.92471 -29.30854,27.47039 -22.84607,22.72558 -27.09703,26.54158 -30.2124,27.12101 -1.99402,0.37087 -5.10406,0.39693 -6.9112,0.0579 -1.80714,-0.33902 -4.47021,-1.54813 -5.91794,-2.68691 -1.44773,-1.13878 -3.23209,-3.5062 -3.96526,-5.26092 -0.73317,-1.75473 -1.33304,-4.53117 -1.33304,-6.16987 0,-1.6387 0.69821,-4.37179 1.55157,-6.07353 0.85336,-1.70175 20.89543,-22.49001 44.53792,-46.19615 36.34122,-36.43906 43.11161,-43.65757 43.79679,-46.69555 0.46692,-2.07022 0.42351,-4.99498 -0.1024,-6.89965 -0.50209,-1.81839 -2.01557,-4.61663 -3.36329,-6.21832 -1.43714,-1.70793 -4.10453,-3.35756 -6.45053,-3.98927 -2.9925,-0.80579 -4.98387,-0.78916 -7.9055,0.066 -3.27183,0.9577 -10.96318,8.1736 -47.41124,44.48044 -37.61467,37.46892 -44.06717,43.50182 -47.651,44.55227 -3.64956,1.06972 -4.68711,0.99036 -8.67805,-0.66364 -2.82534,-1.17093 -5.39328,-3.1447 -6.81687,-5.23957 -1.91515,-2.81821 -2.22045,-4.26887 -1.89049,-8.98304 l 0.39352,-5.62207 53.21949,-53.35254 c 29.27072,-29.3439 53.93048,-54.42823 54.79947,-55.74296 0.93878,-1.42031 1.5774,-4.36296 1.57361,-7.25097 -0.004,-3.1304 -0.65498,-5.84437 -1.8285,-7.62435 -1.00217,-1.52008 -3.06583,-3.58374 -4.58592,-4.58591 -1.73586,-1.14444 -4.48962,-1.8245 -7.40407,-1.8285 -2.55216,-0.004 -5.8151,0.61804 -7.25098,1.38121 -1.43588,0.76316 -26.10385,24.93709 -54.81771,53.71983 -28.71387,28.78274 -53.38184,52.95666 -54.81771,53.71983 -1.43588,0.76317 -4.39413,1.38759 -6.57389,1.38759 -2.17977,0 -5.21249,-0.64602 -6.73937,-1.43561 -1.52689,-0.78958 -3.65165,-2.66512 -4.72169,-4.16786 -1.07004,-1.50273 -2.23988,-3.90498 -2.59962,-5.33832 -0.35975,-1.43335 -0.35694,-4.23469 0.006,-6.22521 0.57795,-3.16772 6.1278,-9.10591 44.49491,-47.60839 36.74501,-36.87467 44.01946,-44.6209 44.9776,-47.89465 0.84139,-2.8748 0.86767,-4.92795 0.0996,-7.78042 -0.5739,-2.13126 -2.24679,-4.99824 -3.71755,-6.37105 -1.47076,-1.37282 -4.27727,-3.00796 -6.23667,-3.63366 -2.688,-0.85835 -4.58669,-0.86814 -7.73438,-0.0398 -3.74377,0.98512 -11.21857,8.13504 -72.85136,69.68498 -56.16951,56.094 -69.33047,68.76695 -72.25306,69.57393 -2.4589,0.67893 -4.7569,0.66804 -7.3674,-0.0349 -2.27355,-0.61219 -4.98594,-2.37926 -6.7686,-4.40961 -1.63611,-1.86342 -3.19466,-4.35894 -3.46344,-5.5456 -0.26878,-1.18666 -0.60136,-17.39524 -0.73906,-36.01906 l -0.24995,-33.86152 -3.17165,-6.43925 c -2.01794,-4.09693 -4.93631,-8.02583 -8.02284,-10.80089 -2.66815,-2.3989 -7.23928,-5.25513 -10.15807,-6.3472 -2.91879,-1.09205 -5.72562,-1.98556 -6.23742,-1.98556 -0.58567,0 -0.93154,21.22904 -0.93326,57.28272 -0.002,35.83073 -0.40204,60.54124 -1.06902,65.98388 -0.58646,4.78565 -2.12604,12.39917 -3.42127,16.91895 -1.29523,4.51977 -4.48088,12.59725 -7.07921,17.94994 -2.59833,5.35269 -7.314842,13.18374 -10.481133,17.40234 -3.166291,4.2186 -9.292851,11.14487 -13.614577,15.3917 l -7.857686,7.72151 58.231616,58.23758 58.2316,58.23758 z M 87.777344,202.82617 c 0.480954,-61.08119 0.494228,-61.41185 2.625345,-65.3966 1.178071,-2.20276 3.97752,-5.5762 6.220998,-7.49653 2.243478,-1.92034 5.630183,-3.92242 7.526023,-4.44907 1.89583,-0.52666 6.27485,-0.95355 9.73115,-0.94866 3.4563,0.005 9.10547,0.67384 12.55369,1.48655 3.44824,0.81269 9.32153,2.95808 13.05176,4.76748 3.73024,1.80942 9.28339,5.37987 12.34034,7.93434 3.05695,2.55446 7.36165,7.03731 9.56598,9.96187 2.20434,2.92456 5.28746,8.02852 6.8514,11.34213 1.56393,3.31362 3.49833,8.31679 4.29866,11.11816 0.91253,3.19407 1.64894,11.34644 1.97481,21.86195 l 0.51964,16.76853 56.67528,-56.47966 c 51.47684,-51.29917 57.20734,-56.711761 62.47606,-59.010072 3.19043,-1.391724 8.72739,-2.997333 12.30436,-3.56802 3.57697,-0.570687 8.36261,-0.774833 10.63477,-0.453658 2.27214,0.321175 6.30647,1.257503 8.96516,2.080731 2.65869,0.823227 6.66421,2.555294 8.90116,3.849039 2.23693,1.293744 6.42991,4.90432 9.31773,8.02351 2.88782,3.11919 5.84324,7.02421 6.5676,8.67784 0.85658,1.95546 1.82403,2.83821 2.76722,2.52494 0.79761,-0.26492 3.84302,-1.35821 6.76758,-2.42953 3.6624,-1.3416 7.76817,-1.95767 13.19162,-1.97941 5.19255,-0.0208 9.98223,0.61954 14.06394,1.88024 3.40435,1.0515 8.56211,3.56633 11.46171,5.58853 2.8996,2.02219 7.24482,6.28361 9.65605,9.46981 2.55781,3.37989 5.27627,8.51094 6.52588,12.31752 1.47694,4.49907 2.13549,8.84405 2.12143,13.9968 -0.0149,5.44186 -0.67049,9.31137 -2.41278,14.23995 -1.31582,3.72217 -2.39429,6.85801 -2.3966,6.96853 -0.002,0.11051 1.89968,1.3167 4.22667,2.68041 2.32698,1.3637 6.48117,4.8588 9.23151,7.76688 2.78332,2.94295 6.35723,8.18468 8.06015,11.82154 2.56871,5.48591 3.12208,7.959 3.44951,15.41613 0.31085,7.07981 -0.0237,10.24383 -1.64865,15.59374 -1.25626,4.13595 -3.65857,8.88995 -6.25972,12.38753 -2.32161,3.12169 -5.35658,6.71748 -6.74439,7.99066 l -2.5233,2.31488 4.49132,2.8483 4.49132,2.84831 1.78667,-2.26279 c 0.98267,-1.24453 5.35537,-7.91855 9.7171,-14.83115 4.36173,-6.9126 11.21379,-19.09424 15.22681,-27.07031 4.01301,-7.97608 8.92704,-19.50513 10.92007,-25.62012 1.99303,-6.11499 4.28204,-14.16357 5.08667,-17.88574 0.80465,-3.72217 1.72515,-11.80452 2.04559,-17.96079 0.43299,-8.31868 0.16069,-13.71645 -1.06028,-21.01841 -0.90359,-5.40385 -2.85906,-13.41866 -4.34549,-17.81069 -1.48643,-4.39202 -4.12447,-10.81338 -5.86232,-14.269681 -1.73783,-3.456298 -5.17239,-9.327299 -7.63235,-13.046667 -2.45994,-3.719368 -8.39045,-10.680306 -13.17889,-15.46875 -4.78845,-4.788445 -11.74938,-10.719441 -15.46875,-13.179993 -3.71937,-2.460552 -9.8079,-5.988475 -13.53007,-7.839829 -3.72217,-1.851355 -10.24804,-4.503823 -14.50195,-5.894374 -4.25391,-1.390551 -11.59813,-3.192096 -16.32049,-4.003432 -4.72236,-0.811337 -12.19564,-1.475158 -16.60729,-1.475158 -4.41165,0 -11.37564,0.466564 -15.47555,1.036809 -4.09991,0.570245 -11.20109,2.115907 -15.78041,3.434807 -4.57931,1.318898 -11.8065,4.092613 -16.0604,6.163809 -4.25391,2.071197 -10.56226,5.602675 -14.01856,7.847728 -3.4563,2.245054 -10.87642,8.684829 -16.48916,14.310612 -6.94842,6.964572 -11.91239,13.005365 -15.55545,18.929868 -2.99644,4.872928 -6.75766,9.658233 -8.54884,10.876461 -2.17554,1.47965 -4.62121,2.17414 -7.64766,2.17168 -2.73974,-0.002 -5.66586,-0.74533 -7.61546,-1.93401 -1.74137,-1.061716 -4.35173,-3.952395 -5.80078,-6.423727 -1.44906,-2.471332 -5.06611,-7.800611 -8.03792,-11.842844 -2.9718,-4.042232 -8.84509,-10.615222 -13.05176,-14.606645 -4.20666,-3.991423 -10.89952,-9.393958 -14.87303,-12.005635 -3.9735,-2.611675 -10.3252,-6.181083 -14.11486,-7.932018 -3.78967,-1.750934 -10.59368,-4.256713 -15.12003,-5.568397 -4.52635,-1.311685 -11.58419,-2.851444 -15.6841,-3.421689 -4.09991,-0.570245 -11.0639,-1.036809 -15.47555,-1.036809 -4.41165,0 -11.88493,0.658529 -16.60729,1.463398 -4.72236,0.804868 -12.06658,2.588378 -16.32049,3.963355 -4.25391,1.374976 -11.96722,4.698581 -17.140693,7.385791 -5.173476,2.687209 -12.850233,7.641306 -17.059461,11.009104 -4.209228,3.367799 -9.725677,8.413129 -12.258776,11.211847 -2.533099,2.798716 -6.429395,7.550048 -8.658438,10.558516 -2.229042,3.008467 -6.025943,9.316817 -8.437556,14.018555 -2.411614,4.701738 -5.484775,11.859608 -6.829247,15.906388 -1.344472,4.04678 -3.192134,11.829 -4.105915,17.29381 -1.196721,7.1569 -1.517858,12.9409 -1.14815,20.67932 0.282299,5.90882 1.237477,14.22378 2.122619,18.47769 0.885142,4.25391 3.144531,12.30249 5.020864,17.88574 1.876333,5.58325 6.121666,15.80713 9.434074,22.71973 3.312406,6.9126 8.773233,17.13647 12.135168,22.71972 3.361936,5.58326 9.422222,14.93702 13.467304,20.78614 l 7.354692,10.63476 z"
       id="path1246" />
  </g>
</svg>
