<svg xmlns="http://www.w3.org/2000/svg" width="500" height="500"><path d="M250 450h-87.2v-2.3a41 41 0 0 1 4.4-16c1.3-2.3 4-6 6.2-8.1 2.2-2.2 5.7-5 7.9-6.1a41 41 0 0 1 8-3.3c3.3-.8 8.3-1 21.8-1h17.6V132.3H165c-35 0-63.8.2-63.8.4 0 .3 12.2 19.4 27.1 42.6 15 23.2 27.6 43.4 28.2 45 .8 2.4.9 3.4.2 5.7-.5 1.5-1.6 3.6-2.4 4.7-.9 1-2.6 2.3-3.9 2.8-1.3.6-3.5 1-5 1s-4-.7-5.4-1.6c-2.4-1.3-6-6.7-27-39.2A1718.2 1718.2 0 0 0 88.4 156c-.2 0-11.2 16.9-24.5 37.5a515.8 515.8 0 0 1-26.2 39.1c-1.6 1.2-3.1 1.5-6.5 1.5-3.3 0-4.9-.3-6.4-1.4a15 15 0 0 1-5.2-9.4c0-1 1-3.5 2-5.6L50 173.1c14.5-22.4 26.1-41 25.8-41a17.9 17.9 0 0 1-7-3.1 16.8 16.8 0 0 1-5.4-19.5 19.4 19.4 0 0 1 8.4-8.7c2.9-1.5 3-1.5 59.7-1.7l56.9-.2L194 93c4.8-4.7 7.2-6.4 13-9.2l6.9-3.4 1.6-5.3a40 40 0 0 1 3.8-8.8 45.7 45.7 0 0 1 12.9-12.1 32.5 32.5 0 0 1 18-4.3 31.4 31.4 0 0 1 19 5.2 39.9 39.9 0 0 1 13 14c.8 2 2.1 5.4 2.6 7.5l1 3.8 7 3.4c5.8 2.8 8.1 4.5 13 9.2l5.8 5.8 56.9.2c56.7.2 56.8.2 59.6 1.7a19.4 19.4 0 0 1 8.5 8.7c.6 1.4 1 4.4 1 6.6 0 3.2-.4 4.8-2 7.7a16.5 16.5 0 0 1-5.5 5.8c-1.8 1-3.9 2-4.5 2-.6 0-1.3.2-1.5.4-.3.2 12 19.7 27.1 43.3 15.2 23.6 28 44 28.4 45.5a8 8 0 0 1 0 5.3c-.4 1.4-1.5 3.5-2.4 4.6-.8 1-2.5 2.3-3.8 2.8-1.3.6-3.6 1-5 1-1.5 0-4-.7-5.5-1.6-2.3-1.3-6-6.7-27-39.2a1718 1718 0 0 0-24.4-37.7c-.2 0-11.2 16.9-24.5 37.5a585 585 0 0 1-26.1 39 12.8 12.8 0 0 1-10.6 1.3c-1.4-.4-3.4-1.7-4.4-2.9-1-1.1-2.1-3.3-2.6-4.9-.7-2.3-.7-3.3.2-5.7.6-1.6 13.2-21.8 28.1-45 15-23.2 27.1-42.3 27.1-42.6 0-.2-28.7-.4-63.8-.4h-63.8v280.9h17.6c13.5 0 18.5.2 21.8 1 2.3.6 6 2 8 3.3 2.2 1.2 5.8 4 8 6 2 2.2 4.9 5.9 6.2 8.2a41.6 41.6 0 0 1 4.3 16v2.3ZM87.8 324.8c-4.6 0-10.6-.5-13.3-1a91.2 91.2 0 0 1-19.8-6.3 88.8 88.8 0 0 1-17.2-11 86.5 86.5 0 0 1-21.4-28.7 90.6 90.6 0 0 1-3.6-10.4 103 103 0 0 1-2-12.4c-.7-6.3-.7-7.7.3-9.7.6-1.2 2-2.6 2.9-3 1.3-.6 21.7-.9 74.7-.9s73.4.3 74.7.8c1 .5 2.3 1.9 3 3.2.9 2 1 3.4.3 9.5-.4 3.9-1.3 9.5-2.1 12.4-.8 3-2.4 7.6-3.6 10.5a86.5 86.5 0 0 1-21.4 28.7 88 88 0 0 1-26.3 14.7c-2.8.9-7.8 2-11 2.6-3.3.6-9.7 1-14.2 1zm323.1 0c-4.5 0-10.5-.5-13.3-1a91.2 91.2 0 0 1-19.7-6.3 88.8 88.8 0 0 1-17.2-11 86.5 86.5 0 0 1-21.4-28.7 92.6 92.6 0 0 1-3.6-10.5c-.8-3-1.8-8.5-2.2-12.4-.6-6.1-.5-7.5.4-9.5.7-1.3 2-2.7 3-3.2 1.2-.5 21.6-.8 74.7-.8 53 0 73.4.3 74.7.8 1 .5 2.2 1.9 2.9 3.2 1 2 1 3.4.4 9.5-.4 3.9-1.4 9.5-2.1 12.4-.8 3-2.4 7.6-3.6 10.5a86.5 86.5 0 0 1-21.4 28.7 88 88 0 0 1-26.3 14.7c-2.9.9-7.8 2-11 2.6-3.4.6-9.7 1-14.3 1z" style="display:inline;fill:none;fill-opacity:1;stroke:#000;stroke-width:15.11811024;stroke-miterlimit:4;stroke-dasharray:none;stroke-opacity:1"/></svg>