<?xml version="1.0" encoding="UTF-8" standalone="no"?>
<svg
   width="500"
   height="500"
   version="1.1"
   id="svg109509"
   sodipodi:docname="integrityIcon.svg"
   inkscape:version="1.1.2 (0a00cf5339, 2022-02-04)"
   xmlns:inkscape="http://www.inkscape.org/namespaces/inkscape"
   xmlns:sodipodi="http://sodipodi.sourceforge.net/DTD/sodipodi-0.dtd"
   xmlns="http://www.w3.org/2000/svg"
   xmlns:svg="http://www.w3.org/2000/svg">
  <defs
     id="defs109513" />
  <sodipodi:namedview
     id="namedview109511"
     pagecolor="#ffffff"
     bordercolor="#666666"
     borderopacity="1.0"
     inkscape:pageshadow="2"
     inkscape:pageopacity="0.0"
     inkscape:pagecheckerboard="0"
     showgrid="false"
     inkscape:zoom="0.776"
     inkscape:cx="157.86082"
     inkscape:cy="323.45361"
     inkscape:window-width="1920"
     inkscape:window-height="1011"
     inkscape:window-x="0"
     inkscape:window-y="0"
     inkscape:window-maximized="1"
     inkscape:current-layer="svg109509" />
  <path
     d="M 18.326193,239.17863 C 71.787087,140.61505 84.327955,131.90522 75.8,132.1 c -2.52959,-0.51643 -4.917532,-1.57394 -7,-3.1 -5.951375,-4.56563 -8.155053,-12.52336 -5.4,-19.5 1.801503,-3.72093 4.744546,-6.76909 8.4,-8.7 2.9,-1.5 3,-1.5 59.7,-1.7 L 188.4,98.9 194,93 c 4.8,-4.7 7.2,-6.4 13,-9.2 l 6.9,-3.4 1.6,-5.3 c 0.90935,-3.075047 2.18518,-6.029588 3.8,-8.8 3.47104,-4.834879 7.85309,-8.945176 12.9,-12.1 5.4565,-3.147434 11.71007,-4.641344 18,-4.3 6.72715,-0.34957 13.3884,1.473508 19,5.2 5.40313,3.545054 9.86434,8.349437 13,14 0.8,2 2.1,5.4 2.6,7.5 l 1,3.8 7,3.4 c 5.8,2.8 8.1,4.5 13,9.2 l 5.8,5.8 56.9,0.2 c 56.7,0.2 56.8,0.2 59.6,1.7 3.69268,1.91386 6.67252,4.96382 8.5,8.7 0.6,1.4 1,4.4 1,6.6 0,3.2 -0.4,4.8 -2,7.7 -1.33026,2.35489 -3.21901,4.34666 -5.5,5.8 -1.8,1 -3.9,2 -4.5,2 -0.6,0 -1.3,0.2 -1.5,0.4 -5.02073,0.10163 4.18982,11.06434 58.57756,107.0772 m -141.34148,0.67162 C 392.70104,148.64095 404.22201,132.54284 398.7,132.6 c 0,-0.2 -28.7,-0.4 -63.8,-0.4 h -63.8 v 280.9 h 17.6 c 13.5,0 18.5,0.2 21.8,1 2.3,0.6 6,2 8,3.3 2.2,1.2 5.8,4 8,6 2,2.2 4.9,5.9 6.2,8.2 2.49161,4.99108 3.95394,10.4323 4.3,16 v 2.3 l -87,0.1 h -87.2 v -2.3 c 0.36077,-5.57749 1.8581,-11.02232 4.4,-16 1.3,-2.3 4,-6 6.2,-8.1 2.2,-2.2 5.7,-5 7.9,-6.1 2.54279,-1.37914 5.22439,-2.4853 8,-3.3 3.3,-0.8 8.3,-1 21.8,-1 h 17.6 V 132.3 H 165 c -35,0 -69.862639,0.47942 -63.8,0.4 l 57.49545,106.8037 M 87.8,324.8 c -4.6,0 -10.6,-0.5 -13.3,-1 -6.818451,-1.33885 -13.461554,-3.45256 -19.8,-6.3 -6.137182,-2.99318 -11.908652,-6.68424 -17.2,-11 -9.056645,-7.96969 -16.346075,-17.7457 -21.4,-28.7 -1.409639,-3.39051 -2.611856,-6.86359 -3.6,-10.4 -0.918299,-4.0888 -1.586207,-8.22983 -2,-12.4 -0.7,-6.3 -0.7,-7.7 0.3,-9.7 0.6,-1.2 2,-2.6 2.9,-3 1.3,-0.6 21.7,-0.9 74.7,-0.9 53,0 73.4,0.3 74.7,0.8 1,0.5 2.3,1.9 3,3.2 0.9,2 1,3.4 0.3,9.5 -0.4,3.9 -1.3,9.5 -2.1,12.4 -0.8,3 -2.4,7.6 -3.6,10.5 -5.05393,10.9543 -12.34335,20.73031 -21.4,28.7 -7.85641,6.37549 -16.75345,11.34836 -26.3,14.7 -2.8,0.9 -7.8,2 -11,2.6 -3.3,0.6 -9.7,1 -14.2,1 z m 323.1,0 c -4.5,0 -10.5,-0.5 -13.3,-1 -6.78432,-1.34618 -13.39347,-3.45977 -19.7,-6.3 -6.13718,-2.99318 -11.90865,-6.68424 -17.2,-11 -9.05665,-7.96969 -16.34607,-17.7457 -21.4,-28.7 -1.40888,-3.42486 -2.61104,-6.93116 -3.6,-10.5 -0.8,-3 -1.8,-8.5 -2.2,-12.4 -0.6,-6.1 -0.5,-7.5 0.4,-9.5 0.7,-1.3 2,-2.7 3,-3.2 1.2,-0.5 21.6,-0.8 74.7,-0.8 53,0 73.4,0.3 74.7,0.8 1,0.5 2.2,1.9 2.9,3.2 1,2 1,3.4 0.4,9.5 -0.4,3.9 -1.4,9.5 -2.1,12.4 -0.8,3 -2.4,7.6 -3.6,10.5 -5.05393,10.9543 -12.34335,20.73031 -21.4,28.7 -7.85641,6.37549 -16.75345,11.34836 -26.3,14.7 -2.9,0.9 -7.8,2 -11,2.6 -3.4,0.6 -9.7,1 -14.3,1 z"
     style="display:inline;fill:none;fill-opacity:1;stroke:#000000;stroke-width:15.1181;stroke-miterlimit:4;stroke-dasharray:none;stroke-opacity:1"
     id="path109507"
     sodipodi:nodetypes="ccccccccccccccccccccccccsccsccccsccscccccccccccccsccsccsccccccscsccccccccssccccccccsccccccccs" />
  <circle
     id="path122506"
     style="fill:#000000;stroke:none"
     cx="75.800003"
     cy="132.10001"
     r="1.5" />
  <path
     style="fill:none;stroke:#000000;stroke-width:15;stroke-linecap:round;stroke-linejoin:miter;stroke-opacity:1;stroke-miterlimit:4;stroke-dasharray:none"
     d="m 75.8,132.1 25.4,0.6"
     id="path122543" />
  <path
     style="fill:none;stroke:#000000;stroke-width:15;stroke-linecap:round;stroke-linejoin:miter;stroke-opacity:1;stroke-miterlimit:4;stroke-dasharray:none"
     d="m 398.7,132.6 25.4,-0.7"
     id="path124610" />
</svg>
