<svg xmlns="http://www.w3.org/2000/svg" width="500" height="500"><path d="M190.4 467.4c-19.6.2-37.7 0-40.3-.6-4-.7-4.7-5-4.7-29.5v-28.7l-26.9-18.3A208 208 0 0 1 85 363.2 642 642 0 0 1 56 312.3l-22.2-42.1-.9-36.8c-.8-33-.4-37.4 4.6-43.4 4-4.8 8.1-6.5 15.5-6.3 9.1.2 10.1-.5 11.7-8.8 1-5 3.7-10.7 6-12.7 2.4-1.9 8.3-3.5 13.1-3.5 5.8 0 10.6 2.2 14 6.3 2.9 3.5 5.2 9.2 5.2 12.6 0 5.5 1.4 6.3 10.3 6 7.5-.1 11.6 1.5 15.5 6.2 3.8 4.6 5.3 10.9 5.3 22.6v16.2l8.5-1.7c5.5-1 10.9 0 15.5 3 7 4.4 7 5 7 41.1v36.7l15 7.2c8.2 4 19 10.5 24 14.7 5.1 4 12.4 12.8 16.3 19.3 7 11.6 7 12.5 6.3 65l-.8 53.1zm-4.7-4.4 34.6-.8.8-45.6c.5-25 .1-49.5-.8-54.2a59 59 0 0 0-12.8-21.2 102 102 0 0 0-26-19.7c-12.1-6-18.5-7.1-37.8-7.1h-23.2l-17.2-31.6c-11.2-20.4-19.3-32.2-23-33.4-3.8-1.2-7.9 0-11.4 3-3 2.6-5.4 6.4-5.4 8.3 0 2 7.7 17.9 17.2 35.5 9.4 17.6 16.7 33.5 16 35.3-.6 1.8-5.6-4.8-11.2-14.5a1145 1145 0 0 1-19.2-35.7c-8.3-16-8.9-18.8-5.8-26.3a112 112 0 0 0 3.4-30.4c0-12.2 0-24.2-.2-26.9-.1-2.6-2.8-6-6-7.7-4.6-2.4-7.4-2.1-12.8 1.3-6.6 4.3-6.8 5.5-6.8 37 0 18 1.4 37 3.2 42.2 1.8 5.1 12.8 26.8 24.4 48 11.6 21.3 23.2 41 25.7 43.9 2.5 2.8 17 13.8 32.1 24.3l27.6 19.1v58zM126 307.3c1.3-.9 2.5-26.3 2.5-56.6v-55l-7-4.4c-5.3-3.4-8-3.7-12.6-1.3-5.5 2.8-5.9 5.4-5.9 41.9v38.8l10.3 19c5.6 10.5 11.3 18.4 12.7 17.6zm20.8 1.6h12.7V273c0-32.6-.5-36-5.4-38.6-3-1.6-6.8-3-8.3-3-1.5 0-4.8 2-7.3 4.4-3.5 3.5-4.4 11.2-4.4 38.7V309zm-52-55.3c1.4 0 2.6-18.6 2.6-41.3 0-39.5-.3-41.5-6.3-45.6a26.2 26.2 0 0 0-8.5-4.3c-1.2 0-4.7 2.5-7.8 5.5-5 5-5.7 9.3-5.7 39.8v34.2l10 1.9c5.6 1 10.8 3.6 11.7 5.8.8 2.2 2.7 4 4 4zm218.6 212.7h-40.9v-52.7c0-43 .9-54.5 4.6-62.2a91.5 91.5 0 0 1 18.4-21.6c7.6-6.6 19.5-14.4 26.5-17.2l12.7-5.1V270c0-37 .1-37.6 6.9-41.2 4-2 10.5-2.9 15.5-1.9l8.7 1.7v-17.4c0-13.9 1.2-18.6 6-23.7 4.8-5 8-6 15.6-4.8 8.4 1.3 9.5.8 9.5-4.9a27 27 0 0 1 5.8-13.6c3.3-4.1 8.7-7.3 12.4-7.3 3.6 0 9.2 2.2 12.5 4.8 3.4 2.8 6.2 8.7 6.5 13.8.7 8.6 1 8.9 11 7.3 8.9-1.4 11-.6 16.6 6.3 6 7.4 6.2 10 5.3 44l-1 36.2-18 34.2c-10 18.9-22.3 41.1-27.3 49.5-7.2 12.1-14.9 19.3-37 34.7L356 407.2l-.8 29.6-.8 29.5zm.1-5.5h35.3v-55l9.2-7c5-3.8 18.7-13.5 30.3-21.5 21-14.5 21.2-14.8 44.5-57.4a531.6 531.6 0 0 0 26.2-52.5c1.5-5.3 2.8-23.6 2.8-40.5 0-24.5-.9-31.8-4.4-35.3a16.2 16.2 0 0 0-9.5-4.3c-2.9 0-6.7 1.8-8.5 4-2.1 2.4-3.4 13.6-3.5 28.7 0 13.7 1.5 29 3.4 34.2 3.4 9 2.8 10.9-14.3 42.4-9.8 18.1-18.2 33.5-18.7 34.1-.5.7-1.8.4-2.8-.6-1-1 6-16.8 15.7-35 12-22.6 17-35 15.8-38.8-1-3-5-6.2-9-7.2-4.6-1.2-8.6-.2-11.6 2.8-2.6 2.4-11 16.6-18.9 31.4l-14.2 27-28.2 2.9c-18.3 1.9-31.3 4.7-36.8 8-4.6 2.9-13.3 9.7-19.3 15a86.4 86.4 0 0 0-14.8 17.4c-3 5.7-4 19.7-4 57.4v49.8h35.3zm30.7-152a93 93 0 0 0 12.7-1.7l8.9-1.7v-33.6c0-22.5-1.1-34.8-3.4-37-1.9-1.8-6-3.3-9.3-3.3-3.3 0-7.5 1.5-9.4 3.3-2.2 2.2-3.3 14.9-3.3 38.7 0 28.2.7 35.4 3.8 35.4zm29.8-2.7c1.4 0 7.2-8 12.7-17.7l10.2-17.7v-38.4c0-26.2-1.1-39.4-3.4-41.7a13.6 13.6 0 0 0-8.3-3.3 16 16 0 0 0-9.3 4.3c-3.8 3.7-4.5 13-4.5 59.4 0 31.4 1.1 55.1 2.6 55.1zm31-55.3c1.3 0 4-1.8 6-4.1s7.2-4.2 11.6-4.2h8.2v-33.9c0-26.2-1-35.3-4.4-40-2.5-3.4-6.5-6.2-9-6.2s-6.9 2-9.7 4.6c-4.6 4-5.2 9.3-5.2 44.2 0 21.8 1.1 39.6 2.5 39.6zm-257.4-99c-.6 1.7-11.6-10.8-24.4-28a493.3 493.3 0 0 1-25-34.9c-.7-2.1-.3-3.8 1-3.8s13 14.3 26 31.8c13 17.4 23 33.1 22.4 34.9zm217.2 2.2c-1.4 0-1.7-1.9-.7-4.3s11.3-17.3 23.1-33.1a355.9 355.9 0 0 1 24.2-30.4c1.5-1 3.3-1.2 4-.6.6.7-10 16.3-23.6 34.8-13.5 18.4-25.7 33.6-27 33.6zm-176.6-33c-1.6 0-3.5-2.2-4.3-4.9a1060.5 1060.5 0 0 1-13-54.7c0-.7 1.1-1.2 2.5-1.2 1.5 0 5.3 11.5 8.6 25.5 3.4 14.1 6.7 27.8 7.5 30.4.8 2.7.2 4.9-1.3 4.9zm67.4 0c-1.8 0-2.8-16.6-2.8-44.2 0-27.7 1-44.2 2.8-44.2 1.8 0 2.8 16.5 2.8 44.2 0 27.6-1 44.2-2.8 44.2zm70.2-1.5c-1.4 1.5-2.4 1-2.4-1.4 0-2.2 2.8-16.2 6.3-31s7.4-26.9 8.5-26.9c1.2 0 2.2 1.9 2.2 4.2 0 2.4-2.8 15.1-6 28.4a140.6 140.6 0 0 1-8.6 26.7z" style="fill:#000;stroke:#000;stroke-width:11.33858268;stroke-miterlimit:4;stroke-dasharray:none;stroke-opacity:1"/></svg>